G04*
G04 #@! TF.GenerationSoftware,Altium Limited,Altium Designer,24.10.1 (45)*
G04*
G04 Layer_Physical_Order=2*
G04 Layer_Color=36540*
%FSLAX25Y25*%
%MOIN*%
G70*
G04*
G04 #@! TF.SameCoordinates,7D61CDC6-73F6-4491-BD7D-58E7267C6A93*
G04*
G04*
G04 #@! TF.FilePolarity,Positive*
G04*
G01*
G75*
%ADD24C,0.07087*%
%ADD25R,0.07087X0.07087*%
%ADD26R,0.07087X0.07087*%
%ADD27C,0.25591*%
%ADD28C,0.02362*%
G36*
X107365Y105767D02*
X106794Y105581D01*
X104818Y104574D01*
X103023Y103270D01*
X101454Y101702D01*
X100150Y99907D01*
X99143Y97930D01*
X98457Y95820D01*
X98110Y93629D01*
Y91410D01*
X98457Y89219D01*
X99143Y87109D01*
X100150Y85133D01*
X101454Y83338D01*
X103023Y81769D01*
X104818Y80465D01*
X106794Y79458D01*
X108904Y78772D01*
X111095Y78425D01*
X113314D01*
X115505Y78772D01*
X117615Y79458D01*
X119592Y80465D01*
X121387Y81769D01*
X122955Y83338D01*
X124259Y85133D01*
X125267Y87109D01*
X125452Y87680D01*
X125946Y87601D01*
X125946Y20666D01*
X125452Y20588D01*
X125267Y21158D01*
X124259Y23135D01*
X122955Y24930D01*
X121387Y26499D01*
X119592Y27803D01*
X117615Y28810D01*
X115505Y29495D01*
X113314Y29842D01*
X111095D01*
X108904Y29495D01*
X106794Y28810D01*
X104818Y27803D01*
X103023Y26499D01*
X101454Y24930D01*
X100150Y23135D01*
X99143Y21158D01*
X98457Y19049D01*
X98110Y16857D01*
Y14639D01*
X98457Y12448D01*
X99143Y10338D01*
X100150Y8361D01*
X101454Y6566D01*
X103023Y4997D01*
X104818Y3693D01*
X106794Y2686D01*
X107365Y2501D01*
X107286Y2007D01*
X15364D01*
X14611Y2157D01*
X13901Y2451D01*
X13263Y2877D01*
X12720Y3420D01*
X12293Y4059D01*
X11999Y4768D01*
X11850Y5522D01*
X11850Y5906D01*
Y102362D01*
Y102746D01*
X11999Y103499D01*
X12293Y104209D01*
X12720Y104847D01*
X13263Y105390D01*
X13901Y105817D01*
X14611Y106111D01*
X15364Y106261D01*
X107286D01*
X107365Y105767D01*
D02*
G37*
%LPC*%
G36*
X76267Y104252D02*
X74992D01*
X73761Y103922D01*
X72657Y103284D01*
X71755Y102383D01*
X71117Y101279D01*
X70889Y100425D01*
X70371D01*
X70142Y101279D01*
X69505Y102383D01*
X68603Y103284D01*
X67499Y103922D01*
X66267Y104252D01*
X64992D01*
X63761Y103922D01*
X62657Y103284D01*
X61755Y102383D01*
X61117Y101279D01*
X60889Y100425D01*
X60371D01*
X60142Y101279D01*
X59505Y102383D01*
X58603Y103284D01*
X57499Y103922D01*
X56267Y104252D01*
X54992D01*
X53761Y103922D01*
X52657Y103284D01*
X51755Y102383D01*
X51117Y101279D01*
X50889Y100425D01*
X50371D01*
X50142Y101279D01*
X49505Y102383D01*
X48603Y103284D01*
X47499Y103922D01*
X46268Y104252D01*
X44992D01*
X43761Y103922D01*
X42656Y103284D01*
X41755Y102383D01*
X41117Y101279D01*
X40972Y100738D01*
X40472Y100803D01*
Y104252D01*
X30787D01*
Y94567D01*
X40472D01*
Y98016D01*
X40972Y98081D01*
X41117Y97540D01*
X41755Y96436D01*
X42656Y95534D01*
X43761Y94897D01*
X44992Y94567D01*
X46268D01*
X47499Y94897D01*
X48603Y95534D01*
X49505Y96436D01*
X50142Y97540D01*
X50371Y98394D01*
X50889D01*
X51117Y97540D01*
X51755Y96436D01*
X52657Y95534D01*
X53761Y94897D01*
X54992Y94567D01*
X56267D01*
X57499Y94897D01*
X58603Y95534D01*
X59505Y96436D01*
X60142Y97540D01*
X60371Y98394D01*
X60889D01*
X61117Y97540D01*
X61755Y96436D01*
X62657Y95534D01*
X63761Y94897D01*
X64992Y94567D01*
X66267D01*
X67499Y94897D01*
X68603Y95534D01*
X69505Y96436D01*
X70142Y97540D01*
X70371Y98394D01*
X70889D01*
X71117Y97540D01*
X71755Y96436D01*
X72657Y95534D01*
X73761Y94897D01*
X74992Y94567D01*
X76267D01*
X77499Y94897D01*
X78603Y95534D01*
X79505Y96436D01*
X80142Y97540D01*
X80472Y98772D01*
Y100047D01*
X80142Y101279D01*
X79505Y102383D01*
X78603Y103284D01*
X77499Y103922D01*
X76267Y104252D01*
D02*
G37*
G36*
X86228Y103953D02*
X86130D01*
Y99910D01*
X90173D01*
Y100008D01*
X89864Y101163D01*
X89266Y102199D01*
X88420Y103045D01*
X87384Y103643D01*
X86228Y103953D01*
D02*
G37*
G36*
X85130D02*
X85032D01*
X83876Y103643D01*
X82840Y103045D01*
X81994Y102199D01*
X81396Y101163D01*
X81087Y100008D01*
Y99910D01*
X85130D01*
Y103953D01*
D02*
G37*
G36*
X90173Y98909D02*
X86130D01*
Y94866D01*
X86228D01*
X87384Y95176D01*
X88420Y95774D01*
X89266Y96620D01*
X89864Y97656D01*
X90173Y98811D01*
Y98909D01*
D02*
G37*
G36*
X85130D02*
X81087D01*
Y98811D01*
X81396Y97656D01*
X81994Y96620D01*
X82840Y95774D01*
X83876Y95176D01*
X85032Y94866D01*
X85130D01*
Y98909D01*
D02*
G37*
G36*
X107520Y75016D02*
X106653D01*
X105851Y74684D01*
X105238Y74070D01*
X104905Y73269D01*
Y72401D01*
X105238Y71599D01*
X105851Y70986D01*
X106653Y70653D01*
X107520D01*
X108322Y70986D01*
X108936Y71599D01*
X109268Y72401D01*
Y73269D01*
X108936Y74070D01*
X108322Y74684D01*
X107520Y75016D01*
D02*
G37*
G36*
X52009Y63992D02*
X51141D01*
X50339Y63660D01*
X49726Y63046D01*
X49394Y62245D01*
Y61377D01*
X49726Y60575D01*
X50339Y59962D01*
X51141Y59630D01*
X52009D01*
X52810Y59962D01*
X53424Y60575D01*
X53756Y61377D01*
Y62245D01*
X53424Y63046D01*
X52810Y63660D01*
X52009Y63992D01*
D02*
G37*
G36*
X122087Y66354D02*
X121220D01*
X120418Y66022D01*
X119805Y65409D01*
X119472Y64607D01*
Y63739D01*
X119805Y62938D01*
X120211Y62531D01*
X120363Y62205D01*
X120211Y61878D01*
X119805Y61472D01*
X119472Y60670D01*
Y59802D01*
X119805Y59001D01*
X120418Y58387D01*
X121220Y58055D01*
X122087D01*
X122889Y58387D01*
X123503Y59001D01*
X123835Y59802D01*
Y60670D01*
X123503Y61472D01*
X123096Y61878D01*
X122944Y62205D01*
X123096Y62531D01*
X123503Y62938D01*
X123835Y63739D01*
Y64607D01*
X123503Y65409D01*
X122889Y66022D01*
X122087Y66354D01*
D02*
G37*
G36*
X95316Y60366D02*
X94448D01*
X93646Y60034D01*
X93033Y59421D01*
X92701Y58619D01*
Y57751D01*
X93033Y56950D01*
X93646Y56336D01*
X94448Y56004D01*
X95316D01*
X96117Y56336D01*
X96731Y56950D01*
X97063Y57751D01*
Y58619D01*
X96731Y59421D01*
X96117Y60034D01*
X95316Y60366D01*
D02*
G37*
G36*
X20323Y85039D02*
X19048D01*
X17816Y84709D01*
X16712Y84072D01*
X15810Y83170D01*
X15173Y82066D01*
X14842Y80834D01*
Y79559D01*
X15173Y78328D01*
X15810Y77223D01*
X16712Y76322D01*
X17816Y75684D01*
X18669Y75456D01*
Y74938D01*
X17816Y74709D01*
X16712Y74072D01*
X15810Y73170D01*
X15173Y72066D01*
X14842Y70834D01*
Y69559D01*
X15173Y68328D01*
X15810Y67224D01*
X16712Y66322D01*
X17816Y65684D01*
X18669Y65456D01*
Y64938D01*
X17816Y64709D01*
X16712Y64072D01*
X15810Y63170D01*
X15173Y62066D01*
X14842Y60834D01*
Y59559D01*
X15173Y58328D01*
X15810Y57223D01*
X16712Y56322D01*
X17816Y55684D01*
X19048Y55354D01*
X20323D01*
X21554Y55684D01*
X22658Y56322D01*
X23560Y57223D01*
X24198Y58328D01*
X24528Y59559D01*
Y60834D01*
X24198Y62066D01*
X23560Y63170D01*
X22658Y64072D01*
X21554Y64709D01*
X20701Y64938D01*
Y65456D01*
X21554Y65684D01*
X22658Y66322D01*
X23560Y67224D01*
X24198Y68328D01*
X24528Y69559D01*
Y70834D01*
X24198Y72066D01*
X23560Y73170D01*
X22658Y74072D01*
X21554Y74709D01*
X20701Y74938D01*
Y75456D01*
X21554Y75684D01*
X22658Y76322D01*
X23560Y77223D01*
X24198Y78328D01*
X24528Y79559D01*
Y80834D01*
X24198Y82066D01*
X23560Y83170D01*
X22658Y84072D01*
X21554Y84709D01*
X20323Y85039D01*
D02*
G37*
G36*
X20283Y54740D02*
X20185D01*
Y50697D01*
X24228D01*
Y50795D01*
X23919Y51951D01*
X23321Y52987D01*
X22475Y53832D01*
X21439Y54431D01*
X20283Y54740D01*
D02*
G37*
G36*
X19185D02*
X19087D01*
X17931Y54431D01*
X16895Y53832D01*
X16049Y52987D01*
X15451Y51951D01*
X15142Y50795D01*
Y50697D01*
X19185D01*
Y54740D01*
D02*
G37*
G36*
X24228Y49697D02*
X20185D01*
Y45654D01*
X20283D01*
X21439Y45963D01*
X22475Y46561D01*
X23321Y47407D01*
X23919Y48443D01*
X24228Y49599D01*
Y49697D01*
D02*
G37*
G36*
X19185D02*
X15142D01*
Y49599D01*
X15451Y48443D01*
X16049Y47407D01*
X16895Y46561D01*
X17931Y45963D01*
X19087Y45654D01*
X19185D01*
Y49697D01*
D02*
G37*
G36*
X112245Y46276D02*
X111377D01*
X110575Y45943D01*
X110169Y45537D01*
X109843Y45386D01*
X109516Y45537D01*
X109109Y45943D01*
X108308Y46276D01*
X107440D01*
X106639Y45943D01*
X106025Y45330D01*
X105693Y44528D01*
Y43661D01*
X106025Y42859D01*
X106639Y42245D01*
X107440Y41913D01*
X108308D01*
X109109Y42245D01*
X109516Y42652D01*
X109843Y42803D01*
X110169Y42652D01*
X110575Y42245D01*
X111377Y41913D01*
X112245D01*
X113047Y42245D01*
X113660Y42859D01*
X113992Y43661D01*
Y44528D01*
X113660Y45330D01*
X113047Y45943D01*
X112245Y46276D01*
D02*
G37*
G36*
X20283Y44740D02*
X20185D01*
Y40697D01*
X24228D01*
Y40795D01*
X23919Y41951D01*
X23321Y42987D01*
X22475Y43832D01*
X21439Y44431D01*
X20283Y44740D01*
D02*
G37*
G36*
X19185D02*
X19087D01*
X17931Y44431D01*
X16895Y43832D01*
X16049Y42987D01*
X15451Y41951D01*
X15142Y40795D01*
Y40697D01*
X19185D01*
Y44740D01*
D02*
G37*
G36*
X24228Y39697D02*
X20185D01*
Y35653D01*
X20283D01*
X21439Y35963D01*
X22475Y36561D01*
X23321Y37407D01*
X23919Y38443D01*
X24228Y39599D01*
Y39697D01*
D02*
G37*
G36*
X19185D02*
X15142D01*
Y39599D01*
X15451Y38443D01*
X16049Y37407D01*
X16895Y36561D01*
X17931Y35963D01*
X19087Y35653D01*
X19185D01*
Y39697D01*
D02*
G37*
G36*
X20323Y35039D02*
X19048D01*
X17816Y34709D01*
X16712Y34072D01*
X15810Y33170D01*
X15173Y32066D01*
X14842Y30834D01*
Y29559D01*
X15173Y28328D01*
X15810Y27224D01*
X16712Y26322D01*
X17816Y25684D01*
X18669Y25456D01*
Y24938D01*
X17816Y24709D01*
X16712Y24072D01*
X15810Y23170D01*
X15173Y22066D01*
X14842Y20834D01*
Y19559D01*
X15173Y18328D01*
X15810Y17223D01*
X16712Y16322D01*
X17816Y15684D01*
X18357Y15539D01*
X18291Y15039D01*
X14842D01*
Y5354D01*
X24528D01*
Y15039D01*
X21079D01*
X21013Y15539D01*
X21554Y15684D01*
X22658Y16322D01*
X23560Y17223D01*
X24198Y18328D01*
X24528Y19559D01*
Y20834D01*
X24198Y22066D01*
X23560Y23170D01*
X22658Y24072D01*
X21554Y24709D01*
X20701Y24938D01*
Y25456D01*
X21554Y25684D01*
X22658Y26322D01*
X23560Y27224D01*
X24198Y28328D01*
X24528Y29559D01*
Y30834D01*
X24198Y32066D01*
X23560Y33170D01*
X22658Y34072D01*
X21554Y34709D01*
X20323Y35039D01*
D02*
G37*
%LPD*%
D24*
X19685Y80197D02*
D03*
Y70197D02*
D03*
Y30197D02*
D03*
Y20197D02*
D03*
Y40197D02*
D03*
Y50197D02*
D03*
Y60197D02*
D03*
X85630Y99410D02*
D03*
X75630D02*
D03*
X65630D02*
D03*
X45630D02*
D03*
X55630D02*
D03*
D25*
X19685Y10197D02*
D03*
D26*
X35630Y99410D02*
D03*
D27*
X112205Y15748D02*
D03*
Y92520D02*
D03*
D28*
X107874Y44094D02*
D03*
X120472D02*
D03*
X121653Y51968D02*
D03*
Y64173D02*
D03*
X51575Y61811D02*
D03*
X116535Y44094D02*
D03*
X111811D02*
D03*
X121653Y60236D02*
D03*
Y55905D02*
D03*
X94882Y58185D02*
D03*
X107087Y72835D02*
D03*
X66535Y29528D02*
D03*
Y35433D02*
D03*
X83858Y55512D02*
D03*
Y52756D02*
D03*
X66535Y47244D02*
D03*
Y53150D02*
D03*
X112205Y6083D02*
D03*
X102362Y15925D02*
D03*
X122047D02*
D03*
X112205Y25768D02*
D03*
X119164Y8965D02*
D03*
X105245D02*
D03*
X119164Y22885D02*
D03*
X105245D02*
D03*
X112205Y82677D02*
D03*
X102362Y92520D02*
D03*
X122047D02*
D03*
X112205Y102362D02*
D03*
X119164Y85560D02*
D03*
X105245D02*
D03*
X119164Y99479D02*
D03*
X105245D02*
D03*
M02*
