G04*
G04 #@! TF.GenerationSoftware,Altium Limited,Altium Designer,24.10.1 (45)*
G04*
G04 Layer_Color=8388736*
%FSLAX25Y25*%
%MOIN*%
G70*
G04*
G04 #@! TF.SameCoordinates,7D61CDC6-73F6-4491-BD7D-58E7267C6A93*
G04*
G04*
G04 #@! TF.FilePolarity,Negative*
G04*
G01*
G75*
G04:AMPARAMS|DCode=17|XSize=49.21mil|YSize=41.34mil|CornerRadius=5.61mil|HoleSize=0mil|Usage=FLASHONLY|Rotation=90.000|XOffset=0mil|YOffset=0mil|HoleType=Round|Shape=RoundedRectangle|*
%AMROUNDEDRECTD17*
21,1,0.04921,0.03012,0,0,90.0*
21,1,0.03799,0.04134,0,0,90.0*
1,1,0.01122,0.01506,0.01900*
1,1,0.01122,0.01506,-0.01900*
1,1,0.01122,-0.01506,-0.01900*
1,1,0.01122,-0.01506,0.01900*
%
%ADD17ROUNDEDRECTD17*%
G04:AMPARAMS|DCode=18|XSize=49.21mil|YSize=41.34mil|CornerRadius=6.5mil|HoleSize=0mil|Usage=FLASHONLY|Rotation=270.000|XOffset=0mil|YOffset=0mil|HoleType=Round|Shape=RoundedRectangle|*
%AMROUNDEDRECTD18*
21,1,0.04921,0.02835,0,0,270.0*
21,1,0.03622,0.04134,0,0,270.0*
1,1,0.01299,-0.01417,-0.01811*
1,1,0.01299,-0.01417,0.01811*
1,1,0.01299,0.01417,0.01811*
1,1,0.01299,0.01417,-0.01811*
%
%ADD18ROUNDEDRECTD18*%
G04:AMPARAMS|DCode=19|XSize=62.99mil|YSize=19.68mil|CornerRadius=3.94mil|HoleSize=0mil|Usage=FLASHONLY|Rotation=0.000|XOffset=0mil|YOffset=0mil|HoleType=Round|Shape=RoundedRectangle|*
%AMROUNDEDRECTD19*
21,1,0.06299,0.01181,0,0,0.0*
21,1,0.05512,0.01968,0,0,0.0*
1,1,0.00787,0.02756,-0.00591*
1,1,0.00787,-0.02756,-0.00591*
1,1,0.00787,-0.02756,0.00591*
1,1,0.00787,0.02756,0.00591*
%
%ADD19ROUNDEDRECTD19*%
%ADD20C,0.07677*%
%ADD21R,0.07677X0.07677*%
%ADD22R,0.07677X0.07677*%
%ADD23C,0.26181*%
D17*
X62205Y62008D02*
D03*
X55905D02*
D03*
X117323Y72835D02*
D03*
X111024D02*
D03*
X117323Y66929D02*
D03*
X111024D02*
D03*
X117323Y61024D02*
D03*
X111024D02*
D03*
X50394Y29528D02*
D03*
X44094D02*
D03*
X50394Y35433D02*
D03*
X44094D02*
D03*
X50591Y47244D02*
D03*
X44291D02*
D03*
X50591Y53150D02*
D03*
X44291D02*
D03*
D18*
X56102Y29528D02*
D03*
X62402D02*
D03*
X55905Y35433D02*
D03*
X62205D02*
D03*
X56102Y47244D02*
D03*
X62402D02*
D03*
X56102Y53150D02*
D03*
X62402D02*
D03*
X111024Y49213D02*
D03*
X117323D02*
D03*
X111024Y55118D02*
D03*
X117323D02*
D03*
D19*
X100984Y63090D02*
D03*
Y60532D02*
D03*
Y57972D02*
D03*
Y55413D02*
D03*
Y52854D02*
D03*
Y50295D02*
D03*
Y47736D02*
D03*
Y45177D02*
D03*
X78150D02*
D03*
Y47736D02*
D03*
Y50295D02*
D03*
Y52854D02*
D03*
Y55413D02*
D03*
Y57972D02*
D03*
Y60532D02*
D03*
Y63090D02*
D03*
D20*
X19685Y80197D02*
D03*
Y70197D02*
D03*
Y30197D02*
D03*
Y20197D02*
D03*
Y40197D02*
D03*
Y50197D02*
D03*
Y60197D02*
D03*
X85630Y99410D02*
D03*
X75630D02*
D03*
X65630D02*
D03*
X45630D02*
D03*
X55630D02*
D03*
D21*
X19685Y10197D02*
D03*
D22*
X35630Y99410D02*
D03*
D23*
X112205Y15748D02*
D03*
Y92520D02*
D03*
M02*
