G04*
G04 #@! TF.GenerationSoftware,Altium Limited,Altium Designer,24.10.1 (45)*
G04*
G04 Layer_Color=65535*
%FSLAX25Y25*%
%MOIN*%
G70*
G04*
G04 #@! TF.SameCoordinates,7D61CDC6-73F6-4491-BD7D-58E7267C6A93*
G04*
G04*
G04 #@! TF.FilePolarity,Positive*
G04*
G01*
G75*
%ADD10C,0.01181*%
%ADD11C,0.01575*%
%ADD12C,0.00787*%
%ADD13C,0.01000*%
G36*
X25984Y10354D02*
X29921Y6417D01*
Y14291D01*
X25984Y10354D01*
D02*
G37*
G36*
X35787Y93110D02*
X31850Y89173D01*
X39724D01*
X35787Y93110D01*
D02*
G37*
G36*
X31840Y16575D02*
X27215D01*
Y73819D01*
X31840D01*
Y16575D01*
D02*
G37*
G36*
X88346Y87183D02*
X42756D01*
Y91950D01*
X88346D01*
Y87183D01*
D02*
G37*
G36*
X89324Y66451D02*
Y66446D01*
Y66440D01*
Y66408D01*
X89319Y66359D01*
X89313Y66293D01*
X89308Y66217D01*
X89291Y66140D01*
X89275Y66053D01*
X89248Y65971D01*
X89242Y65960D01*
X89231Y65938D01*
X89215Y65895D01*
X89193Y65845D01*
X89160Y65791D01*
X89122Y65725D01*
X89078Y65665D01*
X89024Y65605D01*
X89018Y65600D01*
X88996Y65583D01*
X88969Y65556D01*
X88925Y65523D01*
X88876Y65485D01*
X88816Y65447D01*
X88745Y65408D01*
X88669Y65376D01*
X88658Y65370D01*
X88630Y65365D01*
X88587Y65349D01*
X88532Y65338D01*
X88461Y65321D01*
X88379Y65305D01*
X88287Y65299D01*
X88188Y65294D01*
X88139D01*
X88085Y65299D01*
X88014Y65305D01*
X87932Y65310D01*
X87850Y65327D01*
X87762Y65343D01*
X87681Y65370D01*
X87670Y65376D01*
X87648Y65387D01*
X87609Y65403D01*
X87560Y65425D01*
X87506Y65458D01*
X87451Y65496D01*
X87397Y65540D01*
X87342Y65589D01*
X87336Y65594D01*
X87320Y65616D01*
X87298Y65649D01*
X87271Y65687D01*
X87238Y65742D01*
X87205Y65796D01*
X87178Y65867D01*
X87151Y65938D01*
Y65949D01*
X87140Y65976D01*
X87134Y66015D01*
X87124Y66069D01*
X87113Y66135D01*
X87102Y66211D01*
X87096Y66299D01*
X87091Y66386D01*
Y68548D01*
X87528D01*
Y66419D01*
Y66413D01*
Y66386D01*
Y66353D01*
X87533Y66309D01*
Y66255D01*
X87544Y66200D01*
X87560Y66091D01*
Y66086D01*
X87566Y66069D01*
X87577Y66042D01*
X87588Y66009D01*
X87626Y65933D01*
X87675Y65851D01*
X87681Y65845D01*
X87691Y65834D01*
X87708Y65818D01*
X87735Y65796D01*
X87762Y65774D01*
X87801Y65753D01*
X87888Y65709D01*
X87893D01*
X87910Y65703D01*
X87937Y65692D01*
X87975Y65687D01*
X88024Y65676D01*
X88079Y65665D01*
X88139Y65660D01*
X88237D01*
X88265Y65665D01*
X88325Y65671D01*
X88401Y65687D01*
X88483Y65709D01*
X88570Y65742D01*
X88647Y65791D01*
X88718Y65856D01*
X88723Y65867D01*
X88745Y65895D01*
X88772Y65938D01*
X88805Y66004D01*
X88833Y66086D01*
X88860Y66184D01*
X88882Y66293D01*
X88887Y66424D01*
Y68548D01*
X89324D01*
Y66451D01*
D02*
G37*
G36*
X91328Y65736D02*
X92043D01*
Y65338D01*
X90028D01*
Y65736D01*
X90853D01*
Y68079D01*
X90083Y67664D01*
X89930Y68029D01*
X90946Y68564D01*
X91328D01*
Y65736D01*
D02*
G37*
G36*
X125090Y74090D02*
X123763D01*
Y73190D01*
X124124D01*
X124183Y73184D01*
X124255Y73179D01*
X124326Y73173D01*
X124489Y73146D01*
X124500D01*
X124528Y73135D01*
X124571Y73124D01*
X124620Y73113D01*
X124686Y73091D01*
X124751Y73064D01*
X124817Y73037D01*
X124882Y72998D01*
X124888Y72993D01*
X124910Y72982D01*
X124943Y72955D01*
X124981Y72927D01*
X125024Y72884D01*
X125068Y72840D01*
X125112Y72780D01*
X125155Y72720D01*
X125161Y72715D01*
X125172Y72687D01*
X125188Y72649D01*
X125210Y72600D01*
X125232Y72534D01*
X125248Y72458D01*
X125259Y72376D01*
X125265Y72278D01*
Y72267D01*
Y72240D01*
X125259Y72190D01*
X125254Y72136D01*
X125237Y72065D01*
X125221Y71994D01*
X125194Y71917D01*
X125161Y71841D01*
X125155Y71830D01*
X125145Y71808D01*
X125117Y71770D01*
X125084Y71726D01*
X125046Y71672D01*
X124997Y71617D01*
X124937Y71557D01*
X124872Y71502D01*
X124866Y71497D01*
X124839Y71481D01*
X124801Y71453D01*
X124751Y71421D01*
X124686Y71388D01*
X124615Y71350D01*
X124533Y71317D01*
X124446Y71284D01*
X124435Y71279D01*
X124402Y71273D01*
X124353Y71262D01*
X124287Y71246D01*
X124211Y71229D01*
X124118Y71219D01*
X124020Y71213D01*
X123916Y71208D01*
X123823D01*
X123763Y71213D01*
X123730D01*
X123714Y71219D01*
X123659D01*
X123599Y71224D01*
X123572D01*
X123550Y71229D01*
X123496Y71235D01*
X123441Y71240D01*
X123430D01*
X123397Y71246D01*
X123354D01*
X123304Y71251D01*
Y71639D01*
X123310D01*
X123326Y71633D01*
X123354Y71628D01*
X123392Y71623D01*
X123435Y71612D01*
X123485Y71606D01*
X123545Y71595D01*
X123605Y71590D01*
X123637D01*
X123670Y71584D01*
X123769D01*
X123829Y71579D01*
X124025D01*
X124074Y71584D01*
X124124Y71590D01*
X124183Y71595D01*
X124304Y71623D01*
X124309D01*
X124331Y71633D01*
X124358Y71644D01*
X124397Y71661D01*
X124484Y71699D01*
X124571Y71759D01*
X124577Y71764D01*
X124588Y71775D01*
X124609Y71792D01*
X124637Y71819D01*
X124664Y71846D01*
X124691Y71885D01*
X124746Y71966D01*
X124751Y71972D01*
X124757Y71988D01*
X124768Y72016D01*
X124779Y72048D01*
X124790Y72092D01*
X124795Y72141D01*
X124806Y72190D01*
Y72250D01*
Y72256D01*
Y72261D01*
Y72278D01*
X124801Y72300D01*
X124795Y72349D01*
X124779Y72414D01*
X124751Y72485D01*
X124713Y72556D01*
X124659Y72622D01*
X124588Y72682D01*
X124577Y72687D01*
X124549Y72704D01*
X124500Y72725D01*
X124429Y72753D01*
X124342Y72780D01*
X124233Y72802D01*
X124107Y72818D01*
X123965Y72824D01*
X123359D01*
Y74462D01*
X125090D01*
Y74090D01*
D02*
G37*
G36*
X121475Y74456D02*
X121541D01*
X121617Y74445D01*
X121699Y74434D01*
X121781Y74418D01*
X121858Y74396D01*
X121869D01*
X121890Y74385D01*
X121929Y74369D01*
X121972Y74353D01*
X122027Y74331D01*
X122081Y74298D01*
X122136Y74265D01*
X122185Y74227D01*
X122191Y74221D01*
X122207Y74205D01*
X122229Y74183D01*
X122256Y74151D01*
X122289Y74112D01*
X122322Y74069D01*
X122349Y74014D01*
X122376Y73959D01*
X122382Y73954D01*
X122387Y73932D01*
X122398Y73899D01*
X122409Y73856D01*
X122420Y73807D01*
X122431Y73747D01*
X122442Y73686D01*
Y73615D01*
Y73610D01*
Y73588D01*
Y73561D01*
X122436Y73523D01*
X122431Y73479D01*
X122420Y73430D01*
X122393Y73326D01*
Y73321D01*
X122387Y73304D01*
X122376Y73277D01*
X122360Y73250D01*
X122322Y73168D01*
X122262Y73086D01*
X122256Y73080D01*
X122245Y73069D01*
X122229Y73048D01*
X122202Y73020D01*
X122169Y72993D01*
X122131Y72960D01*
X122043Y72895D01*
X122038Y72889D01*
X122021Y72884D01*
X121994Y72867D01*
X121961Y72851D01*
X121918Y72835D01*
X121869Y72813D01*
X121808Y72796D01*
X121748Y72780D01*
X121754D01*
X121770Y72769D01*
X121798Y72758D01*
X121830Y72742D01*
X121863Y72720D01*
X121901Y72687D01*
X121940Y72654D01*
X121978Y72611D01*
X121983Y72605D01*
X121994Y72589D01*
X122016Y72567D01*
X122038Y72529D01*
X122071Y72485D01*
X122103Y72436D01*
X122136Y72371D01*
X122174Y72305D01*
X122687Y71251D01*
X122191D01*
X121710Y72278D01*
Y72283D01*
X121699Y72300D01*
X121688Y72316D01*
X121677Y72343D01*
X121639Y72409D01*
X121596Y72469D01*
Y72474D01*
X121585Y72485D01*
X121563Y72518D01*
X121525Y72556D01*
X121475Y72594D01*
X121470D01*
X121465Y72600D01*
X121432Y72622D01*
X121388Y72638D01*
X121333Y72660D01*
X121328D01*
X121323Y72665D01*
X121306D01*
X121284Y72671D01*
X121230Y72676D01*
X121159Y72682D01*
X120957D01*
Y71251D01*
X120520D01*
Y74462D01*
X121426D01*
X121475Y74456D01*
D02*
G37*
G36*
X39807Y54749D02*
X39867Y54744D01*
X39938Y54733D01*
X40020Y54722D01*
X40107Y54706D01*
X40194Y54684D01*
X40287Y54662D01*
X40380Y54629D01*
X40473Y54591D01*
X40566Y54547D01*
X40653Y54493D01*
X40735Y54438D01*
X40806Y54367D01*
X40811Y54362D01*
X40822Y54351D01*
X40839Y54329D01*
X40866Y54296D01*
X40893Y54252D01*
X40926Y54203D01*
X40959Y54143D01*
X40992Y54072D01*
X41024Y53996D01*
X41063Y53909D01*
X41090Y53810D01*
X41117Y53707D01*
X41144Y53586D01*
X41161Y53461D01*
X41172Y53330D01*
X41177Y53182D01*
Y53171D01*
Y53144D01*
Y53101D01*
X41172Y53040D01*
X41166Y52975D01*
X41161Y52899D01*
X41139Y52740D01*
Y52729D01*
X41133Y52702D01*
X41123Y52664D01*
X41112Y52609D01*
X41095Y52549D01*
X41073Y52483D01*
X41024Y52347D01*
X41019Y52342D01*
X41008Y52314D01*
X40992Y52281D01*
X40970Y52238D01*
X40942Y52189D01*
X40910Y52129D01*
X40822Y52014D01*
X40817Y52008D01*
X40800Y51992D01*
X40773Y51959D01*
X40735Y51927D01*
X40691Y51888D01*
X40637Y51845D01*
X40577Y51801D01*
X40511Y51763D01*
X40506Y51757D01*
X40478Y51746D01*
X40440Y51724D01*
X40391Y51703D01*
X40331Y51675D01*
X40260Y51648D01*
X40178Y51621D01*
X40091Y51599D01*
X40080D01*
X40047Y51588D01*
X39998Y51583D01*
X39932Y51572D01*
X39850Y51561D01*
X39758Y51555D01*
X39654Y51544D01*
X38857D01*
Y54755D01*
X39752D01*
X39807Y54749D01*
D02*
G37*
G36*
X37907Y52631D02*
X38458D01*
Y52254D01*
X37907D01*
Y51544D01*
X37470D01*
Y52254D01*
X35925D01*
Y52631D01*
X37290Y54755D01*
X37907D01*
Y52631D01*
D02*
G37*
G36*
X34429Y54749D02*
X34494D01*
X34571Y54738D01*
X34653Y54728D01*
X34734Y54711D01*
X34811Y54689D01*
X34822D01*
X34844Y54678D01*
X34882Y54662D01*
X34925Y54646D01*
X34980Y54624D01*
X35035Y54591D01*
X35089Y54558D01*
X35138Y54520D01*
X35144Y54515D01*
X35160Y54498D01*
X35182Y54476D01*
X35209Y54444D01*
X35242Y54405D01*
X35275Y54362D01*
X35302Y54307D01*
X35329Y54252D01*
X35335Y54247D01*
X35340Y54225D01*
X35351Y54193D01*
X35362Y54149D01*
X35373Y54100D01*
X35384Y54040D01*
X35395Y53979D01*
Y53909D01*
Y53903D01*
Y53881D01*
Y53854D01*
X35390Y53816D01*
X35384Y53772D01*
X35373Y53723D01*
X35346Y53619D01*
Y53614D01*
X35340Y53597D01*
X35329Y53570D01*
X35313Y53543D01*
X35275Y53461D01*
X35215Y53379D01*
X35209Y53373D01*
X35199Y53363D01*
X35182Y53341D01*
X35155Y53313D01*
X35122Y53286D01*
X35084Y53253D01*
X34996Y53188D01*
X34991Y53182D01*
X34975Y53177D01*
X34947Y53161D01*
X34914Y53144D01*
X34871Y53128D01*
X34822Y53106D01*
X34762Y53089D01*
X34702Y53073D01*
X34707D01*
X34723Y53062D01*
X34751Y53051D01*
X34784Y53035D01*
X34816Y53013D01*
X34855Y52980D01*
X34893Y52948D01*
X34931Y52904D01*
X34936Y52899D01*
X34947Y52882D01*
X34969Y52860D01*
X34991Y52822D01*
X35024Y52778D01*
X35056Y52729D01*
X35089Y52664D01*
X35127Y52598D01*
X35641Y51544D01*
X35144D01*
X34663Y52571D01*
Y52576D01*
X34653Y52593D01*
X34642Y52609D01*
X34631Y52636D01*
X34592Y52702D01*
X34549Y52762D01*
Y52767D01*
X34538Y52778D01*
X34516Y52811D01*
X34478Y52849D01*
X34429Y52887D01*
X34423D01*
X34418Y52893D01*
X34385Y52915D01*
X34341Y52931D01*
X34287Y52953D01*
X34281D01*
X34276Y52959D01*
X34259D01*
X34238Y52964D01*
X34183Y52969D01*
X34112Y52975D01*
X33910D01*
Y51544D01*
X33473D01*
Y54755D01*
X34380D01*
X34429Y54749D01*
D02*
G37*
G36*
X40385Y48885D02*
X40451Y48879D01*
X40516Y48874D01*
X40664Y48852D01*
X40675D01*
X40697Y48847D01*
X40735Y48836D01*
X40784Y48825D01*
X40839Y48808D01*
X40899Y48787D01*
X41035Y48737D01*
Y48306D01*
X41030Y48311D01*
X41002Y48322D01*
X40970Y48339D01*
X40920Y48361D01*
X40866Y48382D01*
X40806Y48404D01*
X40669Y48448D01*
X40659D01*
X40637Y48459D01*
X40598Y48464D01*
X40549Y48475D01*
X40489Y48486D01*
X40418Y48492D01*
X40342Y48503D01*
X40222D01*
X40178Y48497D01*
X40123Y48492D01*
X40063Y48481D01*
X39992Y48464D01*
X39921Y48443D01*
X39850Y48415D01*
X39845Y48410D01*
X39823Y48399D01*
X39785Y48377D01*
X39747Y48350D01*
X39698Y48317D01*
X39643Y48273D01*
X39588Y48224D01*
X39539Y48164D01*
X39534Y48159D01*
X39517Y48137D01*
X39496Y48104D01*
X39468Y48055D01*
X39435Y48000D01*
X39403Y47929D01*
X39370Y47853D01*
X39343Y47771D01*
Y47760D01*
X39332Y47733D01*
X39321Y47684D01*
X39310Y47618D01*
X39299Y47542D01*
X39288Y47454D01*
X39283Y47356D01*
X39277Y47247D01*
Y47241D01*
Y47219D01*
Y47187D01*
X39283Y47143D01*
Y47094D01*
X39288Y47034D01*
X39299Y46968D01*
X39310Y46897D01*
X39337Y46744D01*
X39381Y46586D01*
X39446Y46439D01*
X39485Y46373D01*
X39528Y46308D01*
X39534Y46302D01*
X39539Y46297D01*
X39555Y46280D01*
X39577Y46259D01*
X39599Y46237D01*
X39632Y46209D01*
X39670Y46177D01*
X39714Y46149D01*
X39763Y46122D01*
X39818Y46089D01*
X39883Y46062D01*
X39949Y46040D01*
X40020Y46018D01*
X40096Y46007D01*
X40183Y45996D01*
X40271Y45991D01*
X40347D01*
X40396Y45996D01*
X40456Y46002D01*
X40522Y46007D01*
X40664Y46035D01*
X40675D01*
X40697Y46046D01*
X40735Y46057D01*
X40784Y46073D01*
X40839Y46089D01*
X40899Y46111D01*
X41035Y46171D01*
Y45756D01*
X41030D01*
X41019Y45751D01*
X40997Y45740D01*
X40970Y45734D01*
X40931Y45718D01*
X40888Y45707D01*
X40844Y45691D01*
X40789Y45680D01*
X40664Y45647D01*
X40527Y45625D01*
X40380Y45603D01*
X40222Y45598D01*
X40194D01*
X40156Y45603D01*
X40107D01*
X40052Y45609D01*
X39987Y45620D01*
X39916Y45631D01*
X39834Y45647D01*
X39752Y45669D01*
X39665Y45696D01*
X39577Y45729D01*
X39490Y45767D01*
X39408Y45816D01*
X39326Y45871D01*
X39244Y45931D01*
X39173Y46002D01*
X39168Y46007D01*
X39157Y46024D01*
X39141Y46046D01*
X39119Y46078D01*
X39091Y46122D01*
X39059Y46171D01*
X39026Y46237D01*
X38993Y46308D01*
X38960Y46384D01*
X38928Y46477D01*
X38895Y46575D01*
X38868Y46679D01*
X38846Y46799D01*
X38829Y46925D01*
X38818Y47061D01*
X38813Y47203D01*
Y47209D01*
Y47219D01*
Y47241D01*
Y47269D01*
X38818Y47301D01*
Y47345D01*
X38824Y47438D01*
X38835Y47542D01*
X38857Y47662D01*
X38879Y47782D01*
X38911Y47902D01*
Y47908D01*
X38917Y47918D01*
X38922Y47935D01*
X38928Y47957D01*
X38955Y48011D01*
X38982Y48088D01*
X39026Y48170D01*
X39075Y48257D01*
X39130Y48350D01*
X39195Y48432D01*
X39206Y48443D01*
X39228Y48470D01*
X39272Y48508D01*
X39326Y48557D01*
X39392Y48612D01*
X39468Y48666D01*
X39555Y48721D01*
X39648Y48770D01*
X39654D01*
X39659Y48776D01*
X39676Y48781D01*
X39698Y48787D01*
X39752Y48808D01*
X39823Y48830D01*
X39910Y48852D01*
X40014Y48874D01*
X40129Y48885D01*
X40249Y48890D01*
X40331D01*
X40385Y48885D01*
D02*
G37*
G36*
X37907Y46723D02*
X38458D01*
Y46346D01*
X37907D01*
Y45636D01*
X37470D01*
Y46346D01*
X35925D01*
Y46723D01*
X37290Y48847D01*
X37907D01*
Y46723D01*
D02*
G37*
G36*
X34429Y48841D02*
X34494D01*
X34571Y48830D01*
X34653Y48819D01*
X34734Y48803D01*
X34811Y48781D01*
X34822D01*
X34844Y48770D01*
X34882Y48754D01*
X34925Y48737D01*
X34980Y48716D01*
X35035Y48683D01*
X35089Y48650D01*
X35138Y48612D01*
X35144Y48606D01*
X35160Y48590D01*
X35182Y48568D01*
X35209Y48535D01*
X35242Y48497D01*
X35275Y48454D01*
X35302Y48399D01*
X35329Y48344D01*
X35335Y48339D01*
X35340Y48317D01*
X35351Y48284D01*
X35362Y48241D01*
X35373Y48191D01*
X35384Y48131D01*
X35395Y48071D01*
Y48000D01*
Y47995D01*
Y47973D01*
Y47946D01*
X35390Y47908D01*
X35384Y47864D01*
X35373Y47815D01*
X35346Y47711D01*
Y47706D01*
X35340Y47689D01*
X35329Y47662D01*
X35313Y47635D01*
X35275Y47553D01*
X35215Y47471D01*
X35209Y47465D01*
X35199Y47454D01*
X35182Y47433D01*
X35155Y47405D01*
X35122Y47378D01*
X35084Y47345D01*
X34996Y47280D01*
X34991Y47274D01*
X34975Y47269D01*
X34947Y47252D01*
X34914Y47236D01*
X34871Y47219D01*
X34822Y47198D01*
X34762Y47181D01*
X34702Y47165D01*
X34707D01*
X34723Y47154D01*
X34751Y47143D01*
X34784Y47127D01*
X34816Y47105D01*
X34855Y47072D01*
X34893Y47039D01*
X34931Y46996D01*
X34936Y46990D01*
X34947Y46974D01*
X34969Y46952D01*
X34991Y46914D01*
X35024Y46870D01*
X35056Y46821D01*
X35089Y46755D01*
X35127Y46690D01*
X35641Y45636D01*
X35144D01*
X34663Y46663D01*
Y46668D01*
X34653Y46684D01*
X34642Y46701D01*
X34631Y46728D01*
X34592Y46794D01*
X34549Y46854D01*
Y46859D01*
X34538Y46870D01*
X34516Y46903D01*
X34478Y46941D01*
X34429Y46979D01*
X34423D01*
X34418Y46985D01*
X34385Y47007D01*
X34341Y47023D01*
X34287Y47045D01*
X34281D01*
X34276Y47050D01*
X34259D01*
X34238Y47056D01*
X34183Y47061D01*
X34112Y47067D01*
X33910D01*
Y45636D01*
X33473D01*
Y48847D01*
X34380D01*
X34429Y48841D01*
D02*
G37*
G36*
X39981Y31127D02*
X40047Y31122D01*
X40129Y31111D01*
X40216Y31089D01*
X40314Y31067D01*
X40413Y31034D01*
X40511Y30996D01*
X40609Y30942D01*
X40697Y30882D01*
X40779Y30805D01*
X40844Y30712D01*
X40899Y30609D01*
X40931Y30488D01*
X40937Y30423D01*
X40942Y30352D01*
Y30347D01*
Y30341D01*
Y30308D01*
X40937Y30259D01*
X40926Y30199D01*
X40910Y30128D01*
X40888Y30052D01*
X40861Y29975D01*
X40817Y29904D01*
X40811Y29899D01*
X40795Y29871D01*
X40762Y29839D01*
X40724Y29801D01*
X40669Y29757D01*
X40598Y29708D01*
X40516Y29664D01*
X40418Y29626D01*
X40424D01*
X40440Y29620D01*
X40467Y29615D01*
X40500Y29609D01*
X40577Y29582D01*
X40664Y29544D01*
X40669D01*
X40686Y29533D01*
X40708Y29522D01*
X40735Y29500D01*
X40800Y29457D01*
X40866Y29391D01*
X40871Y29386D01*
X40882Y29375D01*
X40899Y29353D01*
X40915Y29331D01*
X40937Y29298D01*
X40959Y29260D01*
X41002Y29167D01*
Y29162D01*
X41013Y29145D01*
X41019Y29118D01*
X41030Y29085D01*
X41041Y29042D01*
X41046Y28993D01*
X41057Y28883D01*
Y28872D01*
Y28845D01*
X41052Y28801D01*
X41046Y28741D01*
X41035Y28681D01*
X41019Y28610D01*
X40997Y28539D01*
X40964Y28468D01*
X40959Y28463D01*
X40948Y28441D01*
X40926Y28408D01*
X40899Y28365D01*
X40866Y28321D01*
X40822Y28266D01*
X40773Y28217D01*
X40713Y28168D01*
X40708Y28163D01*
X40686Y28146D01*
X40648Y28124D01*
X40604Y28102D01*
X40544Y28070D01*
X40478Y28037D01*
X40402Y28010D01*
X40314Y27982D01*
X40304D01*
X40276Y27971D01*
X40227Y27966D01*
X40167Y27955D01*
X40091Y27944D01*
X40003Y27933D01*
X39905Y27928D01*
X39801Y27922D01*
X38977D01*
Y31133D01*
X39927D01*
X39981Y31127D01*
D02*
G37*
G36*
X37907Y29009D02*
X38458D01*
Y28632D01*
X37907D01*
Y27922D01*
X37470D01*
Y28632D01*
X35925D01*
Y29009D01*
X37290Y31133D01*
X37907D01*
Y29009D01*
D02*
G37*
G36*
X34429Y31127D02*
X34494D01*
X34571Y31116D01*
X34653Y31106D01*
X34734Y31089D01*
X34811Y31067D01*
X34822D01*
X34844Y31056D01*
X34882Y31040D01*
X34925Y31024D01*
X34980Y31002D01*
X35035Y30969D01*
X35089Y30936D01*
X35138Y30898D01*
X35144Y30893D01*
X35160Y30876D01*
X35182Y30854D01*
X35209Y30822D01*
X35242Y30783D01*
X35275Y30740D01*
X35302Y30685D01*
X35329Y30630D01*
X35335Y30625D01*
X35340Y30603D01*
X35351Y30570D01*
X35362Y30527D01*
X35373Y30478D01*
X35384Y30417D01*
X35395Y30358D01*
Y30286D01*
Y30281D01*
Y30259D01*
Y30232D01*
X35390Y30194D01*
X35384Y30150D01*
X35373Y30101D01*
X35346Y29997D01*
Y29992D01*
X35340Y29975D01*
X35329Y29948D01*
X35313Y29921D01*
X35275Y29839D01*
X35215Y29757D01*
X35209Y29751D01*
X35199Y29741D01*
X35182Y29719D01*
X35155Y29691D01*
X35122Y29664D01*
X35084Y29631D01*
X34996Y29566D01*
X34991Y29560D01*
X34975Y29555D01*
X34947Y29539D01*
X34914Y29522D01*
X34871Y29506D01*
X34822Y29484D01*
X34762Y29467D01*
X34702Y29451D01*
X34707D01*
X34723Y29440D01*
X34751Y29429D01*
X34784Y29413D01*
X34816Y29391D01*
X34855Y29358D01*
X34893Y29326D01*
X34931Y29282D01*
X34936Y29276D01*
X34947Y29260D01*
X34969Y29238D01*
X34991Y29200D01*
X35024Y29156D01*
X35056Y29107D01*
X35089Y29042D01*
X35127Y28976D01*
X35641Y27922D01*
X35144D01*
X34663Y28949D01*
Y28954D01*
X34653Y28971D01*
X34642Y28987D01*
X34631Y29014D01*
X34592Y29080D01*
X34549Y29140D01*
Y29145D01*
X34538Y29156D01*
X34516Y29189D01*
X34478Y29227D01*
X34429Y29265D01*
X34423D01*
X34418Y29271D01*
X34385Y29293D01*
X34341Y29309D01*
X34287Y29331D01*
X34281D01*
X34276Y29337D01*
X34259D01*
X34238Y29342D01*
X34183Y29347D01*
X34112Y29353D01*
X33910D01*
Y27922D01*
X33473D01*
Y31133D01*
X34380D01*
X34429Y31127D01*
D02*
G37*
G36*
X41330Y33828D02*
X40855D01*
X40631Y34527D01*
X39288D01*
X39064Y33828D01*
X38611D01*
X39676Y37038D01*
X40276D01*
X41330Y33828D01*
D02*
G37*
G36*
X37907Y34914D02*
X38458D01*
Y34538D01*
X37907D01*
Y33828D01*
X37470D01*
Y34538D01*
X35925D01*
Y34914D01*
X37290Y37038D01*
X37907D01*
Y34914D01*
D02*
G37*
G36*
X34429Y37033D02*
X34494D01*
X34571Y37022D01*
X34653Y37011D01*
X34734Y36995D01*
X34811Y36973D01*
X34822D01*
X34844Y36962D01*
X34882Y36946D01*
X34925Y36929D01*
X34980Y36907D01*
X35035Y36874D01*
X35089Y36842D01*
X35138Y36803D01*
X35144Y36798D01*
X35160Y36782D01*
X35182Y36760D01*
X35209Y36727D01*
X35242Y36689D01*
X35275Y36645D01*
X35302Y36591D01*
X35329Y36536D01*
X35335Y36531D01*
X35340Y36509D01*
X35351Y36476D01*
X35362Y36432D01*
X35373Y36383D01*
X35384Y36323D01*
X35395Y36263D01*
Y36192D01*
Y36187D01*
Y36165D01*
Y36137D01*
X35390Y36099D01*
X35384Y36055D01*
X35373Y36006D01*
X35346Y35903D01*
Y35897D01*
X35340Y35881D01*
X35329Y35853D01*
X35313Y35826D01*
X35275Y35744D01*
X35215Y35662D01*
X35209Y35657D01*
X35199Y35646D01*
X35182Y35624D01*
X35155Y35597D01*
X35122Y35570D01*
X35084Y35537D01*
X34996Y35471D01*
X34991Y35466D01*
X34975Y35460D01*
X34947Y35444D01*
X34914Y35428D01*
X34871Y35411D01*
X34822Y35389D01*
X34762Y35373D01*
X34702Y35357D01*
X34707D01*
X34723Y35346D01*
X34751Y35335D01*
X34784Y35318D01*
X34816Y35297D01*
X34855Y35264D01*
X34893Y35231D01*
X34931Y35187D01*
X34936Y35182D01*
X34947Y35166D01*
X34969Y35144D01*
X34991Y35105D01*
X35024Y35062D01*
X35056Y35013D01*
X35089Y34947D01*
X35127Y34882D01*
X35641Y33828D01*
X35144D01*
X34663Y34854D01*
Y34860D01*
X34653Y34876D01*
X34642Y34892D01*
X34631Y34920D01*
X34592Y34985D01*
X34549Y35045D01*
Y35051D01*
X34538Y35062D01*
X34516Y35094D01*
X34478Y35133D01*
X34429Y35171D01*
X34423D01*
X34418Y35176D01*
X34385Y35198D01*
X34341Y35215D01*
X34287Y35236D01*
X34281D01*
X34276Y35242D01*
X34259D01*
X34238Y35247D01*
X34183Y35253D01*
X34112Y35258D01*
X33910D01*
Y33828D01*
X33473D01*
Y37038D01*
X34380D01*
X34429Y37033D01*
D02*
G37*
G36*
X124183Y68575D02*
X124244D01*
X124315Y68564D01*
X124386Y68554D01*
X124462Y68543D01*
X124538Y68521D01*
X124549D01*
X124571Y68510D01*
X124609Y68499D01*
X124653Y68483D01*
X124708Y68461D01*
X124762Y68433D01*
X124817Y68401D01*
X124866Y68362D01*
X124872Y68357D01*
X124888Y68346D01*
X124910Y68324D01*
X124943Y68291D01*
X124970Y68253D01*
X125003Y68215D01*
X125035Y68166D01*
X125063Y68111D01*
X125068Y68106D01*
X125074Y68084D01*
X125084Y68057D01*
X125101Y68013D01*
X125112Y67964D01*
X125123Y67909D01*
X125128Y67844D01*
X125134Y67778D01*
Y67773D01*
Y67767D01*
Y67734D01*
X125128Y67680D01*
X125117Y67620D01*
X125101Y67543D01*
X125074Y67467D01*
X125041Y67391D01*
X124992Y67314D01*
X124986Y67309D01*
X124964Y67281D01*
X124932Y67248D01*
X124888Y67210D01*
X124833Y67161D01*
X124768Y67112D01*
X124686Y67063D01*
X124599Y67019D01*
X124604D01*
X124620Y67014D01*
X124642Y67008D01*
X124675Y67003D01*
X124713Y66992D01*
X124757Y66975D01*
X124844Y66937D01*
X124850D01*
X124866Y66926D01*
X124888Y66916D01*
X124921Y66899D01*
X124992Y66850D01*
X125063Y66790D01*
X125068Y66784D01*
X125079Y66773D01*
X125095Y66752D01*
X125117Y66730D01*
X125145Y66697D01*
X125172Y66659D01*
X125221Y66571D01*
X125226Y66566D01*
X125232Y66550D01*
X125243Y66522D01*
X125254Y66490D01*
X125265Y66446D01*
X125276Y66402D01*
X125286Y66348D01*
Y66293D01*
Y66282D01*
Y66255D01*
X125281Y66217D01*
X125276Y66162D01*
X125265Y66102D01*
X125248Y66036D01*
X125226Y65965D01*
X125199Y65895D01*
X125194Y65889D01*
X125183Y65862D01*
X125161Y65829D01*
X125134Y65785D01*
X125095Y65736D01*
X125052Y65681D01*
X124997Y65627D01*
X124937Y65572D01*
X124932Y65567D01*
X124904Y65551D01*
X124872Y65523D01*
X124822Y65496D01*
X124757Y65458D01*
X124686Y65425D01*
X124599Y65387D01*
X124506Y65354D01*
X124500D01*
X124495Y65349D01*
X124478D01*
X124462Y65343D01*
X124407Y65332D01*
X124331Y65316D01*
X124244Y65299D01*
X124140Y65288D01*
X124025Y65283D01*
X123900Y65277D01*
X123785D01*
X123730Y65283D01*
X123676D01*
X123556Y65294D01*
X123528D01*
X123501Y65299D01*
X123463D01*
X123419Y65305D01*
X123370Y65310D01*
X123272Y65321D01*
Y65703D01*
X123277D01*
X123299Y65698D01*
X123326Y65692D01*
X123364Y65687D01*
X123414Y65681D01*
X123468Y65676D01*
X123588Y65660D01*
X123621D01*
X123654Y65654D01*
X123752D01*
X123812Y65649D01*
X124025D01*
X124080Y65654D01*
X124145Y65660D01*
X124211Y65665D01*
X124282Y65676D01*
X124347Y65687D01*
X124353D01*
X124375Y65698D01*
X124407Y65703D01*
X124446Y65720D01*
X124538Y65758D01*
X124582Y65785D01*
X124626Y65813D01*
X124631Y65818D01*
X124642Y65829D01*
X124664Y65845D01*
X124686Y65867D01*
X124741Y65933D01*
X124762Y65965D01*
X124784Y66009D01*
Y66015D01*
X124795Y66031D01*
X124801Y66053D01*
X124811Y66086D01*
X124822Y66124D01*
X124828Y66167D01*
X124839Y66271D01*
Y66277D01*
Y66293D01*
X124833Y66320D01*
Y66348D01*
X124811Y66424D01*
X124801Y66462D01*
X124779Y66501D01*
Y66506D01*
X124768Y66517D01*
X124751Y66533D01*
X124735Y66561D01*
X124680Y66610D01*
X124609Y66664D01*
X124604Y66670D01*
X124593Y66675D01*
X124571Y66686D01*
X124538Y66703D01*
X124500Y66719D01*
X124457Y66735D01*
X124407Y66752D01*
X124353Y66763D01*
X124347D01*
X124326Y66768D01*
X124298Y66773D01*
X124260Y66784D01*
X124211Y66790D01*
X124156Y66795D01*
X124031Y66801D01*
X123665D01*
Y67150D01*
X124091D01*
X124124Y67156D01*
X124167Y67161D01*
X124211Y67167D01*
X124304Y67189D01*
X124309D01*
X124326Y67194D01*
X124347Y67205D01*
X124375Y67216D01*
X124440Y67248D01*
X124506Y67298D01*
X124511Y67303D01*
X124522Y67309D01*
X124538Y67325D01*
X124555Y67347D01*
X124599Y67401D01*
X124637Y67472D01*
Y67478D01*
X124642Y67489D01*
X124653Y67511D01*
X124664Y67543D01*
X124670Y67576D01*
X124680Y67620D01*
X124686Y67713D01*
Y67718D01*
Y67724D01*
Y67756D01*
X124680Y67800D01*
X124664Y67855D01*
X124648Y67920D01*
X124620Y67980D01*
X124582Y68040D01*
X124528Y68089D01*
X124522Y68095D01*
X124500Y68106D01*
X124462Y68128D01*
X124413Y68149D01*
X124347Y68171D01*
X124265Y68193D01*
X124173Y68204D01*
X124063Y68209D01*
X124003D01*
X123960Y68204D01*
X123910D01*
X123851Y68199D01*
X123725Y68177D01*
X123719D01*
X123698Y68171D01*
X123659Y68166D01*
X123616Y68155D01*
X123561Y68138D01*
X123501Y68122D01*
X123430Y68106D01*
X123359Y68084D01*
Y68455D01*
X123364D01*
X123375Y68461D01*
X123392Y68466D01*
X123414Y68472D01*
X123468Y68488D01*
X123534Y68504D01*
X123539D01*
X123550Y68510D01*
X123572D01*
X123594Y68515D01*
X123654Y68532D01*
X123725Y68543D01*
X123730D01*
X123741Y68548D01*
X123758D01*
X123785Y68554D01*
X123845Y68559D01*
X123910Y68570D01*
X123927D01*
X123949Y68575D01*
X123971D01*
X124031Y68581D01*
X124134D01*
X124183Y68575D01*
D02*
G37*
G36*
X121475Y68526D02*
X121541D01*
X121617Y68515D01*
X121699Y68504D01*
X121781Y68488D01*
X121858Y68466D01*
X121869D01*
X121890Y68455D01*
X121929Y68439D01*
X121972Y68422D01*
X122027Y68401D01*
X122081Y68368D01*
X122136Y68335D01*
X122185Y68297D01*
X122191Y68291D01*
X122207Y68275D01*
X122229Y68253D01*
X122256Y68220D01*
X122289Y68182D01*
X122322Y68138D01*
X122349Y68084D01*
X122376Y68029D01*
X122382Y68024D01*
X122387Y68002D01*
X122398Y67969D01*
X122409Y67926D01*
X122420Y67876D01*
X122431Y67816D01*
X122442Y67756D01*
Y67685D01*
Y67680D01*
Y67658D01*
Y67631D01*
X122436Y67593D01*
X122431Y67549D01*
X122420Y67500D01*
X122393Y67396D01*
Y67391D01*
X122387Y67374D01*
X122376Y67347D01*
X122360Y67320D01*
X122322Y67238D01*
X122262Y67156D01*
X122256Y67150D01*
X122245Y67139D01*
X122229Y67118D01*
X122202Y67090D01*
X122169Y67063D01*
X122131Y67030D01*
X122043Y66965D01*
X122038Y66959D01*
X122021Y66954D01*
X121994Y66937D01*
X121961Y66921D01*
X121918Y66905D01*
X121869Y66883D01*
X121808Y66866D01*
X121748Y66850D01*
X121754D01*
X121770Y66839D01*
X121798Y66828D01*
X121830Y66812D01*
X121863Y66790D01*
X121901Y66757D01*
X121940Y66724D01*
X121978Y66681D01*
X121983Y66675D01*
X121994Y66659D01*
X122016Y66637D01*
X122038Y66599D01*
X122071Y66555D01*
X122103Y66506D01*
X122136Y66440D01*
X122174Y66375D01*
X122687Y65321D01*
X122191D01*
X121710Y66348D01*
Y66353D01*
X121699Y66369D01*
X121688Y66386D01*
X121677Y66413D01*
X121639Y66479D01*
X121596Y66539D01*
Y66544D01*
X121585Y66555D01*
X121563Y66588D01*
X121525Y66626D01*
X121475Y66664D01*
X121470D01*
X121465Y66670D01*
X121432Y66692D01*
X121388Y66708D01*
X121333Y66730D01*
X121328D01*
X121323Y66735D01*
X121306D01*
X121284Y66741D01*
X121230Y66746D01*
X121159Y66752D01*
X120957D01*
Y65321D01*
X120520D01*
Y68532D01*
X121426D01*
X121475Y68526D01*
D02*
G37*
G36*
X124282Y62648D02*
X124336D01*
X124397Y62637D01*
X124462Y62626D01*
X124533Y62610D01*
X124599Y62588D01*
X124604Y62582D01*
X124626Y62577D01*
X124659Y62561D01*
X124702Y62539D01*
X124751Y62511D01*
X124801Y62484D01*
X124899Y62402D01*
X124904Y62397D01*
X124921Y62380D01*
X124943Y62353D01*
X124975Y62320D01*
X125008Y62277D01*
X125041Y62227D01*
X125074Y62173D01*
X125101Y62107D01*
X125106Y62102D01*
X125112Y62075D01*
X125123Y62042D01*
X125139Y61993D01*
X125150Y61933D01*
X125161Y61867D01*
X125166Y61796D01*
X125172Y61714D01*
Y61709D01*
Y61682D01*
Y61649D01*
X125166Y61600D01*
X125161Y61550D01*
X125150Y61490D01*
X125123Y61370D01*
Y61365D01*
X125112Y61343D01*
X125101Y61310D01*
X125084Y61272D01*
X125063Y61223D01*
X125035Y61168D01*
X124970Y61054D01*
X124964Y61048D01*
X124953Y61026D01*
X124932Y60999D01*
X124904Y60955D01*
X124866Y60906D01*
X124822Y60852D01*
X124773Y60792D01*
X124719Y60732D01*
X124713Y60726D01*
X124691Y60704D01*
X124659Y60672D01*
X124620Y60628D01*
X124566Y60573D01*
X124506Y60513D01*
X124440Y60442D01*
X124364Y60371D01*
X123785Y59803D01*
X125347D01*
Y59394D01*
X123228D01*
Y59776D01*
X124053Y60601D01*
X124063Y60611D01*
X124085Y60633D01*
X124124Y60672D01*
X124173Y60721D01*
X124227Y60775D01*
X124282Y60835D01*
X124336Y60895D01*
X124386Y60950D01*
X124391Y60955D01*
X124407Y60977D01*
X124429Y61005D01*
X124457Y61037D01*
X124489Y61081D01*
X124522Y61125D01*
X124582Y61217D01*
X124588Y61223D01*
X124593Y61239D01*
X124609Y61261D01*
X124626Y61294D01*
X124659Y61365D01*
X124680Y61447D01*
Y61452D01*
X124686Y61469D01*
X124691Y61490D01*
X124697Y61518D01*
Y61550D01*
X124702Y61594D01*
X124708Y61682D01*
Y61687D01*
Y61703D01*
Y61725D01*
X124702Y61752D01*
X124697Y61829D01*
X124675Y61905D01*
Y61911D01*
X124670Y61922D01*
X124664Y61944D01*
X124653Y61971D01*
X124620Y62031D01*
X124577Y62097D01*
X124571Y62102D01*
X124566Y62113D01*
X124549Y62124D01*
X124533Y62146D01*
X124473Y62184D01*
X124402Y62227D01*
X124397D01*
X124386Y62233D01*
X124364Y62244D01*
X124331Y62255D01*
X124293Y62260D01*
X124255Y62271D01*
X124205Y62277D01*
X124118D01*
X124080Y62271D01*
X124031Y62266D01*
X123971Y62255D01*
X123910Y62239D01*
X123845Y62217D01*
X123779Y62184D01*
X123774Y62178D01*
X123752Y62168D01*
X123719Y62146D01*
X123676Y62118D01*
X123632Y62086D01*
X123577Y62047D01*
X123528Y61998D01*
X123474Y61949D01*
X123239Y62227D01*
X123250Y62239D01*
X123272Y62260D01*
X123310Y62293D01*
X123359Y62337D01*
X123419Y62386D01*
X123490Y62435D01*
X123567Y62490D01*
X123654Y62533D01*
X123659D01*
X123665Y62539D01*
X123698Y62550D01*
X123747Y62572D01*
X123812Y62593D01*
X123894Y62615D01*
X123987Y62637D01*
X124091Y62648D01*
X124205Y62653D01*
X124244D01*
X124282Y62648D01*
D02*
G37*
G36*
X121475Y62599D02*
X121541D01*
X121617Y62588D01*
X121699Y62577D01*
X121781Y62561D01*
X121858Y62539D01*
X121869D01*
X121890Y62528D01*
X121929Y62511D01*
X121972Y62495D01*
X122027Y62473D01*
X122081Y62441D01*
X122136Y62408D01*
X122185Y62370D01*
X122191Y62364D01*
X122207Y62348D01*
X122229Y62326D01*
X122256Y62293D01*
X122289Y62255D01*
X122322Y62211D01*
X122349Y62157D01*
X122376Y62102D01*
X122382Y62097D01*
X122387Y62075D01*
X122398Y62042D01*
X122409Y61998D01*
X122420Y61949D01*
X122431Y61889D01*
X122442Y61829D01*
Y61758D01*
Y61752D01*
Y61731D01*
Y61703D01*
X122436Y61665D01*
X122431Y61621D01*
X122420Y61572D01*
X122393Y61469D01*
Y61463D01*
X122387Y61447D01*
X122376Y61419D01*
X122360Y61392D01*
X122322Y61310D01*
X122262Y61228D01*
X122256Y61223D01*
X122245Y61212D01*
X122229Y61190D01*
X122202Y61163D01*
X122169Y61136D01*
X122131Y61103D01*
X122043Y61037D01*
X122038Y61032D01*
X122021Y61026D01*
X121994Y61010D01*
X121961Y60994D01*
X121918Y60977D01*
X121869Y60955D01*
X121808Y60939D01*
X121748Y60923D01*
X121754D01*
X121770Y60912D01*
X121798Y60901D01*
X121830Y60884D01*
X121863Y60862D01*
X121901Y60830D01*
X121940Y60797D01*
X121978Y60753D01*
X121983Y60748D01*
X121994Y60732D01*
X122016Y60710D01*
X122038Y60672D01*
X122071Y60628D01*
X122103Y60579D01*
X122136Y60513D01*
X122174Y60448D01*
X122687Y59394D01*
X122191D01*
X121710Y60420D01*
Y60426D01*
X121699Y60442D01*
X121688Y60458D01*
X121677Y60486D01*
X121639Y60551D01*
X121596Y60611D01*
Y60617D01*
X121585Y60628D01*
X121563Y60660D01*
X121525Y60699D01*
X121475Y60737D01*
X121470D01*
X121465Y60742D01*
X121432Y60764D01*
X121388Y60781D01*
X121333Y60803D01*
X121328D01*
X121323Y60808D01*
X121306D01*
X121284Y60813D01*
X121230Y60819D01*
X121159Y60824D01*
X120957D01*
Y59394D01*
X120520D01*
Y62604D01*
X121426D01*
X121475Y62599D01*
D02*
G37*
G36*
X69228Y60793D02*
X69943D01*
Y60394D01*
X67929D01*
Y60793D01*
X68753D01*
Y63135D01*
X67983Y62720D01*
X67830Y63086D01*
X68846Y63621D01*
X69228D01*
Y60793D01*
D02*
G37*
G36*
X66100Y63599D02*
X66165D01*
X66242Y63589D01*
X66324Y63578D01*
X66405Y63561D01*
X66482Y63539D01*
X66493D01*
X66515Y63529D01*
X66553Y63512D01*
X66597Y63496D01*
X66651Y63474D01*
X66706Y63441D01*
X66760Y63408D01*
X66809Y63370D01*
X66815Y63365D01*
X66831Y63348D01*
X66853Y63327D01*
X66881Y63294D01*
X66913Y63256D01*
X66946Y63212D01*
X66973Y63157D01*
X67001Y63103D01*
X67006Y63097D01*
X67011Y63075D01*
X67022Y63043D01*
X67033Y62999D01*
X67044Y62950D01*
X67055Y62890D01*
X67066Y62830D01*
Y62759D01*
Y62753D01*
Y62731D01*
Y62704D01*
X67061Y62666D01*
X67055Y62622D01*
X67044Y62573D01*
X67017Y62469D01*
Y62464D01*
X67011Y62447D01*
X67001Y62420D01*
X66984Y62393D01*
X66946Y62311D01*
X66886Y62229D01*
X66881Y62224D01*
X66870Y62213D01*
X66853Y62191D01*
X66826Y62164D01*
X66793Y62136D01*
X66755Y62103D01*
X66667Y62038D01*
X66662Y62032D01*
X66646Y62027D01*
X66618Y62011D01*
X66586Y61994D01*
X66542Y61978D01*
X66493Y61956D01*
X66433Y61940D01*
X66373Y61923D01*
X66378D01*
X66395Y61912D01*
X66422Y61901D01*
X66455Y61885D01*
X66487Y61863D01*
X66526Y61830D01*
X66564Y61798D01*
X66602Y61754D01*
X66607Y61748D01*
X66618Y61732D01*
X66640Y61710D01*
X66662Y61672D01*
X66695Y61628D01*
X66728Y61579D01*
X66760Y61514D01*
X66799Y61448D01*
X67312Y60394D01*
X66815D01*
X66334Y61421D01*
Y61426D01*
X66324Y61443D01*
X66313Y61459D01*
X66302Y61487D01*
X66264Y61552D01*
X66220Y61612D01*
Y61617D01*
X66209Y61628D01*
X66187Y61661D01*
X66149Y61699D01*
X66100Y61738D01*
X66094D01*
X66089Y61743D01*
X66056Y61765D01*
X66012Y61781D01*
X65958Y61803D01*
X65952D01*
X65947Y61809D01*
X65930D01*
X65909Y61814D01*
X65854Y61819D01*
X65783Y61825D01*
X65581D01*
Y60394D01*
X65144D01*
Y63605D01*
X66050D01*
X66100Y63599D01*
D02*
G37*
G36*
X92475Y98851D02*
X92464Y98829D01*
X92442Y98802D01*
X92415Y98758D01*
X92387Y98709D01*
X92355Y98654D01*
X92327Y98589D01*
X92300Y98523D01*
Y98512D01*
X92289Y98491D01*
X92284Y98452D01*
X92273Y98409D01*
X92262Y98354D01*
X92251Y98289D01*
X92245Y98223D01*
X92240Y98158D01*
Y98114D01*
X92251Y98065D01*
X92262Y98005D01*
X92278Y97939D01*
X92305Y97868D01*
X92344Y97803D01*
X92398Y97742D01*
X92404Y97737D01*
X92431Y97721D01*
X92469Y97693D01*
X92518Y97666D01*
X92584Y97644D01*
X92666Y97617D01*
X92764Y97601D01*
X92873Y97595D01*
X94724D01*
Y98813D01*
X95101D01*
Y97153D01*
X92868D01*
X92857D01*
X92835D01*
X92791Y97158D01*
X92742D01*
X92682Y97169D01*
X92617Y97180D01*
X92546Y97197D01*
X92475Y97218D01*
X92469D01*
X92442Y97229D01*
X92409Y97246D01*
X92365Y97262D01*
X92316Y97289D01*
X92262Y97322D01*
X92207Y97360D01*
X92153Y97404D01*
X92147Y97409D01*
X92131Y97426D01*
X92103Y97453D01*
X92076Y97491D01*
X92038Y97535D01*
X92005Y97590D01*
X91967Y97650D01*
X91934Y97721D01*
X91929Y97732D01*
X91923Y97753D01*
X91912Y97792D01*
X91896Y97846D01*
X91880Y97912D01*
X91869Y97983D01*
X91863Y98070D01*
X91858Y98163D01*
Y98223D01*
X91863Y98283D01*
X91874Y98354D01*
Y98370D01*
X91880Y98392D01*
X91885Y98414D01*
X91891Y98474D01*
X91907Y98545D01*
Y98551D01*
X91912Y98562D01*
X91918Y98578D01*
X91923Y98600D01*
X91940Y98660D01*
X91961Y98720D01*
Y98725D01*
X91967Y98731D01*
X91983Y98769D01*
X92005Y98813D01*
X92038Y98856D01*
X92480D01*
X92475Y98851D01*
D02*
G37*
G36*
X93097Y95351D02*
X93108Y95340D01*
X93130Y95318D01*
X93168Y95280D01*
X93217Y95231D01*
X93272Y95176D01*
X93332Y95122D01*
X93392Y95067D01*
X93447Y95018D01*
X93452Y95012D01*
X93474Y94996D01*
X93501Y94974D01*
X93534Y94947D01*
X93578Y94914D01*
X93621Y94881D01*
X93714Y94821D01*
X93720Y94816D01*
X93736Y94810D01*
X93758Y94794D01*
X93791Y94778D01*
X93862Y94745D01*
X93944Y94723D01*
X93949D01*
X93965Y94718D01*
X93987Y94712D01*
X94014Y94707D01*
X94047D01*
X94091Y94701D01*
X94178Y94696D01*
X94184D01*
X94200D01*
X94222D01*
X94249Y94701D01*
X94326Y94707D01*
X94402Y94729D01*
X94408D01*
X94419Y94734D01*
X94440Y94740D01*
X94468Y94750D01*
X94528Y94783D01*
X94593Y94827D01*
X94599Y94832D01*
X94610Y94838D01*
X94621Y94854D01*
X94642Y94871D01*
X94681Y94931D01*
X94724Y95002D01*
Y95007D01*
X94730Y95018D01*
X94741Y95040D01*
X94752Y95073D01*
X94757Y95111D01*
X94768Y95149D01*
X94773Y95198D01*
Y95285D01*
X94768Y95324D01*
X94762Y95373D01*
X94752Y95433D01*
X94735Y95493D01*
X94713Y95559D01*
X94681Y95624D01*
X94675Y95630D01*
X94664Y95651D01*
X94642Y95684D01*
X94615Y95728D01*
X94582Y95771D01*
X94544Y95826D01*
X94495Y95875D01*
X94446Y95930D01*
X94724Y96165D01*
X94735Y96154D01*
X94757Y96132D01*
X94790Y96094D01*
X94833Y96044D01*
X94883Y95984D01*
X94932Y95913D01*
X94986Y95837D01*
X95030Y95750D01*
Y95744D01*
X95035Y95739D01*
X95046Y95706D01*
X95068Y95657D01*
X95090Y95591D01*
X95112Y95509D01*
X95134Y95417D01*
X95145Y95313D01*
X95150Y95198D01*
Y95160D01*
X95145Y95122D01*
Y95067D01*
X95134Y95007D01*
X95123Y94942D01*
X95106Y94871D01*
X95085Y94805D01*
X95079Y94800D01*
X95074Y94778D01*
X95057Y94745D01*
X95035Y94701D01*
X95008Y94652D01*
X94981Y94603D01*
X94899Y94505D01*
X94893Y94499D01*
X94877Y94483D01*
X94850Y94461D01*
X94817Y94428D01*
X94773Y94396D01*
X94724Y94363D01*
X94670Y94330D01*
X94604Y94303D01*
X94599Y94297D01*
X94571Y94292D01*
X94539Y94281D01*
X94490Y94265D01*
X94429Y94254D01*
X94364Y94243D01*
X94293Y94237D01*
X94211Y94232D01*
X94205D01*
X94178D01*
X94146D01*
X94096Y94237D01*
X94047Y94243D01*
X93987Y94254D01*
X93867Y94281D01*
X93862D01*
X93840Y94292D01*
X93807Y94303D01*
X93769Y94319D01*
X93720Y94341D01*
X93665Y94368D01*
X93550Y94434D01*
X93545Y94439D01*
X93523Y94450D01*
X93496Y94472D01*
X93452Y94499D01*
X93403Y94538D01*
X93348Y94581D01*
X93288Y94630D01*
X93228Y94685D01*
X93223Y94690D01*
X93201Y94712D01*
X93168Y94745D01*
X93125Y94783D01*
X93070Y94838D01*
X93010Y94898D01*
X92939Y94963D01*
X92868Y95040D01*
X92300Y95619D01*
Y94057D01*
X91891D01*
Y96175D01*
X92273D01*
X93097Y95351D01*
D02*
G37*
G36*
X16050Y86979D02*
Y86968D01*
Y86946D01*
X16044Y86902D01*
Y86853D01*
X16033Y86793D01*
X16023Y86728D01*
X16006Y86657D01*
X15984Y86586D01*
Y86580D01*
X15973Y86553D01*
X15957Y86520D01*
X15941Y86476D01*
X15913Y86427D01*
X15880Y86373D01*
X15842Y86318D01*
X15799Y86264D01*
X15793Y86258D01*
X15777Y86242D01*
X15750Y86214D01*
X15711Y86187D01*
X15668Y86149D01*
X15613Y86116D01*
X15553Y86078D01*
X15482Y86045D01*
X15471Y86040D01*
X15449Y86034D01*
X15411Y86023D01*
X15356Y86007D01*
X15291Y85991D01*
X15220Y85979D01*
X15133Y85974D01*
X15040Y85969D01*
X14980D01*
X14920Y85974D01*
X14849Y85985D01*
X14832D01*
X14810Y85991D01*
X14788Y85996D01*
X14728Y86001D01*
X14658Y86018D01*
X14652D01*
X14641Y86023D01*
X14625Y86029D01*
X14603Y86034D01*
X14543Y86050D01*
X14483Y86072D01*
X14477D01*
X14472Y86078D01*
X14434Y86094D01*
X14390Y86116D01*
X14346Y86149D01*
Y86591D01*
X14352Y86586D01*
X14374Y86575D01*
X14401Y86553D01*
X14445Y86525D01*
X14494Y86498D01*
X14548Y86466D01*
X14614Y86438D01*
X14679Y86411D01*
X14690D01*
X14712Y86400D01*
X14750Y86395D01*
X14794Y86384D01*
X14849Y86373D01*
X14914Y86362D01*
X14980Y86356D01*
X15045Y86351D01*
X15089D01*
X15138Y86362D01*
X15198Y86373D01*
X15263Y86389D01*
X15335Y86416D01*
X15400Y86455D01*
X15460Y86509D01*
X15466Y86515D01*
X15482Y86542D01*
X15509Y86580D01*
X15537Y86629D01*
X15558Y86695D01*
X15586Y86777D01*
X15602Y86875D01*
X15608Y86984D01*
Y88835D01*
X14390D01*
Y89212D01*
X16050D01*
Y86979D01*
D02*
G37*
G36*
X18403Y86400D02*
X19118D01*
Y86001D01*
X17104D01*
Y86400D01*
X17928D01*
Y88742D01*
X17158Y88327D01*
X17005Y88693D01*
X18021Y89228D01*
X18403D01*
Y86400D01*
D02*
G37*
G36*
X66717Y54790D02*
X66782Y54785D01*
X66848Y54779D01*
X66995Y54758D01*
X67006D01*
X67028Y54752D01*
X67066Y54741D01*
X67115Y54730D01*
X67170Y54714D01*
X67230Y54692D01*
X67366Y54643D01*
Y54212D01*
X67361Y54217D01*
X67334Y54228D01*
X67301Y54244D01*
X67252Y54266D01*
X67197Y54288D01*
X67137Y54310D01*
X67001Y54353D01*
X66990D01*
X66968Y54365D01*
X66930Y54370D01*
X66881Y54381D01*
X66820Y54392D01*
X66749Y54397D01*
X66673Y54408D01*
X66553D01*
X66509Y54403D01*
X66455Y54397D01*
X66395Y54386D01*
X66324Y54370D01*
X66253Y54348D01*
X66182Y54321D01*
X66176Y54315D01*
X66154Y54304D01*
X66116Y54283D01*
X66078Y54255D01*
X66029Y54223D01*
X65974Y54179D01*
X65920Y54130D01*
X65870Y54070D01*
X65865Y54064D01*
X65848Y54042D01*
X65827Y54010D01*
X65799Y53960D01*
X65767Y53906D01*
X65734Y53835D01*
X65701Y53758D01*
X65674Y53676D01*
Y53666D01*
X65663Y53638D01*
X65652Y53589D01*
X65641Y53524D01*
X65630Y53447D01*
X65619Y53360D01*
X65614Y53262D01*
X65608Y53152D01*
Y53147D01*
Y53125D01*
Y53092D01*
X65614Y53049D01*
Y53000D01*
X65619Y52939D01*
X65630Y52874D01*
X65641Y52803D01*
X65668Y52650D01*
X65712Y52492D01*
X65777Y52344D01*
X65816Y52279D01*
X65860Y52213D01*
X65865Y52208D01*
X65870Y52202D01*
X65887Y52186D01*
X65909Y52164D01*
X65930Y52142D01*
X65963Y52115D01*
X66001Y52082D01*
X66045Y52055D01*
X66094Y52028D01*
X66149Y51995D01*
X66214Y51968D01*
X66280Y51946D01*
X66351Y51924D01*
X66427Y51913D01*
X66515Y51902D01*
X66602Y51897D01*
X66678D01*
X66728Y51902D01*
X66788Y51907D01*
X66853Y51913D01*
X66995Y51940D01*
X67006D01*
X67028Y51951D01*
X67066Y51962D01*
X67115Y51978D01*
X67170Y51995D01*
X67230Y52017D01*
X67366Y52077D01*
Y51662D01*
X67361D01*
X67350Y51656D01*
X67328Y51645D01*
X67301Y51640D01*
X67263Y51623D01*
X67219Y51613D01*
X67175Y51596D01*
X67121Y51585D01*
X66995Y51553D01*
X66859Y51531D01*
X66711Y51509D01*
X66553Y51503D01*
X66526D01*
X66487Y51509D01*
X66438D01*
X66384Y51514D01*
X66318Y51525D01*
X66247Y51536D01*
X66165Y51553D01*
X66083Y51574D01*
X65996Y51602D01*
X65909Y51635D01*
X65821Y51673D01*
X65739Y51722D01*
X65657Y51776D01*
X65575Y51837D01*
X65504Y51907D01*
X65499Y51913D01*
X65488Y51929D01*
X65472Y51951D01*
X65450Y51984D01*
X65423Y52028D01*
X65390Y52077D01*
X65357Y52142D01*
X65324Y52213D01*
X65292Y52290D01*
X65259Y52382D01*
X65226Y52481D01*
X65199Y52584D01*
X65177Y52705D01*
X65161Y52830D01*
X65150Y52967D01*
X65144Y53109D01*
Y53114D01*
Y53125D01*
Y53147D01*
Y53174D01*
X65150Y53207D01*
Y53251D01*
X65155Y53343D01*
X65166Y53447D01*
X65188Y53567D01*
X65210Y53687D01*
X65242Y53807D01*
Y53813D01*
X65248Y53824D01*
X65253Y53840D01*
X65259Y53862D01*
X65286Y53917D01*
X65314Y53993D01*
X65357Y54075D01*
X65406Y54162D01*
X65461Y54255D01*
X65526Y54337D01*
X65537Y54348D01*
X65559Y54375D01*
X65603Y54414D01*
X65657Y54463D01*
X65723Y54517D01*
X65799Y54572D01*
X65887Y54627D01*
X65980Y54676D01*
X65985D01*
X65991Y54681D01*
X66007Y54687D01*
X66029Y54692D01*
X66083Y54714D01*
X66154Y54736D01*
X66242Y54758D01*
X66345Y54779D01*
X66460Y54790D01*
X66580Y54796D01*
X66662D01*
X66717Y54790D01*
D02*
G37*
G36*
X69004Y54796D02*
X69064D01*
X69135Y54785D01*
X69206Y54774D01*
X69283Y54763D01*
X69359Y54741D01*
X69370D01*
X69392Y54730D01*
X69430Y54719D01*
X69474Y54703D01*
X69529Y54681D01*
X69583Y54654D01*
X69638Y54621D01*
X69687Y54583D01*
X69692Y54577D01*
X69709Y54567D01*
X69731Y54545D01*
X69763Y54512D01*
X69791Y54474D01*
X69823Y54435D01*
X69856Y54386D01*
X69884Y54332D01*
X69889Y54326D01*
X69894Y54304D01*
X69905Y54277D01*
X69922Y54233D01*
X69933Y54184D01*
X69943Y54130D01*
X69949Y54064D01*
X69954Y53999D01*
Y53993D01*
Y53988D01*
Y53955D01*
X69949Y53900D01*
X69938Y53840D01*
X69922Y53764D01*
X69894Y53687D01*
X69862Y53611D01*
X69813Y53535D01*
X69807Y53529D01*
X69785Y53502D01*
X69752Y53469D01*
X69709Y53431D01*
X69654Y53382D01*
X69589Y53333D01*
X69507Y53283D01*
X69419Y53240D01*
X69425D01*
X69441Y53234D01*
X69463Y53229D01*
X69496Y53223D01*
X69534Y53212D01*
X69578Y53196D01*
X69665Y53158D01*
X69670D01*
X69687Y53147D01*
X69709Y53136D01*
X69741Y53120D01*
X69813Y53070D01*
X69884Y53010D01*
X69889Y53005D01*
X69900Y52994D01*
X69916Y52972D01*
X69938Y52950D01*
X69965Y52918D01*
X69993Y52879D01*
X70042Y52792D01*
X70047Y52786D01*
X70053Y52770D01*
X70064Y52743D01*
X70075Y52710D01*
X70086Y52666D01*
X70096Y52623D01*
X70107Y52568D01*
Y52513D01*
Y52503D01*
Y52475D01*
X70102Y52437D01*
X70096Y52382D01*
X70086Y52322D01*
X70069Y52257D01*
X70047Y52186D01*
X70020Y52115D01*
X70015Y52109D01*
X70004Y52082D01*
X69982Y52049D01*
X69954Y52006D01*
X69916Y51957D01*
X69873Y51902D01*
X69818Y51847D01*
X69758Y51793D01*
X69752Y51787D01*
X69725Y51771D01*
X69692Y51744D01*
X69643Y51716D01*
X69578Y51678D01*
X69507Y51645D01*
X69419Y51607D01*
X69327Y51574D01*
X69321D01*
X69316Y51569D01*
X69299D01*
X69283Y51564D01*
X69228Y51553D01*
X69152Y51536D01*
X69064Y51520D01*
X68961Y51509D01*
X68846Y51503D01*
X68721Y51498D01*
X68606D01*
X68551Y51503D01*
X68497D01*
X68376Y51514D01*
X68349D01*
X68322Y51520D01*
X68284D01*
X68240Y51525D01*
X68191Y51531D01*
X68093Y51542D01*
Y51924D01*
X68098D01*
X68120Y51918D01*
X68147Y51913D01*
X68185Y51907D01*
X68235Y51902D01*
X68289Y51897D01*
X68409Y51880D01*
X68442D01*
X68475Y51875D01*
X68573D01*
X68633Y51869D01*
X68846D01*
X68901Y51875D01*
X68966Y51880D01*
X69032Y51886D01*
X69103Y51897D01*
X69168Y51907D01*
X69174D01*
X69195Y51918D01*
X69228Y51924D01*
X69266Y51940D01*
X69359Y51978D01*
X69403Y52006D01*
X69447Y52033D01*
X69452Y52039D01*
X69463Y52049D01*
X69485Y52066D01*
X69507Y52088D01*
X69561Y52153D01*
X69583Y52186D01*
X69605Y52230D01*
Y52235D01*
X69616Y52251D01*
X69621Y52273D01*
X69632Y52306D01*
X69643Y52344D01*
X69649Y52388D01*
X69660Y52492D01*
Y52497D01*
Y52513D01*
X69654Y52541D01*
Y52568D01*
X69632Y52645D01*
X69621Y52683D01*
X69599Y52721D01*
Y52727D01*
X69589Y52737D01*
X69572Y52754D01*
X69556Y52781D01*
X69501Y52830D01*
X69430Y52885D01*
X69425Y52890D01*
X69414Y52896D01*
X69392Y52907D01*
X69359Y52923D01*
X69321Y52939D01*
X69277Y52956D01*
X69228Y52972D01*
X69174Y52983D01*
X69168D01*
X69146Y52988D01*
X69119Y52994D01*
X69081Y53005D01*
X69032Y53010D01*
X68977Y53016D01*
X68852Y53021D01*
X68486D01*
Y53371D01*
X68912D01*
X68944Y53376D01*
X68988Y53382D01*
X69032Y53387D01*
X69125Y53409D01*
X69130D01*
X69146Y53414D01*
X69168Y53425D01*
X69195Y53436D01*
X69261Y53469D01*
X69327Y53518D01*
X69332Y53524D01*
X69343Y53529D01*
X69359Y53545D01*
X69376Y53567D01*
X69419Y53622D01*
X69458Y53693D01*
Y53698D01*
X69463Y53709D01*
X69474Y53731D01*
X69485Y53764D01*
X69490Y53797D01*
X69501Y53840D01*
X69507Y53933D01*
Y53939D01*
Y53944D01*
Y53977D01*
X69501Y54021D01*
X69485Y54075D01*
X69468Y54141D01*
X69441Y54201D01*
X69403Y54261D01*
X69348Y54310D01*
X69343Y54315D01*
X69321Y54326D01*
X69283Y54348D01*
X69234Y54370D01*
X69168Y54392D01*
X69086Y54414D01*
X68994Y54425D01*
X68884Y54430D01*
X68824D01*
X68781Y54425D01*
X68731D01*
X68671Y54419D01*
X68546Y54397D01*
X68540D01*
X68519Y54392D01*
X68480Y54386D01*
X68437Y54375D01*
X68382Y54359D01*
X68322Y54343D01*
X68251Y54326D01*
X68180Y54304D01*
Y54676D01*
X68185D01*
X68196Y54681D01*
X68213Y54687D01*
X68235Y54692D01*
X68289Y54708D01*
X68355Y54725D01*
X68360D01*
X68371Y54730D01*
X68393D01*
X68415Y54736D01*
X68475Y54752D01*
X68546Y54763D01*
X68551D01*
X68562Y54769D01*
X68578D01*
X68606Y54774D01*
X68666Y54779D01*
X68731Y54790D01*
X68748D01*
X68770Y54796D01*
X68792D01*
X68852Y54801D01*
X68955D01*
X69004Y54796D01*
D02*
G37*
G36*
X71674Y54747D02*
X71734Y54741D01*
X71805Y54730D01*
X71887Y54719D01*
X71975Y54703D01*
X72062Y54681D01*
X72155Y54659D01*
X72248Y54627D01*
X72341Y54588D01*
X72433Y54545D01*
X72521Y54490D01*
X72602Y54435D01*
X72673Y54365D01*
X72679Y54359D01*
X72690Y54348D01*
X72706Y54326D01*
X72734Y54294D01*
X72761Y54250D01*
X72794Y54201D01*
X72826Y54141D01*
X72859Y54070D01*
X72892Y53993D01*
X72930Y53906D01*
X72957Y53807D01*
X72985Y53704D01*
X73012Y53584D01*
X73028Y53458D01*
X73039Y53327D01*
X73045Y53180D01*
Y53169D01*
Y53141D01*
Y53098D01*
X73039Y53038D01*
X73034Y52972D01*
X73028Y52896D01*
X73007Y52737D01*
Y52727D01*
X73001Y52699D01*
X72990Y52661D01*
X72979Y52606D01*
X72963Y52546D01*
X72941Y52481D01*
X72892Y52344D01*
X72887Y52339D01*
X72875Y52311D01*
X72859Y52279D01*
X72837Y52235D01*
X72810Y52186D01*
X72777Y52126D01*
X72690Y52011D01*
X72685Y52006D01*
X72668Y51989D01*
X72641Y51957D01*
X72602Y51924D01*
X72559Y51886D01*
X72504Y51842D01*
X72444Y51798D01*
X72379Y51760D01*
X72373Y51755D01*
X72346Y51744D01*
X72308Y51722D01*
X72259Y51700D01*
X72198Y51673D01*
X72127Y51645D01*
X72046Y51618D01*
X71958Y51596D01*
X71947D01*
X71915Y51585D01*
X71865Y51580D01*
X71800Y51569D01*
X71718Y51558D01*
X71625Y51553D01*
X71522Y51542D01*
X70724D01*
Y54752D01*
X71620D01*
X71674Y54747D01*
D02*
G37*
G36*
X72253Y48885D02*
X72319Y48879D01*
X72384Y48874D01*
X72532Y48852D01*
X72543D01*
X72564Y48847D01*
X72602Y48836D01*
X72652Y48825D01*
X72706Y48808D01*
X72766Y48787D01*
X72903Y48737D01*
Y48306D01*
X72897Y48311D01*
X72870Y48322D01*
X72837Y48339D01*
X72788Y48361D01*
X72734Y48382D01*
X72673Y48404D01*
X72537Y48448D01*
X72526D01*
X72504Y48459D01*
X72466Y48464D01*
X72417Y48475D01*
X72357Y48486D01*
X72286Y48492D01*
X72209Y48503D01*
X72089D01*
X72046Y48497D01*
X71991Y48492D01*
X71931Y48481D01*
X71860Y48464D01*
X71789Y48443D01*
X71718Y48415D01*
X71713Y48410D01*
X71691Y48399D01*
X71653Y48377D01*
X71614Y48350D01*
X71565Y48317D01*
X71511Y48273D01*
X71456Y48224D01*
X71407Y48164D01*
X71401Y48159D01*
X71385Y48137D01*
X71363Y48104D01*
X71336Y48055D01*
X71303Y48000D01*
X71270Y47929D01*
X71237Y47853D01*
X71210Y47771D01*
Y47760D01*
X71199Y47733D01*
X71188Y47684D01*
X71178Y47618D01*
X71167Y47542D01*
X71156Y47454D01*
X71150Y47356D01*
X71145Y47247D01*
Y47241D01*
Y47219D01*
Y47187D01*
X71150Y47143D01*
Y47094D01*
X71156Y47034D01*
X71167Y46968D01*
X71178Y46897D01*
X71205Y46744D01*
X71249Y46586D01*
X71314Y46439D01*
X71352Y46373D01*
X71396Y46308D01*
X71401Y46302D01*
X71407Y46297D01*
X71423Y46280D01*
X71445Y46259D01*
X71467Y46237D01*
X71500Y46209D01*
X71538Y46177D01*
X71582Y46149D01*
X71631Y46122D01*
X71685Y46089D01*
X71751Y46062D01*
X71816Y46040D01*
X71887Y46018D01*
X71964Y46007D01*
X72051Y45996D01*
X72139Y45991D01*
X72215D01*
X72264Y45996D01*
X72324Y46002D01*
X72390Y46007D01*
X72532Y46035D01*
X72543D01*
X72564Y46046D01*
X72602Y46057D01*
X72652Y46073D01*
X72706Y46089D01*
X72766Y46111D01*
X72903Y46171D01*
Y45756D01*
X72897D01*
X72887Y45751D01*
X72865Y45740D01*
X72837Y45734D01*
X72799Y45718D01*
X72755Y45707D01*
X72712Y45691D01*
X72657Y45680D01*
X72532Y45647D01*
X72395Y45625D01*
X72248Y45603D01*
X72089Y45598D01*
X72062D01*
X72024Y45603D01*
X71975D01*
X71920Y45609D01*
X71855Y45620D01*
X71784Y45631D01*
X71702Y45647D01*
X71620Y45669D01*
X71532Y45696D01*
X71445Y45729D01*
X71358Y45767D01*
X71276Y45816D01*
X71194Y45871D01*
X71112Y45931D01*
X71041Y46002D01*
X71035Y46007D01*
X71025Y46024D01*
X71008Y46046D01*
X70986Y46078D01*
X70959Y46122D01*
X70926Y46171D01*
X70894Y46237D01*
X70861Y46308D01*
X70828Y46384D01*
X70795Y46477D01*
X70762Y46575D01*
X70735Y46679D01*
X70713Y46799D01*
X70697Y46925D01*
X70686Y47061D01*
X70681Y47203D01*
Y47209D01*
Y47219D01*
Y47241D01*
Y47269D01*
X70686Y47301D01*
Y47345D01*
X70692Y47438D01*
X70702Y47542D01*
X70724Y47662D01*
X70746Y47782D01*
X70779Y47902D01*
Y47908D01*
X70784Y47918D01*
X70790Y47935D01*
X70795Y47957D01*
X70823Y48011D01*
X70850Y48088D01*
X70894Y48170D01*
X70943Y48257D01*
X70997Y48350D01*
X71063Y48432D01*
X71074Y48443D01*
X71096Y48470D01*
X71139Y48508D01*
X71194Y48557D01*
X71259Y48612D01*
X71336Y48666D01*
X71423Y48721D01*
X71516Y48770D01*
X71522D01*
X71527Y48776D01*
X71543Y48781D01*
X71565Y48787D01*
X71620Y48808D01*
X71691Y48830D01*
X71778Y48852D01*
X71882Y48874D01*
X71996Y48885D01*
X72117Y48890D01*
X72198D01*
X72253Y48885D01*
D02*
G37*
G36*
X66717D02*
X66782Y48879D01*
X66848Y48874D01*
X66995Y48852D01*
X67006D01*
X67028Y48847D01*
X67066Y48836D01*
X67115Y48825D01*
X67170Y48808D01*
X67230Y48787D01*
X67366Y48737D01*
Y48306D01*
X67361Y48311D01*
X67334Y48322D01*
X67301Y48339D01*
X67252Y48361D01*
X67197Y48382D01*
X67137Y48404D01*
X67001Y48448D01*
X66990D01*
X66968Y48459D01*
X66930Y48464D01*
X66881Y48475D01*
X66820Y48486D01*
X66749Y48492D01*
X66673Y48503D01*
X66553D01*
X66509Y48497D01*
X66455Y48492D01*
X66395Y48481D01*
X66324Y48464D01*
X66253Y48443D01*
X66182Y48415D01*
X66176Y48410D01*
X66154Y48399D01*
X66116Y48377D01*
X66078Y48350D01*
X66029Y48317D01*
X65974Y48273D01*
X65920Y48224D01*
X65870Y48164D01*
X65865Y48159D01*
X65848Y48137D01*
X65827Y48104D01*
X65799Y48055D01*
X65767Y48000D01*
X65734Y47929D01*
X65701Y47853D01*
X65674Y47771D01*
Y47760D01*
X65663Y47733D01*
X65652Y47684D01*
X65641Y47618D01*
X65630Y47542D01*
X65619Y47454D01*
X65614Y47356D01*
X65608Y47247D01*
Y47241D01*
Y47219D01*
Y47187D01*
X65614Y47143D01*
Y47094D01*
X65619Y47034D01*
X65630Y46968D01*
X65641Y46897D01*
X65668Y46744D01*
X65712Y46586D01*
X65777Y46439D01*
X65816Y46373D01*
X65860Y46308D01*
X65865Y46302D01*
X65870Y46297D01*
X65887Y46280D01*
X65909Y46259D01*
X65930Y46237D01*
X65963Y46209D01*
X66001Y46177D01*
X66045Y46149D01*
X66094Y46122D01*
X66149Y46089D01*
X66214Y46062D01*
X66280Y46040D01*
X66351Y46018D01*
X66427Y46007D01*
X66515Y45996D01*
X66602Y45991D01*
X66678D01*
X66728Y45996D01*
X66788Y46002D01*
X66853Y46007D01*
X66995Y46035D01*
X67006D01*
X67028Y46046D01*
X67066Y46057D01*
X67115Y46073D01*
X67170Y46089D01*
X67230Y46111D01*
X67366Y46171D01*
Y45756D01*
X67361D01*
X67350Y45751D01*
X67328Y45740D01*
X67301Y45734D01*
X67263Y45718D01*
X67219Y45707D01*
X67175Y45691D01*
X67121Y45680D01*
X66995Y45647D01*
X66859Y45625D01*
X66711Y45603D01*
X66553Y45598D01*
X66526D01*
X66487Y45603D01*
X66438D01*
X66384Y45609D01*
X66318Y45620D01*
X66247Y45631D01*
X66165Y45647D01*
X66083Y45669D01*
X65996Y45696D01*
X65909Y45729D01*
X65821Y45767D01*
X65739Y45816D01*
X65657Y45871D01*
X65575Y45931D01*
X65504Y46002D01*
X65499Y46007D01*
X65488Y46024D01*
X65472Y46046D01*
X65450Y46078D01*
X65423Y46122D01*
X65390Y46171D01*
X65357Y46237D01*
X65324Y46308D01*
X65292Y46384D01*
X65259Y46477D01*
X65226Y46575D01*
X65199Y46679D01*
X65177Y46799D01*
X65161Y46925D01*
X65150Y47061D01*
X65144Y47203D01*
Y47209D01*
Y47219D01*
Y47241D01*
Y47269D01*
X65150Y47301D01*
Y47345D01*
X65155Y47438D01*
X65166Y47542D01*
X65188Y47662D01*
X65210Y47782D01*
X65242Y47902D01*
Y47908D01*
X65248Y47918D01*
X65253Y47935D01*
X65259Y47957D01*
X65286Y48011D01*
X65314Y48088D01*
X65357Y48170D01*
X65406Y48257D01*
X65461Y48350D01*
X65526Y48432D01*
X65537Y48443D01*
X65559Y48470D01*
X65603Y48508D01*
X65657Y48557D01*
X65723Y48612D01*
X65799Y48666D01*
X65887Y48721D01*
X65980Y48770D01*
X65985D01*
X65991Y48776D01*
X66007Y48781D01*
X66029Y48787D01*
X66083Y48808D01*
X66154Y48830D01*
X66242Y48852D01*
X66345Y48874D01*
X66460Y48885D01*
X66580Y48890D01*
X66662D01*
X66717Y48885D01*
D02*
G37*
G36*
X69004Y48890D02*
X69064D01*
X69135Y48879D01*
X69206Y48868D01*
X69283Y48858D01*
X69359Y48836D01*
X69370D01*
X69392Y48825D01*
X69430Y48814D01*
X69474Y48798D01*
X69529Y48776D01*
X69583Y48748D01*
X69638Y48716D01*
X69687Y48677D01*
X69692Y48672D01*
X69709Y48661D01*
X69731Y48639D01*
X69763Y48606D01*
X69791Y48568D01*
X69823Y48530D01*
X69856Y48481D01*
X69884Y48426D01*
X69889Y48421D01*
X69894Y48399D01*
X69905Y48372D01*
X69922Y48328D01*
X69933Y48279D01*
X69943Y48224D01*
X69949Y48159D01*
X69954Y48093D01*
Y48088D01*
Y48082D01*
Y48049D01*
X69949Y47995D01*
X69938Y47935D01*
X69922Y47858D01*
X69894Y47782D01*
X69862Y47706D01*
X69813Y47629D01*
X69807Y47624D01*
X69785Y47596D01*
X69752Y47563D01*
X69709Y47525D01*
X69654Y47476D01*
X69589Y47427D01*
X69507Y47378D01*
X69419Y47334D01*
X69425D01*
X69441Y47329D01*
X69463Y47323D01*
X69496Y47318D01*
X69534Y47307D01*
X69578Y47291D01*
X69665Y47252D01*
X69670D01*
X69687Y47241D01*
X69709Y47230D01*
X69741Y47214D01*
X69813Y47165D01*
X69884Y47105D01*
X69889Y47099D01*
X69900Y47089D01*
X69916Y47067D01*
X69938Y47045D01*
X69965Y47012D01*
X69993Y46974D01*
X70042Y46887D01*
X70047Y46881D01*
X70053Y46865D01*
X70064Y46837D01*
X70075Y46805D01*
X70086Y46761D01*
X70096Y46717D01*
X70107Y46663D01*
Y46608D01*
Y46597D01*
Y46570D01*
X70102Y46532D01*
X70096Y46477D01*
X70086Y46417D01*
X70069Y46351D01*
X70047Y46280D01*
X70020Y46209D01*
X70015Y46204D01*
X70004Y46177D01*
X69982Y46144D01*
X69954Y46100D01*
X69916Y46051D01*
X69873Y45996D01*
X69818Y45942D01*
X69758Y45887D01*
X69752Y45882D01*
X69725Y45865D01*
X69692Y45838D01*
X69643Y45811D01*
X69578Y45773D01*
X69507Y45740D01*
X69419Y45702D01*
X69327Y45669D01*
X69321D01*
X69316Y45663D01*
X69299D01*
X69283Y45658D01*
X69228Y45647D01*
X69152Y45631D01*
X69064Y45614D01*
X68961Y45603D01*
X68846Y45598D01*
X68721Y45592D01*
X68606D01*
X68551Y45598D01*
X68497D01*
X68376Y45609D01*
X68349D01*
X68322Y45614D01*
X68284D01*
X68240Y45620D01*
X68191Y45625D01*
X68093Y45636D01*
Y46018D01*
X68098D01*
X68120Y46013D01*
X68147Y46007D01*
X68185Y46002D01*
X68235Y45996D01*
X68289Y45991D01*
X68409Y45975D01*
X68442D01*
X68475Y45969D01*
X68573D01*
X68633Y45964D01*
X68846D01*
X68901Y45969D01*
X68966Y45975D01*
X69032Y45980D01*
X69103Y45991D01*
X69168Y46002D01*
X69174D01*
X69195Y46013D01*
X69228Y46018D01*
X69266Y46035D01*
X69359Y46073D01*
X69403Y46100D01*
X69447Y46128D01*
X69452Y46133D01*
X69463Y46144D01*
X69485Y46160D01*
X69507Y46182D01*
X69561Y46248D01*
X69583Y46280D01*
X69605Y46324D01*
Y46330D01*
X69616Y46346D01*
X69621Y46368D01*
X69632Y46400D01*
X69643Y46439D01*
X69649Y46482D01*
X69660Y46586D01*
Y46592D01*
Y46608D01*
X69654Y46635D01*
Y46663D01*
X69632Y46739D01*
X69621Y46777D01*
X69599Y46815D01*
Y46821D01*
X69589Y46832D01*
X69572Y46848D01*
X69556Y46876D01*
X69501Y46925D01*
X69430Y46979D01*
X69425Y46985D01*
X69414Y46990D01*
X69392Y47001D01*
X69359Y47017D01*
X69321Y47034D01*
X69277Y47050D01*
X69228Y47067D01*
X69174Y47078D01*
X69168D01*
X69146Y47083D01*
X69119Y47089D01*
X69081Y47099D01*
X69032Y47105D01*
X68977Y47110D01*
X68852Y47116D01*
X68486D01*
Y47465D01*
X68912D01*
X68944Y47471D01*
X68988Y47476D01*
X69032Y47482D01*
X69125Y47503D01*
X69130D01*
X69146Y47509D01*
X69168Y47520D01*
X69195Y47531D01*
X69261Y47563D01*
X69327Y47613D01*
X69332Y47618D01*
X69343Y47624D01*
X69359Y47640D01*
X69376Y47662D01*
X69419Y47716D01*
X69458Y47787D01*
Y47793D01*
X69463Y47804D01*
X69474Y47826D01*
X69485Y47858D01*
X69490Y47891D01*
X69501Y47935D01*
X69507Y48028D01*
Y48033D01*
Y48039D01*
Y48071D01*
X69501Y48115D01*
X69485Y48170D01*
X69468Y48235D01*
X69441Y48295D01*
X69403Y48355D01*
X69348Y48404D01*
X69343Y48410D01*
X69321Y48421D01*
X69283Y48443D01*
X69234Y48464D01*
X69168Y48486D01*
X69086Y48508D01*
X68994Y48519D01*
X68884Y48524D01*
X68824D01*
X68781Y48519D01*
X68731D01*
X68671Y48513D01*
X68546Y48492D01*
X68540D01*
X68519Y48486D01*
X68480Y48481D01*
X68437Y48470D01*
X68382Y48454D01*
X68322Y48437D01*
X68251Y48421D01*
X68180Y48399D01*
Y48770D01*
X68185D01*
X68196Y48776D01*
X68213Y48781D01*
X68235Y48787D01*
X68289Y48803D01*
X68355Y48819D01*
X68360D01*
X68371Y48825D01*
X68393D01*
X68415Y48830D01*
X68475Y48847D01*
X68546Y48858D01*
X68551D01*
X68562Y48863D01*
X68578D01*
X68606Y48868D01*
X68666Y48874D01*
X68731Y48885D01*
X68748D01*
X68770Y48890D01*
X68792D01*
X68852Y48896D01*
X68955D01*
X69004Y48890D01*
D02*
G37*
G36*
X66717Y31168D02*
X66782Y31163D01*
X66848Y31157D01*
X66995Y31135D01*
X67006D01*
X67028Y31130D01*
X67066Y31119D01*
X67115Y31108D01*
X67170Y31092D01*
X67230Y31070D01*
X67366Y31021D01*
Y30590D01*
X67361Y30595D01*
X67334Y30606D01*
X67301Y30622D01*
X67252Y30644D01*
X67197Y30666D01*
X67137Y30688D01*
X67001Y30731D01*
X66990D01*
X66968Y30742D01*
X66930Y30748D01*
X66881Y30759D01*
X66820Y30770D01*
X66749Y30775D01*
X66673Y30786D01*
X66553D01*
X66509Y30781D01*
X66455Y30775D01*
X66395Y30764D01*
X66324Y30748D01*
X66253Y30726D01*
X66182Y30699D01*
X66176Y30693D01*
X66154Y30682D01*
X66116Y30661D01*
X66078Y30633D01*
X66029Y30600D01*
X65974Y30557D01*
X65920Y30508D01*
X65870Y30448D01*
X65865Y30442D01*
X65848Y30420D01*
X65827Y30387D01*
X65799Y30338D01*
X65767Y30284D01*
X65734Y30213D01*
X65701Y30136D01*
X65674Y30054D01*
Y30044D01*
X65663Y30016D01*
X65652Y29967D01*
X65641Y29902D01*
X65630Y29825D01*
X65619Y29738D01*
X65614Y29640D01*
X65608Y29530D01*
Y29525D01*
Y29503D01*
Y29470D01*
X65614Y29427D01*
Y29377D01*
X65619Y29317D01*
X65630Y29252D01*
X65641Y29181D01*
X65668Y29028D01*
X65712Y28870D01*
X65777Y28722D01*
X65816Y28657D01*
X65860Y28591D01*
X65865Y28586D01*
X65870Y28580D01*
X65887Y28564D01*
X65909Y28542D01*
X65930Y28520D01*
X65963Y28493D01*
X66001Y28460D01*
X66045Y28433D01*
X66094Y28405D01*
X66149Y28373D01*
X66214Y28346D01*
X66280Y28324D01*
X66351Y28302D01*
X66427Y28291D01*
X66515Y28280D01*
X66602Y28275D01*
X66678D01*
X66728Y28280D01*
X66788Y28285D01*
X66853Y28291D01*
X66995Y28318D01*
X67006D01*
X67028Y28329D01*
X67066Y28340D01*
X67115Y28356D01*
X67170Y28373D01*
X67230Y28395D01*
X67366Y28455D01*
Y28040D01*
X67361D01*
X67350Y28034D01*
X67328Y28023D01*
X67301Y28018D01*
X67263Y28001D01*
X67219Y27991D01*
X67175Y27974D01*
X67121Y27963D01*
X66995Y27931D01*
X66859Y27909D01*
X66711Y27887D01*
X66553Y27881D01*
X66526D01*
X66487Y27887D01*
X66438D01*
X66384Y27892D01*
X66318Y27903D01*
X66247Y27914D01*
X66165Y27931D01*
X66083Y27952D01*
X65996Y27980D01*
X65909Y28012D01*
X65821Y28051D01*
X65739Y28100D01*
X65657Y28154D01*
X65575Y28214D01*
X65504Y28285D01*
X65499Y28291D01*
X65488Y28307D01*
X65472Y28329D01*
X65450Y28362D01*
X65423Y28405D01*
X65390Y28455D01*
X65357Y28520D01*
X65324Y28591D01*
X65292Y28668D01*
X65259Y28760D01*
X65226Y28859D01*
X65199Y28962D01*
X65177Y29083D01*
X65161Y29208D01*
X65150Y29345D01*
X65144Y29487D01*
Y29492D01*
Y29503D01*
Y29525D01*
Y29552D01*
X65150Y29585D01*
Y29629D01*
X65155Y29721D01*
X65166Y29825D01*
X65188Y29945D01*
X65210Y30065D01*
X65242Y30185D01*
Y30191D01*
X65248Y30202D01*
X65253Y30218D01*
X65259Y30240D01*
X65286Y30295D01*
X65314Y30371D01*
X65357Y30453D01*
X65406Y30540D01*
X65461Y30633D01*
X65526Y30715D01*
X65537Y30726D01*
X65559Y30753D01*
X65603Y30792D01*
X65657Y30841D01*
X65723Y30895D01*
X65799Y30950D01*
X65887Y31005D01*
X65980Y31054D01*
X65985D01*
X65991Y31059D01*
X66007Y31065D01*
X66029Y31070D01*
X66083Y31092D01*
X66154Y31114D01*
X66242Y31135D01*
X66345Y31157D01*
X66460Y31168D01*
X66580Y31174D01*
X66662D01*
X66717Y31168D01*
D02*
G37*
G36*
X69004Y31174D02*
X69064D01*
X69135Y31163D01*
X69206Y31152D01*
X69283Y31141D01*
X69359Y31119D01*
X69370D01*
X69392Y31108D01*
X69430Y31097D01*
X69474Y31081D01*
X69529Y31059D01*
X69583Y31032D01*
X69638Y30999D01*
X69687Y30961D01*
X69692Y30955D01*
X69709Y30944D01*
X69731Y30923D01*
X69763Y30890D01*
X69791Y30852D01*
X69823Y30813D01*
X69856Y30764D01*
X69884Y30710D01*
X69889Y30704D01*
X69894Y30682D01*
X69905Y30655D01*
X69922Y30611D01*
X69933Y30562D01*
X69943Y30508D01*
X69949Y30442D01*
X69954Y30377D01*
Y30371D01*
Y30366D01*
Y30333D01*
X69949Y30278D01*
X69938Y30218D01*
X69922Y30142D01*
X69894Y30065D01*
X69862Y29989D01*
X69813Y29912D01*
X69807Y29907D01*
X69785Y29880D01*
X69752Y29847D01*
X69709Y29809D01*
X69654Y29760D01*
X69589Y29711D01*
X69507Y29661D01*
X69419Y29618D01*
X69425D01*
X69441Y29612D01*
X69463Y29607D01*
X69496Y29601D01*
X69534Y29590D01*
X69578Y29574D01*
X69665Y29536D01*
X69670D01*
X69687Y29525D01*
X69709Y29514D01*
X69741Y29498D01*
X69813Y29448D01*
X69884Y29388D01*
X69889Y29383D01*
X69900Y29372D01*
X69916Y29350D01*
X69938Y29328D01*
X69965Y29296D01*
X69993Y29257D01*
X70042Y29170D01*
X70047Y29164D01*
X70053Y29148D01*
X70064Y29121D01*
X70075Y29088D01*
X70086Y29044D01*
X70096Y29001D01*
X70107Y28946D01*
Y28892D01*
Y28881D01*
Y28853D01*
X70102Y28815D01*
X70096Y28760D01*
X70086Y28700D01*
X70069Y28635D01*
X70047Y28564D01*
X70020Y28493D01*
X70015Y28487D01*
X70004Y28460D01*
X69982Y28427D01*
X69954Y28384D01*
X69916Y28335D01*
X69873Y28280D01*
X69818Y28225D01*
X69758Y28171D01*
X69752Y28165D01*
X69725Y28149D01*
X69692Y28122D01*
X69643Y28094D01*
X69578Y28056D01*
X69507Y28023D01*
X69419Y27985D01*
X69327Y27952D01*
X69321D01*
X69316Y27947D01*
X69299D01*
X69283Y27941D01*
X69228Y27931D01*
X69152Y27914D01*
X69064Y27898D01*
X68961Y27887D01*
X68846Y27881D01*
X68721Y27876D01*
X68606D01*
X68551Y27881D01*
X68497D01*
X68376Y27892D01*
X68349D01*
X68322Y27898D01*
X68284D01*
X68240Y27903D01*
X68191Y27909D01*
X68093Y27920D01*
Y28302D01*
X68098D01*
X68120Y28296D01*
X68147Y28291D01*
X68185Y28285D01*
X68235Y28280D01*
X68289Y28275D01*
X68409Y28258D01*
X68442D01*
X68475Y28253D01*
X68573D01*
X68633Y28247D01*
X68846D01*
X68901Y28253D01*
X68966Y28258D01*
X69032Y28264D01*
X69103Y28275D01*
X69168Y28285D01*
X69174D01*
X69195Y28296D01*
X69228Y28302D01*
X69266Y28318D01*
X69359Y28356D01*
X69403Y28384D01*
X69447Y28411D01*
X69452Y28416D01*
X69463Y28427D01*
X69485Y28444D01*
X69507Y28466D01*
X69561Y28531D01*
X69583Y28564D01*
X69605Y28607D01*
Y28613D01*
X69616Y28629D01*
X69621Y28651D01*
X69632Y28684D01*
X69643Y28722D01*
X69649Y28766D01*
X69660Y28870D01*
Y28875D01*
Y28892D01*
X69654Y28919D01*
Y28946D01*
X69632Y29022D01*
X69621Y29061D01*
X69599Y29099D01*
Y29104D01*
X69589Y29115D01*
X69572Y29132D01*
X69556Y29159D01*
X69501Y29208D01*
X69430Y29263D01*
X69425Y29268D01*
X69414Y29274D01*
X69392Y29285D01*
X69359Y29301D01*
X69321Y29317D01*
X69277Y29334D01*
X69228Y29350D01*
X69174Y29361D01*
X69168D01*
X69146Y29366D01*
X69119Y29372D01*
X69081Y29383D01*
X69032Y29388D01*
X68977Y29394D01*
X68852Y29399D01*
X68486D01*
Y29749D01*
X68912D01*
X68944Y29754D01*
X68988Y29760D01*
X69032Y29765D01*
X69125Y29787D01*
X69130D01*
X69146Y29792D01*
X69168Y29803D01*
X69195Y29814D01*
X69261Y29847D01*
X69327Y29896D01*
X69332Y29902D01*
X69343Y29907D01*
X69359Y29923D01*
X69376Y29945D01*
X69419Y30000D01*
X69458Y30071D01*
Y30076D01*
X69463Y30087D01*
X69474Y30109D01*
X69485Y30142D01*
X69490Y30175D01*
X69501Y30218D01*
X69507Y30311D01*
Y30316D01*
Y30322D01*
Y30355D01*
X69501Y30398D01*
X69485Y30453D01*
X69468Y30518D01*
X69441Y30579D01*
X69403Y30639D01*
X69348Y30688D01*
X69343Y30693D01*
X69321Y30704D01*
X69283Y30726D01*
X69234Y30748D01*
X69168Y30770D01*
X69086Y30792D01*
X68994Y30803D01*
X68884Y30808D01*
X68824D01*
X68781Y30803D01*
X68731D01*
X68671Y30797D01*
X68546Y30775D01*
X68540D01*
X68519Y30770D01*
X68480Y30764D01*
X68437Y30753D01*
X68382Y30737D01*
X68322Y30721D01*
X68251Y30704D01*
X68180Y30682D01*
Y31054D01*
X68185D01*
X68196Y31059D01*
X68213Y31065D01*
X68235Y31070D01*
X68289Y31086D01*
X68355Y31103D01*
X68360D01*
X68371Y31108D01*
X68393D01*
X68415Y31114D01*
X68475Y31130D01*
X68546Y31141D01*
X68551D01*
X68562Y31146D01*
X68578D01*
X68606Y31152D01*
X68666Y31157D01*
X68731Y31168D01*
X68748D01*
X68770Y31174D01*
X68792D01*
X68852Y31179D01*
X68955D01*
X69004Y31174D01*
D02*
G37*
G36*
X71849Y31125D02*
X71915Y31119D01*
X71996Y31108D01*
X72084Y31086D01*
X72182Y31065D01*
X72280Y31032D01*
X72379Y30994D01*
X72477Y30939D01*
X72564Y30879D01*
X72646Y30803D01*
X72712Y30710D01*
X72766Y30606D01*
X72799Y30486D01*
X72805Y30420D01*
X72810Y30349D01*
Y30344D01*
Y30338D01*
Y30306D01*
X72805Y30257D01*
X72794Y30196D01*
X72777Y30125D01*
X72755Y30049D01*
X72728Y29972D01*
X72685Y29902D01*
X72679Y29896D01*
X72663Y29869D01*
X72630Y29836D01*
X72592Y29798D01*
X72537Y29754D01*
X72466Y29705D01*
X72384Y29661D01*
X72286Y29623D01*
X72291D01*
X72308Y29618D01*
X72335Y29612D01*
X72368Y29607D01*
X72444Y29579D01*
X72532Y29541D01*
X72537D01*
X72553Y29530D01*
X72575Y29519D01*
X72602Y29498D01*
X72668Y29454D01*
X72734Y29388D01*
X72739Y29383D01*
X72750Y29372D01*
X72766Y29350D01*
X72783Y29328D01*
X72805Y29296D01*
X72826Y29257D01*
X72870Y29164D01*
Y29159D01*
X72881Y29143D01*
X72887Y29115D01*
X72897Y29083D01*
X72908Y29039D01*
X72914Y28990D01*
X72925Y28881D01*
Y28870D01*
Y28842D01*
X72919Y28799D01*
X72914Y28739D01*
X72903Y28679D01*
X72887Y28607D01*
X72865Y28537D01*
X72832Y28466D01*
X72826Y28460D01*
X72816Y28438D01*
X72794Y28405D01*
X72766Y28362D01*
X72734Y28318D01*
X72690Y28264D01*
X72641Y28214D01*
X72581Y28165D01*
X72575Y28160D01*
X72553Y28143D01*
X72515Y28122D01*
X72471Y28100D01*
X72412Y28067D01*
X72346Y28034D01*
X72269Y28007D01*
X72182Y27980D01*
X72171D01*
X72144Y27969D01*
X72095Y27963D01*
X72035Y27952D01*
X71958Y27941D01*
X71871Y27931D01*
X71773Y27925D01*
X71669Y27920D01*
X70844D01*
Y31130D01*
X71794D01*
X71849Y31125D01*
D02*
G37*
G36*
X66717Y37074D02*
X66782Y37068D01*
X66848Y37063D01*
X66995Y37041D01*
X67006D01*
X67028Y37036D01*
X67066Y37025D01*
X67115Y37014D01*
X67170Y36997D01*
X67230Y36975D01*
X67366Y36926D01*
Y36495D01*
X67361Y36500D01*
X67334Y36511D01*
X67301Y36528D01*
X67252Y36550D01*
X67197Y36571D01*
X67137Y36593D01*
X67001Y36637D01*
X66990D01*
X66968Y36648D01*
X66930Y36653D01*
X66881Y36664D01*
X66820Y36675D01*
X66749Y36681D01*
X66673Y36692D01*
X66553D01*
X66509Y36686D01*
X66455Y36681D01*
X66395Y36670D01*
X66324Y36653D01*
X66253Y36632D01*
X66182Y36604D01*
X66176Y36599D01*
X66154Y36588D01*
X66116Y36566D01*
X66078Y36539D01*
X66029Y36506D01*
X65974Y36462D01*
X65920Y36413D01*
X65870Y36353D01*
X65865Y36348D01*
X65848Y36326D01*
X65827Y36293D01*
X65799Y36244D01*
X65767Y36189D01*
X65734Y36118D01*
X65701Y36042D01*
X65674Y35960D01*
Y35949D01*
X65663Y35922D01*
X65652Y35873D01*
X65641Y35807D01*
X65630Y35731D01*
X65619Y35643D01*
X65614Y35545D01*
X65608Y35436D01*
Y35430D01*
Y35408D01*
Y35376D01*
X65614Y35332D01*
Y35283D01*
X65619Y35223D01*
X65630Y35157D01*
X65641Y35086D01*
X65668Y34934D01*
X65712Y34775D01*
X65777Y34628D01*
X65816Y34562D01*
X65860Y34497D01*
X65865Y34491D01*
X65870Y34486D01*
X65887Y34469D01*
X65909Y34448D01*
X65930Y34426D01*
X65963Y34398D01*
X66001Y34366D01*
X66045Y34338D01*
X66094Y34311D01*
X66149Y34278D01*
X66214Y34251D01*
X66280Y34229D01*
X66351Y34207D01*
X66427Y34196D01*
X66515Y34185D01*
X66602Y34180D01*
X66678D01*
X66728Y34185D01*
X66788Y34191D01*
X66853Y34196D01*
X66995Y34224D01*
X67006D01*
X67028Y34235D01*
X67066Y34245D01*
X67115Y34262D01*
X67170Y34278D01*
X67230Y34300D01*
X67366Y34360D01*
Y33945D01*
X67361D01*
X67350Y33940D01*
X67328Y33929D01*
X67301Y33923D01*
X67263Y33907D01*
X67219Y33896D01*
X67175Y33880D01*
X67121Y33869D01*
X66995Y33836D01*
X66859Y33814D01*
X66711Y33792D01*
X66553Y33787D01*
X66526D01*
X66487Y33792D01*
X66438D01*
X66384Y33798D01*
X66318Y33809D01*
X66247Y33820D01*
X66165Y33836D01*
X66083Y33858D01*
X65996Y33885D01*
X65909Y33918D01*
X65821Y33956D01*
X65739Y34005D01*
X65657Y34060D01*
X65575Y34120D01*
X65504Y34191D01*
X65499Y34196D01*
X65488Y34213D01*
X65472Y34235D01*
X65450Y34267D01*
X65423Y34311D01*
X65390Y34360D01*
X65357Y34426D01*
X65324Y34497D01*
X65292Y34573D01*
X65259Y34666D01*
X65226Y34764D01*
X65199Y34868D01*
X65177Y34988D01*
X65161Y35114D01*
X65150Y35250D01*
X65144Y35392D01*
Y35398D01*
Y35408D01*
Y35430D01*
Y35458D01*
X65150Y35490D01*
Y35534D01*
X65155Y35627D01*
X65166Y35731D01*
X65188Y35851D01*
X65210Y35971D01*
X65242Y36091D01*
Y36096D01*
X65248Y36107D01*
X65253Y36124D01*
X65259Y36146D01*
X65286Y36200D01*
X65314Y36277D01*
X65357Y36358D01*
X65406Y36446D01*
X65461Y36539D01*
X65526Y36621D01*
X65537Y36632D01*
X65559Y36659D01*
X65603Y36697D01*
X65657Y36746D01*
X65723Y36801D01*
X65799Y36855D01*
X65887Y36910D01*
X65980Y36959D01*
X65985D01*
X65991Y36965D01*
X66007Y36970D01*
X66029Y36975D01*
X66083Y36997D01*
X66154Y37019D01*
X66242Y37041D01*
X66345Y37063D01*
X66460Y37074D01*
X66580Y37079D01*
X66662D01*
X66717Y37074D01*
D02*
G37*
G36*
X69004Y37079D02*
X69064D01*
X69135Y37068D01*
X69206Y37057D01*
X69283Y37047D01*
X69359Y37025D01*
X69370D01*
X69392Y37014D01*
X69430Y37003D01*
X69474Y36986D01*
X69529Y36965D01*
X69583Y36937D01*
X69638Y36904D01*
X69687Y36866D01*
X69692Y36861D01*
X69709Y36850D01*
X69731Y36828D01*
X69763Y36795D01*
X69791Y36757D01*
X69823Y36719D01*
X69856Y36670D01*
X69884Y36615D01*
X69889Y36610D01*
X69894Y36588D01*
X69905Y36561D01*
X69922Y36517D01*
X69933Y36468D01*
X69943Y36413D01*
X69949Y36348D01*
X69954Y36282D01*
Y36277D01*
Y36271D01*
Y36238D01*
X69949Y36184D01*
X69938Y36124D01*
X69922Y36047D01*
X69894Y35971D01*
X69862Y35894D01*
X69813Y35818D01*
X69807Y35813D01*
X69785Y35785D01*
X69752Y35752D01*
X69709Y35714D01*
X69654Y35665D01*
X69589Y35616D01*
X69507Y35567D01*
X69419Y35523D01*
X69425D01*
X69441Y35518D01*
X69463Y35512D01*
X69496Y35507D01*
X69534Y35496D01*
X69578Y35480D01*
X69665Y35441D01*
X69670D01*
X69687Y35430D01*
X69709Y35419D01*
X69741Y35403D01*
X69813Y35354D01*
X69884Y35294D01*
X69889Y35288D01*
X69900Y35277D01*
X69916Y35256D01*
X69938Y35234D01*
X69965Y35201D01*
X69993Y35163D01*
X70042Y35075D01*
X70047Y35070D01*
X70053Y35054D01*
X70064Y35026D01*
X70075Y34993D01*
X70086Y34950D01*
X70096Y34906D01*
X70107Y34852D01*
Y34797D01*
Y34786D01*
Y34759D01*
X70102Y34721D01*
X70096Y34666D01*
X70086Y34606D01*
X70069Y34540D01*
X70047Y34469D01*
X70020Y34398D01*
X70015Y34393D01*
X70004Y34366D01*
X69982Y34333D01*
X69954Y34289D01*
X69916Y34240D01*
X69873Y34185D01*
X69818Y34131D01*
X69758Y34076D01*
X69752Y34071D01*
X69725Y34054D01*
X69692Y34027D01*
X69643Y34000D01*
X69578Y33962D01*
X69507Y33929D01*
X69419Y33891D01*
X69327Y33858D01*
X69321D01*
X69316Y33852D01*
X69299D01*
X69283Y33847D01*
X69228Y33836D01*
X69152Y33820D01*
X69064Y33803D01*
X68961Y33792D01*
X68846Y33787D01*
X68721Y33781D01*
X68606D01*
X68551Y33787D01*
X68497D01*
X68376Y33798D01*
X68349D01*
X68322Y33803D01*
X68284D01*
X68240Y33809D01*
X68191Y33814D01*
X68093Y33825D01*
Y34207D01*
X68098D01*
X68120Y34202D01*
X68147Y34196D01*
X68185Y34191D01*
X68235Y34185D01*
X68289Y34180D01*
X68409Y34164D01*
X68442D01*
X68475Y34158D01*
X68573D01*
X68633Y34153D01*
X68846D01*
X68901Y34158D01*
X68966Y34164D01*
X69032Y34169D01*
X69103Y34180D01*
X69168Y34191D01*
X69174D01*
X69195Y34202D01*
X69228Y34207D01*
X69266Y34224D01*
X69359Y34262D01*
X69403Y34289D01*
X69447Y34317D01*
X69452Y34322D01*
X69463Y34333D01*
X69485Y34349D01*
X69507Y34371D01*
X69561Y34437D01*
X69583Y34469D01*
X69605Y34513D01*
Y34519D01*
X69616Y34535D01*
X69621Y34557D01*
X69632Y34589D01*
X69643Y34628D01*
X69649Y34671D01*
X69660Y34775D01*
Y34781D01*
Y34797D01*
X69654Y34824D01*
Y34852D01*
X69632Y34928D01*
X69621Y34966D01*
X69599Y35004D01*
Y35010D01*
X69589Y35021D01*
X69572Y35037D01*
X69556Y35065D01*
X69501Y35114D01*
X69430Y35168D01*
X69425Y35174D01*
X69414Y35179D01*
X69392Y35190D01*
X69359Y35206D01*
X69321Y35223D01*
X69277Y35239D01*
X69228Y35256D01*
X69174Y35267D01*
X69168D01*
X69146Y35272D01*
X69119Y35277D01*
X69081Y35288D01*
X69032Y35294D01*
X68977Y35299D01*
X68852Y35305D01*
X68486D01*
Y35654D01*
X68912D01*
X68944Y35660D01*
X68988Y35665D01*
X69032Y35671D01*
X69125Y35692D01*
X69130D01*
X69146Y35698D01*
X69168Y35709D01*
X69195Y35720D01*
X69261Y35752D01*
X69327Y35802D01*
X69332Y35807D01*
X69343Y35813D01*
X69359Y35829D01*
X69376Y35851D01*
X69419Y35905D01*
X69458Y35976D01*
Y35982D01*
X69463Y35993D01*
X69474Y36015D01*
X69485Y36047D01*
X69490Y36080D01*
X69501Y36124D01*
X69507Y36217D01*
Y36222D01*
Y36228D01*
Y36260D01*
X69501Y36304D01*
X69485Y36358D01*
X69468Y36424D01*
X69441Y36484D01*
X69403Y36544D01*
X69348Y36593D01*
X69343Y36599D01*
X69321Y36610D01*
X69283Y36632D01*
X69234Y36653D01*
X69168Y36675D01*
X69086Y36697D01*
X68994Y36708D01*
X68884Y36713D01*
X68824D01*
X68781Y36708D01*
X68731D01*
X68671Y36702D01*
X68546Y36681D01*
X68540D01*
X68519Y36675D01*
X68480Y36670D01*
X68437Y36659D01*
X68382Y36643D01*
X68322Y36626D01*
X68251Y36610D01*
X68180Y36588D01*
Y36959D01*
X68185D01*
X68196Y36965D01*
X68213Y36970D01*
X68235Y36975D01*
X68289Y36992D01*
X68355Y37008D01*
X68360D01*
X68371Y37014D01*
X68393D01*
X68415Y37019D01*
X68475Y37036D01*
X68546Y37047D01*
X68551D01*
X68562Y37052D01*
X68578D01*
X68606Y37057D01*
X68666Y37063D01*
X68731Y37074D01*
X68748D01*
X68770Y37079D01*
X68792D01*
X68852Y37085D01*
X68955D01*
X69004Y37079D01*
D02*
G37*
G36*
X73198Y33825D02*
X72723D01*
X72499Y34524D01*
X71156D01*
X70932Y33825D01*
X70479D01*
X71543Y37036D01*
X72144D01*
X73198Y33825D01*
D02*
G37*
G36*
X122092Y56756D02*
X122158Y56751D01*
X122223Y56745D01*
X122371Y56723D01*
X122382D01*
X122404Y56718D01*
X122442Y56707D01*
X122491Y56696D01*
X122546Y56680D01*
X122606Y56658D01*
X122742Y56609D01*
Y56177D01*
X122737Y56183D01*
X122709Y56194D01*
X122677Y56210D01*
X122627Y56232D01*
X122573Y56254D01*
X122513Y56276D01*
X122376Y56319D01*
X122365D01*
X122344Y56330D01*
X122305Y56336D01*
X122256Y56347D01*
X122196Y56358D01*
X122125Y56363D01*
X122049Y56374D01*
X121929D01*
X121885Y56368D01*
X121830Y56363D01*
X121770Y56352D01*
X121699Y56336D01*
X121628Y56314D01*
X121557Y56287D01*
X121552Y56281D01*
X121530Y56270D01*
X121492Y56248D01*
X121453Y56221D01*
X121404Y56188D01*
X121350Y56145D01*
X121295Y56095D01*
X121246Y56035D01*
X121241Y56030D01*
X121224Y56008D01*
X121202Y55975D01*
X121175Y55926D01*
X121142Y55872D01*
X121110Y55801D01*
X121077Y55724D01*
X121049Y55642D01*
Y55631D01*
X121039Y55604D01*
X121028Y55555D01*
X121017Y55489D01*
X121006Y55413D01*
X120995Y55326D01*
X120989Y55227D01*
X120984Y55118D01*
Y55113D01*
Y55091D01*
Y55058D01*
X120989Y55014D01*
Y54965D01*
X120995Y54905D01*
X121006Y54840D01*
X121017Y54769D01*
X121044Y54616D01*
X121088Y54457D01*
X121153Y54310D01*
X121192Y54245D01*
X121235Y54179D01*
X121241Y54173D01*
X121246Y54168D01*
X121262Y54152D01*
X121284Y54130D01*
X121306Y54108D01*
X121339Y54081D01*
X121377Y54048D01*
X121421Y54021D01*
X121470Y53993D01*
X121525Y53961D01*
X121590Y53933D01*
X121656Y53912D01*
X121727Y53890D01*
X121803Y53879D01*
X121890Y53868D01*
X121978Y53862D01*
X122054D01*
X122103Y53868D01*
X122163Y53873D01*
X122229Y53879D01*
X122371Y53906D01*
X122382D01*
X122404Y53917D01*
X122442Y53928D01*
X122491Y53944D01*
X122546Y53961D01*
X122606Y53982D01*
X122742Y54043D01*
Y53628D01*
X122737D01*
X122726Y53622D01*
X122704Y53611D01*
X122677Y53606D01*
X122638Y53589D01*
X122595Y53578D01*
X122551Y53562D01*
X122496Y53551D01*
X122371Y53518D01*
X122234Y53496D01*
X122087Y53475D01*
X121929Y53469D01*
X121901D01*
X121863Y53475D01*
X121814D01*
X121759Y53480D01*
X121694Y53491D01*
X121623Y53502D01*
X121541Y53518D01*
X121459Y53540D01*
X121372Y53567D01*
X121284Y53600D01*
X121197Y53638D01*
X121115Y53688D01*
X121033Y53742D01*
X120951Y53802D01*
X120880Y53873D01*
X120875Y53879D01*
X120864Y53895D01*
X120847Y53917D01*
X120826Y53950D01*
X120798Y53993D01*
X120766Y54043D01*
X120733Y54108D01*
X120700Y54179D01*
X120667Y54255D01*
X120634Y54348D01*
X120602Y54447D01*
X120574Y54550D01*
X120553Y54670D01*
X120536Y54796D01*
X120525Y54932D01*
X120520Y55074D01*
Y55080D01*
Y55091D01*
Y55113D01*
Y55140D01*
X120525Y55173D01*
Y55216D01*
X120531Y55309D01*
X120542Y55413D01*
X120564Y55533D01*
X120585Y55653D01*
X120618Y55773D01*
Y55779D01*
X120624Y55790D01*
X120629Y55806D01*
X120634Y55828D01*
X120662Y55883D01*
X120689Y55959D01*
X120733Y56041D01*
X120782Y56128D01*
X120837Y56221D01*
X120902Y56303D01*
X120913Y56314D01*
X120935Y56341D01*
X120978Y56379D01*
X121033Y56428D01*
X121099Y56483D01*
X121175Y56538D01*
X121262Y56592D01*
X121355Y56641D01*
X121361D01*
X121366Y56647D01*
X121383Y56652D01*
X121404Y56658D01*
X121459Y56680D01*
X121530Y56701D01*
X121617Y56723D01*
X121721Y56745D01*
X121836Y56756D01*
X121956Y56762D01*
X122038D01*
X122092Y56756D01*
D02*
G37*
G36*
X124478Y56762D02*
X124533D01*
X124593Y56751D01*
X124659Y56740D01*
X124730Y56723D01*
X124795Y56701D01*
X124801Y56696D01*
X124822Y56691D01*
X124855Y56674D01*
X124899Y56652D01*
X124948Y56625D01*
X124997Y56598D01*
X125095Y56516D01*
X125101Y56510D01*
X125117Y56494D01*
X125139Y56467D01*
X125172Y56434D01*
X125205Y56390D01*
X125237Y56341D01*
X125270Y56287D01*
X125297Y56221D01*
X125303Y56216D01*
X125308Y56188D01*
X125319Y56156D01*
X125336Y56106D01*
X125347Y56046D01*
X125357Y55981D01*
X125363Y55910D01*
X125368Y55828D01*
Y55822D01*
Y55795D01*
Y55762D01*
X125363Y55713D01*
X125357Y55664D01*
X125347Y55604D01*
X125319Y55484D01*
Y55479D01*
X125308Y55457D01*
X125297Y55424D01*
X125281Y55386D01*
X125259Y55336D01*
X125232Y55282D01*
X125166Y55167D01*
X125161Y55162D01*
X125150Y55140D01*
X125128Y55113D01*
X125101Y55069D01*
X125063Y55020D01*
X125019Y54965D01*
X124970Y54905D01*
X124915Y54845D01*
X124910Y54840D01*
X124888Y54818D01*
X124855Y54785D01*
X124817Y54741D01*
X124762Y54687D01*
X124702Y54627D01*
X124637Y54556D01*
X124560Y54485D01*
X123981Y53917D01*
X125543D01*
Y53507D01*
X123425D01*
Y53890D01*
X124249Y54714D01*
X124260Y54725D01*
X124282Y54747D01*
X124320Y54785D01*
X124369Y54834D01*
X124424Y54889D01*
X124478Y54949D01*
X124533Y55009D01*
X124582Y55063D01*
X124588Y55069D01*
X124604Y55091D01*
X124626Y55118D01*
X124653Y55151D01*
X124686Y55195D01*
X124719Y55238D01*
X124779Y55331D01*
X124784Y55336D01*
X124790Y55353D01*
X124806Y55375D01*
X124822Y55408D01*
X124855Y55479D01*
X124877Y55560D01*
Y55566D01*
X124882Y55582D01*
X124888Y55604D01*
X124893Y55631D01*
Y55664D01*
X124899Y55708D01*
X124904Y55795D01*
Y55801D01*
Y55817D01*
Y55839D01*
X124899Y55866D01*
X124893Y55943D01*
X124872Y56019D01*
Y56024D01*
X124866Y56035D01*
X124861Y56057D01*
X124850Y56085D01*
X124817Y56145D01*
X124773Y56210D01*
X124768Y56216D01*
X124762Y56226D01*
X124746Y56237D01*
X124730Y56259D01*
X124670Y56297D01*
X124599Y56341D01*
X124593D01*
X124582Y56347D01*
X124560Y56358D01*
X124528Y56368D01*
X124489Y56374D01*
X124451Y56385D01*
X124402Y56390D01*
X124315D01*
X124276Y56385D01*
X124227Y56379D01*
X124167Y56368D01*
X124107Y56352D01*
X124042Y56330D01*
X123976Y56297D01*
X123971Y56292D01*
X123949Y56281D01*
X123916Y56259D01*
X123872Y56232D01*
X123829Y56199D01*
X123774Y56161D01*
X123725Y56112D01*
X123670Y56063D01*
X123435Y56341D01*
X123446Y56352D01*
X123468Y56374D01*
X123506Y56407D01*
X123556Y56450D01*
X123616Y56499D01*
X123687Y56549D01*
X123763Y56603D01*
X123851Y56647D01*
X123856D01*
X123861Y56652D01*
X123894Y56663D01*
X123943Y56685D01*
X124009Y56707D01*
X124091Y56729D01*
X124183Y56751D01*
X124287Y56762D01*
X124402Y56767D01*
X124440D01*
X124478Y56762D01*
D02*
G37*
G36*
X122092Y50853D02*
X122158Y50848D01*
X122223Y50842D01*
X122371Y50821D01*
X122382D01*
X122404Y50815D01*
X122442Y50804D01*
X122491Y50793D01*
X122546Y50777D01*
X122606Y50755D01*
X122742Y50706D01*
Y50275D01*
X122737Y50280D01*
X122709Y50291D01*
X122677Y50307D01*
X122627Y50329D01*
X122573Y50351D01*
X122513Y50373D01*
X122376Y50416D01*
X122365D01*
X122344Y50427D01*
X122305Y50433D01*
X122256Y50444D01*
X122196Y50455D01*
X122125Y50460D01*
X122049Y50471D01*
X121929D01*
X121885Y50466D01*
X121830Y50460D01*
X121770Y50449D01*
X121699Y50433D01*
X121628Y50411D01*
X121557Y50384D01*
X121552Y50378D01*
X121530Y50367D01*
X121492Y50345D01*
X121453Y50318D01*
X121404Y50286D01*
X121350Y50242D01*
X121295Y50193D01*
X121246Y50133D01*
X121241Y50127D01*
X121224Y50105D01*
X121202Y50073D01*
X121175Y50023D01*
X121142Y49969D01*
X121110Y49898D01*
X121077Y49821D01*
X121049Y49740D01*
Y49729D01*
X121039Y49701D01*
X121028Y49652D01*
X121017Y49587D01*
X121006Y49510D01*
X120995Y49423D01*
X120989Y49325D01*
X120984Y49215D01*
Y49210D01*
Y49188D01*
Y49155D01*
X120989Y49112D01*
Y49062D01*
X120995Y49002D01*
X121006Y48937D01*
X121017Y48866D01*
X121044Y48713D01*
X121088Y48555D01*
X121153Y48407D01*
X121192Y48342D01*
X121235Y48276D01*
X121241Y48271D01*
X121246Y48265D01*
X121262Y48249D01*
X121284Y48227D01*
X121306Y48205D01*
X121339Y48178D01*
X121377Y48145D01*
X121421Y48118D01*
X121470Y48091D01*
X121525Y48058D01*
X121590Y48030D01*
X121656Y48009D01*
X121727Y47987D01*
X121803Y47976D01*
X121890Y47965D01*
X121978Y47960D01*
X122054D01*
X122103Y47965D01*
X122163Y47970D01*
X122229Y47976D01*
X122371Y48003D01*
X122382D01*
X122404Y48014D01*
X122442Y48025D01*
X122491Y48041D01*
X122546Y48058D01*
X122606Y48080D01*
X122742Y48140D01*
Y47725D01*
X122737D01*
X122726Y47719D01*
X122704Y47708D01*
X122677Y47703D01*
X122638Y47686D01*
X122595Y47676D01*
X122551Y47659D01*
X122496Y47648D01*
X122371Y47616D01*
X122234Y47594D01*
X122087Y47572D01*
X121929Y47566D01*
X121901D01*
X121863Y47572D01*
X121814D01*
X121759Y47577D01*
X121694Y47588D01*
X121623Y47599D01*
X121541Y47616D01*
X121459Y47637D01*
X121372Y47665D01*
X121284Y47697D01*
X121197Y47736D01*
X121115Y47785D01*
X121033Y47839D01*
X120951Y47899D01*
X120880Y47970D01*
X120875Y47976D01*
X120864Y47992D01*
X120847Y48014D01*
X120826Y48047D01*
X120798Y48091D01*
X120766Y48140D01*
X120733Y48205D01*
X120700Y48276D01*
X120667Y48353D01*
X120634Y48445D01*
X120602Y48544D01*
X120574Y48647D01*
X120553Y48768D01*
X120536Y48893D01*
X120525Y49030D01*
X120520Y49172D01*
Y49177D01*
Y49188D01*
Y49210D01*
Y49237D01*
X120525Y49270D01*
Y49314D01*
X120531Y49406D01*
X120542Y49510D01*
X120564Y49630D01*
X120585Y49750D01*
X120618Y49870D01*
Y49876D01*
X120624Y49887D01*
X120629Y49903D01*
X120634Y49925D01*
X120662Y49980D01*
X120689Y50056D01*
X120733Y50138D01*
X120782Y50225D01*
X120837Y50318D01*
X120902Y50400D01*
X120913Y50411D01*
X120935Y50438D01*
X120978Y50477D01*
X121033Y50526D01*
X121099Y50580D01*
X121175Y50635D01*
X121262Y50690D01*
X121355Y50739D01*
X121361D01*
X121366Y50744D01*
X121383Y50750D01*
X121404Y50755D01*
X121459Y50777D01*
X121530Y50799D01*
X121617Y50821D01*
X121721Y50842D01*
X121836Y50853D01*
X121956Y50859D01*
X122038D01*
X122092Y50853D01*
D02*
G37*
G36*
X124801Y48003D02*
X125516D01*
Y47605D01*
X123501D01*
Y48003D01*
X124326D01*
Y50345D01*
X123556Y49931D01*
X123403Y50296D01*
X124418Y50832D01*
X124801D01*
Y48003D01*
D02*
G37*
%LPC*%
G36*
X31133Y72573D02*
X27922D01*
Y70602D01*
X31133D01*
Y72573D01*
D02*
G37*
G36*
X29582Y70198D02*
X29511D01*
X29364Y70193D01*
X29227Y70182D01*
X29102Y70171D01*
X28982Y70149D01*
X28872Y70127D01*
X28774Y70100D01*
X28681Y70067D01*
X28599Y70040D01*
X28528Y70012D01*
X28463Y69980D01*
X28408Y69952D01*
X28365Y69931D01*
X28332Y69909D01*
X28310Y69892D01*
X28294Y69887D01*
X28288Y69881D01*
X28212Y69816D01*
X28152Y69750D01*
X28092Y69674D01*
X28048Y69598D01*
X28004Y69516D01*
X27972Y69439D01*
X27944Y69357D01*
X27922Y69281D01*
X27900Y69210D01*
X27890Y69144D01*
X27879Y69084D01*
X27873Y69030D01*
Y68986D01*
X27868Y68953D01*
Y68926D01*
X27873Y68828D01*
X27884Y68729D01*
X27895Y68642D01*
X27917Y68566D01*
X27933Y68506D01*
X27944Y68456D01*
X27955Y68424D01*
X27961Y68413D01*
X28004Y68325D01*
X28048Y68249D01*
X28097Y68178D01*
X28146Y68112D01*
X28190Y68063D01*
X28228Y68031D01*
X28250Y68003D01*
X28261Y67998D01*
X28343Y67932D01*
X28430Y67878D01*
X28517Y67829D01*
X28599Y67790D01*
X28676Y67758D01*
X28730Y67730D01*
X28752Y67725D01*
X28769Y67719D01*
X28780Y67714D01*
X28785D01*
X28911Y67681D01*
X29036Y67654D01*
X29162Y67637D01*
X29282Y67621D01*
X29386Y67616D01*
X29429D01*
X29467Y67610D01*
X27868D01*
D01*
X31187D01*
Y68904D01*
Y68888D01*
X31182Y68986D01*
X31171Y69084D01*
X31155Y69172D01*
X31138Y69248D01*
X31122Y69308D01*
X31106Y69357D01*
X31095Y69390D01*
X31089Y69396D01*
Y69401D01*
X31045Y69488D01*
X31002Y69570D01*
X30947Y69641D01*
X30898Y69701D01*
X30854Y69750D01*
X30816Y69789D01*
X30794Y69810D01*
X30783Y69822D01*
X30702Y69881D01*
X30620Y69936D01*
X30532Y69985D01*
X30450Y70024D01*
X30374Y70056D01*
X30319Y70078D01*
X30297Y70089D01*
X30281Y70094D01*
X30270Y70100D01*
X30265D01*
X30139Y70133D01*
X30013Y70155D01*
X29888Y70176D01*
X29768Y70187D01*
X29664Y70193D01*
X29620D01*
X29582Y70198D01*
D02*
G37*
G36*
X31133Y67512D02*
Y66562D01*
X27922Y67512D01*
D01*
Y66911D01*
X28556Y66731D01*
Y65612D01*
X27922Y65432D01*
Y65715D01*
Y64766D01*
X31133Y65715D01*
Y64766D01*
X27922D01*
D01*
X31133D01*
Y67512D01*
D02*
G37*
G36*
Y64542D02*
X27922D01*
Y63728D01*
X27928Y63575D01*
X27939Y63433D01*
X27961Y63313D01*
X27982Y63204D01*
X27988Y63160D01*
X27999Y63117D01*
X28010Y63084D01*
X28021Y63056D01*
X28026Y63035D01*
X28032Y63013D01*
X28037Y63007D01*
Y63002D01*
X28086Y62893D01*
X28135Y62794D01*
X28190Y62707D01*
X28245Y62636D01*
X28294Y62576D01*
X28332Y62532D01*
X28354Y62511D01*
X28365Y62500D01*
X28452Y62429D01*
X28539Y62369D01*
X28627Y62319D01*
X28709Y62281D01*
X28780Y62248D01*
X28840Y62227D01*
X28861Y62221D01*
X28878Y62216D01*
X28883Y62210D01*
X28889D01*
X29003Y62177D01*
X29123Y62156D01*
X29238Y62139D01*
X29342Y62128D01*
X29435Y62123D01*
X29473Y62117D01*
X27922D01*
D01*
X31133D01*
D01*
X29566D01*
X29713Y62123D01*
X29850Y62134D01*
X29970Y62145D01*
X30074Y62161D01*
X30156Y62183D01*
X30188Y62188D01*
X30215Y62194D01*
X30243Y62199D01*
X30259Y62205D01*
X30265Y62210D01*
X30270D01*
X30374Y62248D01*
X30472Y62292D01*
X30554Y62341D01*
X30625Y62385D01*
X30680Y62423D01*
X30723Y62456D01*
X30745Y62478D01*
X30756Y62489D01*
X30822Y62560D01*
X30882Y62642D01*
X30931Y62718D01*
X30969Y62789D01*
X31002Y62854D01*
X31024Y62904D01*
X31034Y62942D01*
X31040Y62947D01*
Y62953D01*
X31073Y63056D01*
X31095Y63166D01*
X31111Y63275D01*
X31122Y63373D01*
X31127Y63461D01*
X31133Y63499D01*
Y64542D01*
D02*
G37*
G36*
X29549Y59016D02*
X29478D01*
X29337Y59011D01*
X29200Y59000D01*
X29080Y58989D01*
X28982Y58967D01*
X28894Y58951D01*
X28861Y58945D01*
X28834Y58940D01*
X28812Y58934D01*
X28796Y58929D01*
X28785Y58923D01*
X28780D01*
X28676Y58885D01*
X28578Y58841D01*
X28496Y58798D01*
X28419Y58754D01*
X28365Y58710D01*
X28321Y58678D01*
X28294Y58656D01*
X28283Y58650D01*
X28212Y58579D01*
X28152Y58503D01*
X28097Y58426D01*
X28053Y58355D01*
X28021Y58290D01*
X27999Y58241D01*
X27982Y58208D01*
X27977Y58203D01*
Y58197D01*
X27944Y58093D01*
X27922Y57990D01*
X27900Y57886D01*
X27890Y57793D01*
X27884Y57706D01*
Y57673D01*
X27879Y57646D01*
Y57504D01*
X27884Y57427D01*
X27895Y57356D01*
X27900Y57296D01*
X27911Y57242D01*
X27917Y57203D01*
X27922Y57182D01*
Y57171D01*
X27961Y57018D01*
X27977Y56947D01*
X27999Y56887D01*
X28021Y56832D01*
X28032Y56788D01*
X28043Y56761D01*
X28048Y56750D01*
X27879D01*
D01*
X31182D01*
Y57542D01*
X31176Y57667D01*
X31166Y57782D01*
X31144Y57886D01*
X31127Y57973D01*
X31106Y58050D01*
X31084Y58104D01*
X31078Y58126D01*
X31073Y58143D01*
X31067Y58148D01*
Y58153D01*
X31018Y58252D01*
X30969Y58339D01*
X30914Y58421D01*
X30860Y58492D01*
X30811Y58547D01*
X30773Y58590D01*
X30745Y58612D01*
X30734Y58623D01*
X30647Y58688D01*
X30560Y58749D01*
X30467Y58798D01*
X30385Y58841D01*
X30308Y58874D01*
X30254Y58896D01*
X30232Y58907D01*
X30215Y58912D01*
X30205Y58918D01*
X30199D01*
X30079Y58951D01*
X29954Y58972D01*
X29833Y58994D01*
X29719Y59005D01*
X29626Y59011D01*
X29582D01*
X29549Y59016D01*
D02*
G37*
G36*
X31133Y55997D02*
X27922D01*
Y54064D01*
X31133D01*
Y55997D01*
D02*
G37*
G36*
Y53196D02*
X27922D01*
Y51225D01*
X31133D01*
Y53196D01*
D02*
G37*
G36*
Y50428D02*
X27922D01*
Y48456D01*
X31133D01*
Y50428D01*
D02*
G37*
G36*
X31187Y47905D02*
D01*
Y46649D01*
X31182Y46769D01*
X31176Y46873D01*
X31166Y46971D01*
X31149Y47053D01*
X31133Y47119D01*
X31122Y47168D01*
X31116Y47201D01*
X31111Y47206D01*
Y47212D01*
X31078Y47293D01*
X31045Y47365D01*
X31013Y47430D01*
X30980Y47485D01*
X30953Y47528D01*
X30931Y47561D01*
X30914Y47583D01*
X30909Y47588D01*
X30860Y47638D01*
X30811Y47687D01*
X30762Y47719D01*
X30712Y47752D01*
X30674Y47774D01*
X30641Y47796D01*
X30620Y47801D01*
X30614Y47807D01*
X30549Y47829D01*
X30488Y47845D01*
X30428Y47856D01*
X30368Y47861D01*
X30325Y47867D01*
X30286Y47872D01*
X30265D01*
X30254D01*
X30177Y47867D01*
X30112Y47861D01*
X30052Y47850D01*
X29997Y47839D01*
X29959Y47829D01*
X29926Y47818D01*
X29904Y47807D01*
X29899D01*
X29801Y47752D01*
X29757Y47725D01*
X29719Y47692D01*
X29691Y47670D01*
X29669Y47648D01*
X29653Y47638D01*
X29648Y47632D01*
X29577Y47545D01*
X29522Y47463D01*
X29500Y47425D01*
X29484Y47397D01*
X29478Y47381D01*
X29473Y47375D01*
X29424Y47272D01*
X29402Y47223D01*
X29380Y47179D01*
X29364Y47146D01*
X29353Y47113D01*
X29347Y47097D01*
X29342Y47091D01*
X29304Y46982D01*
X29287Y46933D01*
X29271Y46889D01*
X29255Y46857D01*
X29249Y46824D01*
X29238Y46808D01*
Y46802D01*
X29200Y46704D01*
X29184Y46660D01*
X29167Y46622D01*
X29151Y46595D01*
X29140Y46567D01*
X29135Y46556D01*
X29129Y46551D01*
X29080Y46474D01*
X29036Y46420D01*
X29014Y46398D01*
X29003Y46382D01*
X28993Y46376D01*
X28987Y46371D01*
X28954Y46349D01*
X28927Y46327D01*
X28861Y46311D01*
X28834Y46305D01*
X28812Y46300D01*
X28796D01*
X28791D01*
X28730Y46305D01*
X28681Y46316D01*
X28643Y46332D01*
X28638Y46338D01*
X28632D01*
X28583Y46371D01*
X28545Y46404D01*
X28517Y46436D01*
X28507Y46442D01*
Y46447D01*
X28474Y46507D01*
X28452Y46573D01*
X28441Y46600D01*
X28436Y46622D01*
X28430Y46638D01*
Y46644D01*
X28414Y46742D01*
X28408Y46791D01*
Y46835D01*
X28403Y46878D01*
Y47026D01*
X28408Y47102D01*
Y47135D01*
X28414Y47157D01*
Y47179D01*
X28430Y47266D01*
X28436Y47310D01*
X28441Y47348D01*
X28446Y47381D01*
X28452Y47403D01*
X28457Y47419D01*
Y47425D01*
X28479Y47517D01*
X28490Y47561D01*
X28496Y47599D01*
X28507Y47627D01*
X28512Y47654D01*
X28517Y47670D01*
Y47676D01*
X28545Y47763D01*
X28556Y47801D01*
X28567Y47834D01*
X28578Y47861D01*
X28589Y47883D01*
X28594Y47899D01*
Y47905D01*
X27999D01*
X27955Y47736D01*
X27939Y47659D01*
X27922Y47588D01*
X27911Y47528D01*
X27906Y47479D01*
X27900Y47452D01*
Y47441D01*
X27884Y47261D01*
X27873Y47179D01*
Y47102D01*
X27868Y47042D01*
Y46949D01*
X27873Y46846D01*
X27879Y46747D01*
X27890Y46660D01*
X27900Y46578D01*
X27911Y46518D01*
X27917Y46469D01*
X27928Y46436D01*
Y46425D01*
X27955Y46338D01*
X27982Y46256D01*
X28015Y46185D01*
X28043Y46125D01*
X28070Y46070D01*
X28092Y46038D01*
X28108Y46010D01*
X28113Y46005D01*
X28163Y45945D01*
X28217Y45890D01*
X28266Y45841D01*
X28321Y45803D01*
X28365Y45770D01*
X28397Y45748D01*
X28419Y45737D01*
X28430Y45732D01*
X28507Y45699D01*
X28583Y45677D01*
X28659Y45656D01*
X28736Y45645D01*
X28796Y45639D01*
X28845Y45634D01*
X27868D01*
D01*
X31187D01*
Y47905D01*
D02*
G37*
G36*
X29549Y42407D02*
X29478D01*
X29337Y42401D01*
X29200Y42390D01*
X29080Y42380D01*
X28982Y42358D01*
X28894Y42341D01*
X28861Y42336D01*
X28834Y42330D01*
X28812Y42325D01*
X28796Y42319D01*
X28785Y42314D01*
X28780D01*
X28676Y42276D01*
X28578Y42232D01*
X28496Y42188D01*
X28419Y42145D01*
X28365Y42101D01*
X28321Y42068D01*
X28294Y42046D01*
X28283Y42041D01*
X28212Y41970D01*
X28152Y41894D01*
X28097Y41817D01*
X28053Y41746D01*
X28021Y41681D01*
X27999Y41631D01*
X27982Y41599D01*
X27977Y41593D01*
Y41588D01*
X27944Y41484D01*
X27922Y41380D01*
X27900Y41277D01*
X27890Y41184D01*
X27884Y41096D01*
Y41064D01*
X27879Y41036D01*
Y42407D01*
D01*
Y40141D01*
X31182D01*
Y40933D01*
X31176Y41058D01*
X31166Y41173D01*
X31144Y41277D01*
X31127Y41364D01*
X31106Y41440D01*
X31084Y41495D01*
X31078Y41517D01*
X31073Y41533D01*
X31067Y41539D01*
Y41544D01*
X31018Y41642D01*
X30969Y41730D01*
X30914Y41812D01*
X30860Y41883D01*
X30811Y41937D01*
X30773Y41981D01*
X30745Y42003D01*
X30734Y42014D01*
X30647Y42079D01*
X30560Y42139D01*
X30467Y42188D01*
X30385Y42232D01*
X30308Y42265D01*
X30254Y42287D01*
X30232Y42298D01*
X30215Y42303D01*
X30205Y42309D01*
X30199D01*
X30079Y42341D01*
X29954Y42363D01*
X29833Y42385D01*
X29719Y42396D01*
X29626Y42401D01*
X29582D01*
X29549Y42407D01*
D02*
G37*
G36*
X29582Y39748D02*
X29511D01*
X29364Y39742D01*
X29227Y39731D01*
X29102Y39720D01*
X28982Y39699D01*
X28872Y39677D01*
X28774Y39650D01*
X28681Y39617D01*
X28599Y39589D01*
X28528Y39562D01*
X28463Y39529D01*
X28408Y39502D01*
X28365Y39480D01*
X28332Y39458D01*
X28310Y39442D01*
X28294Y39437D01*
X28288Y39431D01*
X28212Y39366D01*
X28152Y39300D01*
X28092Y39224D01*
X28048Y39147D01*
X28004Y39065D01*
X27972Y38989D01*
X27944Y38907D01*
X27922Y38831D01*
X27900Y38759D01*
X27890Y38694D01*
X27879Y38634D01*
X27873Y38579D01*
Y38536D01*
X27868Y38503D01*
Y38476D01*
X27873Y38377D01*
X27884Y38279D01*
X27895Y38192D01*
X27917Y38115D01*
X27933Y38055D01*
X27944Y38006D01*
X27955Y37973D01*
X27961Y37962D01*
X28004Y37875D01*
X28048Y37799D01*
X28097Y37728D01*
X28146Y37662D01*
X28190Y37613D01*
X28228Y37580D01*
X28250Y37553D01*
X28261Y37547D01*
X28343Y37482D01*
X28430Y37427D01*
X28517Y37378D01*
X28599Y37340D01*
X28676Y37307D01*
X28730Y37280D01*
X28752Y37274D01*
X28769Y37269D01*
X28780Y37264D01*
X28785D01*
X28911Y37231D01*
X29036Y37203D01*
X29162Y37187D01*
X29282Y37171D01*
X29386Y37165D01*
X29429D01*
X29467Y37160D01*
X27868D01*
Y38159D01*
Y37160D01*
X31187D01*
D01*
X29539D01*
X29686Y37165D01*
X29822Y37176D01*
X29954Y37187D01*
X30074Y37209D01*
X30183Y37236D01*
X30281Y37264D01*
X30374Y37291D01*
X30456Y37318D01*
X30527Y37351D01*
X30592Y37378D01*
X30647Y37405D01*
X30691Y37433D01*
X30723Y37455D01*
X30745Y37466D01*
X30762Y37476D01*
X30767Y37482D01*
X30843Y37547D01*
X30904Y37613D01*
X30964Y37689D01*
X31013Y37766D01*
X31051Y37848D01*
X31084Y37924D01*
X31111Y38006D01*
X31133Y38083D01*
X31155Y38153D01*
X31166Y38219D01*
X31176Y38279D01*
X31182Y38334D01*
X31187Y38377D01*
Y38437D01*
X31182Y38536D01*
X31171Y38634D01*
X31155Y38721D01*
X31138Y38798D01*
X31122Y38858D01*
X31106Y38907D01*
X31095Y38940D01*
X31089Y38945D01*
Y38951D01*
X31045Y39038D01*
X31002Y39120D01*
X30947Y39191D01*
X30898Y39251D01*
X30854Y39300D01*
X30816Y39338D01*
X30794Y39360D01*
X30783Y39371D01*
X30702Y39431D01*
X30620Y39486D01*
X30532Y39535D01*
X30450Y39573D01*
X30374Y39606D01*
X30319Y39628D01*
X30297Y39639D01*
X30281Y39644D01*
X30270Y39650D01*
X30265D01*
X30139Y39682D01*
X30013Y39704D01*
X29888Y39726D01*
X29768Y39737D01*
X29664Y39742D01*
X29620D01*
X29582Y39748D01*
D02*
G37*
G36*
X31133Y36843D02*
X27922D01*
Y34517D01*
X31133D01*
Y36843D01*
D02*
G37*
G36*
Y34075D02*
X27922D01*
Y31749D01*
X31133D01*
Y34075D01*
D02*
G37*
G36*
Y31083D02*
X27922D01*
Y29150D01*
X31133D01*
Y31083D01*
D02*
G37*
G36*
X29549Y28566D02*
X29478D01*
X29337Y28560D01*
X29200Y28549D01*
X29080Y28538D01*
X28982Y28517D01*
X28894Y28500D01*
X28861Y28495D01*
X28834Y28489D01*
X28812Y28484D01*
X28796Y28478D01*
X28785Y28473D01*
X28780D01*
X28676Y28435D01*
X28578Y28391D01*
X28496Y28347D01*
X28419Y28304D01*
X28365Y28260D01*
X28321Y28227D01*
X28294Y28205D01*
X28283Y28200D01*
X28212Y28129D01*
X28152Y28052D01*
X28097Y27976D01*
X28053Y27905D01*
X28021Y27839D01*
X27999Y27790D01*
X27982Y27758D01*
X27977Y27752D01*
Y27747D01*
X27944Y27643D01*
X27922Y27539D01*
X27900Y27435D01*
X27890Y27343D01*
X27884Y27255D01*
Y27222D01*
X27879Y27195D01*
Y27053D01*
X27884Y26977D01*
X27895Y26906D01*
X27900Y26846D01*
X27911Y26791D01*
X27917Y26753D01*
X27922Y26731D01*
Y26720D01*
X27961Y26567D01*
X27977Y26496D01*
X27999Y26436D01*
X28021Y26382D01*
X28032Y26338D01*
X28043Y26311D01*
X28048Y26300D01*
X27879D01*
D01*
X31182D01*
Y27092D01*
X31176Y27217D01*
X31166Y27332D01*
X31144Y27435D01*
X31127Y27523D01*
X31106Y27599D01*
X31084Y27654D01*
X31078Y27676D01*
X31073Y27692D01*
X31067Y27698D01*
Y27703D01*
X31018Y27801D01*
X30969Y27889D01*
X30914Y27970D01*
X30860Y28041D01*
X30811Y28096D01*
X30773Y28140D01*
X30745Y28162D01*
X30734Y28173D01*
X30647Y28238D01*
X30560Y28298D01*
X30467Y28347D01*
X30385Y28391D01*
X30308Y28424D01*
X30254Y28446D01*
X30232Y28457D01*
X30215Y28462D01*
X30205Y28467D01*
X30199D01*
X30079Y28500D01*
X29954Y28522D01*
X29833Y28544D01*
X29719Y28555D01*
X29626Y28560D01*
X29582D01*
X29549Y28566D01*
D02*
G37*
G36*
X31133Y25803D02*
X30630D01*
Y24924D01*
X27922D01*
Y25803D01*
Y23428D01*
X31133D01*
Y25803D01*
D02*
G37*
G36*
X29582Y23138D02*
X29511D01*
X29364Y23133D01*
X29227Y23122D01*
X29102Y23111D01*
X28982Y23089D01*
X28872Y23067D01*
X28774Y23040D01*
X28681Y23007D01*
X28599Y22980D01*
X28528Y22953D01*
X28463Y22920D01*
X28408Y22893D01*
X28365Y22871D01*
X28332Y22849D01*
X28310Y22833D01*
X28294Y22827D01*
X28288Y22822D01*
X28212Y22756D01*
X28152Y22691D01*
X28092Y22614D01*
X28048Y22538D01*
X28004Y22456D01*
X27972Y22379D01*
X27944Y22298D01*
X27922Y22221D01*
X27900Y22150D01*
X27890Y22085D01*
X27879Y22025D01*
X27873Y21970D01*
Y21926D01*
X27868Y21894D01*
Y21866D01*
X27873Y21768D01*
X27884Y21670D01*
X27895Y21582D01*
X27917Y21506D01*
X27933Y21446D01*
X27944Y21397D01*
X27955Y21364D01*
X27961Y21353D01*
X28004Y21266D01*
X28048Y21189D01*
X28097Y21118D01*
X28146Y21053D01*
X28190Y21004D01*
X28228Y20971D01*
X28250Y20944D01*
X28261Y20938D01*
X28343Y20873D01*
X28430Y20818D01*
X28517Y20769D01*
X28599Y20731D01*
X28676Y20698D01*
X28730Y20671D01*
X28752Y20665D01*
X28769Y20660D01*
X28780Y20654D01*
X28785D01*
X28911Y20621D01*
X29036Y20594D01*
X29162Y20578D01*
X29282Y20561D01*
X29386Y20556D01*
X29429D01*
X29467Y20550D01*
X27868D01*
Y21550D01*
Y20550D01*
X31187D01*
D01*
X29539D01*
X29686Y20556D01*
X29822Y20567D01*
X29954Y20578D01*
X30074Y20599D01*
X30183Y20627D01*
X30281Y20654D01*
X30374Y20682D01*
X30456Y20709D01*
X30527Y20741D01*
X30592Y20769D01*
X30647Y20796D01*
X30691Y20823D01*
X30723Y20845D01*
X30745Y20856D01*
X30762Y20867D01*
X30767Y20873D01*
X30843Y20938D01*
X30904Y21004D01*
X30964Y21080D01*
X31013Y21157D01*
X31051Y21238D01*
X31084Y21315D01*
X31111Y21397D01*
X31133Y21473D01*
X31155Y21544D01*
X31166Y21610D01*
X31176Y21670D01*
X31182Y21724D01*
X31187Y21768D01*
Y21828D01*
X31182Y21926D01*
X31171Y22025D01*
X31155Y22112D01*
X31138Y22188D01*
X31122Y22249D01*
X31106Y22298D01*
X31095Y22330D01*
X31089Y22336D01*
Y22341D01*
X31045Y22429D01*
X31002Y22511D01*
X30947Y22581D01*
X30898Y22642D01*
X30854Y22691D01*
X30816Y22729D01*
X30794Y22751D01*
X30783Y22762D01*
X30702Y22822D01*
X30620Y22876D01*
X30532Y22926D01*
X30450Y22964D01*
X30374Y22997D01*
X30319Y23018D01*
X30297Y23029D01*
X30281Y23035D01*
X30270Y23040D01*
X30265D01*
X30139Y23073D01*
X30013Y23095D01*
X29888Y23117D01*
X29768Y23128D01*
X29664Y23133D01*
X29620D01*
X29582Y23138D01*
D02*
G37*
G36*
X31133Y20146D02*
X27922D01*
Y17820D01*
X31133D01*
D01*
X27922D01*
X28998Y18334D01*
X29069Y18372D01*
X29135Y18405D01*
X29189Y18437D01*
X29233Y18470D01*
X29271Y18492D01*
X29293Y18514D01*
X29309Y18525D01*
X29315Y18530D01*
X29353Y18568D01*
X29380Y18607D01*
X29402Y18645D01*
X29424Y18678D01*
X29435Y18705D01*
X29440Y18727D01*
X29446Y18743D01*
Y18749D01*
X29473Y18639D01*
X29484Y18590D01*
X29500Y18547D01*
X29511Y18514D01*
X29522Y18486D01*
X29533Y18470D01*
Y18465D01*
X29582Y18372D01*
X29610Y18334D01*
X29637Y18301D01*
X29659Y18279D01*
X29675Y18257D01*
X29686Y18246D01*
X29691Y18241D01*
X29773Y18181D01*
X29850Y18137D01*
X29882Y18121D01*
X29910Y18110D01*
X29926Y18099D01*
X29932D01*
X30035Y18066D01*
X30090Y18055D01*
X30139Y18050D01*
X30183Y18044D01*
X30215D01*
X30237D01*
X30243D01*
X30330Y18050D01*
X30412Y18055D01*
X30483Y18072D01*
X30543Y18088D01*
X30592Y18104D01*
X30625Y18115D01*
X30652Y18126D01*
X30658Y18132D01*
X30718Y18164D01*
X30773Y18203D01*
X30816Y18241D01*
X30860Y18279D01*
X30887Y18312D01*
X30914Y18339D01*
X30925Y18361D01*
X30931Y18366D01*
X30969Y18427D01*
X31002Y18486D01*
X31029Y18547D01*
X31051Y18607D01*
X31062Y18656D01*
X31073Y18694D01*
X31084Y18721D01*
Y18732D01*
X31111Y18902D01*
X31122Y18978D01*
X31127Y19054D01*
X31133Y19120D01*
Y20146D01*
D02*
G37*
%LPD*%
G36*
Y70602D02*
X28441D01*
Y71956D01*
X31133D01*
Y70602D01*
D02*
G37*
G36*
X29724Y69554D02*
X29806Y69548D01*
X29872Y69543D01*
X29932Y69538D01*
X29970Y69532D01*
X29997Y69527D01*
X30008D01*
X30084Y69510D01*
X30150Y69494D01*
X30210Y69472D01*
X30259Y69456D01*
X30297Y69439D01*
X30330Y69423D01*
X30347Y69417D01*
X30352Y69412D01*
X30401Y69379D01*
X30445Y69346D01*
X30483Y69314D01*
X30510Y69281D01*
X30538Y69254D01*
X30554Y69232D01*
X30560Y69215D01*
X30565Y69210D01*
X30592Y69161D01*
X30609Y69112D01*
X30625Y69057D01*
X30630Y69008D01*
X30636Y68970D01*
X30641Y68932D01*
Y68904D01*
X30636Y68839D01*
X30630Y68784D01*
X30598Y68680D01*
X30554Y68593D01*
X30500Y68522D01*
X30445Y68467D01*
X30401Y68429D01*
X30368Y68407D01*
X30363Y68402D01*
X30358D01*
X30303Y68375D01*
X30243Y68353D01*
X30106Y68314D01*
X29970Y68287D01*
X29828Y68265D01*
X29768Y68260D01*
X29708Y68254D01*
X29653D01*
X29604Y68249D01*
X29566D01*
X29539D01*
X29517D01*
X29511D01*
X29413D01*
X29326Y68254D01*
X29244Y68260D01*
X29173Y68265D01*
X29118Y68276D01*
X29074Y68282D01*
X29047Y68287D01*
X29036D01*
X28965Y68304D01*
X28900Y68320D01*
X28840Y68342D01*
X28791Y68364D01*
X28747Y68380D01*
X28719Y68396D01*
X28698Y68402D01*
X28692Y68407D01*
X28643Y68440D01*
X28605Y68473D01*
X28567Y68506D01*
X28539Y68538D01*
X28512Y68566D01*
X28496Y68587D01*
X28490Y68604D01*
X28485Y68609D01*
X28463Y68659D01*
X28446Y68708D01*
X28430Y68757D01*
X28425Y68800D01*
X28419Y68844D01*
X28414Y68877D01*
Y68904D01*
X28419Y68970D01*
X28425Y69024D01*
X28457Y69128D01*
X28501Y69215D01*
X28556Y69286D01*
X28605Y69341D01*
X28648Y69379D01*
X28681Y69401D01*
X28687Y69406D01*
X28692D01*
X28747Y69434D01*
X28807Y69456D01*
X28943Y69494D01*
X29080Y69521D01*
X29222Y69538D01*
X29282Y69548D01*
X29342D01*
X29397Y69554D01*
X29446Y69559D01*
X29484D01*
X29511D01*
X29533D01*
X29539D01*
X29637D01*
X29724Y69554D01*
D02*
G37*
G36*
X31187Y67610D02*
X29539D01*
X29686Y67616D01*
X29822Y67627D01*
X29954Y67637D01*
X30074Y67659D01*
X30183Y67687D01*
X30281Y67714D01*
X30374Y67741D01*
X30456Y67769D01*
X30527Y67801D01*
X30592Y67829D01*
X30647Y67856D01*
X30691Y67883D01*
X30723Y67905D01*
X30745Y67916D01*
X30762Y67927D01*
X30767Y67932D01*
X30843Y67998D01*
X30904Y68063D01*
X30964Y68140D01*
X31013Y68216D01*
X31051Y68298D01*
X31084Y68375D01*
X31111Y68456D01*
X31133Y68533D01*
X31155Y68604D01*
X31166Y68669D01*
X31176Y68729D01*
X31182Y68784D01*
X31187Y68828D01*
Y67610D01*
D02*
G37*
G36*
X30543Y66163D02*
X29047Y65748D01*
Y66589D01*
X30543Y66163D01*
D02*
G37*
G36*
X30625Y63630D02*
X30620Y63542D01*
X30614Y63461D01*
X30603Y63390D01*
X30587Y63335D01*
X30570Y63286D01*
X30560Y63248D01*
X30554Y63226D01*
X30549Y63220D01*
X30521Y63160D01*
X30483Y63106D01*
X30450Y63062D01*
X30418Y63024D01*
X30385Y62991D01*
X30358Y62969D01*
X30341Y62958D01*
X30336Y62953D01*
X30281Y62920D01*
X30221Y62887D01*
X30161Y62865D01*
X30106Y62844D01*
X30057Y62827D01*
X30019Y62816D01*
X29997Y62811D01*
X29986D01*
X29828Y62783D01*
X29751Y62778D01*
X29680Y62773D01*
X29620Y62767D01*
X29571D01*
X29539D01*
X29533D01*
X29528D01*
X29424D01*
X29331Y62778D01*
X29238Y62789D01*
X29156Y62805D01*
X29080Y62822D01*
X29014Y62844D01*
X28954Y62860D01*
X28900Y62882D01*
X28850Y62904D01*
X28807Y62925D01*
X28774Y62947D01*
X28741Y62964D01*
X28719Y62980D01*
X28703Y62991D01*
X28698Y62997D01*
X28692Y63002D01*
X28648Y63046D01*
X28605Y63095D01*
X28539Y63204D01*
X28496Y63313D01*
X28463Y63422D01*
X28446Y63521D01*
X28436Y63564D01*
Y63603D01*
X28430Y63630D01*
Y63936D01*
X30625D01*
Y63630D01*
D02*
G37*
G36*
X31182Y56750D02*
X31067D01*
X31089Y56827D01*
X31106Y56892D01*
X31111Y56914D01*
X31116Y56936D01*
X31122Y56947D01*
Y56952D01*
X31138Y57023D01*
X31149Y57083D01*
Y57111D01*
X31155Y57127D01*
Y57143D01*
X31166Y57214D01*
X31171Y57274D01*
X31176Y57296D01*
Y57334D01*
X31182Y57405D01*
Y56750D01*
D02*
G37*
G36*
X29702Y58345D02*
X29779Y58334D01*
X29844Y58328D01*
X29899Y58317D01*
X29943Y58312D01*
X29964Y58306D01*
X29975D01*
X30052Y58284D01*
X30117Y58263D01*
X30177Y58235D01*
X30232Y58214D01*
X30270Y58186D01*
X30303Y58170D01*
X30325Y58159D01*
X30330Y58153D01*
X30385Y58110D01*
X30428Y58066D01*
X30467Y58022D01*
X30500Y57979D01*
X30527Y57941D01*
X30543Y57913D01*
X30554Y57891D01*
X30560Y57886D01*
X30587Y57820D01*
X30609Y57755D01*
X30625Y57689D01*
X30636Y57629D01*
X30641Y57575D01*
X30647Y57531D01*
Y57493D01*
X30641Y57373D01*
X30636Y57318D01*
X30625Y57263D01*
X30620Y57220D01*
X30609Y57187D01*
X30603Y57160D01*
Y57154D01*
X30565Y57012D01*
X30543Y56941D01*
X30521Y56881D01*
X30500Y56827D01*
X30483Y56788D01*
X30472Y56761D01*
X30467Y56750D01*
X28616D01*
X28589Y56810D01*
X28561Y56870D01*
X28556Y56892D01*
X28545Y56914D01*
X28539Y56925D01*
Y56930D01*
X28517Y57001D01*
X28496Y57061D01*
X28490Y57083D01*
X28485Y57105D01*
X28479Y57116D01*
Y57121D01*
X28463Y57192D01*
X28446Y57253D01*
X28441Y57274D01*
Y57296D01*
X28436Y57307D01*
Y57313D01*
X28430Y57378D01*
X28425Y57433D01*
Y57487D01*
X28430Y57569D01*
X28436Y57640D01*
X28446Y57706D01*
X28463Y57766D01*
X28474Y57810D01*
X28485Y57848D01*
X28490Y57869D01*
X28496Y57875D01*
X28528Y57935D01*
X28561Y57984D01*
X28599Y58033D01*
X28632Y58072D01*
X28665Y58104D01*
X28692Y58126D01*
X28709Y58143D01*
X28714Y58148D01*
X28769Y58186D01*
X28829Y58214D01*
X28883Y58241D01*
X28938Y58263D01*
X28987Y58279D01*
X29025Y58290D01*
X29047Y58301D01*
X29058D01*
X29222Y58328D01*
X29298Y58339D01*
X29369Y58345D01*
X29435D01*
X29484Y58350D01*
X29517D01*
X29522D01*
X29528D01*
X29615D01*
X29702Y58345D01*
D02*
G37*
G36*
X30620Y54064D02*
X28436D01*
Y55380D01*
X29326D01*
Y54124D01*
X29822D01*
Y55380D01*
X30620D01*
Y54064D01*
D02*
G37*
G36*
X31133Y51225D02*
X28441D01*
Y52579D01*
X31133D01*
Y51225D01*
D02*
G37*
G36*
Y48456D02*
X28441D01*
Y49811D01*
X31133D01*
Y48456D01*
D02*
G37*
G36*
X30368Y47212D02*
X30412Y47201D01*
X30445Y47195D01*
X30450Y47190D01*
X30456D01*
X30500Y47157D01*
X30538Y47124D01*
X30560Y47097D01*
X30565Y47091D01*
Y47086D01*
X30598Y47026D01*
X30620Y46971D01*
X30630Y46944D01*
X30636Y46922D01*
X30641Y46911D01*
Y46906D01*
X30658Y46813D01*
X30663Y46726D01*
X30669Y46687D01*
Y46562D01*
X30663Y46502D01*
Y46480D01*
X30658Y46458D01*
Y46442D01*
X30647Y46365D01*
X30636Y46300D01*
X30630Y46278D01*
Y46256D01*
X30625Y46245D01*
Y46240D01*
X30614Y46163D01*
X30598Y46103D01*
X30592Y46076D01*
X30587Y46060D01*
X30581Y46049D01*
Y46043D01*
X30565Y45978D01*
X30549Y45923D01*
X30543Y45901D01*
X30538Y45885D01*
X30532Y45874D01*
Y45868D01*
X31084D01*
X31095Y45928D01*
X31106Y45989D01*
X31111Y46010D01*
X31116Y46032D01*
Y46049D01*
X31133Y46120D01*
X31144Y46180D01*
Y46207D01*
X31149Y46229D01*
Y46245D01*
X31160Y46316D01*
X31171Y46387D01*
Y46414D01*
X31176Y46436D01*
Y46453D01*
X31182Y46529D01*
X31187Y46589D01*
Y45634D01*
X28889D01*
X28960Y45639D01*
X29025Y45645D01*
X29080Y45656D01*
X29135Y45666D01*
X29173Y45683D01*
X29200Y45694D01*
X29222Y45699D01*
X29227Y45705D01*
X29282Y45732D01*
X29331Y45759D01*
X29369Y45792D01*
X29408Y45819D01*
X29440Y45847D01*
X29462Y45863D01*
X29473Y45879D01*
X29478Y45885D01*
X29555Y45972D01*
X29610Y46049D01*
X29631Y46087D01*
X29648Y46114D01*
X29653Y46130D01*
X29659Y46136D01*
X29713Y46240D01*
X29735Y46289D01*
X29751Y46338D01*
X29768Y46376D01*
X29779Y46404D01*
X29790Y46425D01*
Y46431D01*
X29833Y46540D01*
X29850Y46589D01*
X29866Y46633D01*
X29882Y46666D01*
X29888Y46693D01*
X29899Y46715D01*
Y46720D01*
X29937Y46819D01*
X29954Y46862D01*
X29970Y46900D01*
X29981Y46933D01*
X29992Y46955D01*
X30003Y46971D01*
Y46977D01*
X30046Y47048D01*
X30090Y47102D01*
X30106Y47124D01*
X30123Y47141D01*
X30128Y47146D01*
X30134Y47151D01*
X30161Y47173D01*
X30194Y47190D01*
X30248Y47206D01*
X30276Y47212D01*
X30292Y47217D01*
X30303D01*
X30308D01*
X30368Y47212D01*
D02*
G37*
G36*
X31182Y40141D02*
X31067D01*
X31089Y40217D01*
X31106Y40283D01*
X31111Y40305D01*
X31116Y40326D01*
X31122Y40337D01*
Y40343D01*
X31138Y40414D01*
X31149Y40474D01*
Y40501D01*
X31155Y40518D01*
Y40534D01*
X31166Y40605D01*
X31171Y40665D01*
X31176Y40687D01*
Y40725D01*
X31182Y40796D01*
Y40141D01*
D02*
G37*
G36*
X29702Y41735D02*
X29779Y41724D01*
X29844Y41719D01*
X29899Y41708D01*
X29943Y41702D01*
X29964Y41697D01*
X29975D01*
X30052Y41675D01*
X30117Y41653D01*
X30177Y41626D01*
X30232Y41604D01*
X30270Y41577D01*
X30303Y41561D01*
X30325Y41550D01*
X30330Y41544D01*
X30385Y41500D01*
X30428Y41457D01*
X30467Y41413D01*
X30500Y41369D01*
X30527Y41331D01*
X30543Y41304D01*
X30554Y41282D01*
X30560Y41277D01*
X30587Y41211D01*
X30609Y41146D01*
X30625Y41080D01*
X30636Y41020D01*
X30641Y40965D01*
X30647Y40922D01*
Y40883D01*
X30641Y40763D01*
X30636Y40709D01*
X30625Y40654D01*
X30620Y40610D01*
X30609Y40578D01*
X30603Y40550D01*
Y40545D01*
X30565Y40403D01*
X30543Y40332D01*
X30521Y40272D01*
X30500Y40217D01*
X30483Y40179D01*
X30472Y40152D01*
X30467Y40141D01*
X28616D01*
X28589Y40201D01*
X28561Y40261D01*
X28556Y40283D01*
X28545Y40305D01*
X28539Y40316D01*
Y40321D01*
X28517Y40392D01*
X28496Y40452D01*
X28490Y40474D01*
X28485Y40496D01*
X28479Y40507D01*
Y40512D01*
X28463Y40583D01*
X28446Y40643D01*
X28441Y40665D01*
Y40687D01*
X28436Y40698D01*
Y40703D01*
X28430Y40769D01*
X28425Y40823D01*
Y40878D01*
X28430Y40960D01*
X28436Y41031D01*
X28446Y41096D01*
X28463Y41157D01*
X28474Y41200D01*
X28485Y41238D01*
X28490Y41260D01*
X28496Y41266D01*
X28528Y41326D01*
X28561Y41375D01*
X28599Y41424D01*
X28632Y41462D01*
X28665Y41495D01*
X28692Y41517D01*
X28709Y41533D01*
X28714Y41539D01*
X28769Y41577D01*
X28829Y41604D01*
X28883Y41631D01*
X28938Y41653D01*
X28987Y41670D01*
X29025Y41681D01*
X29047Y41691D01*
X29058D01*
X29222Y41719D01*
X29298Y41730D01*
X29369Y41735D01*
X29435D01*
X29484Y41741D01*
X29517D01*
X29522D01*
X29528D01*
X29615D01*
X29702Y41735D01*
D02*
G37*
G36*
X27884Y40818D02*
X27895Y40747D01*
X27900Y40687D01*
X27911Y40632D01*
X27917Y40594D01*
X27922Y40572D01*
Y40561D01*
X27961Y40408D01*
X27977Y40337D01*
X27999Y40277D01*
X28021Y40223D01*
X28032Y40179D01*
X28043Y40152D01*
X28048Y40141D01*
X27879D01*
Y40894D01*
X27884Y40818D01*
D02*
G37*
G36*
X29724Y39103D02*
X29806Y39098D01*
X29872Y39093D01*
X29932Y39087D01*
X29970Y39082D01*
X29997Y39076D01*
X30008D01*
X30084Y39060D01*
X30150Y39043D01*
X30210Y39022D01*
X30259Y39005D01*
X30297Y38989D01*
X30330Y38972D01*
X30347Y38967D01*
X30352Y38961D01*
X30401Y38929D01*
X30445Y38896D01*
X30483Y38863D01*
X30510Y38831D01*
X30538Y38803D01*
X30554Y38781D01*
X30560Y38765D01*
X30565Y38759D01*
X30592Y38710D01*
X30609Y38661D01*
X30625Y38607D01*
X30630Y38557D01*
X30636Y38519D01*
X30641Y38481D01*
Y38454D01*
X30636Y38388D01*
X30630Y38334D01*
X30598Y38230D01*
X30554Y38142D01*
X30500Y38072D01*
X30445Y38017D01*
X30401Y37979D01*
X30368Y37957D01*
X30363Y37951D01*
X30358D01*
X30303Y37924D01*
X30243Y37902D01*
X30106Y37864D01*
X29970Y37837D01*
X29828Y37815D01*
X29768Y37810D01*
X29708Y37804D01*
X29653D01*
X29604Y37799D01*
X29566D01*
X29539D01*
X29517D01*
X29511D01*
X29413D01*
X29326Y37804D01*
X29244Y37810D01*
X29173Y37815D01*
X29118Y37826D01*
X29074Y37831D01*
X29047Y37837D01*
X29036D01*
X28965Y37853D01*
X28900Y37870D01*
X28840Y37891D01*
X28791Y37913D01*
X28747Y37930D01*
X28719Y37946D01*
X28698Y37951D01*
X28692Y37957D01*
X28643Y37990D01*
X28605Y38022D01*
X28567Y38055D01*
X28539Y38088D01*
X28512Y38115D01*
X28496Y38137D01*
X28490Y38153D01*
X28485Y38159D01*
X28463Y38208D01*
X28446Y38257D01*
X28430Y38306D01*
X28425Y38350D01*
X28419Y38394D01*
X28414Y38426D01*
Y38454D01*
X28419Y38519D01*
X28425Y38574D01*
X28457Y38678D01*
X28501Y38765D01*
X28556Y38836D01*
X28605Y38891D01*
X28648Y38929D01*
X28681Y38951D01*
X28687Y38956D01*
X28692D01*
X28747Y38983D01*
X28807Y39005D01*
X28943Y39043D01*
X29080Y39071D01*
X29222Y39087D01*
X29282Y39098D01*
X29342D01*
X29397Y39103D01*
X29446Y39109D01*
X29484D01*
X29511D01*
X29533D01*
X29539D01*
X29637D01*
X29724Y39103D01*
D02*
G37*
G36*
X29833Y36117D02*
X27922Y35260D01*
Y36292D01*
X28916D01*
X30248D01*
X29833Y36117D01*
D02*
G37*
G36*
X31133Y35069D02*
X30243D01*
X28829D01*
X29200Y35227D01*
X31133Y36101D01*
Y35069D01*
D02*
G37*
G36*
X29833Y33349D02*
X27922Y32491D01*
Y33523D01*
X28916D01*
X30248D01*
X29833Y33349D01*
D02*
G37*
G36*
X31133Y32300D02*
X30243D01*
X28829D01*
X29200Y32459D01*
X31133Y33332D01*
Y32300D01*
D02*
G37*
G36*
X30620Y29150D02*
X28436D01*
Y30466D01*
X29326D01*
Y29210D01*
X29822D01*
Y30466D01*
X30620D01*
Y29150D01*
D02*
G37*
G36*
X31182Y26300D02*
X31067D01*
X31089Y26376D01*
X31106Y26442D01*
X31111Y26464D01*
X31116Y26485D01*
X31122Y26496D01*
Y26502D01*
X31138Y26573D01*
X31149Y26633D01*
Y26660D01*
X31155Y26676D01*
Y26693D01*
X31166Y26764D01*
X31171Y26824D01*
X31176Y26846D01*
Y26884D01*
X31182Y26955D01*
Y26300D01*
D02*
G37*
G36*
X29702Y27894D02*
X29779Y27883D01*
X29844Y27878D01*
X29899Y27867D01*
X29943Y27861D01*
X29964Y27856D01*
X29975D01*
X30052Y27834D01*
X30117Y27812D01*
X30177Y27785D01*
X30232Y27763D01*
X30270Y27736D01*
X30303Y27719D01*
X30325Y27709D01*
X30330Y27703D01*
X30385Y27659D01*
X30428Y27616D01*
X30467Y27572D01*
X30500Y27528D01*
X30527Y27490D01*
X30543Y27463D01*
X30554Y27441D01*
X30560Y27435D01*
X30587Y27370D01*
X30609Y27304D01*
X30625Y27239D01*
X30636Y27179D01*
X30641Y27124D01*
X30647Y27081D01*
Y27042D01*
X30641Y26922D01*
X30636Y26868D01*
X30625Y26813D01*
X30620Y26769D01*
X30609Y26737D01*
X30603Y26709D01*
Y26704D01*
X30565Y26562D01*
X30543Y26491D01*
X30521Y26431D01*
X30500Y26376D01*
X30483Y26338D01*
X30472Y26311D01*
X30467Y26300D01*
X28616D01*
X28589Y26360D01*
X28561Y26420D01*
X28556Y26442D01*
X28545Y26464D01*
X28539Y26474D01*
Y26480D01*
X28517Y26551D01*
X28496Y26611D01*
X28490Y26633D01*
X28485Y26655D01*
X28479Y26666D01*
Y26671D01*
X28463Y26742D01*
X28446Y26802D01*
X28441Y26824D01*
Y26846D01*
X28436Y26857D01*
Y26862D01*
X28430Y26928D01*
X28425Y26982D01*
Y27037D01*
X28430Y27119D01*
X28436Y27190D01*
X28446Y27255D01*
X28463Y27315D01*
X28474Y27359D01*
X28485Y27397D01*
X28490Y27419D01*
X28496Y27424D01*
X28528Y27485D01*
X28561Y27534D01*
X28599Y27583D01*
X28632Y27621D01*
X28665Y27654D01*
X28692Y27676D01*
X28709Y27692D01*
X28714Y27698D01*
X28769Y27736D01*
X28829Y27763D01*
X28883Y27790D01*
X28938Y27812D01*
X28987Y27829D01*
X29025Y27839D01*
X29047Y27850D01*
X29058D01*
X29222Y27878D01*
X29298Y27889D01*
X29369Y27894D01*
X29435D01*
X29484Y27900D01*
X29517D01*
X29522D01*
X29528D01*
X29615D01*
X29702Y27894D01*
D02*
G37*
G36*
X30630Y23428D02*
X27922D01*
Y24307D01*
X30630D01*
Y23428D01*
D02*
G37*
G36*
X29724Y22494D02*
X29806Y22489D01*
X29872Y22483D01*
X29932Y22478D01*
X29970Y22472D01*
X29997Y22467D01*
X30008D01*
X30084Y22451D01*
X30150Y22434D01*
X30210Y22412D01*
X30259Y22396D01*
X30297Y22379D01*
X30330Y22363D01*
X30347Y22358D01*
X30352Y22352D01*
X30401Y22320D01*
X30445Y22287D01*
X30483Y22254D01*
X30510Y22221D01*
X30538Y22194D01*
X30554Y22172D01*
X30560Y22156D01*
X30565Y22150D01*
X30592Y22101D01*
X30609Y22052D01*
X30625Y21997D01*
X30630Y21948D01*
X30636Y21910D01*
X30641Y21872D01*
Y21844D01*
X30636Y21779D01*
X30630Y21724D01*
X30598Y21621D01*
X30554Y21533D01*
X30500Y21462D01*
X30445Y21408D01*
X30401Y21369D01*
X30368Y21348D01*
X30363Y21342D01*
X30358D01*
X30303Y21315D01*
X30243Y21293D01*
X30106Y21255D01*
X29970Y21227D01*
X29828Y21206D01*
X29768Y21200D01*
X29708Y21195D01*
X29653D01*
X29604Y21189D01*
X29566D01*
X29539D01*
X29517D01*
X29511D01*
X29413D01*
X29326Y21195D01*
X29244Y21200D01*
X29173Y21206D01*
X29118Y21216D01*
X29074Y21222D01*
X29047Y21227D01*
X29036D01*
X28965Y21244D01*
X28900Y21260D01*
X28840Y21282D01*
X28791Y21304D01*
X28747Y21320D01*
X28719Y21337D01*
X28698Y21342D01*
X28692Y21348D01*
X28643Y21380D01*
X28605Y21413D01*
X28567Y21446D01*
X28539Y21479D01*
X28512Y21506D01*
X28496Y21528D01*
X28490Y21544D01*
X28485Y21550D01*
X28463Y21599D01*
X28446Y21648D01*
X28430Y21697D01*
X28425Y21741D01*
X28419Y21784D01*
X28414Y21817D01*
Y21844D01*
X28419Y21910D01*
X28425Y21964D01*
X28457Y22068D01*
X28501Y22156D01*
X28556Y22227D01*
X28605Y22281D01*
X28648Y22320D01*
X28681Y22341D01*
X28687Y22347D01*
X28692D01*
X28747Y22374D01*
X28807Y22396D01*
X28943Y22434D01*
X29080Y22461D01*
X29222Y22478D01*
X29282Y22489D01*
X29342D01*
X29397Y22494D01*
X29446Y22500D01*
X29484D01*
X29511D01*
X29533D01*
X29539D01*
X29637D01*
X29724Y22494D01*
D02*
G37*
G36*
X30630Y19278D02*
X30625Y19174D01*
X30614Y19082D01*
X30598Y19005D01*
X30581Y18940D01*
X30560Y18891D01*
X30543Y18858D01*
X30532Y18836D01*
X30527Y18831D01*
X30483Y18781D01*
X30428Y18743D01*
X30374Y18716D01*
X30319Y18694D01*
X30270Y18683D01*
X30226Y18678D01*
X30199D01*
X30194D01*
X30188D01*
X30106Y18683D01*
X30046Y18699D01*
X30019Y18710D01*
X30003Y18721D01*
X29992Y18727D01*
X29986D01*
X29926Y18765D01*
X29882Y18803D01*
X29850Y18836D01*
X29844Y18847D01*
X29839Y18852D01*
X29801Y18912D01*
X29773Y18978D01*
X29762Y19005D01*
X29757Y19022D01*
X29751Y19038D01*
Y19044D01*
X29735Y19131D01*
X29730Y19213D01*
X29724Y19251D01*
Y19540D01*
X30630D01*
Y19278D01*
D02*
G37*
G36*
X29255Y19426D02*
X29249Y19371D01*
X29244Y19317D01*
X29233Y19273D01*
X29216Y19234D01*
X29200Y19202D01*
X29189Y19180D01*
X29184Y19164D01*
X29178Y19158D01*
X29145Y19120D01*
X29113Y19082D01*
X29036Y19027D01*
X29003Y19011D01*
X28976Y18994D01*
X28960Y18983D01*
X28954D01*
X27922Y18530D01*
Y19540D01*
X29255D01*
Y19426D01*
D02*
G37*
%LPC*%
G36*
X80640Y91216D02*
X80498D01*
X80422Y91210D01*
X80351Y91199D01*
X80290Y91194D01*
X80236Y91183D01*
X80198Y91178D01*
X80176Y91172D01*
X80165D01*
X80012Y91134D01*
X79941Y91118D01*
X79881Y91096D01*
X79826Y91074D01*
X79783Y91063D01*
X79755Y91052D01*
X79744Y91047D01*
Y91216D01*
Y90479D01*
X79804Y90506D01*
X79865Y90533D01*
X79886Y90539D01*
X79908Y90550D01*
X79919Y90555D01*
X79925D01*
X79996Y90577D01*
X80056Y90599D01*
X80077Y90604D01*
X80099Y90610D01*
X80110Y90615D01*
X80116D01*
X80187Y90632D01*
X80247Y90648D01*
X80269Y90654D01*
X80290D01*
X80301Y90659D01*
X80307D01*
X80372Y90664D01*
X80427Y90670D01*
X80481D01*
X80563Y90664D01*
X80634Y90659D01*
X80700Y90648D01*
X80760Y90632D01*
X80804Y90621D01*
X80842Y90610D01*
X80864Y90604D01*
X80869Y90599D01*
X80929Y90566D01*
X80978Y90533D01*
X81028Y90495D01*
X81066Y90462D01*
X81099Y90430D01*
X81120Y90402D01*
X81137Y90386D01*
X81142Y90381D01*
X81180Y90326D01*
X81208Y90266D01*
X81235Y90211D01*
X81257Y90157D01*
X81273Y90108D01*
X81284Y90069D01*
X81295Y90047D01*
Y90036D01*
X81322Y89873D01*
X81333Y89796D01*
X81339Y89725D01*
Y89660D01*
X81344Y89611D01*
Y89578D01*
Y89572D01*
Y89567D01*
Y89480D01*
X81339Y89392D01*
X81328Y89316D01*
X81322Y89250D01*
X81312Y89196D01*
X81306Y89152D01*
X81300Y89130D01*
Y89119D01*
X81279Y89043D01*
X81257Y88977D01*
X81230Y88917D01*
X81208Y88863D01*
X81180Y88824D01*
X81164Y88792D01*
X81153Y88770D01*
X81148Y88764D01*
X81104Y88710D01*
X81060Y88666D01*
X81017Y88628D01*
X80973Y88595D01*
X80935Y88568D01*
X80907Y88551D01*
X80886Y88541D01*
X80880Y88535D01*
X80815Y88508D01*
X80749Y88486D01*
X80684Y88469D01*
X80624Y88459D01*
X80569Y88453D01*
X80525Y88448D01*
X80487D01*
X80367Y88453D01*
X80312Y88459D01*
X80258Y88469D01*
X80214Y88475D01*
X80181Y88486D01*
X80154Y88491D01*
X80149D01*
X80006Y88529D01*
X79935Y88551D01*
X79875Y88573D01*
X79821Y88595D01*
X79783Y88611D01*
X79755Y88622D01*
X79744Y88628D01*
Y88644D01*
Y88027D01*
X79821Y88005D01*
X79886Y87989D01*
X79908Y87984D01*
X79930Y87978D01*
X79941Y87973D01*
X79947D01*
X80017Y87956D01*
X80077Y87945D01*
X80105D01*
X80121Y87940D01*
X80138D01*
X80208Y87929D01*
X80269Y87924D01*
X80290Y87918D01*
X80329D01*
X80400Y87913D01*
X82010D01*
X80536D01*
X80662Y87918D01*
X80776Y87929D01*
X80880Y87951D01*
X80967Y87967D01*
X81044Y87989D01*
X81099Y88011D01*
X81120Y88016D01*
X81137Y88022D01*
X81142Y88027D01*
X81148D01*
X81246Y88076D01*
X81333Y88125D01*
X81415Y88180D01*
X81486Y88235D01*
X81541Y88284D01*
X81585Y88322D01*
X81606Y88349D01*
X81617Y88360D01*
X81683Y88448D01*
X81743Y88535D01*
X81792Y88628D01*
X81836Y88710D01*
X81868Y88786D01*
X81890Y88841D01*
X81901Y88863D01*
X81907Y88879D01*
X81912Y88890D01*
Y88895D01*
X81945Y89016D01*
X81967Y89141D01*
X81989Y89261D01*
X81999Y89376D01*
X82005Y89469D01*
Y89512D01*
X82010Y89545D01*
Y89616D01*
X82005Y89758D01*
X81994Y89894D01*
X81983Y90015D01*
X81961Y90113D01*
X81945Y90200D01*
X81939Y90233D01*
X81934Y90260D01*
X81928Y90282D01*
X81923Y90299D01*
X81918Y90310D01*
Y90315D01*
X81879Y90419D01*
X81836Y90517D01*
X81792Y90599D01*
X81748Y90675D01*
X81705Y90730D01*
X81672Y90774D01*
X81650Y90801D01*
X81644Y90812D01*
X81573Y90883D01*
X81497Y90943D01*
X81421Y90997D01*
X81350Y91041D01*
X81284Y91074D01*
X81235Y91096D01*
X81202Y91112D01*
X81197Y91118D01*
X81191D01*
X81088Y91150D01*
X80984Y91172D01*
X80880Y91194D01*
X80787Y91205D01*
X80700Y91210D01*
X80667D01*
X80640Y91216D01*
D02*
G37*
G36*
X52958D02*
X52816D01*
X52739Y91210D01*
X52668Y91199D01*
X52608Y91194D01*
X52554Y91183D01*
X52515Y91178D01*
X52494Y91172D01*
X52483D01*
X52330Y91134D01*
X52259Y91118D01*
X52199Y91096D01*
X52144Y91074D01*
X52100Y91063D01*
X52073Y91052D01*
X52062Y91047D01*
Y91216D01*
Y90479D01*
X52122Y90506D01*
X52182Y90533D01*
X52204Y90539D01*
X52226Y90550D01*
X52237Y90555D01*
X52242D01*
X52313Y90577D01*
X52373Y90599D01*
X52395Y90604D01*
X52417Y90610D01*
X52428Y90615D01*
X52434D01*
X52504Y90632D01*
X52565Y90648D01*
X52586Y90654D01*
X52608D01*
X52619Y90659D01*
X52625D01*
X52690Y90664D01*
X52745Y90670D01*
X52799D01*
X52881Y90664D01*
X52952Y90659D01*
X53018Y90648D01*
X53078Y90632D01*
X53122Y90621D01*
X53160Y90610D01*
X53181Y90604D01*
X53187Y90599D01*
X53247Y90566D01*
X53296Y90533D01*
X53345Y90495D01*
X53384Y90462D01*
X53416Y90430D01*
X53438Y90402D01*
X53455Y90386D01*
X53460Y90381D01*
X53498Y90326D01*
X53526Y90266D01*
X53553Y90211D01*
X53575Y90157D01*
X53591Y90108D01*
X53602Y90069D01*
X53613Y90047D01*
Y90036D01*
X53640Y89873D01*
X53651Y89796D01*
X53657Y89725D01*
Y89660D01*
X53662Y89611D01*
Y89578D01*
Y89572D01*
Y89567D01*
Y89480D01*
X53657Y89392D01*
X53646Y89316D01*
X53640Y89250D01*
X53629Y89196D01*
X53624Y89152D01*
X53618Y89130D01*
Y89119D01*
X53597Y89043D01*
X53575Y88977D01*
X53547Y88917D01*
X53526Y88863D01*
X53498Y88824D01*
X53482Y88792D01*
X53471Y88770D01*
X53465Y88764D01*
X53422Y88710D01*
X53378Y88666D01*
X53334Y88628D01*
X53291Y88595D01*
X53253Y88568D01*
X53225Y88551D01*
X53203Y88541D01*
X53198Y88535D01*
X53132Y88508D01*
X53067Y88486D01*
X53001Y88469D01*
X52941Y88459D01*
X52887Y88453D01*
X52843Y88448D01*
X52805D01*
X52685Y88453D01*
X52630Y88459D01*
X52575Y88469D01*
X52532Y88475D01*
X52499Y88486D01*
X52472Y88491D01*
X52466D01*
X52324Y88529D01*
X52253Y88551D01*
X52193Y88573D01*
X52139Y88595D01*
X52100Y88611D01*
X52073Y88622D01*
X52062Y88628D01*
D01*
Y88027D01*
X52139Y88005D01*
X52204Y87989D01*
X52226Y87984D01*
X52248Y87978D01*
X52259Y87973D01*
X52264D01*
X52335Y87956D01*
X52395Y87945D01*
X52423D01*
X52439Y87940D01*
X52455D01*
X52526Y87929D01*
X52586Y87924D01*
X52608Y87918D01*
X52646D01*
X52717Y87913D01*
X54328D01*
X52854D01*
X52979Y87918D01*
X53094Y87929D01*
X53198Y87951D01*
X53285Y87967D01*
X53362Y87989D01*
X53416Y88011D01*
X53438Y88016D01*
X53455Y88022D01*
X53460Y88027D01*
X53465D01*
X53564Y88076D01*
X53651Y88125D01*
X53733Y88180D01*
X53804Y88235D01*
X53859Y88284D01*
X53902Y88322D01*
X53924Y88349D01*
X53935Y88360D01*
X54001Y88448D01*
X54061Y88535D01*
X54110Y88628D01*
X54153Y88710D01*
X54186Y88786D01*
X54208Y88841D01*
X54219Y88863D01*
X54224Y88879D01*
X54230Y88890D01*
Y88895D01*
X54263Y89016D01*
X54285Y89141D01*
X54306Y89261D01*
X54317Y89376D01*
X54323Y89469D01*
Y89512D01*
X54328Y89545D01*
Y89616D01*
X54323Y89758D01*
X54312Y89894D01*
X54301Y90015D01*
X54279Y90113D01*
X54263Y90200D01*
X54257Y90233D01*
X54252Y90260D01*
X54246Y90282D01*
X54241Y90299D01*
X54235Y90310D01*
Y90315D01*
X54197Y90419D01*
X54153Y90517D01*
X54110Y90599D01*
X54066Y90675D01*
X54022Y90730D01*
X53990Y90774D01*
X53968Y90801D01*
X53962Y90812D01*
X53891Y90883D01*
X53815Y90943D01*
X53738Y90997D01*
X53667Y91041D01*
X53602Y91074D01*
X53553Y91096D01*
X53520Y91112D01*
X53515Y91118D01*
X53509D01*
X53405Y91150D01*
X53302Y91172D01*
X53198Y91194D01*
X53105Y91205D01*
X53018Y91210D01*
X52985D01*
X52958Y91216D01*
D02*
G37*
G36*
X64265Y91227D02*
X64238D01*
X64140Y91221D01*
X64042Y91210D01*
X63954Y91199D01*
X63878Y91178D01*
X63818Y91161D01*
X63769Y91150D01*
X63736Y91139D01*
X63725Y91134D01*
X63637Y91090D01*
X63561Y91047D01*
X63490Y90997D01*
X63424Y90948D01*
X63375Y90905D01*
X63343Y90866D01*
X63315Y90845D01*
X63310Y90834D01*
X63244Y90752D01*
X63190Y90664D01*
X63141Y90577D01*
X63102Y90495D01*
X63070Y90419D01*
X63042Y90364D01*
X63037Y90342D01*
X63031Y90326D01*
X63026Y90315D01*
Y90310D01*
X62993Y90184D01*
X62966Y90058D01*
X62950Y89933D01*
X62933Y89813D01*
X62928Y89709D01*
Y89665D01*
X62922Y89627D01*
Y91227D01*
Y89556D01*
X62928Y89409D01*
X62939Y89272D01*
X62950Y89141D01*
X62971Y89021D01*
X62999Y88912D01*
X63026Y88814D01*
X63053Y88721D01*
X63081Y88639D01*
X63113Y88568D01*
X63141Y88502D01*
X63168Y88448D01*
X63195Y88404D01*
X63217Y88371D01*
X63228Y88349D01*
X63239Y88333D01*
X63244Y88327D01*
X63310Y88251D01*
X63375Y88191D01*
X63452Y88131D01*
X63528Y88082D01*
X63610Y88044D01*
X63687Y88011D01*
X63769Y87984D01*
X63845Y87962D01*
X63916Y87940D01*
X63981Y87929D01*
X64042Y87918D01*
X64096Y87913D01*
X64140Y87907D01*
X64200D01*
X64298Y87913D01*
X64396Y87924D01*
X64484Y87940D01*
X64560Y87956D01*
X64620Y87973D01*
X64669Y87989D01*
X64702Y88000D01*
X64708Y88005D01*
X64713D01*
X64800Y88049D01*
X64882Y88093D01*
X64953Y88147D01*
X65013Y88196D01*
X65062Y88240D01*
X65101Y88278D01*
X65123Y88300D01*
X65134Y88311D01*
X65193Y88393D01*
X65248Y88475D01*
X65297Y88562D01*
X65336Y88644D01*
X65368Y88721D01*
X65390Y88775D01*
X65401Y88797D01*
X65407Y88814D01*
X65412Y88824D01*
Y88830D01*
X65445Y88955D01*
X65466Y89081D01*
X65488Y89207D01*
X65499Y89327D01*
X65505Y89430D01*
Y89474D01*
X65510Y89512D01*
Y89583D01*
X65505Y89731D01*
X65494Y89867D01*
X65483Y89993D01*
X65461Y90113D01*
X65439Y90222D01*
X65412Y90320D01*
X65379Y90413D01*
X65352Y90495D01*
X65325Y90566D01*
X65292Y90632D01*
X65264Y90686D01*
X65243Y90730D01*
X65221Y90763D01*
X65205Y90785D01*
X65199Y90801D01*
X65193Y90806D01*
X65128Y90883D01*
X65062Y90943D01*
X64986Y91003D01*
X64910Y91047D01*
X64828Y91090D01*
X64751Y91123D01*
X64669Y91150D01*
X64593Y91172D01*
X64522Y91194D01*
X64456Y91205D01*
X64396Y91216D01*
X64342Y91221D01*
X64298D01*
X64265Y91227D01*
D02*
G37*
G36*
X76223Y91172D02*
X74290D01*
Y89993D01*
Y90659D01*
X75606D01*
Y89769D01*
X74350D01*
Y89272D01*
X75606D01*
Y88475D01*
X74290D01*
D01*
Y87962D01*
X76223D01*
Y91172D01*
D02*
G37*
G36*
X56845D02*
X54912D01*
Y89813D01*
Y90659D01*
X56228D01*
Y89769D01*
X54972D01*
Y89272D01*
X56228D01*
Y88475D01*
X54912D01*
D01*
Y87962D01*
X56845D01*
Y91172D01*
D02*
G37*
G36*
X51565D02*
Y88464D01*
X50686D01*
Y91172D01*
X51565D01*
X50069D01*
Y88464D01*
X49190D01*
D01*
Y87962D01*
X51565D01*
Y91172D01*
D02*
G37*
G36*
X68169Y91216D02*
X65903D01*
Y90479D01*
X65963Y90506D01*
X66023Y90533D01*
X66045Y90539D01*
X66067Y90550D01*
X66078Y90555D01*
X66084D01*
X66154Y90577D01*
X66215Y90599D01*
X66236Y90604D01*
X66258Y90610D01*
X66269Y90615D01*
X66275D01*
X66346Y90632D01*
X66406Y90648D01*
X66427Y90654D01*
X66449D01*
X66460Y90659D01*
X66466D01*
X66531Y90664D01*
X66586Y90670D01*
X66640D01*
X66722Y90664D01*
X66793Y90659D01*
X66859Y90648D01*
X66919Y90632D01*
X66963Y90621D01*
X67001Y90610D01*
X67023Y90604D01*
X67028Y90599D01*
X67088Y90566D01*
X67137Y90533D01*
X67186Y90495D01*
X67225Y90462D01*
X67257Y90430D01*
X67279Y90402D01*
X67296Y90386D01*
X67301Y90381D01*
X67339Y90326D01*
X67367Y90266D01*
X67394Y90211D01*
X67416Y90157D01*
X67432Y90108D01*
X67443Y90069D01*
X67454Y90047D01*
Y90036D01*
X67481Y89873D01*
X67492Y89796D01*
X67498Y89725D01*
Y89660D01*
X67503Y89611D01*
Y89578D01*
Y89572D01*
Y89567D01*
Y89480D01*
X67498Y89392D01*
X67487Y89316D01*
X67481Y89250D01*
X67470Y89196D01*
X67465Y89152D01*
X67459Y89130D01*
Y89119D01*
X67438Y89043D01*
X67416Y88977D01*
X67388Y88917D01*
X67367Y88863D01*
X67339Y88824D01*
X67323Y88792D01*
X67312Y88770D01*
X67307Y88764D01*
X67263Y88710D01*
X67219Y88666D01*
X67176Y88628D01*
X67132Y88595D01*
X67094Y88568D01*
X67066Y88551D01*
X67045Y88541D01*
X67039Y88535D01*
X66974Y88508D01*
X66908Y88486D01*
X66843Y88469D01*
X66782Y88459D01*
X66728Y88453D01*
X66684Y88448D01*
X66646D01*
X66526Y88453D01*
X66471Y88459D01*
X66417Y88469D01*
X66373Y88475D01*
X66340Y88486D01*
X66313Y88491D01*
X66307D01*
X66165Y88529D01*
X66094Y88551D01*
X66034Y88573D01*
X65980Y88595D01*
X65942Y88611D01*
X65914Y88622D01*
X65903Y88628D01*
Y88639D01*
Y88027D01*
X65980Y88005D01*
X66045Y87989D01*
X66067Y87984D01*
X66089Y87978D01*
X66100Y87973D01*
X66105D01*
X66176Y87956D01*
X66236Y87945D01*
X66264D01*
X66280Y87940D01*
X66296D01*
X66367Y87929D01*
X66427Y87924D01*
X66449Y87918D01*
X66488D01*
X66558Y87913D01*
X66695D01*
X66821Y87918D01*
X66935Y87929D01*
X67039Y87951D01*
X67126Y87967D01*
X67203Y87989D01*
X67257Y88011D01*
X67279Y88016D01*
X67296Y88022D01*
X67301Y88027D01*
X67307D01*
X67405Y88076D01*
X67492Y88125D01*
X67574Y88180D01*
X67645Y88235D01*
X67700Y88284D01*
X67743Y88322D01*
X67765Y88349D01*
X67776Y88360D01*
X67842Y88448D01*
X67902Y88535D01*
X67951Y88628D01*
X67994Y88710D01*
X68027Y88786D01*
X68049Y88841D01*
X68060Y88863D01*
X68066Y88879D01*
X68071Y88890D01*
Y88895D01*
X68104Y89016D01*
X68126Y89141D01*
X68147Y89261D01*
X68158Y89376D01*
X68164Y89469D01*
Y89512D01*
X68169Y89545D01*
Y89616D01*
X68164Y89758D01*
X68153Y89894D01*
X68142Y90015D01*
X68120Y90113D01*
X68104Y90200D01*
X68098Y90233D01*
X68093Y90260D01*
X68087Y90282D01*
X68082Y90299D01*
X68076Y90310D01*
Y90315D01*
X68038Y90419D01*
X67994Y90517D01*
X67951Y90599D01*
X67907Y90675D01*
X67864Y90730D01*
X67831Y90774D01*
X67809Y90801D01*
X67803Y90812D01*
X67732Y90883D01*
X67656Y90943D01*
X67580Y90997D01*
X67509Y91041D01*
X67443Y91074D01*
X67394Y91096D01*
X67361Y91112D01*
X67356Y91118D01*
X67350D01*
X67247Y91150D01*
X67143Y91172D01*
X67039Y91194D01*
X66946Y91205D01*
X66859Y91210D01*
X66826D01*
X66799Y91216D01*
X68169D01*
D01*
D02*
G37*
G36*
X87520Y91172D02*
X85194D01*
Y87962D01*
X87520D01*
Y91172D01*
D02*
G37*
G36*
X84768Y91227D02*
X83621D01*
X83517Y91221D01*
X83425Y91216D01*
X83343Y91205D01*
X83266Y91189D01*
X83206Y91172D01*
X83162Y91161D01*
X83135Y91156D01*
X83124Y91150D01*
X83042Y91118D01*
X82971Y91079D01*
X82906Y91047D01*
X82851Y91008D01*
X82807Y90976D01*
X82775Y90948D01*
X82753Y90926D01*
X82747Y90921D01*
X82693Y90861D01*
X82644Y90795D01*
X82605Y90730D01*
X82573Y90670D01*
X82545Y90615D01*
X82529Y90572D01*
X82518Y90544D01*
X82513Y90533D01*
X82485Y90440D01*
X82464Y90348D01*
X82447Y90260D01*
X82436Y90173D01*
X82431Y90102D01*
X82425Y90042D01*
Y87962D01*
X83596D01*
X83031D01*
Y90031D01*
Y90102D01*
X83037Y90162D01*
X83042Y90217D01*
X83048Y90266D01*
X83059Y90304D01*
X83064Y90337D01*
X83070Y90353D01*
Y90359D01*
X83097Y90446D01*
X83119Y90484D01*
X83135Y90517D01*
X83152Y90544D01*
X83162Y90561D01*
X83168Y90572D01*
X83173Y90577D01*
X83228Y90632D01*
X83283Y90670D01*
X83304Y90681D01*
X83326Y90692D01*
X83337Y90697D01*
X83343D01*
X83425Y90714D01*
X83512Y90724D01*
X83545Y90730D01*
X83654D01*
X83708Y90724D01*
X83752Y90714D01*
X83790Y90708D01*
X83818Y90697D01*
X83845Y90692D01*
X83856Y90686D01*
X83861D01*
X83932Y90648D01*
X83987Y90604D01*
X84009Y90583D01*
X84025Y90572D01*
X84030Y90561D01*
X84036Y90555D01*
X84080Y90484D01*
X84112Y90413D01*
X84123Y90386D01*
X84129Y90364D01*
X84134Y90348D01*
Y90342D01*
X84151Y90244D01*
X84156Y90195D01*
Y90151D01*
X84162Y90113D01*
Y90086D01*
Y90064D01*
Y90058D01*
Y87962D01*
X84768D01*
Y90091D01*
X84762Y90184D01*
X84757Y90277D01*
X84746Y90359D01*
X84735Y90424D01*
X84724Y90484D01*
X84719Y90528D01*
X84708Y90555D01*
Y90566D01*
X84680Y90643D01*
X84653Y90714D01*
X84620Y90774D01*
X84588Y90828D01*
X84555Y90866D01*
X84533Y90899D01*
X84517Y90921D01*
X84511Y90926D01*
X84456Y90976D01*
X84396Y91025D01*
X84336Y91063D01*
X84276Y91096D01*
X84227Y91118D01*
X84189Y91134D01*
X84162Y91145D01*
X84151Y91150D01*
X84063Y91178D01*
X83976Y91194D01*
X83883Y91210D01*
X83801Y91216D01*
X83730Y91221D01*
X83670Y91227D01*
X84768D01*
D02*
G37*
G36*
X78958Y91172D02*
X76987D01*
Y90654D01*
X78341D01*
Y87962D01*
X76987D01*
X78958D01*
Y91172D01*
D02*
G37*
G36*
X62606D02*
X60280D01*
Y87962D01*
X62606D01*
Y91172D01*
D02*
G37*
G36*
X59837D02*
X57511D01*
Y87962D01*
X59837D01*
Y91172D01*
D02*
G37*
G36*
X45909D02*
X43583D01*
D01*
X44096Y90097D01*
X44134Y90026D01*
X44167Y89960D01*
X44200Y89906D01*
X44233Y89862D01*
X44254Y89824D01*
X44276Y89802D01*
X44287Y89785D01*
X44293Y89780D01*
X44331Y89742D01*
X44369Y89714D01*
X44407Y89692D01*
X44440Y89671D01*
X44467Y89660D01*
X44489Y89654D01*
X44506Y89649D01*
X44511D01*
X44402Y89622D01*
X44353Y89611D01*
X44309Y89594D01*
X44276Y89583D01*
X44249Y89572D01*
X44233Y89561D01*
X44227D01*
X44134Y89512D01*
X44096Y89485D01*
X44063Y89458D01*
X44041Y89436D01*
X44020Y89420D01*
X44009Y89409D01*
X44003Y89403D01*
X43943Y89321D01*
X43900Y89245D01*
X43883Y89212D01*
X43872Y89185D01*
X43861Y89168D01*
Y89163D01*
X43829Y89059D01*
X43818Y89005D01*
X43812Y88955D01*
X43807Y88912D01*
Y88879D01*
Y88857D01*
Y88852D01*
X43812Y88764D01*
X43818Y88682D01*
X43834Y88611D01*
X43850Y88551D01*
X43867Y88502D01*
X43878Y88469D01*
X43889Y88442D01*
X43894Y88437D01*
X43927Y88377D01*
X43965Y88322D01*
X44003Y88278D01*
X44041Y88235D01*
X44074Y88207D01*
X44102Y88180D01*
X44123Y88169D01*
X44129Y88164D01*
X44189Y88125D01*
X44249Y88093D01*
X44309Y88065D01*
X44369Y88044D01*
X44418Y88033D01*
X44456Y88022D01*
X44484Y88011D01*
X44495D01*
X44664Y87984D01*
X44740Y87973D01*
X44817Y87967D01*
X44882Y87962D01*
X45909D01*
Y91172D01*
D02*
G37*
G36*
X73815Y91227D02*
X71227D01*
Y89556D01*
X71232Y89409D01*
X71243Y89272D01*
X71254Y89141D01*
X71276Y89021D01*
X71303Y88912D01*
X71331Y88814D01*
X71358Y88721D01*
X71385Y88639D01*
X71418Y88568D01*
X71445Y88502D01*
X71473Y88448D01*
X71500Y88404D01*
X71522Y88371D01*
X71533Y88349D01*
X71544Y88333D01*
X71549Y88327D01*
X71614Y88251D01*
X71680Y88191D01*
X71757Y88131D01*
X71833Y88082D01*
X71915Y88044D01*
X71991Y88011D01*
X72073Y87984D01*
X72150Y87962D01*
X72221Y87940D01*
X72286Y87929D01*
X72346Y87918D01*
X72401Y87913D01*
X72444Y87907D01*
X72505D01*
X72603Y87913D01*
X72701Y87924D01*
X72788Y87940D01*
X72865Y87956D01*
X72925Y87973D01*
X72974Y87989D01*
X73007Y88000D01*
X73012Y88005D01*
X73018D01*
X73105Y88049D01*
X73187Y88093D01*
X73258Y88147D01*
X73318Y88196D01*
X73367Y88240D01*
X73405Y88278D01*
X73427Y88300D01*
X73438Y88311D01*
X73498Y88393D01*
X73553Y88475D01*
X73602Y88562D01*
X73640Y88644D01*
X73673Y88721D01*
X73695Y88775D01*
X73706Y88797D01*
X73711Y88814D01*
X73717Y88824D01*
Y88830D01*
X73749Y88955D01*
X73771Y89081D01*
X73793Y89207D01*
X73804Y89327D01*
X73809Y89430D01*
Y89474D01*
X73815Y89512D01*
Y89583D01*
X73809Y89731D01*
X73799Y89867D01*
X73788Y89993D01*
X73766Y90113D01*
X73744Y90222D01*
X73717Y90320D01*
X73684Y90413D01*
X73656Y90495D01*
X73629Y90566D01*
X73597Y90632D01*
X73569Y90686D01*
X73547Y90730D01*
X73526Y90763D01*
X73509Y90785D01*
X73504Y90801D01*
X73498Y90806D01*
X73433Y90883D01*
X73367Y90943D01*
X73291Y91003D01*
X73214Y91047D01*
X73132Y91090D01*
X73056Y91123D01*
X72974Y91150D01*
X72898Y91172D01*
X72827Y91194D01*
X72761Y91205D01*
X72701Y91216D01*
X72646Y91221D01*
X72603D01*
X72570Y91227D01*
X73815D01*
D02*
G37*
G36*
X48901D02*
X46313D01*
Y89556D01*
X46318Y89409D01*
X46329Y89272D01*
X46340Y89141D01*
X46362Y89021D01*
X46389Y88912D01*
X46417Y88814D01*
X46444Y88721D01*
X46471Y88639D01*
X46504Y88568D01*
X46531Y88502D01*
X46559Y88448D01*
X46586Y88404D01*
X46608Y88371D01*
X46619Y88349D01*
X46630Y88333D01*
X46635Y88327D01*
X46701Y88251D01*
X46766Y88191D01*
X46843Y88131D01*
X46919Y88082D01*
X47001Y88044D01*
X47077Y88011D01*
X47159Y87984D01*
X47236Y87962D01*
X47307Y87940D01*
X47372Y87929D01*
X47432Y87918D01*
X47487Y87913D01*
X47530Y87907D01*
X47591D01*
X47689Y87913D01*
X47787Y87924D01*
X47874Y87940D01*
X47951Y87956D01*
X48011Y87973D01*
X48060Y87989D01*
X48093Y88000D01*
X48098Y88005D01*
X48104D01*
X48191Y88049D01*
X48273Y88093D01*
X48344Y88147D01*
X48404Y88196D01*
X48453Y88240D01*
X48491Y88278D01*
X48513Y88300D01*
X48524Y88311D01*
X48584Y88393D01*
X48639Y88475D01*
X48688Y88562D01*
X48726Y88644D01*
X48759Y88721D01*
X48781Y88775D01*
X48792Y88797D01*
X48797Y88814D01*
X48803Y88824D01*
Y88830D01*
X48835Y88955D01*
X48857Y89081D01*
X48879Y89207D01*
X48890Y89327D01*
X48895Y89430D01*
Y89474D01*
X48901Y89512D01*
Y89583D01*
X48895Y89731D01*
X48884Y89867D01*
X48874Y89993D01*
X48852Y90113D01*
X48830Y90222D01*
X48803Y90320D01*
X48770Y90413D01*
X48743Y90495D01*
X48715Y90566D01*
X48682Y90632D01*
X48655Y90686D01*
X48633Y90730D01*
X48612Y90763D01*
X48595Y90785D01*
X48590Y90801D01*
X48584Y90806D01*
X48519Y90883D01*
X48453Y90943D01*
X48377Y91003D01*
X48300Y91047D01*
X48218Y91090D01*
X48142Y91123D01*
X48060Y91150D01*
X47984Y91172D01*
X47913Y91194D01*
X47847Y91205D01*
X47787Y91216D01*
X47732Y91221D01*
X47689D01*
X47656Y91227D01*
X48901D01*
D01*
D02*
G37*
%LPD*%
G36*
X64282Y90675D02*
X64336Y90670D01*
X64440Y90637D01*
X64527Y90593D01*
X64598Y90539D01*
X64653Y90490D01*
X64691Y90446D01*
X64713Y90413D01*
X64719Y90408D01*
Y90402D01*
X64746Y90348D01*
X64768Y90288D01*
X64806Y90151D01*
X64833Y90015D01*
X64850Y89873D01*
X64860Y89813D01*
Y89753D01*
X64866Y89698D01*
X64871Y89649D01*
Y89611D01*
Y89583D01*
Y89561D01*
Y89556D01*
Y89458D01*
X64866Y89370D01*
X64860Y89289D01*
X64855Y89223D01*
X64850Y89163D01*
X64844Y89125D01*
X64839Y89097D01*
Y89087D01*
X64822Y89010D01*
X64806Y88945D01*
X64784Y88884D01*
X64768Y88835D01*
X64751Y88797D01*
X64735Y88764D01*
X64729Y88748D01*
X64724Y88743D01*
X64691Y88693D01*
X64658Y88650D01*
X64626Y88611D01*
X64593Y88584D01*
X64566Y88557D01*
X64544Y88541D01*
X64527Y88535D01*
X64522Y88529D01*
X64473Y88502D01*
X64424Y88486D01*
X64369Y88469D01*
X64320Y88464D01*
X64282Y88459D01*
X64244Y88453D01*
X64216D01*
X64151Y88459D01*
X64096Y88464D01*
X63992Y88497D01*
X63905Y88541D01*
X63834Y88595D01*
X63779Y88650D01*
X63741Y88693D01*
X63719Y88726D01*
X63714Y88732D01*
Y88737D01*
X63687Y88792D01*
X63665Y88852D01*
X63626Y88988D01*
X63599Y89125D01*
X63577Y89267D01*
X63572Y89327D01*
X63566Y89387D01*
Y89441D01*
X63561Y89490D01*
Y89529D01*
Y89556D01*
Y89578D01*
Y89583D01*
Y89682D01*
X63566Y89769D01*
X63572Y89851D01*
X63577Y89922D01*
X63588Y89976D01*
X63594Y90020D01*
X63599Y90047D01*
Y90058D01*
X63616Y90129D01*
X63632Y90195D01*
X63654Y90255D01*
X63676Y90304D01*
X63692Y90348D01*
X63708Y90375D01*
X63714Y90397D01*
X63719Y90402D01*
X63752Y90452D01*
X63785Y90490D01*
X63818Y90528D01*
X63850Y90555D01*
X63878Y90583D01*
X63899Y90599D01*
X63916Y90604D01*
X63921Y90610D01*
X63971Y90632D01*
X64020Y90648D01*
X64069Y90664D01*
X64113Y90670D01*
X64156Y90675D01*
X64189Y90681D01*
X64216D01*
X64282Y90675D01*
D02*
G37*
G36*
X66580Y91210D02*
X66509Y91199D01*
X66449Y91194D01*
X66395Y91183D01*
X66356Y91178D01*
X66335Y91172D01*
X66324D01*
X66171Y91134D01*
X66100Y91118D01*
X66040Y91096D01*
X65985Y91074D01*
X65942Y91063D01*
X65914Y91052D01*
X65903Y91047D01*
Y91216D01*
X66657D01*
X66580Y91210D01*
D02*
G37*
G36*
X86968Y90179D02*
Y88846D01*
X86793Y89261D01*
X85936Y91172D01*
X86968D01*
Y90179D01*
D02*
G37*
G36*
X85903Y89894D02*
X86777Y87962D01*
X85745D01*
Y88852D01*
Y90266D01*
X85903Y89894D01*
D02*
G37*
G36*
X62054Y90179D02*
Y88846D01*
X61879Y89261D01*
X61022Y91172D01*
X62054D01*
Y90179D01*
D02*
G37*
G36*
X60989Y89894D02*
X61863Y87962D01*
X60831D01*
Y88852D01*
Y90266D01*
X60989Y89894D01*
D02*
G37*
G36*
X59286Y90179D02*
Y88846D01*
X59111Y89261D01*
X58254Y91172D01*
X59286D01*
Y90179D01*
D02*
G37*
G36*
X58221Y89894D02*
X59095Y87962D01*
X58063D01*
Y88852D01*
Y90266D01*
X58221Y89894D01*
D02*
G37*
G36*
X45303Y89840D02*
X45188D01*
X45134Y89845D01*
X45079Y89851D01*
X45035Y89862D01*
X44997Y89878D01*
X44964Y89894D01*
X44942Y89906D01*
X44926Y89911D01*
X44921Y89916D01*
X44882Y89949D01*
X44844Y89982D01*
X44789Y90058D01*
X44773Y90091D01*
X44757Y90118D01*
X44746Y90135D01*
Y90140D01*
X44293Y91172D01*
X45303D01*
Y89840D01*
D02*
G37*
G36*
Y88464D02*
X45041D01*
X44937Y88469D01*
X44844Y88480D01*
X44768Y88497D01*
X44702Y88513D01*
X44653Y88535D01*
X44620Y88551D01*
X44598Y88562D01*
X44593Y88568D01*
X44544Y88611D01*
X44506Y88666D01*
X44478Y88721D01*
X44456Y88775D01*
X44445Y88824D01*
X44440Y88868D01*
Y88895D01*
Y88901D01*
Y88906D01*
X44445Y88988D01*
X44462Y89048D01*
X44473Y89075D01*
X44484Y89092D01*
X44489Y89103D01*
Y89108D01*
X44527Y89168D01*
X44566Y89212D01*
X44598Y89245D01*
X44609Y89250D01*
X44615Y89256D01*
X44675Y89294D01*
X44740Y89321D01*
X44768Y89332D01*
X44784Y89338D01*
X44800Y89343D01*
X44806D01*
X44893Y89359D01*
X44975Y89365D01*
X45013Y89370D01*
X45303D01*
Y88464D01*
D02*
G37*
G36*
X72444Y91221D02*
X72346Y91210D01*
X72259Y91199D01*
X72182Y91178D01*
X72122Y91161D01*
X72073Y91150D01*
X72040Y91139D01*
X72030Y91134D01*
X71942Y91090D01*
X71866Y91047D01*
X71795Y90997D01*
X71729Y90948D01*
X71680Y90905D01*
X71647Y90866D01*
X71620Y90845D01*
X71614Y90834D01*
X71549Y90752D01*
X71494Y90664D01*
X71445Y90577D01*
X71407Y90495D01*
X71374Y90419D01*
X71347Y90364D01*
X71342Y90342D01*
X71336Y90326D01*
X71331Y90315D01*
Y90310D01*
X71298Y90184D01*
X71271Y90058D01*
X71254Y89933D01*
X71238Y89813D01*
X71232Y89709D01*
Y89665D01*
X71227Y89627D01*
Y91227D01*
X72543D01*
X72444Y91221D01*
D02*
G37*
G36*
X72586Y90675D02*
X72641Y90670D01*
X72745Y90637D01*
X72832Y90593D01*
X72903Y90539D01*
X72958Y90490D01*
X72996Y90446D01*
X73018Y90413D01*
X73023Y90408D01*
Y90402D01*
X73050Y90348D01*
X73072Y90288D01*
X73111Y90151D01*
X73138Y90015D01*
X73154Y89873D01*
X73165Y89813D01*
Y89753D01*
X73171Y89698D01*
X73176Y89649D01*
Y89611D01*
Y89583D01*
Y89561D01*
Y89556D01*
Y89458D01*
X73171Y89370D01*
X73165Y89289D01*
X73160Y89223D01*
X73154Y89163D01*
X73149Y89125D01*
X73143Y89097D01*
Y89087D01*
X73127Y89010D01*
X73111Y88945D01*
X73089Y88884D01*
X73072Y88835D01*
X73056Y88797D01*
X73040Y88764D01*
X73034Y88748D01*
X73029Y88743D01*
X72996Y88693D01*
X72963Y88650D01*
X72930Y88611D01*
X72898Y88584D01*
X72870Y88557D01*
X72848Y88541D01*
X72832Y88535D01*
X72827Y88529D01*
X72777Y88502D01*
X72728Y88486D01*
X72674Y88469D01*
X72625Y88464D01*
X72586Y88459D01*
X72548Y88453D01*
X72521D01*
X72455Y88459D01*
X72401Y88464D01*
X72297Y88497D01*
X72210Y88541D01*
X72139Y88595D01*
X72084Y88650D01*
X72046Y88693D01*
X72024Y88726D01*
X72018Y88732D01*
Y88737D01*
X71991Y88792D01*
X71969Y88852D01*
X71931Y88988D01*
X71904Y89125D01*
X71882Y89267D01*
X71877Y89327D01*
X71871Y89387D01*
Y89441D01*
X71866Y89490D01*
Y89529D01*
Y89556D01*
Y89578D01*
Y89583D01*
Y89682D01*
X71871Y89769D01*
X71877Y89851D01*
X71882Y89922D01*
X71893Y89976D01*
X71898Y90020D01*
X71904Y90047D01*
Y90058D01*
X71920Y90129D01*
X71937Y90195D01*
X71959Y90255D01*
X71980Y90304D01*
X71997Y90348D01*
X72013Y90375D01*
X72018Y90397D01*
X72024Y90402D01*
X72057Y90452D01*
X72089Y90490D01*
X72122Y90528D01*
X72155Y90555D01*
X72182Y90583D01*
X72204Y90599D01*
X72221Y90604D01*
X72226Y90610D01*
X72275Y90632D01*
X72324Y90648D01*
X72373Y90664D01*
X72417Y90670D01*
X72461Y90675D01*
X72494Y90681D01*
X72521D01*
X72586Y90675D01*
D02*
G37*
G36*
X47530Y91221D02*
X47432Y91210D01*
X47345Y91199D01*
X47268Y91178D01*
X47208Y91161D01*
X47159Y91150D01*
X47126Y91139D01*
X47115Y91134D01*
X47028Y91090D01*
X46952Y91047D01*
X46881Y90997D01*
X46815Y90948D01*
X46766Y90905D01*
X46733Y90866D01*
X46706Y90845D01*
X46701Y90834D01*
X46635Y90752D01*
X46580Y90664D01*
X46531Y90577D01*
X46493Y90495D01*
X46460Y90419D01*
X46433Y90364D01*
X46428Y90342D01*
X46422Y90326D01*
X46417Y90315D01*
Y90310D01*
X46384Y90184D01*
X46356Y90058D01*
X46340Y89933D01*
X46324Y89813D01*
X46318Y89709D01*
Y89665D01*
X46313Y89627D01*
Y91227D01*
X47629D01*
X47530Y91221D01*
D02*
G37*
G36*
X47672Y90675D02*
X47727Y90670D01*
X47831Y90637D01*
X47918Y90593D01*
X47989Y90539D01*
X48044Y90490D01*
X48082Y90446D01*
X48104Y90413D01*
X48109Y90408D01*
Y90402D01*
X48136Y90348D01*
X48158Y90288D01*
X48197Y90151D01*
X48224Y90015D01*
X48240Y89873D01*
X48251Y89813D01*
Y89753D01*
X48257Y89698D01*
X48262Y89649D01*
Y89611D01*
Y89583D01*
Y89561D01*
Y89556D01*
Y89458D01*
X48257Y89370D01*
X48251Y89289D01*
X48246Y89223D01*
X48240Y89163D01*
X48235Y89125D01*
X48229Y89097D01*
Y89087D01*
X48213Y89010D01*
X48197Y88945D01*
X48175Y88884D01*
X48158Y88835D01*
X48142Y88797D01*
X48126Y88764D01*
X48120Y88748D01*
X48115Y88743D01*
X48082Y88693D01*
X48049Y88650D01*
X48016Y88611D01*
X47984Y88584D01*
X47956Y88557D01*
X47934Y88541D01*
X47918Y88535D01*
X47913Y88529D01*
X47864Y88502D01*
X47814Y88486D01*
X47760Y88469D01*
X47711Y88464D01*
X47672Y88459D01*
X47634Y88453D01*
X47607D01*
X47541Y88459D01*
X47487Y88464D01*
X47383Y88497D01*
X47296Y88541D01*
X47225Y88595D01*
X47170Y88650D01*
X47132Y88693D01*
X47110Y88726D01*
X47105Y88732D01*
Y88737D01*
X47077Y88792D01*
X47055Y88852D01*
X47017Y88988D01*
X46990Y89125D01*
X46968Y89267D01*
X46963Y89327D01*
X46957Y89387D01*
Y89441D01*
X46952Y89490D01*
Y89529D01*
Y89556D01*
Y89578D01*
Y89583D01*
Y89682D01*
X46957Y89769D01*
X46963Y89851D01*
X46968Y89922D01*
X46979Y89976D01*
X46984Y90020D01*
X46990Y90047D01*
Y90058D01*
X47006Y90129D01*
X47023Y90195D01*
X47045Y90255D01*
X47066Y90304D01*
X47083Y90348D01*
X47099Y90375D01*
X47105Y90397D01*
X47110Y90402D01*
X47143Y90452D01*
X47175Y90490D01*
X47208Y90528D01*
X47241Y90555D01*
X47268Y90583D01*
X47290Y90599D01*
X47307Y90604D01*
X47312Y90610D01*
X47361Y90632D01*
X47410Y90648D01*
X47460Y90664D01*
X47503Y90670D01*
X47547Y90675D01*
X47580Y90681D01*
X47607D01*
X47672Y90675D01*
D02*
G37*
%LPC*%
G36*
X121366Y74090D02*
X120957D01*
Y73031D01*
X121361D01*
X121399Y73037D01*
X121443D01*
X121492Y73048D01*
X121585Y73064D01*
X121590D01*
X121606Y73069D01*
X121628Y73080D01*
X121661Y73091D01*
X121727Y73124D01*
X121798Y73168D01*
X121803Y73173D01*
X121814Y73179D01*
X121830Y73195D01*
X121847Y73217D01*
X121890Y73272D01*
X121934Y73337D01*
Y73342D01*
X121940Y73353D01*
X121950Y73375D01*
X121961Y73408D01*
X121967Y73441D01*
X121978Y73484D01*
X121983Y73577D01*
Y73583D01*
Y73588D01*
Y73621D01*
X121972Y73665D01*
X121961Y73719D01*
X121945Y73785D01*
X121912Y73845D01*
X121874Y73905D01*
X121819Y73959D01*
X121814Y73965D01*
X121792Y73981D01*
X121754Y74003D01*
X121705Y74025D01*
X121639Y74047D01*
X121563Y74069D01*
X121470Y74085D01*
X121366Y74090D01*
D02*
G37*
G36*
X39763Y54384D02*
X39294D01*
Y51921D01*
X39665D01*
X39719Y51932D01*
X39790Y51943D01*
X39872Y51959D01*
X39965Y51987D01*
X40063Y52025D01*
X40167Y52074D01*
X40271Y52140D01*
X40369Y52221D01*
X40462Y52320D01*
X40544Y52440D01*
X40582Y52505D01*
X40615Y52582D01*
X40648Y52658D01*
X40669Y52746D01*
X40691Y52833D01*
X40708Y52931D01*
X40713Y53040D01*
X40718Y53150D01*
Y53155D01*
Y53166D01*
Y53182D01*
Y53204D01*
X40713Y53270D01*
Y53346D01*
X40702Y53439D01*
X40691Y53532D01*
X40675Y53630D01*
X40653Y53723D01*
Y53728D01*
X40648Y53734D01*
X40642Y53761D01*
X40626Y53805D01*
X40604Y53859D01*
X40577Y53920D01*
X40544Y53985D01*
X40500Y54050D01*
X40456Y54105D01*
X40451Y54111D01*
X40435Y54127D01*
X40407Y54154D01*
X40369Y54187D01*
X40320Y54220D01*
X40265Y54258D01*
X40200Y54291D01*
X40129Y54318D01*
X40118Y54324D01*
X40096Y54329D01*
X40052Y54340D01*
X39998Y54351D01*
X39927Y54362D01*
X39850Y54373D01*
X39763Y54384D01*
D02*
G37*
G36*
X37470Y54340D02*
X36351Y52631D01*
X37470D01*
Y54340D01*
D02*
G37*
G36*
X34319Y54384D02*
X33910D01*
Y53324D01*
X34314D01*
X34352Y53330D01*
X34396D01*
X34445Y53341D01*
X34538Y53357D01*
X34543D01*
X34560Y53363D01*
X34582Y53373D01*
X34614Y53384D01*
X34680Y53417D01*
X34751Y53461D01*
X34756Y53466D01*
X34767Y53472D01*
X34784Y53488D01*
X34800Y53510D01*
X34844Y53565D01*
X34887Y53630D01*
Y53636D01*
X34893Y53646D01*
X34904Y53668D01*
X34914Y53701D01*
X34920Y53734D01*
X34931Y53777D01*
X34936Y53870D01*
Y53876D01*
Y53881D01*
Y53914D01*
X34925Y53958D01*
X34914Y54012D01*
X34898Y54078D01*
X34865Y54138D01*
X34827Y54198D01*
X34773Y54252D01*
X34767Y54258D01*
X34745Y54274D01*
X34707Y54296D01*
X34658Y54318D01*
X34592Y54340D01*
X34516Y54362D01*
X34423Y54378D01*
X34319Y54384D01*
D02*
G37*
G36*
X37470Y48432D02*
X36351Y46723D01*
X37470D01*
Y48432D01*
D02*
G37*
G36*
X34319Y48475D02*
X33910D01*
Y47416D01*
X34314D01*
X34352Y47422D01*
X34396D01*
X34445Y47433D01*
X34538Y47449D01*
X34543D01*
X34560Y47454D01*
X34582Y47465D01*
X34614Y47476D01*
X34680Y47509D01*
X34751Y47553D01*
X34756Y47558D01*
X34767Y47563D01*
X34784Y47580D01*
X34800Y47602D01*
X34844Y47656D01*
X34887Y47722D01*
Y47727D01*
X34893Y47738D01*
X34904Y47760D01*
X34914Y47793D01*
X34920Y47826D01*
X34931Y47869D01*
X34936Y47962D01*
Y47967D01*
Y47973D01*
Y48006D01*
X34925Y48049D01*
X34914Y48104D01*
X34898Y48170D01*
X34865Y48230D01*
X34827Y48290D01*
X34773Y48344D01*
X34767Y48350D01*
X34745Y48366D01*
X34707Y48388D01*
X34658Y48410D01*
X34592Y48432D01*
X34516Y48454D01*
X34423Y48470D01*
X34319Y48475D01*
D02*
G37*
G36*
X39927Y30762D02*
X39414D01*
Y29762D01*
X39900D01*
X39932Y29768D01*
X39976D01*
X40020Y29773D01*
X40113Y29790D01*
X40118D01*
X40134Y29795D01*
X40156Y29806D01*
X40183Y29817D01*
X40249Y29844D01*
X40320Y29888D01*
X40325Y29893D01*
X40336Y29899D01*
X40369Y29932D01*
X40413Y29986D01*
X40456Y30052D01*
Y30057D01*
X40462Y30068D01*
X40473Y30090D01*
X40484Y30123D01*
X40489Y30156D01*
X40500Y30199D01*
X40506Y30292D01*
Y30297D01*
Y30308D01*
Y30325D01*
X40500Y30352D01*
X40495Y30407D01*
X40473Y30472D01*
Y30478D01*
X40467Y30488D01*
X40462Y30505D01*
X40451Y30521D01*
X40418Y30570D01*
X40369Y30619D01*
X40364Y30625D01*
X40358Y30630D01*
X40342Y30641D01*
X40320Y30658D01*
X40293Y30674D01*
X40254Y30691D01*
X40216Y30707D01*
X40172Y30723D01*
X40167D01*
X40151Y30729D01*
X40123Y30734D01*
X40085Y30745D01*
X40042Y30751D01*
X39987Y30756D01*
X39927Y30762D01*
D02*
G37*
G36*
X39921Y29397D02*
X39414D01*
Y28294D01*
X39932D01*
X39965Y28299D01*
X40003D01*
X40085Y28310D01*
X40178Y28326D01*
X40271Y28354D01*
X40358Y28386D01*
X40435Y28430D01*
X40440Y28436D01*
X40462Y28457D01*
X40495Y28490D01*
X40527Y28539D01*
X40560Y28599D01*
X40593Y28676D01*
X40615Y28763D01*
X40620Y28867D01*
Y28872D01*
Y28889D01*
Y28911D01*
X40615Y28938D01*
X40598Y29009D01*
X40566Y29085D01*
Y29091D01*
X40555Y29102D01*
X40544Y29118D01*
X40527Y29145D01*
X40484Y29195D01*
X40418Y29249D01*
X40413Y29255D01*
X40402Y29260D01*
X40380Y29276D01*
X40353Y29287D01*
X40314Y29309D01*
X40276Y29326D01*
X40178Y29358D01*
X40172D01*
X40151Y29364D01*
X40123Y29369D01*
X40085Y29380D01*
X40036Y29386D01*
X39981Y29391D01*
X39921Y29397D01*
D02*
G37*
G36*
X37470Y30718D02*
X36351Y29009D01*
X37470D01*
Y30718D01*
D02*
G37*
G36*
X34319Y30762D02*
X33910D01*
Y29702D01*
X34314D01*
X34352Y29708D01*
X34396D01*
X34445Y29719D01*
X34538Y29735D01*
X34543D01*
X34560Y29741D01*
X34582Y29751D01*
X34614Y29762D01*
X34680Y29795D01*
X34751Y29839D01*
X34756Y29844D01*
X34767Y29850D01*
X34784Y29866D01*
X34800Y29888D01*
X34844Y29943D01*
X34887Y30008D01*
Y30013D01*
X34893Y30024D01*
X34904Y30046D01*
X34914Y30079D01*
X34920Y30112D01*
X34931Y30156D01*
X34936Y30248D01*
Y30254D01*
Y30259D01*
Y30292D01*
X34925Y30336D01*
X34914Y30390D01*
X34898Y30456D01*
X34865Y30516D01*
X34827Y30576D01*
X34773Y30630D01*
X34767Y30636D01*
X34745Y30652D01*
X34707Y30674D01*
X34658Y30696D01*
X34592Y30718D01*
X34516Y30740D01*
X34423Y30756D01*
X34319Y30762D01*
D02*
G37*
G36*
X39960Y36634D02*
X39414Y34920D01*
X40506D01*
X39960Y36634D01*
D02*
G37*
G36*
X37470Y36623D02*
X36351Y34914D01*
X37470D01*
Y36623D01*
D02*
G37*
G36*
X34319Y36667D02*
X33910D01*
Y35608D01*
X34314D01*
X34352Y35613D01*
X34396D01*
X34445Y35624D01*
X34538Y35640D01*
X34543D01*
X34560Y35646D01*
X34582Y35657D01*
X34614Y35668D01*
X34680Y35701D01*
X34751Y35744D01*
X34756Y35750D01*
X34767Y35755D01*
X34784Y35772D01*
X34800Y35793D01*
X34844Y35848D01*
X34887Y35914D01*
Y35919D01*
X34893Y35930D01*
X34904Y35952D01*
X34914Y35985D01*
X34920Y36017D01*
X34931Y36061D01*
X34936Y36154D01*
Y36159D01*
Y36165D01*
Y36198D01*
X34925Y36241D01*
X34914Y36296D01*
X34898Y36361D01*
X34865Y36421D01*
X34827Y36481D01*
X34773Y36536D01*
X34767Y36541D01*
X34745Y36558D01*
X34707Y36580D01*
X34658Y36601D01*
X34592Y36623D01*
X34516Y36645D01*
X34423Y36662D01*
X34319Y36667D01*
D02*
G37*
G36*
X121366Y68160D02*
X120957D01*
Y67101D01*
X121361D01*
X121399Y67107D01*
X121443D01*
X121492Y67118D01*
X121585Y67134D01*
X121590D01*
X121606Y67139D01*
X121628Y67150D01*
X121661Y67161D01*
X121727Y67194D01*
X121798Y67238D01*
X121803Y67243D01*
X121814Y67248D01*
X121830Y67265D01*
X121847Y67287D01*
X121890Y67341D01*
X121934Y67407D01*
Y67412D01*
X121940Y67423D01*
X121950Y67445D01*
X121961Y67478D01*
X121967Y67511D01*
X121978Y67554D01*
X121983Y67647D01*
Y67653D01*
Y67658D01*
Y67691D01*
X121972Y67734D01*
X121961Y67789D01*
X121945Y67855D01*
X121912Y67915D01*
X121874Y67975D01*
X121819Y68029D01*
X121814Y68035D01*
X121792Y68051D01*
X121754Y68073D01*
X121705Y68095D01*
X121639Y68117D01*
X121563Y68138D01*
X121470Y68155D01*
X121366Y68160D01*
D02*
G37*
G36*
Y62233D02*
X120957D01*
Y61174D01*
X121361D01*
X121399Y61179D01*
X121443D01*
X121492Y61190D01*
X121585Y61207D01*
X121590D01*
X121606Y61212D01*
X121628Y61223D01*
X121661Y61234D01*
X121727Y61267D01*
X121798Y61310D01*
X121803Y61316D01*
X121814Y61321D01*
X121830Y61338D01*
X121847Y61359D01*
X121890Y61414D01*
X121934Y61480D01*
Y61485D01*
X121940Y61496D01*
X121950Y61518D01*
X121961Y61550D01*
X121967Y61583D01*
X121978Y61627D01*
X121983Y61720D01*
Y61725D01*
Y61731D01*
Y61764D01*
X121972Y61807D01*
X121961Y61862D01*
X121945Y61927D01*
X121912Y61987D01*
X121874Y62047D01*
X121819Y62102D01*
X121814Y62107D01*
X121792Y62124D01*
X121754Y62146D01*
X121705Y62168D01*
X121639Y62189D01*
X121563Y62211D01*
X121470Y62227D01*
X121366Y62233D01*
D02*
G37*
G36*
X65991Y63234D02*
X65581D01*
Y62174D01*
X65985D01*
X66023Y62180D01*
X66067D01*
X66116Y62191D01*
X66209Y62207D01*
X66214D01*
X66231Y62213D01*
X66253Y62224D01*
X66285Y62234D01*
X66351Y62267D01*
X66422Y62311D01*
X66427Y62316D01*
X66438Y62322D01*
X66455Y62338D01*
X66471Y62360D01*
X66515Y62415D01*
X66558Y62480D01*
Y62486D01*
X66564Y62497D01*
X66575Y62518D01*
X66586Y62551D01*
X66591Y62584D01*
X66602Y62628D01*
X66607Y62720D01*
Y62726D01*
Y62731D01*
Y62764D01*
X66597Y62808D01*
X66586Y62862D01*
X66569Y62928D01*
X66536Y62988D01*
X66498Y63048D01*
X66444Y63103D01*
X66438Y63108D01*
X66416Y63125D01*
X66378Y63146D01*
X66329Y63168D01*
X66264Y63190D01*
X66187Y63212D01*
X66094Y63228D01*
X65991Y63234D01*
D02*
G37*
G36*
X71631Y54381D02*
X71161D01*
Y51918D01*
X71532D01*
X71587Y51929D01*
X71658Y51940D01*
X71740Y51957D01*
X71833Y51984D01*
X71931Y52022D01*
X72035Y52071D01*
X72139Y52137D01*
X72237Y52219D01*
X72329Y52317D01*
X72412Y52437D01*
X72450Y52503D01*
X72482Y52579D01*
X72515Y52656D01*
X72537Y52743D01*
X72559Y52830D01*
X72575Y52929D01*
X72581Y53038D01*
X72586Y53147D01*
Y53152D01*
Y53163D01*
Y53180D01*
Y53202D01*
X72581Y53267D01*
Y53343D01*
X72570Y53436D01*
X72559Y53529D01*
X72543Y53627D01*
X72521Y53720D01*
Y53726D01*
X72515Y53731D01*
X72510Y53758D01*
X72493Y53802D01*
X72471Y53857D01*
X72444Y53917D01*
X72412Y53982D01*
X72368Y54048D01*
X72324Y54102D01*
X72319Y54108D01*
X72302Y54124D01*
X72275Y54151D01*
X72237Y54184D01*
X72188Y54217D01*
X72133Y54255D01*
X72067Y54288D01*
X71996Y54315D01*
X71986Y54321D01*
X71964Y54326D01*
X71920Y54337D01*
X71865Y54348D01*
X71794Y54359D01*
X71718Y54370D01*
X71631Y54381D01*
D02*
G37*
G36*
X71794Y30759D02*
X71281D01*
Y29760D01*
X71767D01*
X71800Y29765D01*
X71844D01*
X71887Y29770D01*
X71980Y29787D01*
X71986D01*
X72002Y29792D01*
X72024Y29803D01*
X72051Y29814D01*
X72117Y29842D01*
X72188Y29885D01*
X72193Y29891D01*
X72204Y29896D01*
X72237Y29929D01*
X72280Y29983D01*
X72324Y30049D01*
Y30054D01*
X72329Y30065D01*
X72341Y30087D01*
X72351Y30120D01*
X72357Y30153D01*
X72368Y30196D01*
X72373Y30289D01*
Y30295D01*
Y30306D01*
Y30322D01*
X72368Y30349D01*
X72362Y30404D01*
X72341Y30469D01*
Y30475D01*
X72335Y30486D01*
X72329Y30502D01*
X72319Y30518D01*
X72286Y30568D01*
X72237Y30617D01*
X72231Y30622D01*
X72226Y30628D01*
X72209Y30639D01*
X72188Y30655D01*
X72160Y30671D01*
X72122Y30688D01*
X72084Y30704D01*
X72040Y30721D01*
X72035D01*
X72018Y30726D01*
X71991Y30731D01*
X71953Y30742D01*
X71909Y30748D01*
X71855Y30753D01*
X71794Y30759D01*
D02*
G37*
G36*
X71789Y29394D02*
X71281D01*
Y28291D01*
X71800D01*
X71833Y28296D01*
X71871D01*
X71953Y28307D01*
X72046Y28324D01*
X72139Y28351D01*
X72226Y28384D01*
X72302Y28427D01*
X72308Y28433D01*
X72329Y28455D01*
X72362Y28487D01*
X72395Y28537D01*
X72428Y28597D01*
X72461Y28673D01*
X72482Y28760D01*
X72488Y28864D01*
Y28870D01*
Y28886D01*
Y28908D01*
X72482Y28935D01*
X72466Y29006D01*
X72433Y29083D01*
Y29088D01*
X72422Y29099D01*
X72412Y29115D01*
X72395Y29143D01*
X72351Y29192D01*
X72286Y29246D01*
X72280Y29252D01*
X72269Y29257D01*
X72248Y29274D01*
X72220Y29285D01*
X72182Y29306D01*
X72144Y29323D01*
X72046Y29356D01*
X72040D01*
X72018Y29361D01*
X71991Y29366D01*
X71953Y29377D01*
X71904Y29383D01*
X71849Y29388D01*
X71789Y29394D01*
D02*
G37*
G36*
X71827Y36632D02*
X71281Y34917D01*
X72373D01*
X71827Y36632D01*
D02*
G37*
%LPD*%
D10*
X78740Y66732D02*
X78150Y67323D01*
X77559Y66732D01*
X78150Y66142D01*
X78740Y66732D01*
D11*
X85236Y60827D02*
X84692Y61576D01*
X83812Y61290D01*
Y60364D01*
X84692Y60078D01*
X85236Y60827D01*
D12*
X14685Y85197D02*
X24685D01*
Y5197D02*
Y85197D01*
X14685Y5197D02*
X24685D01*
X14685D02*
Y85197D01*
X30630Y104409D02*
X90630D01*
X30630Y94410D02*
Y104409D01*
Y94410D02*
X90630D01*
Y104409D01*
D13*
X82480Y63976D02*
X96653D01*
X82480Y44291D02*
X96653D01*
M02*
