M48
;Layer_Color=9474304
;FILE_FORMAT=2:4
INCH,TZ
;TYPE=PLATED
T01F00S00C0.0118
T02F00S00C0.0472
T03F00S00C0.1339
%
T01
X10524Y897
X11220Y608
X11916Y897
X12205Y1593
X11916Y2288
X11220Y2577
X10524Y2288
X10236Y1593
X10787Y4409
X11181
X11654
X12047
X12165Y5197
Y5591
Y6024
Y6417
X10709Y7283
X10524Y8556
X11220Y8268
X11916Y8556
X12205Y9252
X11916Y9948
X11220Y10236
X10524Y9948
X10236Y9252
X9488Y5818
X8386Y5551
Y5276
X6654Y5315
Y4724
Y3543
Y2953
X5157Y6181
T02
X1969Y1020
Y2020
Y3020
Y4020
Y5020
Y6020
Y7020
Y8020
X3563Y9941
X4563
X5563
X6563
X7563
X8563
T03
X11220Y1575
Y9252
M30
