M48
;Layer_Color=9474304
;FILE_FORMAT=2:4
INCH,TZ
;TYPE=PLATED
T01F00S00C0.0118
T02F00S00C0.0472
T03F00S00C0.1339
%
T01
X1693Y2736
X3228Y2913
X2992Y4803
X4094Y4843
X4370Y6181
X4710Y5896
X6102Y5985
X6116Y5552
X6535Y5748
X6378Y4685
X5866Y4449
X5868Y5082
X5827Y3819
X6339Y2598
X6850Y2638
X6850Y3071
X8819Y2992
X9213Y3425
X9134Y4291
X9567
X9685Y5669
X8278Y5128
X7008Y7520
X6614Y9685
X7598
X11220Y9449
X11509Y8753
X12205Y8465
X12901Y8753
X13189Y9449
X12901Y10145
X12205Y10433
X11509Y10145
X11378Y7520
Y7087
X11509Y2271
X11220Y1575
X11509Y879
X12205Y591
X12901Y879
X13189Y1575
X12901Y2271
X12205Y2559
X3976Y6693
X1693Y6969
T02
X1181Y1256
Y2256
Y3256
Y4256
Y5488
Y6488
Y7488
Y8488
X4094Y10236
X5094
X6094
X7094
X8094
X9094
X9217Y1256
X8217
X7217
X6217
X5217
X4217
X3217
X10217
T03
X12205Y1575
Y9449
M30
