G04*
G04 #@! TF.GenerationSoftware,Altium Limited,Altium Designer,24.10.1 (45)*
G04*
G04 Layer_Color=16711935*
%FSLAX25Y25*%
%MOIN*%
G70*
G04*
G04 #@! TF.SameCoordinates,420246D5-23F9-42E6-AD95-1A962FCA9351*
G04*
G04*
G04 #@! TF.FilePolarity,Positive*
G04*
G01*
G75*
%ADD14C,0.01000*%
D14*
X137795Y104331D02*
X137706Y105356D01*
X137439Y106351D01*
X137004Y107283D01*
X136414Y108127D01*
X135686Y108855D01*
X134843Y109445D01*
X133909Y109880D01*
X132915Y110146D01*
X131890Y110236D01*
Y0D02*
X132915Y90D01*
X133910Y356D01*
X134843Y791D01*
X135686Y1382D01*
X136414Y2110D01*
X137004Y2953D01*
X137439Y3886D01*
X137706Y4880D01*
X137795Y5906D01*
X0Y5906D02*
X90Y4880D01*
X356Y3886D01*
X791Y2953D01*
X1382Y2110D01*
X2110Y1382D01*
X2953Y791D01*
X3886Y356D01*
X4880Y90D01*
X5906Y0D01*
Y110236D02*
X4880Y110146D01*
X3886Y109880D01*
X2953Y109445D01*
X2110Y108855D01*
X1382Y108127D01*
X791Y107283D01*
X356Y106351D01*
X90Y105356D01*
X0Y104331D01*
X5906Y0D02*
X131890D01*
X0Y5906D02*
Y104331D01*
X5906Y110236D02*
X131890D01*
X137795Y5906D02*
Y104331D01*
M02*
