G04*
G04 #@! TF.GenerationSoftware,Altium Limited,Altium Designer,24.10.1 (45)*
G04*
G04 Layer_Color=32896*
%FSLAX25Y25*%
%MOIN*%
G70*
G04*
G04 #@! TF.SameCoordinates,420246D5-23F9-42E6-AD95-1A962FCA9351*
G04*
G04*
G04 #@! TF.FilePolarity,Positive*
G04*
G01*
G75*
%ADD39C,0.01968*%
G36*
X43251Y87598D02*
X38639D01*
Y96549D01*
X43251D01*
Y87598D01*
D02*
G37*
G36*
X26575Y72576D02*
X17624D01*
Y77188D01*
X26575D01*
Y72576D01*
D02*
G37*
G36*
Y82576D02*
X17624D01*
Y87188D01*
X26575D01*
Y82576D01*
D02*
G37*
G36*
X64062Y1631D02*
X60269D01*
Y6243D01*
X64062D01*
Y1631D01*
D02*
G37*
G36*
X63251Y87598D02*
X58639D01*
Y96549D01*
X63251D01*
Y87598D01*
D02*
G37*
G36*
X26575Y10253D02*
X17624D01*
Y14865D01*
X26575D01*
Y10253D01*
D02*
G37*
G36*
X44062Y1631D02*
X40269D01*
Y6243D01*
X44062D01*
Y1631D01*
D02*
G37*
G36*
X26575Y30253D02*
X17624D01*
Y34865D01*
X26575D01*
Y30253D01*
D02*
G37*
G36*
Y20253D02*
X17624D01*
Y24865D01*
X26575D01*
Y20253D01*
D02*
G37*
G36*
Y62576D02*
X17624D01*
Y67188D01*
X26575D01*
Y62576D01*
D02*
G37*
G36*
X53251Y96549D02*
Y87598D01*
X48639D01*
Y96549D01*
X53251D01*
D02*
G37*
G36*
X104062Y1631D02*
X100269D01*
Y6243D01*
X104062D01*
Y1631D01*
D02*
G37*
G36*
X26575Y40253D02*
X17624D01*
Y44865D01*
X26575D01*
Y40253D01*
D02*
G37*
G36*
X54062Y1631D02*
X50269D01*
Y6243D01*
X54062D01*
Y1631D01*
D02*
G37*
G36*
X73251Y87598D02*
X68639D01*
Y96549D01*
X73251D01*
Y87598D01*
D02*
G37*
G36*
X74062Y6243D02*
Y1631D01*
X70269D01*
Y6243D01*
X74062D01*
D02*
G37*
G36*
X94062Y1631D02*
X90269D01*
Y6243D01*
X94062D01*
Y1631D01*
D02*
G37*
G36*
X26575Y52576D02*
X17624D01*
Y57188D01*
X26575D01*
Y52576D01*
D02*
G37*
G36*
X83693Y82569D02*
X78197D01*
Y96565D01*
X83693D01*
Y82569D01*
D02*
G37*
G36*
X93251Y87598D02*
X88639D01*
Y96549D01*
X93251D01*
Y87598D01*
D02*
G37*
G36*
X34062Y1631D02*
X30269D01*
Y6243D01*
X34062D01*
Y1631D01*
D02*
G37*
G36*
X84062D02*
X80269D01*
Y6243D01*
X84062D01*
Y1631D01*
D02*
G37*
G36*
X99066Y53390D02*
X99205Y53375D01*
X99329Y53346D01*
X99445Y53317D01*
X99540Y53288D01*
X99613Y53259D01*
X99635Y53251D01*
X99657Y53244D01*
X99664Y53237D01*
X99671D01*
X99795Y53179D01*
X99919Y53106D01*
X100021Y53040D01*
X100116Y52974D01*
X100189Y52916D01*
X100247Y52865D01*
X100284Y52836D01*
X100298Y52821D01*
X99875Y52282D01*
X99803Y52347D01*
X99730Y52406D01*
X99664Y52457D01*
X99598Y52493D01*
X99547Y52530D01*
X99504Y52552D01*
X99474Y52566D01*
X99467Y52574D01*
X99387Y52610D01*
X99300Y52639D01*
X99227Y52654D01*
X99154Y52668D01*
X99088Y52675D01*
X99044Y52683D01*
X99001D01*
X98899Y52675D01*
X98811Y52661D01*
X98782Y52646D01*
X98760Y52639D01*
X98745Y52632D01*
X98738D01*
X98658Y52595D01*
X98600Y52552D01*
X98563Y52522D01*
X98549Y52515D01*
Y52508D01*
X98498Y52442D01*
X98461Y52384D01*
X98439Y52340D01*
X98432Y52326D01*
Y52318D01*
X98403Y52238D01*
X98396Y52158D01*
X98388Y52129D01*
Y52107D01*
Y52092D01*
Y52085D01*
X98396Y51983D01*
X98403Y51888D01*
X98410Y51852D01*
X98417Y51823D01*
X98425Y51808D01*
Y51801D01*
X98454Y51691D01*
X98498Y51597D01*
X98519Y51553D01*
X98534Y51524D01*
X98541Y51502D01*
X98549Y51495D01*
X98585Y51436D01*
X98629Y51371D01*
X98672Y51312D01*
X98709Y51254D01*
X98753Y51203D01*
X98782Y51166D01*
X98804Y51137D01*
X98811Y51130D01*
X98877Y51050D01*
X98957Y50970D01*
X99030Y50889D01*
X99103Y50809D01*
X99168Y50744D01*
X99219Y50693D01*
X99256Y50656D01*
X99270Y50642D01*
X100276Y49621D01*
Y49038D01*
X97368D01*
Y49774D01*
X99176D01*
X98556Y50365D01*
X98468Y50452D01*
X98381Y50532D01*
X98308Y50605D01*
X98242Y50678D01*
X98191Y50729D01*
X98155Y50773D01*
X98126Y50802D01*
X98119Y50809D01*
X98046Y50889D01*
X97987Y50962D01*
X97929Y51035D01*
X97878Y51094D01*
X97842Y51152D01*
X97812Y51188D01*
X97798Y51218D01*
X97790Y51225D01*
X97703Y51378D01*
X97674Y51451D01*
X97645Y51516D01*
X97623Y51575D01*
X97608Y51618D01*
X97594Y51648D01*
Y51655D01*
X97550Y51823D01*
X97535Y51910D01*
X97528Y51983D01*
X97521Y52041D01*
Y52092D01*
Y52122D01*
Y52136D01*
X97528Y52245D01*
X97535Y52347D01*
X97550Y52442D01*
X97572Y52522D01*
X97594Y52588D01*
X97608Y52632D01*
X97615Y52668D01*
X97623Y52675D01*
X97667Y52763D01*
X97710Y52836D01*
X97754Y52909D01*
X97805Y52960D01*
X97842Y53011D01*
X97878Y53040D01*
X97900Y53062D01*
X97907Y53069D01*
X97980Y53127D01*
X98053Y53171D01*
X98126Y53215D01*
X98191Y53251D01*
X98257Y53273D01*
X98301Y53295D01*
X98330Y53310D01*
X98344D01*
X98439Y53339D01*
X98541Y53361D01*
X98636Y53375D01*
X98724Y53390D01*
X98804D01*
X98862Y53397D01*
X98913D01*
X99066Y53390D01*
D02*
G37*
G36*
X91674D02*
X91813Y53375D01*
X91937Y53346D01*
X92053Y53317D01*
X92148Y53288D01*
X92221Y53259D01*
X92243Y53251D01*
X92265Y53244D01*
X92272Y53237D01*
X92279D01*
X92403Y53179D01*
X92527Y53106D01*
X92629Y53040D01*
X92724Y52974D01*
X92797Y52916D01*
X92855Y52865D01*
X92892Y52836D01*
X92906Y52821D01*
X92483Y52282D01*
X92410Y52347D01*
X92338Y52406D01*
X92272Y52457D01*
X92206Y52493D01*
X92155Y52530D01*
X92111Y52552D01*
X92082Y52566D01*
X92075Y52574D01*
X91995Y52610D01*
X91907Y52639D01*
X91834Y52654D01*
X91762Y52668D01*
X91696Y52675D01*
X91652Y52683D01*
X91609D01*
X91506Y52675D01*
X91419Y52661D01*
X91390Y52646D01*
X91368Y52639D01*
X91353Y52632D01*
X91346D01*
X91266Y52595D01*
X91208Y52552D01*
X91171Y52522D01*
X91157Y52515D01*
Y52508D01*
X91106Y52442D01*
X91069Y52384D01*
X91047Y52340D01*
X91040Y52326D01*
Y52318D01*
X91011Y52238D01*
X91004Y52158D01*
X90996Y52129D01*
Y52107D01*
Y52092D01*
Y52085D01*
X91004Y51983D01*
X91011Y51888D01*
X91018Y51852D01*
X91025Y51823D01*
X91033Y51808D01*
Y51801D01*
X91062Y51691D01*
X91106Y51597D01*
X91127Y51553D01*
X91142Y51524D01*
X91149Y51502D01*
X91157Y51495D01*
X91193Y51436D01*
X91237Y51371D01*
X91281Y51312D01*
X91317Y51254D01*
X91361Y51203D01*
X91390Y51166D01*
X91412Y51137D01*
X91419Y51130D01*
X91485Y51050D01*
X91565Y50970D01*
X91638Y50889D01*
X91711Y50809D01*
X91776Y50744D01*
X91827Y50693D01*
X91864Y50656D01*
X91878Y50642D01*
X92884Y49621D01*
Y49038D01*
X89976D01*
Y49774D01*
X91783D01*
X91164Y50365D01*
X91076Y50452D01*
X90989Y50532D01*
X90916Y50605D01*
X90850Y50678D01*
X90799Y50729D01*
X90763Y50773D01*
X90734Y50802D01*
X90726Y50809D01*
X90654Y50889D01*
X90595Y50962D01*
X90537Y51035D01*
X90486Y51094D01*
X90449Y51152D01*
X90420Y51188D01*
X90406Y51218D01*
X90398Y51225D01*
X90311Y51378D01*
X90282Y51451D01*
X90253Y51516D01*
X90231Y51575D01*
X90216Y51618D01*
X90202Y51648D01*
Y51655D01*
X90158Y51823D01*
X90143Y51910D01*
X90136Y51983D01*
X90129Y52041D01*
Y52092D01*
Y52122D01*
Y52136D01*
X90136Y52245D01*
X90143Y52347D01*
X90158Y52442D01*
X90180Y52522D01*
X90202Y52588D01*
X90216Y52632D01*
X90223Y52668D01*
X90231Y52675D01*
X90275Y52763D01*
X90318Y52836D01*
X90362Y52909D01*
X90413Y52960D01*
X90449Y53011D01*
X90486Y53040D01*
X90508Y53062D01*
X90515Y53069D01*
X90588Y53127D01*
X90661Y53171D01*
X90734Y53215D01*
X90799Y53251D01*
X90865Y53273D01*
X90909Y53295D01*
X90938Y53310D01*
X90952D01*
X91047Y53339D01*
X91149Y53361D01*
X91244Y53375D01*
X91331Y53390D01*
X91412D01*
X91470Y53397D01*
X91521D01*
X91674Y53390D01*
D02*
G37*
G36*
X119041Y49038D02*
X118356D01*
X118283Y51480D01*
X118261Y52428D01*
X118078Y51772D01*
X117648Y50314D01*
X117138D01*
X116664Y51772D01*
X116460Y52428D01*
X116431Y51458D01*
X116351Y49038D01*
X115636D01*
X115848Y53324D01*
X116781D01*
X117175Y52063D01*
X117357Y51414D01*
X117539Y52100D01*
X117918Y53324D01*
X118829D01*
X119041Y49038D01*
D02*
G37*
G36*
X133657D02*
X132921D01*
Y50365D01*
Y52143D01*
X132688Y51589D01*
X131543Y49038D01*
X130552D01*
Y53324D01*
X131288D01*
Y52136D01*
Y50248D01*
X131499Y50744D01*
X132666Y53324D01*
X133657D01*
Y49038D01*
D02*
G37*
G36*
X125259D02*
X124195D01*
X122875Y53324D01*
X123736D01*
X124457Y50787D01*
X124698Y49891D01*
X124931Y50736D01*
X125653Y53324D01*
X126571D01*
X125259Y49038D01*
D02*
G37*
G36*
X122270D02*
X119690D01*
Y49723D01*
X121447D01*
Y50911D01*
X119770D01*
Y51575D01*
X121447D01*
Y52639D01*
X119690D01*
Y53324D01*
X122270D01*
Y49038D01*
D02*
G37*
G36*
X115060D02*
X113756D01*
X113602Y49045D01*
X113464Y49052D01*
X113333Y49067D01*
X113209Y49089D01*
X113092Y49111D01*
X112990Y49140D01*
X112895Y49169D01*
X112808Y49205D01*
X112735Y49235D01*
X112669Y49264D01*
X112611Y49293D01*
X112567Y49315D01*
X112531Y49337D01*
X112509Y49351D01*
X112494Y49366D01*
X112487D01*
X112407Y49431D01*
X112341Y49504D01*
X112283Y49577D01*
X112232Y49657D01*
X112188Y49738D01*
X112152Y49825D01*
X112101Y49978D01*
X112064Y50124D01*
X112057Y50190D01*
X112050Y50241D01*
X112042Y50284D01*
Y50321D01*
Y50343D01*
Y50350D01*
X112050Y50496D01*
X112064Y50554D01*
X112072Y50612D01*
X112086Y50656D01*
X112101Y50693D01*
X112108Y50714D01*
Y50722D01*
X112166Y50839D01*
X112196Y50889D01*
X112217Y50933D01*
X112247Y50962D01*
X112261Y50992D01*
X112276Y51006D01*
X112283Y51013D01*
X112371Y51094D01*
X112451Y51159D01*
X112487Y51181D01*
X112516Y51196D01*
X112531Y51210D01*
X112538D01*
X112647Y51261D01*
X112742Y51298D01*
X112786Y51305D01*
X112815Y51312D01*
X112837Y51320D01*
X112844D01*
X112735Y51363D01*
X112684Y51385D01*
X112647Y51414D01*
X112611Y51436D01*
X112589Y51451D01*
X112575Y51458D01*
X112567Y51465D01*
X112487Y51546D01*
X112422Y51618D01*
X112400Y51655D01*
X112385Y51677D01*
X112371Y51691D01*
Y51699D01*
X112319Y51801D01*
X112283Y51888D01*
X112268Y51925D01*
X112261Y51954D01*
X112254Y51968D01*
Y51976D01*
X112225Y52092D01*
X112217Y52187D01*
X112210Y52231D01*
Y52260D01*
Y52282D01*
Y52289D01*
X112217Y52384D01*
X112225Y52471D01*
X112268Y52632D01*
X112327Y52763D01*
X112392Y52872D01*
X112465Y52953D01*
X112523Y53011D01*
X112567Y53047D01*
X112575Y53062D01*
X112582D01*
X112655Y53106D01*
X112735Y53149D01*
X112903Y53215D01*
X113085Y53259D01*
X113267Y53295D01*
X113347Y53303D01*
X113427Y53310D01*
X113493Y53317D01*
X113559D01*
X113602Y53324D01*
X115060D01*
Y49038D01*
D02*
G37*
G36*
X111182D02*
X108601D01*
Y49723D01*
X110358D01*
Y50911D01*
X108682D01*
Y51575D01*
X110358D01*
Y52639D01*
X108601D01*
Y53324D01*
X111182D01*
Y49038D01*
D02*
G37*
G36*
X107668D02*
X106859D01*
Y50817D01*
X106706D01*
X106633Y50809D01*
X106560Y50802D01*
X106502Y50787D01*
X106451Y50766D01*
X106407Y50744D01*
X106378Y50729D01*
X106356Y50722D01*
X106349Y50714D01*
X106298Y50671D01*
X106247Y50627D01*
X106174Y50525D01*
X106152Y50481D01*
X106130Y50445D01*
X106116Y50423D01*
Y50416D01*
X105511Y49038D01*
X104563D01*
X105248Y50474D01*
X105299Y50569D01*
X105343Y50656D01*
X105387Y50729D01*
X105430Y50787D01*
X105459Y50839D01*
X105489Y50868D01*
X105503Y50889D01*
X105511Y50897D01*
X105562Y50948D01*
X105613Y50984D01*
X105664Y51013D01*
X105707Y51043D01*
X105744Y51057D01*
X105773Y51064D01*
X105795Y51072D01*
X105802D01*
X105656Y51108D01*
X105591Y51123D01*
X105532Y51145D01*
X105489Y51159D01*
X105452Y51174D01*
X105430Y51188D01*
X105423D01*
X105299Y51254D01*
X105248Y51290D01*
X105204Y51327D01*
X105175Y51356D01*
X105146Y51378D01*
X105131Y51393D01*
X105124Y51400D01*
X105044Y51509D01*
X104986Y51611D01*
X104964Y51655D01*
X104949Y51691D01*
X104935Y51713D01*
Y51721D01*
X104891Y51859D01*
X104876Y51932D01*
X104869Y51998D01*
X104862Y52056D01*
Y52100D01*
Y52129D01*
Y52136D01*
X104869Y52253D01*
X104876Y52362D01*
X104898Y52457D01*
X104920Y52537D01*
X104942Y52603D01*
X104956Y52646D01*
X104971Y52683D01*
X104978Y52690D01*
X105022Y52770D01*
X105073Y52843D01*
X105124Y52902D01*
X105175Y52960D01*
X105219Y52996D01*
X105255Y53033D01*
X105285Y53047D01*
X105292Y53055D01*
X105372Y53106D01*
X105452Y53149D01*
X105532Y53186D01*
X105613Y53215D01*
X105678Y53230D01*
X105729Y53244D01*
X105766Y53259D01*
X105780D01*
X106006Y53295D01*
X106108Y53310D01*
X106210Y53317D01*
X106298Y53324D01*
X107668D01*
Y49038D01*
D02*
G37*
G36*
X89480Y50598D02*
Y49913D01*
X87490D01*
Y49038D01*
X86702D01*
Y49913D01*
X86054D01*
Y50620D01*
X86702D01*
Y53324D01*
X87810D01*
X89480Y50598D01*
D02*
G37*
G36*
X128525Y53390D02*
X128656Y53375D01*
X128773Y53354D01*
X128875Y53332D01*
X128955Y53310D01*
X129021Y53288D01*
X129065Y53273D01*
X129072Y53266D01*
X129079D01*
X129196Y53208D01*
X129305Y53149D01*
X129400Y53076D01*
X129480Y53011D01*
X129546Y52953D01*
X129597Y52902D01*
X129626Y52872D01*
X129640Y52858D01*
X129721Y52749D01*
X129794Y52639D01*
X129859Y52522D01*
X129910Y52413D01*
X129954Y52311D01*
X129983Y52238D01*
X129998Y52209D01*
X130005Y52187D01*
X130012Y52172D01*
Y52165D01*
X130056Y51998D01*
X130085Y51830D01*
X130114Y51662D01*
X130129Y51502D01*
X130136Y51363D01*
Y51305D01*
X130143Y51254D01*
Y51218D01*
Y51188D01*
Y51166D01*
Y51159D01*
X130136Y50962D01*
X130122Y50780D01*
X130107Y50612D01*
X130078Y50452D01*
X130049Y50306D01*
X130012Y50175D01*
X129969Y50051D01*
X129932Y49942D01*
X129896Y49847D01*
X129852Y49760D01*
X129815Y49687D01*
X129786Y49628D01*
X129757Y49585D01*
X129735Y49555D01*
X129728Y49534D01*
X129721Y49526D01*
X129633Y49424D01*
X129546Y49344D01*
X129444Y49264D01*
X129342Y49205D01*
X129232Y49147D01*
X129130Y49103D01*
X129021Y49067D01*
X128919Y49038D01*
X128824Y49009D01*
X128736Y48994D01*
X128656Y48979D01*
X128583Y48972D01*
X128525D01*
X128481Y48965D01*
X128445D01*
X128314Y48972D01*
X128182Y48987D01*
X128066Y49001D01*
X127964Y49031D01*
X127884Y49052D01*
X127818Y49067D01*
X127774Y49082D01*
X127760Y49089D01*
X127643Y49147D01*
X127541Y49205D01*
X127446Y49271D01*
X127359Y49337D01*
X127293Y49395D01*
X127249Y49446D01*
X127213Y49475D01*
X127206Y49490D01*
X127118Y49599D01*
X127045Y49716D01*
X126980Y49832D01*
X126929Y49942D01*
X126885Y50044D01*
X126848Y50117D01*
X126841Y50146D01*
X126834Y50168D01*
X126827Y50182D01*
Y50190D01*
X126783Y50357D01*
X126746Y50525D01*
X126725Y50693D01*
X126703Y50853D01*
X126695Y50992D01*
Y51050D01*
X126688Y51101D01*
Y51137D01*
Y51166D01*
Y51188D01*
Y51196D01*
X126695Y51393D01*
X126710Y51575D01*
X126725Y51750D01*
X126754Y51910D01*
X126790Y52056D01*
X126827Y52187D01*
X126863Y52311D01*
X126899Y52420D01*
X126943Y52515D01*
X126980Y52603D01*
X127016Y52675D01*
X127052Y52734D01*
X127082Y52778D01*
X127096Y52807D01*
X127111Y52829D01*
X127118Y52836D01*
X127206Y52938D01*
X127293Y53018D01*
X127395Y53098D01*
X127497Y53164D01*
X127606Y53215D01*
X127709Y53259D01*
X127818Y53295D01*
X127920Y53324D01*
X128015Y53354D01*
X128102Y53368D01*
X128182Y53383D01*
X128255Y53390D01*
X128314Y53397D01*
X128394D01*
X128525Y53390D01*
D02*
G37*
G36*
X95253D02*
X95392Y53375D01*
X95516Y53346D01*
X95625Y53324D01*
X95713Y53295D01*
X95778Y53266D01*
X95822Y53251D01*
X95829Y53244D01*
X95837D01*
X95953Y53179D01*
X96055Y53113D01*
X96150Y53040D01*
X96230Y52967D01*
X96296Y52902D01*
X96340Y52851D01*
X96376Y52814D01*
X96384Y52799D01*
X96464Y52690D01*
X96529Y52574D01*
X96588Y52457D01*
X96631Y52340D01*
X96668Y52245D01*
X96697Y52172D01*
X96704Y52143D01*
X96711Y52122D01*
X96719Y52107D01*
Y52100D01*
X96755Y51939D01*
X96784Y51779D01*
X96799Y51618D01*
X96814Y51473D01*
X96821Y51349D01*
X96828Y51290D01*
Y51247D01*
Y51210D01*
Y51181D01*
Y51166D01*
Y51159D01*
X96821Y50948D01*
X96806Y50758D01*
X96792Y50591D01*
X96770Y50445D01*
X96755Y50379D01*
X96748Y50321D01*
X96741Y50277D01*
X96726Y50233D01*
X96719Y50204D01*
Y50182D01*
X96711Y50168D01*
Y50160D01*
X96661Y50015D01*
X96609Y49876D01*
X96551Y49760D01*
X96500Y49665D01*
X96449Y49585D01*
X96413Y49526D01*
X96384Y49490D01*
X96376Y49475D01*
X96289Y49380D01*
X96201Y49308D01*
X96114Y49235D01*
X96034Y49184D01*
X95968Y49140D01*
X95910Y49111D01*
X95873Y49096D01*
X95859Y49089D01*
X95742Y49045D01*
X95633Y49016D01*
X95516Y48994D01*
X95421Y48979D01*
X95334Y48972D01*
X95261Y48965D01*
X95202D01*
X95057Y48972D01*
X94918Y48987D01*
X94794Y49009D01*
X94685Y49038D01*
X94605Y49067D01*
X94539Y49089D01*
X94495Y49103D01*
X94481Y49111D01*
X94364Y49176D01*
X94262Y49242D01*
X94167Y49315D01*
X94087Y49388D01*
X94029Y49453D01*
X93978Y49504D01*
X93949Y49534D01*
X93941Y49548D01*
X93861Y49665D01*
X93796Y49781D01*
X93730Y49898D01*
X93686Y50015D01*
X93650Y50109D01*
X93621Y50190D01*
X93613Y50219D01*
X93606Y50241D01*
X93599Y50248D01*
Y50255D01*
X93562Y50416D01*
X93533Y50576D01*
X93511Y50736D01*
X93497Y50882D01*
X93489Y51006D01*
X93482Y51064D01*
Y51108D01*
Y51145D01*
Y51174D01*
Y51188D01*
Y51196D01*
X93489Y51407D01*
X93504Y51597D01*
X93519Y51772D01*
X93540Y51917D01*
X93555Y51976D01*
X93569Y52034D01*
X93577Y52078D01*
X93584Y52122D01*
X93591Y52151D01*
X93599Y52172D01*
X93606Y52187D01*
Y52194D01*
X93657Y52340D01*
X93708Y52479D01*
X93766Y52595D01*
X93825Y52690D01*
X93876Y52770D01*
X93912Y52829D01*
X93941Y52858D01*
X93949Y52872D01*
X94029Y52967D01*
X94116Y53047D01*
X94204Y53113D01*
X94284Y53171D01*
X94350Y53215D01*
X94408Y53244D01*
X94444Y53259D01*
X94459Y53266D01*
X94576Y53310D01*
X94685Y53339D01*
X94794Y53368D01*
X94896Y53383D01*
X94984Y53390D01*
X95049Y53397D01*
X95108D01*
X95253Y53390D01*
D02*
G37*
G36*
X108252Y54943D02*
X107566D01*
X107493Y57385D01*
X107472Y58333D01*
X107289Y57677D01*
X106859Y56219D01*
X106349D01*
X105875Y57677D01*
X105671Y58333D01*
X105642Y57364D01*
X105562Y54943D01*
X104847D01*
X105059Y59230D01*
X105992D01*
X106385Y57969D01*
X106568Y57320D01*
X106750Y58005D01*
X107129Y59230D01*
X108040D01*
X108252Y54943D01*
D02*
G37*
G36*
X133657D02*
X132834D01*
Y56700D01*
X131215D01*
Y57364D01*
X132834D01*
Y58545D01*
X131120D01*
Y59230D01*
X133657D01*
Y54943D01*
D02*
G37*
G36*
X130552D02*
X129750D01*
X129509Y55789D01*
X128015D01*
X127774Y54943D01*
X126885D01*
X128153Y59230D01*
X129283D01*
X130552Y54943D01*
D02*
G37*
G36*
X126447D02*
X125638D01*
Y56722D01*
X125485D01*
X125412Y56715D01*
X125339Y56708D01*
X125281Y56693D01*
X125230Y56671D01*
X125186Y56649D01*
X125157Y56635D01*
X125135Y56627D01*
X125128Y56620D01*
X125077Y56576D01*
X125026Y56533D01*
X124953Y56431D01*
X124931Y56387D01*
X124909Y56350D01*
X124895Y56328D01*
Y56321D01*
X124290Y54943D01*
X123342D01*
X124027Y56379D01*
X124078Y56474D01*
X124122Y56562D01*
X124166Y56635D01*
X124209Y56693D01*
X124239Y56744D01*
X124268Y56773D01*
X124282Y56795D01*
X124290Y56802D01*
X124341Y56853D01*
X124392Y56890D01*
X124443Y56919D01*
X124486Y56948D01*
X124523Y56963D01*
X124552Y56970D01*
X124574Y56977D01*
X124581D01*
X124435Y57014D01*
X124370Y57028D01*
X124311Y57050D01*
X124268Y57065D01*
X124231Y57079D01*
X124209Y57094D01*
X124202D01*
X124078Y57160D01*
X124027Y57196D01*
X123983Y57232D01*
X123954Y57262D01*
X123925Y57284D01*
X123910Y57298D01*
X123903Y57305D01*
X123823Y57415D01*
X123765Y57517D01*
X123743Y57560D01*
X123728Y57597D01*
X123714Y57619D01*
Y57626D01*
X123670Y57765D01*
X123655Y57837D01*
X123648Y57903D01*
X123641Y57961D01*
Y58005D01*
Y58034D01*
Y58042D01*
X123648Y58158D01*
X123655Y58268D01*
X123677Y58362D01*
X123699Y58443D01*
X123721Y58508D01*
X123736Y58552D01*
X123750Y58588D01*
X123757Y58596D01*
X123801Y58676D01*
X123852Y58749D01*
X123903Y58807D01*
X123954Y58865D01*
X123998Y58902D01*
X124034Y58938D01*
X124064Y58953D01*
X124071Y58960D01*
X124151Y59011D01*
X124231Y59055D01*
X124311Y59091D01*
X124392Y59121D01*
X124457Y59135D01*
X124508Y59150D01*
X124545Y59164D01*
X124559D01*
X124785Y59201D01*
X124887Y59215D01*
X124989Y59223D01*
X125077Y59230D01*
X126447D01*
Y54943D01*
D02*
G37*
G36*
X122751D02*
X121942D01*
Y56722D01*
X121789D01*
X121716Y56715D01*
X121643Y56708D01*
X121585Y56693D01*
X121534Y56671D01*
X121490Y56649D01*
X121461Y56635D01*
X121439Y56627D01*
X121432Y56620D01*
X121381Y56576D01*
X121330Y56533D01*
X121257Y56431D01*
X121235Y56387D01*
X121213Y56350D01*
X121199Y56328D01*
Y56321D01*
X120594Y54943D01*
X119646D01*
X120331Y56379D01*
X120382Y56474D01*
X120426Y56562D01*
X120470Y56635D01*
X120513Y56693D01*
X120543Y56744D01*
X120572Y56773D01*
X120586Y56795D01*
X120594Y56802D01*
X120645Y56853D01*
X120696Y56890D01*
X120747Y56919D01*
X120790Y56948D01*
X120827Y56963D01*
X120856Y56970D01*
X120878Y56977D01*
X120885D01*
X120739Y57014D01*
X120674Y57028D01*
X120615Y57050D01*
X120572Y57065D01*
X120535Y57079D01*
X120513Y57094D01*
X120506D01*
X120382Y57160D01*
X120331Y57196D01*
X120287Y57232D01*
X120258Y57262D01*
X120229Y57284D01*
X120214Y57298D01*
X120207Y57305D01*
X120127Y57415D01*
X120069Y57517D01*
X120047Y57560D01*
X120032Y57597D01*
X120018Y57619D01*
Y57626D01*
X119974Y57765D01*
X119959Y57837D01*
X119952Y57903D01*
X119945Y57961D01*
Y58005D01*
Y58034D01*
Y58042D01*
X119952Y58158D01*
X119959Y58268D01*
X119981Y58362D01*
X120003Y58443D01*
X120025Y58508D01*
X120039Y58552D01*
X120054Y58588D01*
X120061Y58596D01*
X120105Y58676D01*
X120156Y58749D01*
X120207Y58807D01*
X120258Y58865D01*
X120302Y58902D01*
X120338Y58938D01*
X120368Y58953D01*
X120375Y58960D01*
X120455Y59011D01*
X120535Y59055D01*
X120615Y59091D01*
X120696Y59121D01*
X120761Y59135D01*
X120812Y59150D01*
X120849Y59164D01*
X120863D01*
X121089Y59201D01*
X121191Y59215D01*
X121293Y59223D01*
X121381Y59230D01*
X122751D01*
Y54943D01*
D02*
G37*
G36*
X118983Y58574D02*
X118042D01*
Y55607D01*
X118983D01*
Y54943D01*
X116278D01*
Y55607D01*
X117218D01*
Y58574D01*
X116278D01*
Y59230D01*
X118983D01*
Y58574D01*
D02*
G37*
G36*
X104680Y54943D02*
X103878D01*
X103637Y55789D01*
X102143D01*
X101902Y54943D01*
X101013D01*
X102281Y59230D01*
X103411D01*
X104680Y54943D01*
D02*
G37*
G36*
X100736Y58559D02*
X99562D01*
Y54943D01*
X98738D01*
Y58559D01*
X97565D01*
Y59230D01*
X100736D01*
Y58559D01*
D02*
G37*
G36*
X97287Y54943D02*
X96486D01*
X96245Y55789D01*
X94750D01*
X94510Y54943D01*
X93621D01*
X94889Y59230D01*
X96019D01*
X97287Y54943D01*
D02*
G37*
G36*
X93183D02*
X92374D01*
Y56722D01*
X92221D01*
X92148Y56715D01*
X92075Y56708D01*
X92017Y56693D01*
X91966Y56671D01*
X91922Y56649D01*
X91893Y56635D01*
X91871Y56627D01*
X91864Y56620D01*
X91813Y56576D01*
X91762Y56533D01*
X91689Y56431D01*
X91667Y56387D01*
X91645Y56350D01*
X91630Y56328D01*
Y56321D01*
X91025Y54943D01*
X90078D01*
X90763Y56379D01*
X90814Y56474D01*
X90858Y56562D01*
X90901Y56635D01*
X90945Y56693D01*
X90974Y56744D01*
X91004Y56773D01*
X91018Y56795D01*
X91025Y56802D01*
X91076Y56853D01*
X91127Y56890D01*
X91178Y56919D01*
X91222Y56948D01*
X91259Y56963D01*
X91288Y56970D01*
X91310Y56977D01*
X91317D01*
X91171Y57014D01*
X91106Y57028D01*
X91047Y57050D01*
X91004Y57065D01*
X90967Y57079D01*
X90945Y57094D01*
X90938D01*
X90814Y57160D01*
X90763Y57196D01*
X90719Y57232D01*
X90690Y57262D01*
X90661Y57284D01*
X90646Y57298D01*
X90639Y57305D01*
X90559Y57415D01*
X90500Y57517D01*
X90479Y57560D01*
X90464Y57597D01*
X90449Y57619D01*
Y57626D01*
X90406Y57765D01*
X90391Y57837D01*
X90384Y57903D01*
X90377Y57961D01*
Y58005D01*
Y58034D01*
Y58042D01*
X90384Y58158D01*
X90391Y58268D01*
X90413Y58362D01*
X90435Y58443D01*
X90457Y58508D01*
X90471Y58552D01*
X90486Y58588D01*
X90493Y58596D01*
X90537Y58676D01*
X90588Y58749D01*
X90639Y58807D01*
X90690Y58865D01*
X90734Y58902D01*
X90770Y58938D01*
X90799Y58953D01*
X90807Y58960D01*
X90887Y59011D01*
X90967Y59055D01*
X91047Y59091D01*
X91127Y59121D01*
X91193Y59135D01*
X91244Y59150D01*
X91281Y59164D01*
X91295D01*
X91521Y59201D01*
X91623Y59215D01*
X91725Y59223D01*
X91813Y59230D01*
X93183D01*
Y54943D01*
D02*
G37*
G36*
X113945Y59295D02*
X114084Y59288D01*
X114215Y59274D01*
X114324Y59252D01*
X114412Y59230D01*
X114477Y59215D01*
X114521Y59208D01*
X114528Y59201D01*
X114536D01*
X114645Y59157D01*
X114740Y59113D01*
X114827Y59070D01*
X114900Y59026D01*
X114958Y58989D01*
X115002Y58960D01*
X115031Y58938D01*
X115039Y58931D01*
X115104Y58865D01*
X115170Y58800D01*
X115214Y58734D01*
X115257Y58669D01*
X115286Y58618D01*
X115316Y58574D01*
X115323Y58545D01*
X115330Y58537D01*
X115359Y58450D01*
X115381Y58370D01*
X115396Y58289D01*
X115403Y58209D01*
X115410Y58151D01*
X115418Y58100D01*
Y58071D01*
Y58056D01*
X115410Y57954D01*
X115403Y57867D01*
X115389Y57787D01*
X115374Y57714D01*
X115359Y57662D01*
X115345Y57619D01*
X115330Y57590D01*
Y57582D01*
X115257Y57451D01*
X115221Y57393D01*
X115177Y57342D01*
X115148Y57305D01*
X115119Y57276D01*
X115104Y57254D01*
X115097Y57247D01*
X114980Y57152D01*
X114871Y57079D01*
X114820Y57050D01*
X114783Y57028D01*
X114762Y57021D01*
X114754Y57014D01*
X114616Y56948D01*
X114550Y56919D01*
X114492Y56890D01*
X114448Y56868D01*
X114404Y56853D01*
X114383Y56846D01*
X114375Y56839D01*
X114229Y56788D01*
X114164Y56766D01*
X114105Y56744D01*
X114062Y56722D01*
X114018Y56715D01*
X113996Y56700D01*
X113989D01*
X113858Y56649D01*
X113799Y56627D01*
X113748Y56605D01*
X113712Y56584D01*
X113675Y56569D01*
X113661Y56562D01*
X113654Y56554D01*
X113551Y56489D01*
X113479Y56431D01*
X113449Y56401D01*
X113427Y56387D01*
X113420Y56372D01*
X113413Y56365D01*
X113384Y56321D01*
X113355Y56285D01*
X113333Y56197D01*
X113325Y56161D01*
X113318Y56132D01*
Y56110D01*
Y56103D01*
X113325Y56022D01*
X113340Y55957D01*
X113362Y55906D01*
X113369Y55898D01*
Y55891D01*
X113413Y55826D01*
X113457Y55774D01*
X113500Y55738D01*
X113508Y55723D01*
X113515D01*
X113595Y55680D01*
X113683Y55651D01*
X113719Y55636D01*
X113748Y55629D01*
X113770Y55621D01*
X113777D01*
X113909Y55599D01*
X113974Y55592D01*
X114033D01*
X114091Y55585D01*
X114288D01*
X114390Y55592D01*
X114434D01*
X114463Y55599D01*
X114492D01*
X114609Y55621D01*
X114667Y55629D01*
X114718Y55636D01*
X114762Y55643D01*
X114791Y55651D01*
X114813Y55658D01*
X114820D01*
X114944Y55687D01*
X115002Y55702D01*
X115053Y55709D01*
X115090Y55723D01*
X115126Y55731D01*
X115148Y55738D01*
X115155D01*
X115272Y55774D01*
X115323Y55789D01*
X115367Y55804D01*
X115403Y55818D01*
X115432Y55833D01*
X115454Y55840D01*
X115461D01*
Y55045D01*
X115235Y54987D01*
X115133Y54965D01*
X115039Y54943D01*
X114958Y54929D01*
X114893Y54922D01*
X114856Y54914D01*
X114842D01*
X114601Y54892D01*
X114492Y54878D01*
X114390D01*
X114310Y54870D01*
X114186D01*
X114047Y54878D01*
X113916Y54885D01*
X113799Y54900D01*
X113690Y54914D01*
X113610Y54929D01*
X113544Y54936D01*
X113500Y54951D01*
X113486D01*
X113369Y54987D01*
X113260Y55024D01*
X113165Y55067D01*
X113085Y55104D01*
X113012Y55140D01*
X112968Y55169D01*
X112932Y55191D01*
X112925Y55199D01*
X112844Y55264D01*
X112771Y55337D01*
X112706Y55403D01*
X112655Y55475D01*
X112611Y55534D01*
X112582Y55578D01*
X112567Y55607D01*
X112560Y55621D01*
X112516Y55723D01*
X112487Y55826D01*
X112458Y55927D01*
X112443Y56030D01*
X112436Y56110D01*
X112429Y56175D01*
Y56219D01*
Y56226D01*
Y56234D01*
X112436Y56328D01*
X112443Y56416D01*
X112458Y56489D01*
X112472Y56562D01*
X112494Y56613D01*
X112509Y56649D01*
X112516Y56678D01*
X112523Y56686D01*
X112560Y56759D01*
X112596Y56824D01*
X112640Y56875D01*
X112677Y56926D01*
X112713Y56970D01*
X112735Y56999D01*
X112757Y57014D01*
X112764Y57021D01*
X112881Y57123D01*
X112983Y57196D01*
X113034Y57225D01*
X113070Y57247D01*
X113092Y57254D01*
X113100Y57262D01*
X113238Y57335D01*
X113304Y57364D01*
X113369Y57385D01*
X113420Y57407D01*
X113457Y57422D01*
X113486Y57437D01*
X113493D01*
X113639Y57495D01*
X113705Y57517D01*
X113763Y57539D01*
X113807Y57560D01*
X113843Y57568D01*
X113872Y57582D01*
X113880D01*
X114011Y57633D01*
X114069Y57655D01*
X114120Y57677D01*
X114164Y57692D01*
X114193Y57706D01*
X114215Y57721D01*
X114222D01*
X114317Y57779D01*
X114390Y57837D01*
X114419Y57859D01*
X114441Y57881D01*
X114448Y57889D01*
X114455Y57896D01*
X114485Y57932D01*
X114506Y57976D01*
X114528Y58049D01*
X114536Y58085D01*
X114543Y58107D01*
Y58122D01*
Y58129D01*
X114536Y58209D01*
X114521Y58268D01*
X114514Y58311D01*
X114506Y58319D01*
Y58326D01*
X114463Y58384D01*
X114419Y58435D01*
X114383Y58464D01*
X114375Y58472D01*
X114368D01*
X114288Y58516D01*
X114215Y58545D01*
X114178Y58559D01*
X114149Y58566D01*
X114135Y58574D01*
X114127D01*
X114003Y58596D01*
X113887Y58603D01*
X113836Y58610D01*
X113668D01*
X113588Y58603D01*
X113559D01*
X113530Y58596D01*
X113508D01*
X113406Y58581D01*
X113318Y58566D01*
X113289Y58559D01*
X113260D01*
X113245Y58552D01*
X113238D01*
X113136Y58537D01*
X113056Y58516D01*
X113019Y58508D01*
X112997Y58501D01*
X112983Y58494D01*
X112976D01*
X112888Y58472D01*
X112815Y58450D01*
X112786Y58443D01*
X112764Y58435D01*
X112750Y58428D01*
X112742D01*
Y59164D01*
X112822Y59179D01*
X112903Y59193D01*
X112932Y59201D01*
X112961Y59208D01*
X112983D01*
X113078Y59230D01*
X113158Y59245D01*
X113194D01*
X113223Y59252D01*
X113245D01*
X113340Y59266D01*
X113435Y59281D01*
X113471D01*
X113500Y59288D01*
X113522D01*
X113624Y59295D01*
X113705Y59303D01*
X113785D01*
X113945Y59295D01*
D02*
G37*
G36*
X128824Y65201D02*
X128963Y65186D01*
X129086Y65157D01*
X129203Y65128D01*
X129298Y65099D01*
X129371Y65070D01*
X129393Y65062D01*
X129414Y65055D01*
X129422Y65048D01*
X129429D01*
X129553Y64990D01*
X129677Y64917D01*
X129779Y64851D01*
X129874Y64785D01*
X129947Y64727D01*
X130005Y64676D01*
X130041Y64647D01*
X130056Y64632D01*
X129633Y64093D01*
X129560Y64158D01*
X129487Y64217D01*
X129422Y64268D01*
X129356Y64304D01*
X129305Y64341D01*
X129261Y64363D01*
X129232Y64377D01*
X129225Y64385D01*
X129145Y64421D01*
X129057Y64450D01*
X128984Y64465D01*
X128911Y64479D01*
X128846Y64487D01*
X128802Y64494D01*
X128758D01*
X128656Y64487D01*
X128569Y64472D01*
X128540Y64457D01*
X128518Y64450D01*
X128503Y64443D01*
X128496D01*
X128416Y64406D01*
X128357Y64363D01*
X128321Y64333D01*
X128306Y64326D01*
Y64319D01*
X128255Y64253D01*
X128219Y64195D01*
X128197Y64151D01*
X128190Y64137D01*
Y64129D01*
X128161Y64049D01*
X128153Y63969D01*
X128146Y63940D01*
Y63918D01*
Y63903D01*
Y63896D01*
X128153Y63794D01*
X128161Y63699D01*
X128168Y63663D01*
X128175Y63634D01*
X128182Y63619D01*
Y63612D01*
X128212Y63502D01*
X128255Y63408D01*
X128277Y63364D01*
X128292Y63335D01*
X128299Y63313D01*
X128306Y63306D01*
X128343Y63247D01*
X128387Y63182D01*
X128430Y63123D01*
X128467Y63065D01*
X128510Y63014D01*
X128540Y62977D01*
X128561Y62948D01*
X128569Y62941D01*
X128634Y62861D01*
X128715Y62781D01*
X128788Y62700D01*
X128860Y62620D01*
X128926Y62555D01*
X128977Y62504D01*
X129014Y62467D01*
X129028Y62453D01*
X130034Y61432D01*
Y60849D01*
X127125D01*
Y61585D01*
X128933D01*
X128314Y62176D01*
X128226Y62263D01*
X128139Y62343D01*
X128066Y62416D01*
X128000Y62489D01*
X127949Y62540D01*
X127913Y62584D01*
X127884Y62613D01*
X127876Y62620D01*
X127803Y62700D01*
X127745Y62773D01*
X127687Y62846D01*
X127636Y62905D01*
X127599Y62963D01*
X127570Y62999D01*
X127556Y63029D01*
X127548Y63036D01*
X127461Y63189D01*
X127432Y63262D01*
X127402Y63327D01*
X127381Y63386D01*
X127366Y63429D01*
X127351Y63459D01*
Y63466D01*
X127308Y63634D01*
X127293Y63721D01*
X127286Y63794D01*
X127278Y63852D01*
Y63903D01*
Y63933D01*
Y63947D01*
X127286Y64056D01*
X127293Y64158D01*
X127308Y64253D01*
X127330Y64333D01*
X127351Y64399D01*
X127366Y64443D01*
X127373Y64479D01*
X127381Y64487D01*
X127424Y64574D01*
X127468Y64647D01*
X127512Y64720D01*
X127563Y64771D01*
X127599Y64822D01*
X127636Y64851D01*
X127658Y64873D01*
X127665Y64880D01*
X127738Y64939D01*
X127811Y64982D01*
X127884Y65026D01*
X127949Y65062D01*
X128015Y65084D01*
X128059Y65106D01*
X128088Y65121D01*
X128102D01*
X128197Y65150D01*
X128299Y65172D01*
X128394Y65186D01*
X128481Y65201D01*
X128561D01*
X128620Y65208D01*
X128671D01*
X128824Y65201D01*
D02*
G37*
G36*
X74878Y60849D02*
X74193D01*
X74120Y63291D01*
X74098Y64239D01*
X73916Y63583D01*
X73486Y62125D01*
X72975D01*
X72501Y63583D01*
X72297Y64239D01*
X72268Y63269D01*
X72188Y60849D01*
X71474D01*
X71685Y65135D01*
X72618D01*
X73012Y63874D01*
X73194Y63225D01*
X73376Y63911D01*
X73755Y65135D01*
X74667D01*
X74878Y60849D01*
D02*
G37*
G36*
X124691Y65194D02*
X124844Y65179D01*
X124982Y65150D01*
X125099Y65128D01*
X125201Y65099D01*
X125274Y65070D01*
X125303Y65062D01*
X125325Y65055D01*
X125332Y65048D01*
X125339D01*
X125471Y64982D01*
X125587Y64917D01*
X125697Y64844D01*
X125791Y64771D01*
X125864Y64705D01*
X125923Y64654D01*
X125952Y64618D01*
X125966Y64603D01*
X126054Y64487D01*
X126134Y64370D01*
X126200Y64246D01*
X126258Y64137D01*
X126302Y64035D01*
X126331Y63962D01*
X126345Y63933D01*
X126353Y63911D01*
X126360Y63896D01*
Y63889D01*
X126404Y63728D01*
X126433Y63561D01*
X126462Y63400D01*
X126477Y63247D01*
X126484Y63123D01*
Y63065D01*
X126491Y63021D01*
Y62977D01*
Y62948D01*
Y62934D01*
Y62927D01*
X126484Y62737D01*
X126469Y62555D01*
X126455Y62394D01*
X126426Y62263D01*
X126404Y62147D01*
X126396Y62103D01*
X126389Y62066D01*
X126382Y62037D01*
X126374Y62015D01*
X126367Y62001D01*
Y61993D01*
X126316Y61855D01*
X126258Y61724D01*
X126200Y61614D01*
X126141Y61512D01*
X126083Y61439D01*
X126039Y61381D01*
X126010Y61345D01*
X126003Y61330D01*
X125908Y61235D01*
X125806Y61155D01*
X125704Y61082D01*
X125609Y61024D01*
X125522Y60980D01*
X125456Y60951D01*
X125412Y60929D01*
X125405Y60922D01*
X125398D01*
X125259Y60878D01*
X125121Y60849D01*
X124982Y60820D01*
X124858Y60805D01*
X124742Y60798D01*
X124698D01*
X124661Y60790D01*
X124472D01*
X124370Y60798D01*
X124275Y60812D01*
X124195Y60820D01*
X124122Y60834D01*
X124071Y60842D01*
X124042Y60849D01*
X124027D01*
X123823Y60900D01*
X123728Y60922D01*
X123648Y60951D01*
X123575Y60980D01*
X123517Y60995D01*
X123480Y61009D01*
X123466Y61016D01*
Y61775D01*
X123546Y61738D01*
X123626Y61702D01*
X123655Y61695D01*
X123685Y61680D01*
X123699Y61673D01*
X123706D01*
X123801Y61643D01*
X123881Y61614D01*
X123910Y61607D01*
X123940Y61600D01*
X123954Y61592D01*
X123962D01*
X124056Y61571D01*
X124136Y61549D01*
X124166Y61541D01*
X124195D01*
X124209Y61534D01*
X124217D01*
X124304Y61527D01*
X124377Y61520D01*
X124450D01*
X124559Y61527D01*
X124654Y61534D01*
X124742Y61549D01*
X124822Y61571D01*
X124880Y61585D01*
X124931Y61600D01*
X124960Y61607D01*
X124968Y61614D01*
X125048Y61658D01*
X125113Y61702D01*
X125179Y61753D01*
X125230Y61797D01*
X125274Y61840D01*
X125303Y61877D01*
X125325Y61899D01*
X125332Y61906D01*
X125383Y61979D01*
X125420Y62059D01*
X125456Y62132D01*
X125485Y62205D01*
X125507Y62270D01*
X125522Y62322D01*
X125536Y62351D01*
Y62365D01*
X125573Y62584D01*
X125587Y62686D01*
X125594Y62781D01*
Y62868D01*
X125602Y62934D01*
Y62977D01*
Y62985D01*
Y62992D01*
Y63109D01*
X125594Y63225D01*
X125580Y63327D01*
X125573Y63415D01*
X125558Y63488D01*
X125551Y63546D01*
X125543Y63575D01*
Y63590D01*
X125514Y63692D01*
X125485Y63779D01*
X125449Y63860D01*
X125420Y63933D01*
X125383Y63984D01*
X125361Y64027D01*
X125347Y64056D01*
X125339Y64064D01*
X125281Y64137D01*
X125223Y64195D01*
X125164Y64246D01*
X125106Y64290D01*
X125055Y64326D01*
X125019Y64348D01*
X124989Y64363D01*
X124982Y64370D01*
X124895Y64406D01*
X124807Y64436D01*
X124720Y64457D01*
X124639Y64472D01*
X124567Y64479D01*
X124508Y64487D01*
X124457D01*
X124297Y64479D01*
X124224Y64472D01*
X124151Y64457D01*
X124093Y64450D01*
X124049Y64436D01*
X124013Y64428D01*
X124005D01*
X123816Y64377D01*
X123721Y64348D01*
X123641Y64319D01*
X123568Y64290D01*
X123517Y64268D01*
X123480Y64253D01*
X123466Y64246D01*
Y65048D01*
X123568Y65077D01*
X123655Y65099D01*
X123685Y65106D01*
X123714Y65114D01*
X123728Y65121D01*
X123736D01*
X123830Y65143D01*
X123910Y65157D01*
X123947D01*
X123969Y65165D01*
X123991D01*
X124085Y65179D01*
X124166Y65186D01*
X124195Y65194D01*
X124246D01*
X124341Y65201D01*
X124523D01*
X124691Y65194D01*
D02*
G37*
G36*
X119085Y62292D02*
X119077Y62168D01*
X119070Y62044D01*
X119055Y61935D01*
X119041Y61848D01*
X119026Y61767D01*
X119019Y61709D01*
X119004Y61673D01*
Y61658D01*
X118968Y61556D01*
X118931Y61461D01*
X118888Y61381D01*
X118844Y61308D01*
X118800Y61257D01*
X118771Y61213D01*
X118749Y61184D01*
X118742Y61177D01*
X118669Y61111D01*
X118589Y61046D01*
X118509Y60995D01*
X118428Y60951D01*
X118363Y60922D01*
X118312Y60900D01*
X118275Y60885D01*
X118261Y60878D01*
X118144Y60842D01*
X118027Y60820D01*
X117904Y60798D01*
X117794Y60790D01*
X117699Y60783D01*
X117619Y60776D01*
X117554D01*
X117415Y60783D01*
X117291Y60790D01*
X117182Y60805D01*
X117080Y60827D01*
X117000Y60849D01*
X116941Y60864D01*
X116905Y60871D01*
X116890Y60878D01*
X116781Y60922D01*
X116686Y60973D01*
X116599Y61016D01*
X116526Y61068D01*
X116467Y61111D01*
X116424Y61148D01*
X116394Y61177D01*
X116387Y61184D01*
X116314Y61264D01*
X116249Y61352D01*
X116198Y61439D01*
X116154Y61520D01*
X116118Y61592D01*
X116096Y61651D01*
X116081Y61687D01*
X116074Y61702D01*
X116037Y61826D01*
X116008Y61950D01*
X115986Y62066D01*
X115972Y62183D01*
X115964Y62278D01*
X115957Y62358D01*
Y62387D01*
Y62409D01*
Y62416D01*
Y62423D01*
Y65135D01*
X116766D01*
Y62372D01*
Y62278D01*
X116774Y62198D01*
X116781Y62125D01*
X116788Y62059D01*
X116803Y62008D01*
X116810Y61964D01*
X116817Y61942D01*
Y61935D01*
X116854Y61818D01*
X116883Y61767D01*
X116905Y61724D01*
X116927Y61687D01*
X116941Y61665D01*
X116949Y61651D01*
X116956Y61643D01*
X117029Y61571D01*
X117102Y61520D01*
X117131Y61505D01*
X117160Y61490D01*
X117175Y61483D01*
X117182D01*
X117291Y61461D01*
X117408Y61447D01*
X117452Y61439D01*
X117597D01*
X117670Y61447D01*
X117729Y61461D01*
X117780Y61468D01*
X117816Y61483D01*
X117852Y61490D01*
X117867Y61498D01*
X117874D01*
X117969Y61549D01*
X118042Y61607D01*
X118071Y61636D01*
X118093Y61651D01*
X118100Y61665D01*
X118108Y61673D01*
X118166Y61767D01*
X118210Y61862D01*
X118224Y61899D01*
X118232Y61928D01*
X118239Y61950D01*
Y61957D01*
X118261Y62088D01*
X118268Y62154D01*
Y62212D01*
X118275Y62263D01*
Y62300D01*
Y62329D01*
Y62336D01*
Y65135D01*
X119085D01*
Y62292D01*
D02*
G37*
G36*
X96908D02*
X96901Y62168D01*
X96894Y62044D01*
X96879Y61935D01*
X96865Y61848D01*
X96850Y61767D01*
X96843Y61709D01*
X96828Y61673D01*
Y61658D01*
X96792Y61556D01*
X96755Y61461D01*
X96711Y61381D01*
X96668Y61308D01*
X96624Y61257D01*
X96595Y61213D01*
X96573Y61184D01*
X96566Y61177D01*
X96493Y61111D01*
X96413Y61046D01*
X96332Y60995D01*
X96252Y60951D01*
X96187Y60922D01*
X96136Y60900D01*
X96099Y60885D01*
X96085Y60878D01*
X95968Y60842D01*
X95851Y60820D01*
X95727Y60798D01*
X95618Y60790D01*
X95523Y60783D01*
X95443Y60776D01*
X95377D01*
X95239Y60783D01*
X95115Y60790D01*
X95006Y60805D01*
X94904Y60827D01*
X94823Y60849D01*
X94765Y60864D01*
X94729Y60871D01*
X94714Y60878D01*
X94605Y60922D01*
X94510Y60973D01*
X94423Y61016D01*
X94350Y61068D01*
X94291Y61111D01*
X94248Y61148D01*
X94218Y61177D01*
X94211Y61184D01*
X94138Y61264D01*
X94073Y61352D01*
X94021Y61439D01*
X93978Y61520D01*
X93941Y61592D01*
X93919Y61651D01*
X93905Y61687D01*
X93898Y61702D01*
X93861Y61826D01*
X93832Y61950D01*
X93810Y62066D01*
X93796Y62183D01*
X93788Y62278D01*
X93781Y62358D01*
Y62387D01*
Y62409D01*
Y62416D01*
Y62423D01*
Y65135D01*
X94590D01*
Y62372D01*
Y62278D01*
X94597Y62198D01*
X94605Y62125D01*
X94612Y62059D01*
X94627Y62008D01*
X94634Y61964D01*
X94641Y61942D01*
Y61935D01*
X94678Y61818D01*
X94707Y61767D01*
X94729Y61724D01*
X94750Y61687D01*
X94765Y61665D01*
X94772Y61651D01*
X94780Y61643D01*
X94853Y61571D01*
X94925Y61520D01*
X94955Y61505D01*
X94984Y61490D01*
X94998Y61483D01*
X95006D01*
X95115Y61461D01*
X95232Y61447D01*
X95275Y61439D01*
X95421D01*
X95494Y61447D01*
X95552Y61461D01*
X95603Y61468D01*
X95640Y61483D01*
X95676Y61490D01*
X95691Y61498D01*
X95698D01*
X95793Y61549D01*
X95866Y61607D01*
X95895Y61636D01*
X95917Y61651D01*
X95924Y61665D01*
X95932Y61673D01*
X95990Y61767D01*
X96034Y61862D01*
X96048Y61899D01*
X96055Y61928D01*
X96063Y61950D01*
Y61957D01*
X96085Y62088D01*
X96092Y62154D01*
Y62212D01*
X96099Y62263D01*
Y62300D01*
Y62329D01*
Y62336D01*
Y65135D01*
X96908D01*
Y62292D01*
D02*
G37*
G36*
X63644D02*
X63637Y62168D01*
X63630Y62044D01*
X63615Y61935D01*
X63600Y61848D01*
X63586Y61767D01*
X63578Y61709D01*
X63564Y61673D01*
Y61658D01*
X63527Y61556D01*
X63491Y61461D01*
X63447Y61381D01*
X63403Y61308D01*
X63360Y61257D01*
X63331Y61213D01*
X63309Y61184D01*
X63301Y61177D01*
X63229Y61111D01*
X63148Y61046D01*
X63068Y60995D01*
X62988Y60951D01*
X62922Y60922D01*
X62871Y60900D01*
X62835Y60885D01*
X62820Y60878D01*
X62704Y60842D01*
X62587Y60820D01*
X62463Y60798D01*
X62354Y60790D01*
X62259Y60783D01*
X62179Y60776D01*
X62113D01*
X61975Y60783D01*
X61851Y60790D01*
X61741Y60805D01*
X61639Y60827D01*
X61559Y60849D01*
X61501Y60864D01*
X61464Y60871D01*
X61450Y60878D01*
X61340Y60922D01*
X61246Y60973D01*
X61158Y61016D01*
X61085Y61068D01*
X61027Y61111D01*
X60983Y61148D01*
X60954Y61177D01*
X60947Y61184D01*
X60874Y61264D01*
X60808Y61352D01*
X60757Y61439D01*
X60713Y61520D01*
X60677Y61592D01*
X60655Y61651D01*
X60641Y61687D01*
X60633Y61702D01*
X60597Y61826D01*
X60568Y61950D01*
X60546Y62066D01*
X60531Y62183D01*
X60524Y62278D01*
X60517Y62358D01*
Y62387D01*
Y62409D01*
Y62416D01*
Y62423D01*
Y65135D01*
X61326D01*
Y62372D01*
Y62278D01*
X61333Y62198D01*
X61340Y62125D01*
X61348Y62059D01*
X61362Y62008D01*
X61370Y61964D01*
X61377Y61942D01*
Y61935D01*
X61413Y61818D01*
X61443Y61767D01*
X61464Y61724D01*
X61486Y61687D01*
X61501Y61665D01*
X61508Y61651D01*
X61515Y61643D01*
X61588Y61571D01*
X61661Y61520D01*
X61690Y61505D01*
X61720Y61490D01*
X61734Y61483D01*
X61741D01*
X61851Y61461D01*
X61967Y61447D01*
X62011Y61439D01*
X62157D01*
X62230Y61447D01*
X62288Y61461D01*
X62339Y61468D01*
X62376Y61483D01*
X62412Y61490D01*
X62427Y61498D01*
X62434D01*
X62529Y61549D01*
X62602Y61607D01*
X62631Y61636D01*
X62653Y61651D01*
X62660Y61665D01*
X62667Y61673D01*
X62726Y61767D01*
X62769Y61862D01*
X62784Y61899D01*
X62791Y61928D01*
X62799Y61950D01*
Y61957D01*
X62820Y62088D01*
X62828Y62154D01*
Y62212D01*
X62835Y62263D01*
Y62300D01*
Y62329D01*
Y62336D01*
Y65135D01*
X63644D01*
Y62292D01*
D02*
G37*
G36*
X133657Y64479D02*
X132717D01*
Y61512D01*
X133657D01*
Y60849D01*
X130953D01*
Y61512D01*
X131893D01*
Y64479D01*
X130953D01*
Y65135D01*
X133657D01*
Y64479D01*
D02*
G37*
G36*
X115658Y60849D02*
X114856D01*
X114616Y61695D01*
X113121D01*
X112881Y60849D01*
X111991D01*
X113260Y65135D01*
X114390D01*
X115658Y60849D01*
D02*
G37*
G36*
X111554D02*
X110745D01*
Y62628D01*
X110592D01*
X110519Y62620D01*
X110446Y62613D01*
X110388Y62599D01*
X110336Y62577D01*
X110293Y62555D01*
X110264Y62540D01*
X110242Y62533D01*
X110234Y62526D01*
X110183Y62482D01*
X110132Y62438D01*
X110059Y62336D01*
X110038Y62292D01*
X110016Y62256D01*
X110001Y62234D01*
Y62227D01*
X109396Y60849D01*
X108448D01*
X109134Y62285D01*
X109185Y62380D01*
X109229Y62467D01*
X109272Y62540D01*
X109316Y62599D01*
X109345Y62650D01*
X109374Y62679D01*
X109389Y62700D01*
X109396Y62708D01*
X109447Y62759D01*
X109498Y62795D01*
X109549Y62824D01*
X109593Y62854D01*
X109629Y62868D01*
X109659Y62875D01*
X109680Y62883D01*
X109688D01*
X109542Y62919D01*
X109476Y62934D01*
X109418Y62956D01*
X109374Y62970D01*
X109338Y62985D01*
X109316Y62999D01*
X109309D01*
X109185Y63065D01*
X109134Y63102D01*
X109090Y63138D01*
X109061Y63167D01*
X109032Y63189D01*
X109017Y63204D01*
X109010Y63211D01*
X108930Y63320D01*
X108871Y63422D01*
X108849Y63466D01*
X108835Y63502D01*
X108820Y63524D01*
Y63532D01*
X108776Y63670D01*
X108762Y63743D01*
X108755Y63809D01*
X108747Y63867D01*
Y63911D01*
Y63940D01*
Y63947D01*
X108755Y64064D01*
X108762Y64173D01*
X108784Y64268D01*
X108806Y64348D01*
X108827Y64414D01*
X108842Y64457D01*
X108857Y64494D01*
X108864Y64501D01*
X108908Y64581D01*
X108959Y64654D01*
X109010Y64713D01*
X109061Y64771D01*
X109105Y64807D01*
X109141Y64844D01*
X109170Y64858D01*
X109177Y64866D01*
X109258Y64917D01*
X109338Y64960D01*
X109418Y64997D01*
X109498Y65026D01*
X109564Y65041D01*
X109615Y65055D01*
X109651Y65070D01*
X109666D01*
X109892Y65106D01*
X109994Y65121D01*
X110096Y65128D01*
X110183Y65135D01*
X111554D01*
Y60849D01*
D02*
G37*
G36*
X108018Y64465D02*
X106845D01*
Y60849D01*
X106021D01*
Y64465D01*
X104847D01*
Y65135D01*
X108018D01*
Y64465D01*
D02*
G37*
G36*
X100466Y60849D02*
X99161D01*
X99008Y60856D01*
X98869Y60864D01*
X98738Y60878D01*
X98614Y60900D01*
X98498Y60922D01*
X98396Y60951D01*
X98301Y60980D01*
X98213Y61016D01*
X98140Y61046D01*
X98075Y61075D01*
X98016Y61104D01*
X97973Y61126D01*
X97936Y61148D01*
X97914Y61162D01*
X97900Y61177D01*
X97892D01*
X97812Y61243D01*
X97747Y61315D01*
X97688Y61388D01*
X97637Y61468D01*
X97594Y61549D01*
X97557Y61636D01*
X97506Y61789D01*
X97470Y61935D01*
X97462Y62001D01*
X97455Y62052D01*
X97448Y62095D01*
Y62132D01*
Y62154D01*
Y62161D01*
X97455Y62307D01*
X97470Y62365D01*
X97477Y62423D01*
X97492Y62467D01*
X97506Y62504D01*
X97513Y62526D01*
Y62533D01*
X97572Y62650D01*
X97601Y62700D01*
X97623Y62744D01*
X97652Y62773D01*
X97667Y62803D01*
X97681Y62817D01*
X97688Y62824D01*
X97776Y62905D01*
X97856Y62970D01*
X97892Y62992D01*
X97922Y63007D01*
X97936Y63021D01*
X97944D01*
X98053Y63072D01*
X98148Y63109D01*
X98191Y63116D01*
X98221Y63123D01*
X98242Y63131D01*
X98250D01*
X98140Y63174D01*
X98089Y63196D01*
X98053Y63225D01*
X98016Y63247D01*
X97995Y63262D01*
X97980Y63269D01*
X97973Y63276D01*
X97892Y63357D01*
X97827Y63429D01*
X97805Y63466D01*
X97790Y63488D01*
X97776Y63502D01*
Y63510D01*
X97725Y63612D01*
X97688Y63699D01*
X97674Y63736D01*
X97667Y63765D01*
X97659Y63779D01*
Y63787D01*
X97630Y63903D01*
X97623Y63998D01*
X97615Y64042D01*
Y64071D01*
Y64093D01*
Y64100D01*
X97623Y64195D01*
X97630Y64283D01*
X97674Y64443D01*
X97732Y64574D01*
X97798Y64683D01*
X97871Y64764D01*
X97929Y64822D01*
X97973Y64858D01*
X97980Y64873D01*
X97987D01*
X98060Y64917D01*
X98140Y64960D01*
X98308Y65026D01*
X98490Y65070D01*
X98672Y65106D01*
X98753Y65114D01*
X98833Y65121D01*
X98899Y65128D01*
X98964D01*
X99008Y65135D01*
X100466D01*
Y60849D01*
D02*
G37*
G36*
X92892D02*
X92068D01*
Y62606D01*
X90449D01*
Y63269D01*
X92068D01*
Y64450D01*
X90355D01*
Y65135D01*
X92892D01*
Y60849D01*
D02*
G37*
G36*
X89196D02*
X88372D01*
Y62606D01*
X86753D01*
Y63269D01*
X88372D01*
Y64450D01*
X86659D01*
Y65135D01*
X89196D01*
Y60849D01*
D02*
G37*
G36*
X85500D02*
X82919D01*
Y61534D01*
X84676D01*
Y62722D01*
X82999D01*
Y63386D01*
X84676D01*
Y64450D01*
X82919D01*
Y65135D01*
X85500D01*
Y60849D01*
D02*
G37*
G36*
X81986D02*
X81177D01*
Y62628D01*
X81024D01*
X80950Y62620D01*
X80878Y62613D01*
X80819Y62599D01*
X80768Y62577D01*
X80725Y62555D01*
X80695Y62540D01*
X80673Y62533D01*
X80666Y62526D01*
X80615Y62482D01*
X80564Y62438D01*
X80491Y62336D01*
X80469Y62292D01*
X80448Y62256D01*
X80433Y62234D01*
Y62227D01*
X79828Y60849D01*
X78880D01*
X79565Y62285D01*
X79616Y62380D01*
X79660Y62467D01*
X79704Y62540D01*
X79748Y62599D01*
X79777Y62650D01*
X79806Y62679D01*
X79821Y62700D01*
X79828Y62708D01*
X79879Y62759D01*
X79930Y62795D01*
X79981Y62824D01*
X80025Y62854D01*
X80061Y62868D01*
X80090Y62875D01*
X80112Y62883D01*
X80120D01*
X79974Y62919D01*
X79908Y62934D01*
X79850Y62956D01*
X79806Y62970D01*
X79770Y62985D01*
X79748Y62999D01*
X79740D01*
X79616Y63065D01*
X79565Y63102D01*
X79522Y63138D01*
X79493Y63167D01*
X79463Y63189D01*
X79449Y63204D01*
X79441Y63211D01*
X79361Y63320D01*
X79303Y63422D01*
X79281Y63466D01*
X79267Y63502D01*
X79252Y63524D01*
Y63532D01*
X79208Y63670D01*
X79194Y63743D01*
X79186Y63809D01*
X79179Y63867D01*
Y63911D01*
Y63940D01*
Y63947D01*
X79186Y64064D01*
X79194Y64173D01*
X79216Y64268D01*
X79237Y64348D01*
X79259Y64414D01*
X79274Y64457D01*
X79288Y64494D01*
X79296Y64501D01*
X79339Y64581D01*
X79391Y64654D01*
X79441Y64713D01*
X79493Y64771D01*
X79536Y64807D01*
X79573Y64844D01*
X79602Y64858D01*
X79609Y64866D01*
X79689Y64917D01*
X79770Y64960D01*
X79850Y64997D01*
X79930Y65026D01*
X79996Y65041D01*
X80047Y65055D01*
X80083Y65070D01*
X80098D01*
X80324Y65106D01*
X80426Y65121D01*
X80528Y65128D01*
X80615Y65135D01*
X81986D01*
Y60849D01*
D02*
G37*
G36*
X67340D02*
X66254D01*
X66050Y60856D01*
X65860Y60871D01*
X65700Y60900D01*
X65554Y60929D01*
X65496Y60936D01*
X65437Y60951D01*
X65394Y60966D01*
X65357Y60980D01*
X65328Y60987D01*
X65299Y60995D01*
X65292Y61002D01*
X65284D01*
X65139Y61068D01*
X65007Y61133D01*
X64891Y61206D01*
X64796Y61279D01*
X64716Y61345D01*
X64657Y61396D01*
X64628Y61425D01*
X64614Y61439D01*
X64519Y61556D01*
X64439Y61673D01*
X64373Y61789D01*
X64322Y61899D01*
X64278Y61993D01*
X64249Y62074D01*
X64242Y62103D01*
X64235Y62125D01*
X64227Y62132D01*
Y62139D01*
X64184Y62292D01*
X64154Y62453D01*
X64132Y62606D01*
X64118Y62744D01*
X64111Y62868D01*
X64103Y62919D01*
Y62963D01*
Y62992D01*
Y63021D01*
Y63036D01*
Y63043D01*
X64111Y63240D01*
X64125Y63422D01*
X64140Y63583D01*
X64162Y63721D01*
X64191Y63831D01*
X64198Y63874D01*
X64205Y63911D01*
X64213Y63947D01*
X64220Y63969D01*
X64227Y63976D01*
Y63984D01*
X64278Y64122D01*
X64337Y64253D01*
X64402Y64363D01*
X64461Y64457D01*
X64512Y64530D01*
X64555Y64589D01*
X64584Y64618D01*
X64599Y64632D01*
X64694Y64720D01*
X64803Y64800D01*
X64905Y64866D01*
X65000Y64917D01*
X65087Y64960D01*
X65153Y64990D01*
X65204Y65004D01*
X65211Y65012D01*
X65219D01*
X65357Y65055D01*
X65503Y65084D01*
X65649Y65106D01*
X65780Y65121D01*
X65897Y65128D01*
X65948Y65135D01*
X67340D01*
Y60849D01*
D02*
G37*
G36*
X59584D02*
X56952D01*
Y61541D01*
X58760D01*
Y65135D01*
X59584D01*
Y60849D01*
D02*
G37*
G36*
X55931D02*
X53351D01*
Y61534D01*
X55107D01*
Y62722D01*
X53431D01*
Y63386D01*
X55107D01*
Y64450D01*
X53351D01*
Y65135D01*
X55931D01*
Y60849D01*
D02*
G37*
G36*
X69578Y65201D02*
X69709Y65186D01*
X69826Y65165D01*
X69928Y65143D01*
X70008Y65121D01*
X70074Y65099D01*
X70118Y65084D01*
X70125Y65077D01*
X70132D01*
X70249Y65019D01*
X70358Y64960D01*
X70453Y64887D01*
X70533Y64822D01*
X70599Y64764D01*
X70650Y64713D01*
X70679Y64683D01*
X70693Y64669D01*
X70774Y64560D01*
X70847Y64450D01*
X70912Y64333D01*
X70963Y64224D01*
X71007Y64122D01*
X71036Y64049D01*
X71051Y64020D01*
X71058Y63998D01*
X71065Y63984D01*
Y63976D01*
X71109Y63809D01*
X71138Y63641D01*
X71167Y63473D01*
X71182Y63313D01*
X71189Y63174D01*
Y63116D01*
X71197Y63065D01*
Y63029D01*
Y62999D01*
Y62977D01*
Y62970D01*
X71189Y62773D01*
X71175Y62591D01*
X71160Y62423D01*
X71131Y62263D01*
X71102Y62117D01*
X71065Y61986D01*
X71022Y61862D01*
X70985Y61753D01*
X70949Y61658D01*
X70905Y61571D01*
X70868Y61498D01*
X70839Y61439D01*
X70810Y61396D01*
X70788Y61366D01*
X70781Y61345D01*
X70774Y61337D01*
X70686Y61235D01*
X70599Y61155D01*
X70497Y61075D01*
X70395Y61016D01*
X70285Y60958D01*
X70183Y60914D01*
X70074Y60878D01*
X69972Y60849D01*
X69877Y60820D01*
X69790Y60805D01*
X69709Y60790D01*
X69636Y60783D01*
X69578D01*
X69534Y60776D01*
X69498D01*
X69367Y60783D01*
X69235Y60798D01*
X69119Y60812D01*
X69017Y60842D01*
X68937Y60864D01*
X68871Y60878D01*
X68827Y60893D01*
X68813Y60900D01*
X68696Y60958D01*
X68594Y61016D01*
X68499Y61082D01*
X68412Y61148D01*
X68346Y61206D01*
X68302Y61257D01*
X68266Y61286D01*
X68259Y61301D01*
X68171Y61410D01*
X68098Y61527D01*
X68033Y61643D01*
X67982Y61753D01*
X67938Y61855D01*
X67901Y61928D01*
X67894Y61957D01*
X67887Y61979D01*
X67880Y61993D01*
Y62001D01*
X67836Y62168D01*
X67799Y62336D01*
X67778Y62504D01*
X67756Y62664D01*
X67748Y62803D01*
Y62861D01*
X67741Y62912D01*
Y62948D01*
Y62977D01*
Y62999D01*
Y63007D01*
X67748Y63204D01*
X67763Y63386D01*
X67778Y63561D01*
X67807Y63721D01*
X67843Y63867D01*
X67880Y63998D01*
X67916Y64122D01*
X67953Y64231D01*
X67996Y64326D01*
X68033Y64414D01*
X68069Y64487D01*
X68106Y64545D01*
X68135Y64589D01*
X68149Y64618D01*
X68164Y64640D01*
X68171Y64647D01*
X68259Y64749D01*
X68346Y64829D01*
X68448Y64909D01*
X68550Y64975D01*
X68660Y65026D01*
X68762Y65070D01*
X68871Y65106D01*
X68973Y65135D01*
X69068Y65165D01*
X69155Y65179D01*
X69235Y65194D01*
X69308Y65201D01*
X69367Y65208D01*
X69447D01*
X69578Y65201D01*
D02*
G37*
%LPC*%
G36*
X42539Y95969D02*
X42015D01*
Y95964D01*
X42020Y95948D01*
X42026Y95915D01*
X42037Y95877D01*
X42048Y95833D01*
X42059Y95778D01*
X42064Y95718D01*
X42075Y95653D01*
Y95620D01*
X42081Y95582D01*
Y95538D01*
X42086Y95478D01*
Y95418D01*
X42092Y95282D01*
Y95222D01*
X42086Y95189D01*
Y95156D01*
X42075Y95074D01*
X42059Y94981D01*
X42031Y94888D01*
X41999Y94796D01*
X41955Y94719D01*
X41949Y94708D01*
X41928Y94686D01*
X41895Y94659D01*
X41851Y94621D01*
X41797Y94583D01*
X41731Y94555D01*
X41649Y94533D01*
X41562Y94523D01*
X41556D01*
X41551D01*
X41518D01*
X41475Y94533D01*
X41420Y94544D01*
X41354Y94566D01*
X41294Y94599D01*
X41234Y94643D01*
X41180Y94703D01*
X41174Y94714D01*
X41158Y94736D01*
X41136Y94779D01*
X41114Y94845D01*
X41092Y94921D01*
X41071Y95025D01*
X41054Y95140D01*
X41049Y95282D01*
Y95910D01*
X39340D01*
Y95969D01*
D01*
D01*
Y93878D01*
Y94053D01*
X39908D01*
Y95347D01*
X40557D01*
Y95030D01*
X40563Y94965D01*
X40568Y94894D01*
X40579Y94817D01*
X40606Y94648D01*
Y94637D01*
X40617Y94610D01*
X40628Y94566D01*
X40639Y94517D01*
X40661Y94452D01*
X40688Y94386D01*
X40721Y94321D01*
X40759Y94255D01*
X40765Y94250D01*
X40781Y94228D01*
X40803Y94195D01*
X40836Y94157D01*
X40879Y94113D01*
X40929Y94069D01*
X40989Y94026D01*
X41054Y93982D01*
X41065Y93977D01*
X41087Y93966D01*
X41125Y93949D01*
X41180Y93928D01*
X41251Y93911D01*
X41333Y93895D01*
X41420Y93884D01*
X41524Y93878D01*
X39340D01*
X42599D01*
X41567D01*
X41616Y93884D01*
X41682Y93889D01*
X41753Y93906D01*
X41829Y93922D01*
X41911Y93949D01*
X41988Y93988D01*
X41999Y93993D01*
X42020Y94009D01*
X42059Y94031D01*
X42102Y94064D01*
X42157Y94108D01*
X42212Y94162D01*
X42266Y94222D01*
X42321Y94288D01*
X42326Y94299D01*
X42343Y94321D01*
X42370Y94364D01*
X42397Y94413D01*
X42430Y94484D01*
X42468Y94561D01*
X42501Y94648D01*
X42528Y94741D01*
Y94747D01*
X42534Y94752D01*
Y94768D01*
X42539Y94785D01*
X42550Y94839D01*
X42561Y94910D01*
X42577Y94992D01*
X42588Y95090D01*
X42594Y95194D01*
X42599Y95309D01*
Y95413D01*
X42594Y95473D01*
Y95505D01*
X42588Y95527D01*
X42583Y95582D01*
X42577Y95647D01*
Y95680D01*
X42572Y95702D01*
X42566Y95757D01*
X42561Y95817D01*
Y95833D01*
X42556Y95844D01*
Y95866D01*
X42545Y95915D01*
X42539Y95969D01*
D02*
G37*
G36*
X39340Y93584D02*
Y92896D01*
X41278Y92355D01*
X41911Y92180D01*
X41240Y92000D01*
X39340Y91460D01*
Y90815D01*
X42550Y91803D01*
Y92601D01*
X39340Y93584D01*
D02*
G37*
G36*
X42605Y90684D02*
X40863D01*
X40819Y90679D01*
X40727Y90673D01*
X40617Y90662D01*
X40497Y90652D01*
X40377Y90630D01*
X40257Y90602D01*
X40251D01*
X40240Y90597D01*
X40224Y90591D01*
X40202Y90586D01*
X40148Y90564D01*
X40077Y90537D01*
X39989Y90504D01*
X39902Y90460D01*
X39815Y90411D01*
X39733Y90351D01*
X39722Y90346D01*
X39694Y90318D01*
X39656Y90286D01*
X39607Y90237D01*
X39553Y90176D01*
X39498Y90105D01*
X39449Y90029D01*
X39400Y89942D01*
Y89936D01*
X39394Y89931D01*
X39383Y89898D01*
X39362Y89849D01*
X39340Y89783D01*
X39323Y89701D01*
X39301Y89609D01*
X39290Y89505D01*
X39285Y89396D01*
Y90684D01*
D01*
Y88178D01*
X41032D01*
X41076Y88184D01*
X41169Y88189D01*
X41278Y88200D01*
X41398Y88216D01*
X41518Y88238D01*
X41638Y88265D01*
X41644D01*
X41649Y88271D01*
X41666Y88276D01*
X41687Y88282D01*
X41747Y88304D01*
X41818Y88331D01*
X41906Y88364D01*
X41993Y88413D01*
X42081Y88462D01*
X42168Y88522D01*
X42179Y88528D01*
X42201Y88549D01*
X42239Y88588D01*
X42288Y88631D01*
X42343Y88691D01*
X42397Y88762D01*
X42446Y88839D01*
X42496Y88926D01*
X42501Y88937D01*
X42512Y88970D01*
X42528Y89019D01*
X42550Y89079D01*
X42572Y89161D01*
X42588Y89254D01*
X42599Y89357D01*
X42605Y89467D01*
Y89510D01*
X42599Y89565D01*
X42594Y89630D01*
X42583Y89701D01*
X42566Y89789D01*
X42545Y89871D01*
X42512Y89958D01*
X42506Y89969D01*
X42496Y89996D01*
X42474Y90040D01*
X42441Y90089D01*
X42403Y90149D01*
X42348Y90215D01*
X42294Y90280D01*
X42222Y90346D01*
X42212Y90351D01*
X42184Y90373D01*
X42141Y90400D01*
X42081Y90438D01*
X42010Y90477D01*
X41922Y90520D01*
X41818Y90559D01*
X41709Y90597D01*
X41704D01*
X41693Y90602D01*
X41677D01*
X41655Y90608D01*
X41622Y90619D01*
X41589Y90624D01*
X41546Y90630D01*
X41496Y90640D01*
X41387Y90657D01*
X41262Y90668D01*
X41120Y90679D01*
X40961Y90684D01*
X42605D01*
D02*
G37*
%LPD*%
G36*
X40251Y88877D02*
X40246D01*
X40240Y88882D01*
X40213Y88893D01*
X40170Y88910D01*
X40115Y88937D01*
X40060Y88970D01*
X40000Y89008D01*
X39946Y89052D01*
X39897Y89101D01*
X39891Y89106D01*
X39880Y89128D01*
X39858Y89155D01*
X39836Y89194D01*
X39815Y89243D01*
X39793Y89303D01*
X39782Y89363D01*
X39776Y89434D01*
Y89456D01*
X39782Y89483D01*
X39787Y89516D01*
X39793Y89554D01*
X39804Y89598D01*
X39826Y89647D01*
X39847Y89691D01*
X39853Y89696D01*
X39858Y89707D01*
X39880Y89729D01*
X39902Y89756D01*
X39929Y89789D01*
X39968Y89822D01*
X40011Y89860D01*
X40066Y89893D01*
X40071Y89898D01*
X40093Y89909D01*
X40120Y89925D01*
X40164Y89942D01*
X40219Y89964D01*
X40279Y89985D01*
X40350Y90007D01*
X40426Y90029D01*
X40437D01*
X40464Y90035D01*
X40514Y90045D01*
X40574Y90051D01*
X40650Y90062D01*
X40737Y90073D01*
X40836Y90078D01*
X40945D01*
X40950D01*
X40972D01*
X41005D01*
X41038D01*
X41043D01*
X41059D01*
X41087D01*
X41120D01*
X40251Y88877D01*
D02*
G37*
G36*
X41660Y89980D02*
X41687Y89969D01*
X41731Y89953D01*
X41786Y89931D01*
X41840Y89898D01*
X41900Y89860D01*
X41955Y89816D01*
X42004Y89767D01*
X42010Y89762D01*
X42020Y89740D01*
X42037Y89712D01*
X42059Y89674D01*
X42081Y89625D01*
X42097Y89565D01*
X42108Y89505D01*
X42113Y89434D01*
Y89412D01*
X42108Y89385D01*
X42102Y89352D01*
X42097Y89314D01*
X42086Y89270D01*
X42070Y89221D01*
X42048Y89177D01*
X42042Y89172D01*
X42037Y89155D01*
X42015Y89134D01*
X41993Y89106D01*
X41966Y89073D01*
X41928Y89041D01*
X41884Y89003D01*
X41835Y88970D01*
X41829Y88964D01*
X41808Y88953D01*
X41775Y88937D01*
X41731Y88921D01*
X41682Y88899D01*
X41616Y88877D01*
X41546Y88855D01*
X41469Y88833D01*
X41458D01*
X41431Y88828D01*
X41382Y88817D01*
X41322Y88806D01*
X41245Y88801D01*
X41158Y88790D01*
X41065Y88784D01*
X40956D01*
X40950D01*
X40929D01*
X40901D01*
X40874Y88790D01*
X40868D01*
X40847D01*
X40819D01*
X40786D01*
X41649Y89985D01*
X41660Y89980D01*
D02*
G37*
G36*
X39290Y89303D02*
X39296Y89237D01*
X39307Y89161D01*
X39329Y89079D01*
X39351Y88997D01*
X39383Y88910D01*
X39389Y88899D01*
X39400Y88872D01*
X39421Y88828D01*
X39454Y88779D01*
X39498Y88719D01*
X39547Y88653D01*
X39607Y88588D01*
X39678Y88528D01*
X39689Y88522D01*
X39711Y88500D01*
X39755Y88473D01*
X39815Y88435D01*
X39886Y88391D01*
X39973Y88347D01*
X40077Y88309D01*
X40186Y88271D01*
X40191D01*
X40202Y88265D01*
X40219Y88260D01*
X40240Y88254D01*
X40273Y88249D01*
X40306Y88244D01*
X40350Y88233D01*
X40393Y88222D01*
X40503Y88205D01*
X40634Y88195D01*
X40776Y88184D01*
X40934Y88178D01*
X39285D01*
Y89352D01*
X39290Y89303D01*
D02*
G37*
%LPC*%
G36*
X26148Y76487D02*
X23773D01*
Y75985D01*
X24652D01*
Y73277D01*
X23773D01*
D01*
X26148D01*
Y76487D01*
D02*
G37*
G36*
X23554D02*
D01*
Y73277D01*
X22572Y74926D01*
X23489Y76487D01*
X22779D01*
X22200Y75373D01*
X21644Y76487D01*
X20928D01*
X21840Y74942D01*
X20830Y73277D01*
D01*
X23554D01*
Y76487D01*
D02*
G37*
G36*
X20797D02*
D01*
Y73277D01*
X19847Y76487D01*
X19001D01*
X18051Y73277D01*
D01*
X19989D01*
X18717D01*
X18897Y73910D01*
X20016D01*
X20197Y73277D01*
X20797D01*
Y76487D01*
D02*
G37*
%LPD*%
G36*
X26148Y73277D02*
X25269D01*
Y75985D01*
X26148D01*
Y73277D01*
D02*
G37*
G36*
X22823D02*
X21600D01*
X22217Y74456D01*
X22823Y73277D01*
D02*
G37*
G36*
X19874Y74401D02*
X19034D01*
X19449Y75898D01*
X19874Y74401D01*
D02*
G37*
%LPC*%
G36*
X19421Y86542D02*
X19378D01*
X19329Y86536D01*
X19263Y86531D01*
X19186Y86520D01*
X19105Y86498D01*
X19023Y86476D01*
X18935Y86444D01*
X18924Y86438D01*
X18897Y86427D01*
X18854Y86405D01*
X18804Y86373D01*
X18744Y86329D01*
X18679Y86280D01*
X18613Y86220D01*
X18553Y86149D01*
X18548Y86138D01*
X18526Y86116D01*
X18499Y86072D01*
X18460Y86012D01*
X18417Y85941D01*
X18373Y85854D01*
X18335Y85750D01*
X18296Y85641D01*
Y85635D01*
X18291Y85624D01*
X18286Y85608D01*
X18280Y85586D01*
X18275Y85553D01*
X18269Y85521D01*
X18258Y85477D01*
X18247Y85433D01*
X18231Y85324D01*
X18220Y85193D01*
X18209Y85051D01*
X18204Y84893D01*
Y86542D01*
D01*
Y83222D01*
X20710D01*
Y85008D01*
Y84964D01*
X20704Y85008D01*
X20699Y85100D01*
X20688Y85210D01*
X20677Y85330D01*
X20655Y85450D01*
X20628Y85570D01*
Y85575D01*
X20622Y85586D01*
X20617Y85603D01*
X20612Y85624D01*
X20590Y85679D01*
X20562Y85750D01*
X20530Y85837D01*
X20486Y85925D01*
X20437Y86012D01*
X20377Y86094D01*
X20371Y86105D01*
X20344Y86132D01*
X20311Y86171D01*
X20262Y86220D01*
X20202Y86274D01*
X20131Y86329D01*
X20055Y86378D01*
X19967Y86427D01*
X19962D01*
X19956Y86433D01*
X19924Y86444D01*
X19874Y86465D01*
X19809Y86487D01*
X19727Y86503D01*
X19634Y86525D01*
X19531Y86536D01*
X19421Y86542D01*
D02*
G37*
G36*
X23609Y86487D02*
X22921D01*
X22381Y84549D01*
X22206Y83916D01*
X22026Y84587D01*
X21485Y86487D01*
X20841D01*
X21829Y83277D01*
X20841D01*
D01*
X23609D01*
D01*
X22626D01*
X23609Y86487D01*
D02*
G37*
G36*
X25935D02*
X24079D01*
Y85919D01*
X25373D01*
Y85270D01*
X25056D01*
X24991Y85264D01*
X24919Y85259D01*
X24843Y85248D01*
X24674Y85220D01*
X24663D01*
X24636Y85210D01*
X24592Y85199D01*
X24543Y85188D01*
X24477Y85166D01*
X24412Y85138D01*
X24346Y85106D01*
X24281Y85068D01*
X24275Y85062D01*
X24253Y85046D01*
X24221Y85024D01*
X24182Y84991D01*
X24139Y84947D01*
X24095Y84898D01*
X24051Y84838D01*
X24008Y84773D01*
X24002Y84762D01*
X23991Y84740D01*
X23975Y84702D01*
X23953Y84647D01*
X23937Y84576D01*
X23920Y84494D01*
X23909Y84407D01*
X23904Y84303D01*
Y83227D01*
X25995D01*
X25438D01*
X25498Y83233D01*
X25531D01*
X25553Y83239D01*
X25607Y83244D01*
X25673Y83249D01*
X25706D01*
X25728Y83255D01*
X25782Y83260D01*
X25842Y83266D01*
X25859D01*
X25870Y83271D01*
X25891D01*
X25940Y83282D01*
X25995Y83288D01*
Y83812D01*
X25990D01*
X25973Y83806D01*
X25940Y83801D01*
X25902Y83790D01*
X25859Y83779D01*
X25804Y83768D01*
X25744Y83763D01*
X25678Y83752D01*
X25646D01*
X25607Y83746D01*
X25564D01*
X25504Y83741D01*
X25444D01*
X25307Y83735D01*
X25247D01*
X25214Y83741D01*
X25182D01*
X25100Y83752D01*
X25007Y83768D01*
X24914Y83795D01*
X24821Y83828D01*
X24745Y83872D01*
X24734Y83877D01*
X24712Y83899D01*
X24685Y83932D01*
X24646Y83975D01*
X24608Y84030D01*
X24581Y84096D01*
X24559Y84178D01*
X24548Y84265D01*
Y84270D01*
Y84276D01*
Y84309D01*
X24559Y84352D01*
X24570Y84407D01*
X24592Y84472D01*
X24625Y84532D01*
X24668Y84592D01*
X24728Y84647D01*
X24739Y84653D01*
X24761Y84669D01*
X24805Y84691D01*
X24870Y84713D01*
X24947Y84734D01*
X25051Y84756D01*
X25165Y84773D01*
X25307Y84778D01*
X25935D01*
Y86487D01*
D02*
G37*
%LPD*%
G36*
X19509Y86045D02*
X19541Y86039D01*
X19580Y86034D01*
X19623Y86023D01*
X19672Y86001D01*
X19716Y85979D01*
X19722Y85974D01*
X19733Y85968D01*
X19754Y85947D01*
X19782Y85925D01*
X19814Y85897D01*
X19847Y85859D01*
X19885Y85816D01*
X19918Y85761D01*
X19924Y85755D01*
X19934Y85734D01*
X19951Y85706D01*
X19967Y85663D01*
X19989Y85608D01*
X20011Y85548D01*
X20033Y85477D01*
X20055Y85401D01*
Y85390D01*
X20060Y85362D01*
X20071Y85313D01*
X20076Y85253D01*
X20087Y85177D01*
X20098Y85089D01*
X20104Y84991D01*
Y84882D01*
Y84876D01*
Y84855D01*
Y84822D01*
Y84789D01*
Y84784D01*
Y84767D01*
Y84740D01*
Y84707D01*
X18903Y85575D01*
Y85581D01*
X18908Y85586D01*
X18919Y85614D01*
X18935Y85657D01*
X18963Y85712D01*
X18995Y85766D01*
X19034Y85826D01*
X19077Y85881D01*
X19126Y85930D01*
X19132Y85936D01*
X19154Y85947D01*
X19181Y85968D01*
X19219Y85990D01*
X19268Y86012D01*
X19329Y86034D01*
X19388Y86045D01*
X19459Y86050D01*
X19481D01*
X19509Y86045D01*
D02*
G37*
G36*
X20011Y84178D02*
X20006Y84167D01*
X19995Y84139D01*
X19978Y84096D01*
X19956Y84041D01*
X19924Y83987D01*
X19885Y83926D01*
X19842Y83872D01*
X19793Y83823D01*
X19787Y83817D01*
X19765Y83806D01*
X19738Y83790D01*
X19700Y83768D01*
X19651Y83746D01*
X19590Y83730D01*
X19531Y83719D01*
X19459Y83714D01*
X19438D01*
X19410Y83719D01*
X19378Y83724D01*
X19339Y83730D01*
X19296Y83741D01*
X19247Y83757D01*
X19203Y83779D01*
X19197Y83785D01*
X19181Y83790D01*
X19159Y83812D01*
X19132Y83834D01*
X19099Y83861D01*
X19066Y83899D01*
X19028Y83943D01*
X18995Y83992D01*
X18990Y83997D01*
X18979Y84019D01*
X18963Y84052D01*
X18946Y84096D01*
X18924Y84145D01*
X18903Y84210D01*
X18881Y84281D01*
X18859Y84358D01*
Y84369D01*
X18854Y84396D01*
X18843Y84445D01*
X18832Y84505D01*
X18826Y84582D01*
X18815Y84669D01*
X18810Y84762D01*
Y84871D01*
Y84876D01*
Y84898D01*
Y84926D01*
X18815Y84953D01*
Y84958D01*
Y84980D01*
Y85008D01*
Y85040D01*
X20011Y84178D01*
D02*
G37*
G36*
X20710Y83222D02*
X19536D01*
X19590Y83227D01*
X19656Y83233D01*
X19727Y83244D01*
X19814Y83260D01*
X19896Y83282D01*
X19984Y83315D01*
X19995Y83320D01*
X20022Y83331D01*
X20066Y83353D01*
X20115Y83386D01*
X20175Y83424D01*
X20240Y83479D01*
X20306Y83533D01*
X20371Y83604D01*
X20377Y83615D01*
X20399Y83643D01*
X20426Y83686D01*
X20464Y83746D01*
X20502Y83817D01*
X20546Y83905D01*
X20584Y84008D01*
X20622Y84118D01*
Y84123D01*
X20628Y84134D01*
Y84150D01*
X20633Y84172D01*
X20644Y84205D01*
X20650Y84238D01*
X20655Y84281D01*
X20666Y84330D01*
X20683Y84440D01*
X20694Y84565D01*
X20704Y84707D01*
X20710Y84865D01*
Y83222D01*
D02*
G37*
G36*
X18209Y84751D02*
X18215Y84658D01*
X18226Y84549D01*
X18242Y84429D01*
X18264Y84309D01*
X18291Y84188D01*
Y84183D01*
X18296Y84178D01*
X18302Y84161D01*
X18307Y84139D01*
X18329Y84079D01*
X18357Y84008D01*
X18389Y83921D01*
X18439Y83834D01*
X18488Y83746D01*
X18548Y83659D01*
X18553Y83648D01*
X18575Y83626D01*
X18613Y83588D01*
X18657Y83539D01*
X18717Y83484D01*
X18788Y83429D01*
X18864Y83380D01*
X18952Y83331D01*
X18963Y83326D01*
X18995Y83315D01*
X19045Y83298D01*
X19105Y83277D01*
X19186Y83255D01*
X19279Y83239D01*
X19383Y83227D01*
X19492Y83222D01*
X18204D01*
Y84795D01*
X18209Y84751D01*
D02*
G37*
G36*
X23909Y84210D02*
X23915Y84145D01*
X23931Y84074D01*
X23948Y83997D01*
X23975Y83916D01*
X24013Y83839D01*
X24019Y83828D01*
X24035Y83806D01*
X24057Y83768D01*
X24090Y83724D01*
X24133Y83670D01*
X24188Y83615D01*
X24248Y83561D01*
X24314Y83506D01*
X24324Y83500D01*
X24346Y83484D01*
X24390Y83457D01*
X24439Y83429D01*
X24510Y83397D01*
X24586Y83359D01*
X24674Y83326D01*
X24767Y83298D01*
X24772D01*
X24778Y83293D01*
X24794D01*
X24810Y83288D01*
X24865Y83277D01*
X24936Y83266D01*
X25018Y83249D01*
X25116Y83239D01*
X25220Y83233D01*
X25335Y83227D01*
X23904D01*
Y84259D01*
X23909Y84210D01*
D02*
G37*
%LPC*%
G36*
X63246Y5594D02*
Y2848D01*
X63241D01*
X63219Y2842D01*
X63186Y2837D01*
X63148Y2831D01*
X63094Y2820D01*
X63039Y2815D01*
X62973Y2804D01*
X62902Y2799D01*
X62870D01*
X62831Y2793D01*
X62782D01*
X62722Y2788D01*
X62651D01*
X62575Y2782D01*
X62427D01*
X62378Y2788D01*
X62324D01*
X62264Y2799D01*
X62149Y2815D01*
X62143D01*
X62122Y2820D01*
X62100Y2831D01*
X62062Y2842D01*
X61985Y2870D01*
X61909Y2913D01*
X61903Y2919D01*
X61892Y2924D01*
X61876Y2941D01*
X61854Y2957D01*
X61805Y3006D01*
X61767Y3072D01*
Y3077D01*
X61761Y3088D01*
X61750Y3110D01*
X61739Y3137D01*
X61734Y3170D01*
X61723Y3208D01*
X61718Y3290D01*
Y3295D01*
Y3306D01*
Y3328D01*
X61723Y3356D01*
X61739Y3416D01*
X61767Y3481D01*
Y3486D01*
X61778Y3497D01*
X61789Y3514D01*
X61805Y3530D01*
X61849Y3579D01*
X61914Y3629D01*
X61920Y3634D01*
X61931Y3639D01*
X61952Y3650D01*
X61980Y3661D01*
X62012Y3678D01*
X62056Y3694D01*
X62100Y3710D01*
X62154Y3721D01*
X62160D01*
X62182Y3727D01*
X62209Y3732D01*
X62253Y3743D01*
X62302Y3749D01*
X62362Y3754D01*
X62433Y3760D01*
X62859D01*
Y4218D01*
X62466D01*
X62422Y4224D01*
X62367D01*
X62318Y4235D01*
X62264Y4240D01*
X62214Y4251D01*
X62209D01*
X62193Y4256D01*
X62171Y4267D01*
X62143Y4278D01*
X62078Y4311D01*
X62012Y4355D01*
X62007Y4360D01*
X62002Y4366D01*
X61969Y4398D01*
X61936Y4448D01*
X61903Y4508D01*
Y4513D01*
X61898Y4524D01*
X61892Y4540D01*
X61887Y4562D01*
X61876Y4622D01*
X61870Y4688D01*
Y4699D01*
Y4721D01*
X61876Y4753D01*
X61887Y4797D01*
X61903Y4846D01*
X61925Y4895D01*
X61958Y4944D01*
X62002Y4988D01*
X62007Y4993D01*
X62023Y5004D01*
X62056Y5021D01*
X62100Y5043D01*
X62154Y5059D01*
X62220Y5075D01*
X62302Y5086D01*
X62395Y5092D01*
X62466D01*
X62515Y5086D01*
X62575Y5081D01*
X62640Y5075D01*
X62777Y5054D01*
X62782D01*
X62810Y5048D01*
X62848Y5037D01*
X62892Y5026D01*
X62952Y5015D01*
X63017Y4993D01*
X63159Y4955D01*
Y5458D01*
X63154D01*
X63143Y5463D01*
X63121Y5469D01*
X63094Y5479D01*
X63023Y5496D01*
X62952Y5512D01*
X62946D01*
X62935Y5518D01*
X62913Y5523D01*
X62886Y5529D01*
X62821Y5545D01*
X62750Y5556D01*
X62744D01*
X62733Y5561D01*
X62711D01*
X62684Y5567D01*
X62618Y5578D01*
X62548Y5583D01*
X62531D01*
X62509Y5589D01*
X62482D01*
X62411Y5594D01*
X62286D01*
X62236Y5589D01*
X62171D01*
X62100Y5578D01*
X62023Y5567D01*
X61947Y5556D01*
X61870Y5534D01*
X61860D01*
X61838Y5523D01*
X61800Y5512D01*
X61750Y5496D01*
X61701Y5474D01*
X61641Y5447D01*
X61587Y5414D01*
X61532Y5376D01*
X61527Y5370D01*
X61510Y5359D01*
X61483Y5337D01*
X61456Y5305D01*
X61423Y5266D01*
X61385Y5223D01*
X61352Y5174D01*
X61325Y5119D01*
X61319Y5114D01*
X61314Y5092D01*
X61303Y5065D01*
X61286Y5021D01*
X61275Y4972D01*
X61264Y4917D01*
X61259Y4852D01*
X61253Y4786D01*
Y4781D01*
Y4775D01*
Y4759D01*
Y4737D01*
X61259Y4688D01*
X61270Y4617D01*
X61286Y4546D01*
X61314Y4464D01*
X61346Y4387D01*
X61390Y4316D01*
X61396Y4311D01*
X61417Y4289D01*
X61445Y4256D01*
X61488Y4213D01*
X61543Y4169D01*
X61608Y4125D01*
X61679Y4076D01*
X61767Y4038D01*
X61761D01*
X61739Y4033D01*
X61712Y4027D01*
X61674Y4016D01*
X61630Y4005D01*
X61581Y3989D01*
X61488Y3951D01*
X61483D01*
X61466Y3940D01*
X61445Y3929D01*
X61412Y3907D01*
X61346Y3863D01*
X61275Y3798D01*
X61270Y3792D01*
X61259Y3781D01*
X61243Y3760D01*
X61221Y3738D01*
X61199Y3705D01*
X61177Y3667D01*
X61133Y3579D01*
Y3574D01*
X61128Y3557D01*
X61117Y3536D01*
X61106Y3503D01*
X61101Y3459D01*
X61090Y3416D01*
X61084Y3306D01*
Y3268D01*
X61090Y3224D01*
X61095Y3164D01*
X61106Y3099D01*
X61123Y3028D01*
X61144Y2952D01*
X61177Y2881D01*
X61183Y2870D01*
X61194Y2848D01*
X61215Y2815D01*
X61243Y2766D01*
X61281Y2717D01*
X61330Y2662D01*
X61385Y2607D01*
X61450Y2553D01*
X61456Y2547D01*
X61483Y2531D01*
X61521Y2509D01*
X61576Y2476D01*
X61641Y2444D01*
X61718Y2411D01*
X61810Y2378D01*
X61909Y2351D01*
X61914D01*
X61920Y2345D01*
X61936D01*
X61958Y2340D01*
X62012Y2329D01*
X62094Y2318D01*
X62187Y2302D01*
X62296Y2291D01*
X62422Y2285D01*
X62559Y2280D01*
X61084D01*
D01*
X63246D01*
Y5594D01*
D02*
G37*
%LPD*%
G36*
Y2280D02*
X62668D01*
X62733Y2285D01*
X62766D01*
X62793Y2291D01*
X62848D01*
X62919Y2296D01*
X62952D01*
X62973Y2302D01*
X63028Y2307D01*
X63094Y2313D01*
X63126D01*
X63143Y2318D01*
X63197Y2324D01*
X63246Y2329D01*
Y2280D01*
D02*
G37*
%LPC*%
G36*
X62474Y96100D02*
X61800D01*
X61879D01*
Y96095D01*
X61884Y96079D01*
X61895Y96057D01*
X61906Y96030D01*
X61917Y95997D01*
X61928Y95959D01*
X61955Y95871D01*
Y95866D01*
X61960Y95849D01*
X61966Y95822D01*
X61977Y95795D01*
X61982Y95757D01*
X61993Y95713D01*
X62015Y95620D01*
Y95615D01*
X62020Y95598D01*
X62026Y95576D01*
X62031Y95544D01*
X62037Y95505D01*
X62042Y95462D01*
X62059Y95374D01*
Y95353D01*
X62064Y95331D01*
Y95298D01*
X62070Y95222D01*
Y95074D01*
X62064Y95030D01*
Y94987D01*
X62059Y94938D01*
X62042Y94839D01*
Y94834D01*
X62037Y94817D01*
X62031Y94796D01*
X62020Y94768D01*
X61999Y94703D01*
X61966Y94643D01*
Y94637D01*
X61955Y94632D01*
X61928Y94599D01*
X61889Y94566D01*
X61840Y94533D01*
X61835D01*
X61829Y94528D01*
X61791Y94512D01*
X61742Y94501D01*
X61682Y94495D01*
X61677D01*
X61660D01*
X61638Y94501D01*
X61611Y94506D01*
X61545Y94523D01*
X61518Y94544D01*
X61485Y94566D01*
X61480Y94572D01*
X61469Y94577D01*
X61458Y94594D01*
X61436Y94615D01*
X61393Y94670D01*
X61343Y94747D01*
X61338Y94752D01*
X61332Y94763D01*
X61322Y94790D01*
X61305Y94817D01*
X61289Y94856D01*
X61273Y94899D01*
X61234Y94998D01*
Y95003D01*
X61223Y95020D01*
X61218Y95052D01*
X61202Y95085D01*
X61185Y95129D01*
X61169Y95178D01*
X61130Y95287D01*
X61125Y95293D01*
X61120Y95309D01*
X61109Y95342D01*
X61092Y95374D01*
X61071Y95418D01*
X61049Y95467D01*
X61000Y95571D01*
X60994Y95576D01*
X60989Y95593D01*
X60972Y95620D01*
X60950Y95658D01*
X60896Y95740D01*
X60825Y95828D01*
X60819Y95833D01*
X60803Y95844D01*
X60781Y95866D01*
X60754Y95888D01*
X60716Y95920D01*
X60672Y95948D01*
X60574Y96002D01*
X60568D01*
X60546Y96013D01*
X60514Y96024D01*
X60475Y96035D01*
X60421Y96046D01*
X60361Y96057D01*
X60295Y96062D01*
X60219Y96068D01*
X60208D01*
X60186D01*
X60148Y96062D01*
X60104Y96057D01*
X60044Y96051D01*
X59984Y96040D01*
X59924Y96024D01*
X59858Y96002D01*
X59853Y95997D01*
X59831Y95991D01*
X59798Y95969D01*
X59760Y95948D01*
X59711Y95915D01*
X59662Y95882D01*
X59613Y95833D01*
X59563Y95784D01*
X59558Y95778D01*
X59542Y95757D01*
X59520Y95724D01*
X59492Y95680D01*
X59460Y95626D01*
X59427Y95560D01*
X59394Y95489D01*
X59361Y95407D01*
Y95402D01*
X59356Y95396D01*
X59351Y95363D01*
X59340Y95314D01*
X59323Y95249D01*
X59307Y95167D01*
X59296Y95069D01*
X59290Y94965D01*
X59285Y94845D01*
Y96100D01*
D01*
Y93829D01*
X62605D01*
X61627D01*
X61677Y93835D01*
X61737Y93840D01*
X61813Y93851D01*
X61889Y93873D01*
X61966Y93895D01*
X62042Y93928D01*
X62053Y93933D01*
X62075Y93944D01*
X62108Y93966D01*
X62151Y93998D01*
X62206Y94037D01*
X62255Y94086D01*
X62310Y94140D01*
X62359Y94200D01*
X62365Y94206D01*
X62381Y94233D01*
X62403Y94266D01*
X62430Y94321D01*
X62457Y94381D01*
X62490Y94452D01*
X62517Y94533D01*
X62545Y94621D01*
Y94632D01*
X62556Y94665D01*
X62561Y94714D01*
X62572Y94774D01*
X62583Y94856D01*
X62594Y94943D01*
X62599Y95041D01*
X62605Y95145D01*
Y95238D01*
X62599Y95298D01*
Y95374D01*
X62588Y95456D01*
X62572Y95636D01*
Y95647D01*
X62567Y95675D01*
X62561Y95724D01*
X62550Y95784D01*
X62534Y95855D01*
X62517Y95931D01*
X62474Y96100D01*
D02*
G37*
G36*
X62550Y93360D02*
X59340D01*
Y90935D01*
Y92317D01*
X59345Y92278D01*
X59351Y92191D01*
X59361Y92093D01*
X59378Y91984D01*
X59400Y91874D01*
X59433Y91771D01*
Y91765D01*
X59438Y91760D01*
X59449Y91722D01*
X59471Y91672D01*
X59503Y91607D01*
X59542Y91536D01*
X59591Y91460D01*
X59651Y91378D01*
X59716Y91307D01*
X59727Y91296D01*
X59749Y91274D01*
X59793Y91241D01*
X59847Y91203D01*
X59918Y91159D01*
X60000Y91110D01*
X60099Y91066D01*
X60202Y91028D01*
X60208D01*
X60213Y91023D01*
X60230Y91017D01*
X60257Y91012D01*
X60284Y91006D01*
X60317Y91001D01*
X60399Y90979D01*
X60503Y90963D01*
X60623Y90952D01*
X60759Y90941D01*
X60907Y90935D01*
X59340D01*
X62550D01*
X61000D01*
X61038Y90941D01*
X61130Y90946D01*
X61234Y90957D01*
X61349Y90974D01*
X61469Y90996D01*
X61584Y91028D01*
X61589D01*
X61595Y91034D01*
X61611Y91039D01*
X61633Y91045D01*
X61693Y91066D01*
X61764Y91099D01*
X61846Y91137D01*
X61933Y91186D01*
X62020Y91247D01*
X62108Y91318D01*
X62119Y91329D01*
X62141Y91350D01*
X62179Y91394D01*
X62228Y91454D01*
X62283Y91525D01*
X62337Y91612D01*
X62386Y91711D01*
X62436Y91820D01*
Y91825D01*
X62441Y91831D01*
X62446Y91853D01*
X62452Y91874D01*
X62463Y91902D01*
X62474Y91935D01*
X62485Y91978D01*
X62490Y92022D01*
X62512Y92131D01*
X62534Y92251D01*
X62545Y92393D01*
X62550Y92546D01*
Y93360D01*
D02*
G37*
G36*
Y90793D02*
X59340D01*
Y88997D01*
X62550Y88047D01*
Y88893D01*
Y88713D01*
X61917Y88893D01*
Y90013D01*
X62550Y90193D01*
Y90793D01*
X59340Y89843D01*
Y90793D01*
X62550D01*
D02*
G37*
%LPD*%
G36*
X60197Y95407D02*
X60224Y95402D01*
X60279Y95385D01*
X60312Y95369D01*
X60339Y95347D01*
X60344Y95342D01*
X60350Y95336D01*
X60366Y95320D01*
X60382Y95298D01*
X60426Y95243D01*
X60470Y95172D01*
Y95167D01*
X60481Y95151D01*
X60492Y95129D01*
X60503Y95096D01*
X60519Y95058D01*
X60535Y95014D01*
X60574Y94916D01*
Y94910D01*
X60584Y94888D01*
X60590Y94861D01*
X60606Y94828D01*
X60623Y94785D01*
X60639Y94736D01*
X60683Y94626D01*
Y94621D01*
X60694Y94599D01*
X60705Y94572D01*
X60721Y94533D01*
X60737Y94484D01*
X60759Y94435D01*
X60814Y94332D01*
X60819Y94326D01*
X60825Y94310D01*
X60841Y94282D01*
X60863Y94244D01*
X60918Y94168D01*
X60994Y94080D01*
X61000Y94075D01*
X61010Y94059D01*
X61032Y94042D01*
X61065Y94015D01*
X61103Y93988D01*
X61141Y93955D01*
X61191Y93928D01*
X61245Y93900D01*
X61251Y93895D01*
X61273Y93889D01*
X61300Y93878D01*
X61338Y93862D01*
X61393Y93851D01*
X61447Y93840D01*
X61513Y93835D01*
X61584Y93829D01*
X59285D01*
Y94785D01*
X59290Y94725D01*
X59296Y94648D01*
Y94632D01*
X59301Y94610D01*
Y94583D01*
X59312Y94512D01*
X59323Y94441D01*
Y94424D01*
X59329Y94402D01*
Y94375D01*
X59340Y94315D01*
X59356Y94244D01*
Y94228D01*
X59361Y94206D01*
X59367Y94184D01*
X59378Y94124D01*
X59389Y94064D01*
X59940D01*
Y94069D01*
X59935Y94080D01*
X59929Y94097D01*
X59924Y94119D01*
X59908Y94173D01*
X59891Y94239D01*
Y94244D01*
X59886Y94255D01*
X59880Y94271D01*
X59875Y94299D01*
X59858Y94359D01*
X59847Y94435D01*
Y94441D01*
X59842Y94452D01*
Y94473D01*
X59837Y94495D01*
X59826Y94561D01*
X59815Y94637D01*
Y94654D01*
X59809Y94675D01*
Y94697D01*
X59804Y94757D01*
Y94883D01*
X59809Y94921D01*
X59815Y95009D01*
X59831Y95101D01*
Y95107D01*
X59837Y95118D01*
X59842Y95140D01*
X59853Y95167D01*
X59875Y95222D01*
X59908Y95282D01*
Y95287D01*
X59913Y95293D01*
X59935Y95320D01*
X59973Y95353D01*
X60017Y95385D01*
X60022D01*
X60028Y95391D01*
X60060Y95396D01*
X60104Y95407D01*
X60164Y95413D01*
X60170D01*
X60180D01*
X60197Y95407D01*
D02*
G37*
G36*
X62042Y92448D02*
X62037Y92421D01*
Y92382D01*
X62026Y92339D01*
X62010Y92240D01*
X61977Y92131D01*
X61933Y92022D01*
X61868Y91913D01*
X61824Y91864D01*
X61780Y91820D01*
X61775Y91814D01*
X61769Y91809D01*
X61753Y91798D01*
X61731Y91782D01*
X61698Y91765D01*
X61666Y91743D01*
X61622Y91722D01*
X61573Y91700D01*
X61518Y91678D01*
X61458Y91662D01*
X61393Y91640D01*
X61316Y91623D01*
X61234Y91607D01*
X61141Y91596D01*
X61049Y91585D01*
X60945D01*
X60939D01*
X60934D01*
X60901D01*
X60852D01*
X60792Y91591D01*
X60721Y91596D01*
X60645Y91602D01*
X60486Y91629D01*
X60475D01*
X60453Y91634D01*
X60415Y91645D01*
X60366Y91662D01*
X60312Y91683D01*
X60251Y91705D01*
X60191Y91738D01*
X60137Y91771D01*
X60131Y91776D01*
X60115Y91787D01*
X60088Y91809D01*
X60055Y91842D01*
X60022Y91880D01*
X59989Y91924D01*
X59951Y91978D01*
X59924Y92038D01*
X59918Y92044D01*
X59913Y92066D01*
X59902Y92104D01*
X59886Y92153D01*
X59869Y92208D01*
X59858Y92278D01*
X59853Y92361D01*
X59847Y92448D01*
Y92754D01*
X62042D01*
Y92448D01*
D02*
G37*
G36*
X61425Y89030D02*
X59929Y89445D01*
X61425Y89871D01*
Y89030D01*
D02*
G37*
%LPC*%
G36*
X23246Y14164D02*
X22503D01*
X21630Y12231D01*
X21472Y11860D01*
Y13274D01*
Y14164D01*
X20920D01*
Y10954D01*
X23246D01*
Y14164D01*
D02*
G37*
G36*
X24567Y14219D02*
X23705D01*
X24485D01*
X24431Y14213D01*
X24365Y14208D01*
X24294Y14202D01*
X24141Y14175D01*
X24130D01*
X24103Y14170D01*
X24065Y14159D01*
X24010Y14148D01*
X23945Y14137D01*
X23874Y14115D01*
X23716Y14077D01*
Y13482D01*
X23727Y13487D01*
X23748Y13498D01*
X23787Y13509D01*
X23836Y13531D01*
X23896Y13553D01*
X23967Y13575D01*
X24038Y13597D01*
X24120Y13618D01*
X24130Y13624D01*
X24158Y13629D01*
X24202Y13640D01*
X24256Y13651D01*
X24322Y13662D01*
X24398Y13667D01*
X24480Y13678D01*
X24600D01*
X24644Y13673D01*
X24693Y13667D01*
X24758Y13656D01*
X24824Y13646D01*
X24895Y13624D01*
X24961Y13597D01*
X24966Y13591D01*
X24988Y13580D01*
X25021Y13564D01*
X25064Y13542D01*
X25108Y13509D01*
X25157Y13471D01*
X25206Y13427D01*
X25250Y13373D01*
X25255Y13367D01*
X25266Y13345D01*
X25288Y13318D01*
X25315Y13274D01*
X25343Y13225D01*
X25370Y13165D01*
X25397Y13094D01*
X25425Y13018D01*
Y13007D01*
X25436Y12979D01*
X25441Y12936D01*
X25452Y12881D01*
X25463Y12810D01*
X25474Y12728D01*
X25479Y12641D01*
X25485Y12543D01*
Y12537D01*
Y12532D01*
Y12499D01*
Y12450D01*
X25479Y12390D01*
X25474Y12319D01*
X25468Y12237D01*
X25441Y12079D01*
Y12068D01*
X25430Y12046D01*
X25419Y12008D01*
X25403Y11958D01*
X25381Y11904D01*
X25354Y11844D01*
X25288Y11729D01*
X25283Y11724D01*
X25272Y11707D01*
X25244Y11680D01*
X25217Y11647D01*
X25179Y11614D01*
X25130Y11576D01*
X25081Y11543D01*
X25021Y11511D01*
X25015Y11505D01*
X24993Y11500D01*
X24955Y11489D01*
X24911Y11478D01*
X24851Y11462D01*
X24786Y11451D01*
X24704Y11445D01*
X24622Y11440D01*
X24518D01*
X24496Y11445D01*
X24469D01*
X24442Y11451D01*
X24436D01*
X24420Y11456D01*
X24398Y11462D01*
X24371Y11467D01*
X24365D01*
X24349Y11473D01*
X24327Y11484D01*
X24300Y11489D01*
Y12313D01*
X24846D01*
Y12810D01*
X23705D01*
Y11096D01*
X23716Y11090D01*
X23743Y11079D01*
X23787Y11063D01*
X23847Y11041D01*
X23918Y11014D01*
X23994Y10992D01*
X24081Y10965D01*
X24169Y10948D01*
X24180D01*
X24212Y10943D01*
X24262Y10932D01*
X24322Y10926D01*
X24404Y10916D01*
X24491Y10905D01*
X24589Y10899D01*
X23705D01*
X26129D01*
Y12641D01*
Y12581D01*
X26123Y12614D01*
Y12657D01*
X26118Y12750D01*
X26102Y12865D01*
X26085Y12985D01*
X26058Y13111D01*
X26025Y13231D01*
Y13236D01*
X26020Y13247D01*
X26014Y13263D01*
X26003Y13285D01*
X25982Y13340D01*
X25949Y13416D01*
X25905Y13498D01*
X25856Y13591D01*
X25796Y13678D01*
X25725Y13766D01*
X25714Y13777D01*
X25687Y13804D01*
X25643Y13842D01*
X25588Y13891D01*
X25517Y13946D01*
X25430Y14001D01*
X25337Y14050D01*
X25234Y14099D01*
X25228D01*
X25223Y14104D01*
X25206Y14110D01*
X25179Y14115D01*
X25152Y14126D01*
X25119Y14137D01*
X25037Y14159D01*
X24939Y14181D01*
X24829Y14202D01*
X24704Y14213D01*
X24567Y14219D01*
D02*
G37*
G36*
X20494Y14164D02*
X18070D01*
Y10954D01*
D01*
Y12505D01*
X18075Y12466D01*
X18081Y12373D01*
X18092Y12270D01*
X18108Y12155D01*
X18130Y12035D01*
X18163Y11920D01*
Y11915D01*
X18168Y11909D01*
X18174Y11893D01*
X18179Y11871D01*
X18201Y11811D01*
X18234Y11740D01*
X18272Y11658D01*
X18321Y11571D01*
X18381Y11484D01*
X18452Y11396D01*
X18463Y11385D01*
X18485Y11363D01*
X18529Y11325D01*
X18589Y11276D01*
X18660Y11221D01*
X18747Y11167D01*
X18845Y11118D01*
X18955Y11068D01*
X18960D01*
X18965Y11063D01*
X18987Y11058D01*
X19009Y11052D01*
X19036Y11041D01*
X19069Y11030D01*
X19113Y11019D01*
X19157Y11014D01*
X19266Y10992D01*
X19386Y10970D01*
X19528Y10959D01*
X19681Y10954D01*
X20494D01*
Y14164D01*
D02*
G37*
%LPD*%
G36*
X22695Y11947D02*
Y10954D01*
X21663D01*
X22520Y12865D01*
X22695Y13280D01*
Y11947D01*
D02*
G37*
G36*
X26129Y10899D02*
X24747D01*
X24780Y10905D01*
X24813D01*
X24895Y10910D01*
X24988Y10921D01*
X25086Y10943D01*
X25190Y10965D01*
X25293Y10998D01*
X25299D01*
X25304Y11003D01*
X25337Y11019D01*
X25386Y11041D01*
X25452Y11074D01*
X25523Y11118D01*
X25599Y11172D01*
X25676Y11232D01*
X25747Y11303D01*
X25752Y11314D01*
X25780Y11342D01*
X25812Y11385D01*
X25850Y11445D01*
X25900Y11516D01*
X25943Y11604D01*
X25992Y11702D01*
X26031Y11811D01*
Y11817D01*
X26036Y11827D01*
X26041Y11844D01*
X26047Y11866D01*
X26052Y11893D01*
X26063Y11931D01*
X26080Y12013D01*
X26096Y12117D01*
X26112Y12237D01*
X26123Y12368D01*
X26129Y12510D01*
Y10899D01*
D02*
G37*
G36*
X19413Y14159D02*
X19326Y14153D01*
X19228Y14142D01*
X19118Y14126D01*
X19009Y14104D01*
X18905Y14072D01*
X18900D01*
X18894Y14066D01*
X18856Y14055D01*
X18807Y14033D01*
X18742Y14001D01*
X18670Y13962D01*
X18594Y13913D01*
X18512Y13853D01*
X18441Y13788D01*
X18430Y13777D01*
X18408Y13755D01*
X18376Y13711D01*
X18338Y13656D01*
X18294Y13586D01*
X18245Y13504D01*
X18201Y13405D01*
X18163Y13302D01*
Y13296D01*
X18157Y13291D01*
X18152Y13274D01*
X18146Y13247D01*
X18141Y13220D01*
X18135Y13187D01*
X18114Y13105D01*
X18097Y13001D01*
X18086Y12881D01*
X18075Y12745D01*
X18070Y12597D01*
Y14164D01*
X19451D01*
X19413Y14159D01*
D02*
G37*
G36*
X19888Y11462D02*
X19582D01*
X19555Y11467D01*
X19517D01*
X19473Y11478D01*
X19375Y11494D01*
X19266Y11527D01*
X19157Y11571D01*
X19047Y11636D01*
X18998Y11680D01*
X18955Y11724D01*
X18949Y11729D01*
X18944Y11735D01*
X18933Y11751D01*
X18916Y11773D01*
X18900Y11806D01*
X18878Y11838D01*
X18856Y11882D01*
X18834Y11931D01*
X18812Y11986D01*
X18796Y12046D01*
X18774Y12111D01*
X18758Y12188D01*
X18742Y12270D01*
X18731Y12363D01*
X18720Y12455D01*
Y12559D01*
Y12564D01*
Y12570D01*
Y12603D01*
Y12652D01*
X18725Y12712D01*
X18731Y12783D01*
X18736Y12859D01*
X18763Y13018D01*
Y13029D01*
X18769Y13050D01*
X18780Y13089D01*
X18796Y13138D01*
X18818Y13192D01*
X18840Y13252D01*
X18873Y13313D01*
X18905Y13367D01*
X18911Y13373D01*
X18922Y13389D01*
X18944Y13416D01*
X18976Y13449D01*
X19015Y13482D01*
X19058Y13515D01*
X19113Y13553D01*
X19173Y13580D01*
X19178Y13586D01*
X19200Y13591D01*
X19238Y13602D01*
X19287Y13618D01*
X19342Y13635D01*
X19413Y13646D01*
X19495Y13651D01*
X19582Y13656D01*
X19888D01*
Y11462D01*
D02*
G37*
%LPC*%
G36*
X42261Y5553D02*
X41753D01*
Y2856D01*
X41049D01*
Y5553D01*
D01*
D01*
Y2321D01*
X43189D01*
D01*
X43282D01*
X43189D01*
Y2856D01*
X42370D01*
Y4914D01*
X43085Y4527D01*
X43282Y5018D01*
D01*
X42261Y5553D01*
D02*
G37*
G36*
X23399Y34164D02*
X22689D01*
X22110Y33051D01*
X21553Y34164D01*
X20838D01*
X21750Y32619D01*
X20740Y30954D01*
X23464D01*
D01*
X22482Y32603D01*
X23399Y34164D01*
D02*
G37*
G36*
X26058D02*
X23683D01*
Y33662D01*
X24562D01*
Y30954D01*
X23683D01*
D01*
X26058D01*
Y34164D01*
D02*
G37*
G36*
X20401D02*
X18141D01*
Y30954D01*
Y31888D01*
X18146Y31855D01*
X18152Y31817D01*
X18157Y31767D01*
X18185Y31658D01*
X18223Y31543D01*
X18250Y31478D01*
X18283Y31418D01*
X18321Y31358D01*
X18365Y31303D01*
X18414Y31249D01*
X18474Y31199D01*
X18479D01*
X18490Y31189D01*
X18507Y31178D01*
X18534Y31161D01*
X18567Y31145D01*
X18610Y31123D01*
X18660Y31101D01*
X18714Y31079D01*
X18780Y31052D01*
X18851Y31030D01*
X18927Y31008D01*
X19015Y30992D01*
X19107Y30976D01*
X19206Y30965D01*
X19309Y30959D01*
X19424Y30954D01*
X18141D01*
X20401D01*
Y34164D01*
D02*
G37*
%LPD*%
G36*
X22733Y30954D02*
X21510D01*
X22127Y32133D01*
X22733Y30954D01*
D02*
G37*
G36*
X26058D02*
X25179D01*
Y33662D01*
X26058D01*
Y30954D01*
D02*
G37*
G36*
X19801Y32838D02*
X19380D01*
X19348Y32843D01*
X19271Y32854D01*
X19189Y32870D01*
X19184D01*
X19173Y32876D01*
X19151Y32887D01*
X19129Y32892D01*
X19075Y32925D01*
X19020Y32963D01*
X19015Y32969D01*
X19009Y32974D01*
X18982Y33007D01*
X18955Y33051D01*
X18927Y33110D01*
Y33116D01*
X18922Y33127D01*
X18916Y33143D01*
X18911Y33165D01*
X18900Y33220D01*
X18894Y33285D01*
Y33291D01*
Y33302D01*
Y33318D01*
X18900Y33340D01*
X18905Y33395D01*
X18927Y33449D01*
Y33454D01*
X18933Y33460D01*
X18949Y33493D01*
X18976Y33531D01*
X19020Y33569D01*
X19025D01*
X19031Y33580D01*
X19047Y33586D01*
X19064Y33602D01*
X19118Y33629D01*
X19189Y33651D01*
X19195D01*
X19206Y33656D01*
X19228Y33662D01*
X19260Y33667D01*
X19293Y33673D01*
X19337Y33678D01*
X19435Y33684D01*
X19801D01*
Y32838D01*
D02*
G37*
G36*
X19277Y34159D02*
X19228D01*
X19178Y34153D01*
X19118Y34148D01*
X19058Y34143D01*
X18922Y34115D01*
X18785Y34082D01*
X18660Y34033D01*
X18600Y34001D01*
X18545Y33968D01*
X18540D01*
X18534Y33957D01*
X18501Y33929D01*
X18458Y33886D01*
X18403Y33826D01*
X18354Y33744D01*
X18310Y33646D01*
X18277Y33525D01*
X18272Y33460D01*
X18267Y33389D01*
Y33384D01*
Y33367D01*
Y33345D01*
X18272Y33312D01*
X18277Y33242D01*
X18299Y33154D01*
Y33149D01*
X18305Y33138D01*
X18310Y33116D01*
X18321Y33089D01*
X18348Y33023D01*
X18387Y32947D01*
Y32941D01*
X18397Y32930D01*
X18408Y32914D01*
X18425Y32887D01*
X18474Y32832D01*
X18534Y32772D01*
X18540Y32767D01*
X18550Y32761D01*
X18567Y32750D01*
X18594Y32734D01*
X18621Y32712D01*
X18660Y32696D01*
X18742Y32663D01*
X18736D01*
X18720Y32657D01*
X18698Y32652D01*
X18665Y32646D01*
X18594Y32619D01*
X18512Y32581D01*
X18507D01*
X18496Y32570D01*
X18474Y32559D01*
X18447Y32543D01*
X18387Y32493D01*
X18321Y32434D01*
X18316Y32428D01*
X18305Y32417D01*
X18294Y32395D01*
X18272Y32373D01*
X18256Y32341D01*
X18234Y32302D01*
X18190Y32215D01*
Y32210D01*
X18185Y32193D01*
X18174Y32166D01*
X18163Y32133D01*
X18157Y32089D01*
X18146Y32046D01*
X18141Y31937D01*
Y34164D01*
X19309D01*
X19277Y34159D01*
D02*
G37*
G36*
X19801Y31445D02*
X19331D01*
X19293Y31451D01*
X19217Y31462D01*
X19129Y31478D01*
X19124D01*
X19107Y31483D01*
X19091Y31494D01*
X19064Y31505D01*
X19004Y31538D01*
X18944Y31582D01*
X18938Y31587D01*
X18933Y31593D01*
X18900Y31625D01*
X18862Y31675D01*
X18829Y31735D01*
Y31740D01*
X18823Y31751D01*
X18818Y31767D01*
X18807Y31789D01*
X18796Y31855D01*
X18791Y31926D01*
Y31937D01*
Y31958D01*
X18796Y31997D01*
X18812Y32046D01*
X18829Y32095D01*
X18856Y32150D01*
X18894Y32204D01*
X18949Y32253D01*
X18955Y32259D01*
X18976Y32270D01*
X19015Y32291D01*
X19069Y32313D01*
X19135Y32335D01*
X19217Y32357D01*
X19315Y32368D01*
X19430Y32373D01*
X19801D01*
Y31445D01*
D02*
G37*
%LPC*%
G36*
X23525Y24164D02*
X22599D01*
X22749D01*
X22170Y23051D01*
X21613Y24164D01*
X20898D01*
X21810Y22619D01*
X20800Y20954D01*
X22664D01*
X21570D01*
X22187Y22133D01*
X22793Y20954D01*
X23525D01*
X22542Y22603D01*
X23459Y24164D01*
X23525D01*
D02*
G37*
G36*
X25998D02*
X24971D01*
X24906Y24159D01*
X24829Y24153D01*
X24753Y24142D01*
X24584Y24115D01*
X24573D01*
X24545Y24104D01*
X24507Y24093D01*
X24458Y24082D01*
X24398Y24061D01*
X24338Y24033D01*
X24278Y24001D01*
X24218Y23962D01*
X24212Y23957D01*
X24191Y23946D01*
X24163Y23919D01*
X24130Y23891D01*
X24092Y23848D01*
X24054Y23804D01*
X24016Y23749D01*
X23983Y23689D01*
X23978Y23684D01*
X23967Y23656D01*
X23956Y23624D01*
X23939Y23575D01*
X23923Y23515D01*
X23907Y23444D01*
X23901Y23362D01*
X23896Y23274D01*
Y23269D01*
Y23247D01*
Y23214D01*
X23901Y23171D01*
X23907Y23121D01*
X23918Y23067D01*
X23950Y22963D01*
Y22958D01*
X23961Y22941D01*
X23972Y22914D01*
X23989Y22881D01*
X24032Y22805D01*
X24092Y22723D01*
X24098Y22717D01*
X24109Y22706D01*
X24130Y22690D01*
X24152Y22668D01*
X24185Y22641D01*
X24223Y22614D01*
X24316Y22565D01*
X24322D01*
X24338Y22554D01*
X24365Y22543D01*
X24398Y22532D01*
X24442Y22515D01*
X24491Y22504D01*
X24600Y22477D01*
X24595D01*
X24578Y22472D01*
X24556Y22466D01*
X24529Y22455D01*
X24496Y22433D01*
X24458Y22412D01*
X24420Y22384D01*
X24382Y22346D01*
X24376Y22341D01*
X24365Y22324D01*
X24343Y22302D01*
X24322Y22264D01*
X24289Y22221D01*
X24256Y22166D01*
X24223Y22100D01*
X24185Y22029D01*
X23672Y20954D01*
X25998D01*
Y24164D01*
D02*
G37*
G36*
X20461D02*
X18201D01*
Y20954D01*
Y21888D01*
X18206Y21855D01*
X18212Y21816D01*
X18217Y21767D01*
X18245Y21658D01*
X18283Y21543D01*
X18310Y21478D01*
X18343Y21418D01*
X18381Y21358D01*
X18425Y21303D01*
X18474Y21249D01*
X18534Y21200D01*
X18540D01*
X18550Y21189D01*
X18567Y21178D01*
X18594Y21161D01*
X18627Y21145D01*
X18670Y21123D01*
X18720Y21101D01*
X18774Y21079D01*
X18840Y21052D01*
X18911Y21030D01*
X18987Y21008D01*
X19075Y20992D01*
X19167Y20976D01*
X19266Y20965D01*
X19369Y20959D01*
X19484Y20954D01*
X18201D01*
X20461D01*
Y24164D01*
D02*
G37*
%LPD*%
G36*
X25392Y22756D02*
X25102D01*
X25064Y22761D01*
X24982Y22767D01*
X24895Y22783D01*
X24890D01*
X24873Y22788D01*
X24857Y22794D01*
X24829Y22805D01*
X24764Y22832D01*
X24704Y22870D01*
X24698Y22876D01*
X24688Y22881D01*
X24655Y22914D01*
X24617Y22958D01*
X24578Y23018D01*
Y23023D01*
X24573Y23034D01*
X24562Y23051D01*
X24551Y23078D01*
X24535Y23138D01*
X24529Y23220D01*
Y23225D01*
Y23231D01*
Y23258D01*
X24535Y23302D01*
X24545Y23351D01*
X24567Y23405D01*
X24595Y23460D01*
X24633Y23515D01*
X24682Y23558D01*
X24688Y23564D01*
X24709Y23575D01*
X24742Y23591D01*
X24791Y23613D01*
X24857Y23629D01*
X24933Y23646D01*
X25026Y23656D01*
X25130Y23662D01*
X25392D01*
Y22756D01*
D02*
G37*
G36*
Y20954D02*
X24382D01*
X24835Y21986D01*
Y21991D01*
X24846Y22008D01*
X24862Y22035D01*
X24879Y22068D01*
X24933Y22144D01*
X24971Y22177D01*
X25010Y22210D01*
X25015Y22215D01*
X25031Y22221D01*
X25053Y22231D01*
X25086Y22248D01*
X25124Y22264D01*
X25168Y22275D01*
X25223Y22281D01*
X25277Y22286D01*
X25392D01*
Y20954D01*
D02*
G37*
G36*
X19861Y22838D02*
X19440D01*
X19408Y22843D01*
X19331Y22854D01*
X19249Y22870D01*
X19244D01*
X19233Y22876D01*
X19211Y22887D01*
X19189Y22892D01*
X19135Y22925D01*
X19080Y22963D01*
X19075Y22969D01*
X19069Y22974D01*
X19042Y23007D01*
X19015Y23051D01*
X18987Y23110D01*
Y23116D01*
X18982Y23127D01*
X18976Y23143D01*
X18971Y23165D01*
X18960Y23220D01*
X18955Y23285D01*
Y23291D01*
Y23302D01*
Y23318D01*
X18960Y23340D01*
X18965Y23394D01*
X18987Y23449D01*
Y23455D01*
X18993Y23460D01*
X19009Y23493D01*
X19036Y23531D01*
X19080Y23569D01*
X19085D01*
X19091Y23580D01*
X19107Y23586D01*
X19124Y23602D01*
X19178Y23629D01*
X19249Y23651D01*
X19255D01*
X19266Y23656D01*
X19287Y23662D01*
X19320Y23667D01*
X19353Y23673D01*
X19397Y23678D01*
X19495Y23684D01*
X19861D01*
Y22838D01*
D02*
G37*
G36*
X19337Y24159D02*
X19287D01*
X19238Y24153D01*
X19178Y24148D01*
X19118Y24142D01*
X18982Y24115D01*
X18845Y24082D01*
X18720Y24033D01*
X18660Y24001D01*
X18605Y23968D01*
X18600D01*
X18594Y23957D01*
X18561Y23930D01*
X18518Y23886D01*
X18463Y23826D01*
X18414Y23744D01*
X18370Y23646D01*
X18338Y23526D01*
X18332Y23460D01*
X18327Y23389D01*
Y23383D01*
Y23367D01*
Y23345D01*
X18332Y23313D01*
X18338Y23242D01*
X18359Y23154D01*
Y23149D01*
X18365Y23138D01*
X18370Y23116D01*
X18381Y23089D01*
X18408Y23023D01*
X18447Y22947D01*
Y22941D01*
X18458Y22930D01*
X18469Y22914D01*
X18485Y22887D01*
X18534Y22832D01*
X18594Y22772D01*
X18600Y22767D01*
X18610Y22761D01*
X18627Y22750D01*
X18654Y22734D01*
X18681Y22712D01*
X18720Y22696D01*
X18802Y22663D01*
X18796D01*
X18780Y22657D01*
X18758Y22652D01*
X18725Y22646D01*
X18654Y22619D01*
X18572Y22581D01*
X18567D01*
X18556Y22570D01*
X18534Y22559D01*
X18507Y22543D01*
X18447Y22493D01*
X18381Y22433D01*
X18376Y22428D01*
X18365Y22417D01*
X18354Y22395D01*
X18332Y22373D01*
X18316Y22341D01*
X18294Y22302D01*
X18250Y22215D01*
Y22210D01*
X18245Y22193D01*
X18234Y22166D01*
X18223Y22133D01*
X18217Y22090D01*
X18206Y22046D01*
X18201Y21937D01*
Y24164D01*
X19369D01*
X19337Y24159D01*
D02*
G37*
G36*
X19861Y21445D02*
X19391D01*
X19353Y21451D01*
X19277Y21462D01*
X19189Y21478D01*
X19184D01*
X19167Y21483D01*
X19151Y21494D01*
X19124Y21505D01*
X19064Y21538D01*
X19004Y21582D01*
X18998Y21587D01*
X18993Y21593D01*
X18960Y21625D01*
X18922Y21675D01*
X18889Y21735D01*
Y21740D01*
X18883Y21751D01*
X18878Y21767D01*
X18867Y21789D01*
X18856Y21855D01*
X18851Y21926D01*
Y21937D01*
Y21959D01*
X18856Y21997D01*
X18873Y22046D01*
X18889Y22095D01*
X18916Y22150D01*
X18955Y22204D01*
X19009Y22253D01*
X19015Y22259D01*
X19036Y22270D01*
X19075Y22291D01*
X19129Y22313D01*
X19195Y22335D01*
X19277Y22357D01*
X19375Y22368D01*
X19489Y22373D01*
X19861D01*
Y21445D01*
D02*
G37*
%LPC*%
G36*
X23549Y66487D02*
X22839D01*
X22261Y65373D01*
X21704Y66487D01*
X20988D01*
X21900Y64942D01*
X20890Y63277D01*
D01*
X23615D01*
D01*
X22632Y64926D01*
X23549Y66487D01*
D02*
G37*
G36*
X26088D02*
X25062D01*
X24996Y66482D01*
X24919Y66476D01*
X24843Y66465D01*
X24674Y66438D01*
X24663D01*
X24636Y66427D01*
X24597Y66416D01*
X24548Y66405D01*
X24488Y66383D01*
X24428Y66356D01*
X24368Y66323D01*
X24308Y66285D01*
X24303Y66280D01*
X24281Y66269D01*
X24253Y66241D01*
X24221Y66214D01*
X24182Y66171D01*
X24144Y66127D01*
X24106Y66072D01*
X24073Y66012D01*
X24068Y66007D01*
X24057Y65979D01*
X24046Y65947D01*
X24029Y65898D01*
X24013Y65837D01*
X23997Y65766D01*
X23991Y65684D01*
X23986Y65597D01*
Y65592D01*
Y65570D01*
Y65537D01*
X23991Y65493D01*
X23997Y65444D01*
X24008Y65390D01*
X24040Y65286D01*
Y65280D01*
X24051Y65264D01*
X24062Y65237D01*
X24079Y65204D01*
X24122Y65128D01*
X24182Y65046D01*
X24188Y65040D01*
X24199Y65029D01*
X24221Y65013D01*
X24242Y64991D01*
X24275Y64964D01*
X24314Y64937D01*
X24406Y64887D01*
X24412D01*
X24428Y64876D01*
X24455Y64865D01*
X24488Y64855D01*
X24532Y64838D01*
X24581Y64827D01*
X24690Y64800D01*
X24685D01*
X24668Y64795D01*
X24646Y64789D01*
X24619Y64778D01*
X24586Y64756D01*
X24548Y64735D01*
X24510Y64707D01*
X24472Y64669D01*
X24466Y64663D01*
X24455Y64647D01*
X24434Y64625D01*
X24412Y64587D01*
X24379Y64543D01*
X24346Y64489D01*
X24314Y64423D01*
X24275Y64352D01*
X23762Y63277D01*
X26088D01*
Y66487D01*
D02*
G37*
G36*
X19907D02*
X18111D01*
Y63277D01*
Y66487D01*
X19061D01*
X18111Y63277D01*
X18777D01*
X18957Y63910D01*
X20076D01*
X20257Y63277D01*
X20857D01*
X19907Y66487D01*
D02*
G37*
%LPD*%
G36*
X22883Y63277D02*
X21660D01*
X22277Y64456D01*
X22883Y63277D01*
D02*
G37*
G36*
X25482Y65079D02*
X25192D01*
X25154Y65084D01*
X25072Y65089D01*
X24985Y65106D01*
X24980D01*
X24963Y65111D01*
X24947Y65117D01*
X24919Y65128D01*
X24854Y65155D01*
X24794Y65193D01*
X24789Y65199D01*
X24778Y65204D01*
X24745Y65237D01*
X24707Y65280D01*
X24668Y65341D01*
Y65346D01*
X24663Y65357D01*
X24652Y65373D01*
X24641Y65401D01*
X24625Y65461D01*
X24619Y65543D01*
Y65548D01*
Y65553D01*
Y65581D01*
X24625Y65624D01*
X24636Y65674D01*
X24657Y65728D01*
X24685Y65783D01*
X24723Y65837D01*
X24772Y65881D01*
X24778Y65886D01*
X24799Y65898D01*
X24832Y65914D01*
X24881Y65936D01*
X24947Y65952D01*
X25023Y65968D01*
X25116Y65979D01*
X25220Y65985D01*
X25482D01*
Y65079D01*
D02*
G37*
G36*
Y63277D02*
X24472D01*
X24925Y64309D01*
Y64314D01*
X24936Y64330D01*
X24952Y64358D01*
X24969Y64390D01*
X25023Y64467D01*
X25062Y64500D01*
X25100Y64533D01*
X25105Y64538D01*
X25122Y64543D01*
X25143Y64554D01*
X25176Y64571D01*
X25214Y64587D01*
X25258Y64598D01*
X25313Y64603D01*
X25367Y64609D01*
X25482D01*
Y63277D01*
D02*
G37*
G36*
X19934Y64401D02*
X19094D01*
X19509Y65898D01*
X19934Y64401D01*
D02*
G37*
%LPC*%
G36*
X52602Y95923D02*
X49288D01*
Y93761D01*
Y94962D01*
X49293Y94913D01*
Y94848D01*
X49304Y94776D01*
X49315Y94700D01*
X49326Y94624D01*
X49348Y94547D01*
Y94536D01*
X49359Y94514D01*
X49370Y94476D01*
X49386Y94427D01*
X49408Y94378D01*
X49435Y94318D01*
X49468Y94263D01*
X49506Y94209D01*
X49512Y94203D01*
X49523Y94187D01*
X49544Y94160D01*
X49577Y94132D01*
X49615Y94099D01*
X49659Y94061D01*
X49708Y94029D01*
X49763Y94001D01*
X49768Y93996D01*
X49790Y93990D01*
X49817Y93979D01*
X49861Y93963D01*
X49910Y93952D01*
X49965Y93941D01*
X50030Y93936D01*
X50096Y93930D01*
X50101D01*
X50107D01*
X50123D01*
X50145D01*
X50194Y93936D01*
X50265Y93947D01*
X50336Y93963D01*
X50418Y93990D01*
X50494Y94023D01*
X50565Y94067D01*
X50571Y94072D01*
X50593Y94094D01*
X50625Y94121D01*
X50669Y94165D01*
X50713Y94220D01*
X50757Y94285D01*
X50806Y94356D01*
X50844Y94443D01*
Y94438D01*
X50849Y94416D01*
X50855Y94389D01*
X50866Y94351D01*
X50877Y94307D01*
X50893Y94258D01*
X50931Y94165D01*
Y94160D01*
X50942Y94143D01*
X50953Y94121D01*
X50975Y94089D01*
X51019Y94023D01*
X51084Y93952D01*
X51090Y93947D01*
X51100Y93936D01*
X51122Y93919D01*
X51144Y93897D01*
X51177Y93876D01*
X51215Y93854D01*
X51302Y93810D01*
X51308D01*
X51324Y93805D01*
X51346Y93794D01*
X51379Y93783D01*
X51423Y93777D01*
X51466Y93766D01*
X51575Y93761D01*
X51614D01*
X51657Y93766D01*
X51718Y93772D01*
X51783Y93783D01*
X51854Y93799D01*
X51930Y93821D01*
X52001Y93854D01*
X52012Y93859D01*
X52034Y93870D01*
X52067Y93892D01*
X52116Y93919D01*
X52165Y93958D01*
X52220Y94007D01*
X52274Y94061D01*
X52329Y94127D01*
X52334Y94132D01*
X52351Y94160D01*
X52373Y94198D01*
X52405Y94252D01*
X52438Y94318D01*
X52471Y94394D01*
X52504Y94487D01*
X52531Y94585D01*
Y94591D01*
X52536Y94596D01*
Y94613D01*
X52542Y94634D01*
X52553Y94689D01*
X52564Y94771D01*
X52580Y94864D01*
X52591Y94973D01*
X52596Y95099D01*
X52602Y95235D01*
Y95344D01*
X52596Y95410D01*
Y95443D01*
X52591Y95470D01*
Y95525D01*
X52586Y95596D01*
Y95628D01*
X52580Y95650D01*
X52575Y95705D01*
X52569Y95770D01*
Y95803D01*
X52564Y95819D01*
X52558Y95874D01*
X52553Y95923D01*
X52602D01*
D01*
D02*
G37*
G36*
X52553Y93499D02*
X49342D01*
Y90731D01*
D01*
X52553Y91719D01*
Y92516D01*
X49342Y93499D01*
X52553D01*
D01*
D02*
G37*
G36*
X52602Y90387D02*
X49288D01*
Y88225D01*
D01*
Y89426D01*
X49293Y89377D01*
Y89311D01*
X49304Y89240D01*
X49315Y89164D01*
X49326Y89087D01*
X49348Y89011D01*
Y89000D01*
X49359Y88978D01*
X49370Y88940D01*
X49386Y88891D01*
X49408Y88841D01*
X49435Y88781D01*
X49468Y88727D01*
X49506Y88672D01*
X49512Y88667D01*
X49523Y88650D01*
X49544Y88623D01*
X49577Y88596D01*
X49615Y88563D01*
X49659Y88525D01*
X49708Y88492D01*
X49763Y88465D01*
X49768Y88459D01*
X49790Y88454D01*
X49817Y88443D01*
X49861Y88427D01*
X49910Y88416D01*
X49965Y88405D01*
X50030Y88399D01*
X50096Y88394D01*
X50101D01*
X50107D01*
X50123D01*
X50145D01*
X50194Y88399D01*
X50265Y88410D01*
X50336Y88427D01*
X50418Y88454D01*
X50494Y88487D01*
X50565Y88530D01*
X50571Y88536D01*
X50593Y88558D01*
X50625Y88585D01*
X50669Y88629D01*
X50713Y88683D01*
X50757Y88749D01*
X50806Y88820D01*
X50844Y88907D01*
Y88902D01*
X50849Y88880D01*
X50855Y88852D01*
X50866Y88814D01*
X50877Y88771D01*
X50893Y88721D01*
X50931Y88629D01*
Y88623D01*
X50942Y88607D01*
X50953Y88585D01*
X50975Y88552D01*
X51019Y88487D01*
X51084Y88416D01*
X51090Y88410D01*
X51100Y88399D01*
X51122Y88383D01*
X51144Y88361D01*
X51177Y88339D01*
X51215Y88317D01*
X51302Y88274D01*
X51308D01*
X51324Y88268D01*
X51346Y88257D01*
X51379Y88246D01*
X51423Y88241D01*
X51466Y88230D01*
X51575Y88225D01*
X51614D01*
X51657Y88230D01*
X51718Y88235D01*
X51783Y88246D01*
X51854Y88263D01*
X51930Y88285D01*
X52001Y88317D01*
X52012Y88323D01*
X52034Y88334D01*
X52067Y88355D01*
X52116Y88383D01*
X52165Y88421D01*
X52220Y88470D01*
X52274Y88525D01*
X52329Y88590D01*
X52334Y88596D01*
X52351Y88623D01*
X52373Y88661D01*
X52405Y88716D01*
X52438Y88781D01*
X52471Y88858D01*
X52504Y88951D01*
X52531Y89049D01*
Y89054D01*
X52536Y89060D01*
Y89076D01*
X52542Y89098D01*
X52553Y89153D01*
X52564Y89235D01*
X52580Y89327D01*
X52591Y89437D01*
X52596Y89562D01*
X52602Y89699D01*
Y89808D01*
X52596Y89873D01*
Y89906D01*
X52591Y89934D01*
Y89988D01*
X52586Y90059D01*
Y90092D01*
X52580Y90114D01*
X52575Y90168D01*
X52569Y90234D01*
Y90267D01*
X52564Y90283D01*
X52558Y90338D01*
X52553Y90387D01*
X52602D01*
D01*
D02*
G37*
%LPD*%
G36*
X52034Y95918D02*
X52040Y95896D01*
X52045Y95863D01*
X52051Y95825D01*
X52061Y95770D01*
X52067Y95716D01*
X52078Y95650D01*
X52083Y95579D01*
Y95546D01*
X52089Y95508D01*
Y95459D01*
X52094Y95399D01*
Y95328D01*
X52100Y95252D01*
Y95104D01*
X52094Y95055D01*
Y95000D01*
X52083Y94940D01*
X52067Y94826D01*
Y94820D01*
X52061Y94798D01*
X52051Y94776D01*
X52040Y94738D01*
X52012Y94662D01*
X51969Y94585D01*
X51963Y94580D01*
X51958Y94569D01*
X51941Y94553D01*
X51925Y94531D01*
X51876Y94482D01*
X51810Y94443D01*
X51805D01*
X51794Y94438D01*
X51772Y94427D01*
X51745Y94416D01*
X51712Y94411D01*
X51674Y94400D01*
X51592Y94394D01*
X51586D01*
X51575D01*
X51554D01*
X51526Y94400D01*
X51466Y94416D01*
X51401Y94443D01*
X51395D01*
X51384Y94454D01*
X51368Y94465D01*
X51352Y94482D01*
X51302Y94525D01*
X51253Y94591D01*
X51248Y94596D01*
X51242Y94607D01*
X51231Y94629D01*
X51221Y94656D01*
X51204Y94689D01*
X51188Y94733D01*
X51171Y94776D01*
X51161Y94831D01*
Y94837D01*
X51155Y94858D01*
X51150Y94886D01*
X51139Y94929D01*
X51133Y94978D01*
X51128Y95039D01*
X51122Y95110D01*
Y95535D01*
X50664D01*
Y95142D01*
X50658Y95099D01*
Y95044D01*
X50647Y94995D01*
X50642Y94940D01*
X50631Y94891D01*
Y94886D01*
X50625Y94869D01*
X50615Y94848D01*
X50604Y94820D01*
X50571Y94755D01*
X50527Y94689D01*
X50522Y94684D01*
X50516Y94678D01*
X50484Y94646D01*
X50434Y94613D01*
X50374Y94580D01*
X50369D01*
X50358Y94574D01*
X50342Y94569D01*
X50320Y94564D01*
X50260Y94553D01*
X50194Y94547D01*
X50183D01*
X50161D01*
X50129Y94553D01*
X50085Y94564D01*
X50036Y94580D01*
X49987Y94602D01*
X49937Y94634D01*
X49894Y94678D01*
X49888Y94684D01*
X49877Y94700D01*
X49861Y94733D01*
X49839Y94776D01*
X49823Y94831D01*
X49806Y94897D01*
X49795Y94978D01*
X49790Y95071D01*
Y95142D01*
X49795Y95192D01*
X49801Y95252D01*
X49806Y95317D01*
X49828Y95454D01*
Y95459D01*
X49834Y95486D01*
X49845Y95525D01*
X49856Y95568D01*
X49867Y95628D01*
X49888Y95694D01*
X49927Y95836D01*
X49424D01*
Y95830D01*
X49419Y95819D01*
X49413Y95797D01*
X49402Y95770D01*
X49386Y95699D01*
X49370Y95628D01*
Y95623D01*
X49364Y95612D01*
X49359Y95590D01*
X49353Y95563D01*
X49337Y95497D01*
X49326Y95426D01*
Y95421D01*
X49321Y95410D01*
Y95388D01*
X49315Y95361D01*
X49304Y95295D01*
X49299Y95224D01*
Y95208D01*
X49293Y95186D01*
Y95159D01*
X49288Y95088D01*
Y95923D01*
X52034D01*
Y95918D01*
D02*
G37*
G36*
X51281Y92270D02*
X51914Y92096D01*
X51242Y91916D01*
X49342Y91375D01*
Y92811D01*
X51281Y92270D01*
D02*
G37*
G36*
X52034Y90381D02*
X52040Y90359D01*
X52045Y90327D01*
X52051Y90288D01*
X52061Y90234D01*
X52067Y90179D01*
X52078Y90114D01*
X52083Y90043D01*
Y90010D01*
X52089Y89972D01*
Y89923D01*
X52094Y89863D01*
Y89792D01*
X52100Y89715D01*
Y89568D01*
X52094Y89518D01*
Y89464D01*
X52083Y89404D01*
X52067Y89289D01*
Y89284D01*
X52061Y89262D01*
X52051Y89240D01*
X52040Y89202D01*
X52012Y89125D01*
X51969Y89049D01*
X51963Y89043D01*
X51958Y89033D01*
X51941Y89016D01*
X51925Y88994D01*
X51876Y88945D01*
X51810Y88907D01*
X51805D01*
X51794Y88902D01*
X51772Y88891D01*
X51745Y88880D01*
X51712Y88874D01*
X51674Y88863D01*
X51592Y88858D01*
X51586D01*
X51575D01*
X51554D01*
X51526Y88863D01*
X51466Y88880D01*
X51401Y88907D01*
X51395D01*
X51384Y88918D01*
X51368Y88929D01*
X51352Y88945D01*
X51302Y88989D01*
X51253Y89054D01*
X51248Y89060D01*
X51242Y89071D01*
X51231Y89093D01*
X51221Y89120D01*
X51204Y89153D01*
X51188Y89196D01*
X51171Y89240D01*
X51161Y89295D01*
Y89300D01*
X51155Y89322D01*
X51150Y89349D01*
X51139Y89393D01*
X51133Y89442D01*
X51128Y89502D01*
X51122Y89573D01*
Y89999D01*
X50664D01*
Y89606D01*
X50658Y89562D01*
Y89508D01*
X50647Y89459D01*
X50642Y89404D01*
X50631Y89355D01*
Y89349D01*
X50625Y89333D01*
X50615Y89311D01*
X50604Y89284D01*
X50571Y89218D01*
X50527Y89153D01*
X50522Y89147D01*
X50516Y89142D01*
X50484Y89109D01*
X50434Y89076D01*
X50374Y89043D01*
X50369D01*
X50358Y89038D01*
X50342Y89033D01*
X50320Y89027D01*
X50260Y89016D01*
X50194Y89011D01*
X50183D01*
X50161D01*
X50129Y89016D01*
X50085Y89027D01*
X50036Y89043D01*
X49987Y89065D01*
X49937Y89098D01*
X49894Y89142D01*
X49888Y89147D01*
X49877Y89164D01*
X49861Y89196D01*
X49839Y89240D01*
X49823Y89295D01*
X49806Y89360D01*
X49795Y89442D01*
X49790Y89535D01*
Y89606D01*
X49795Y89655D01*
X49801Y89715D01*
X49806Y89781D01*
X49828Y89917D01*
Y89923D01*
X49834Y89950D01*
X49845Y89988D01*
X49856Y90032D01*
X49867Y90092D01*
X49888Y90157D01*
X49927Y90299D01*
X49424D01*
Y90294D01*
X49419Y90283D01*
X49413Y90261D01*
X49402Y90234D01*
X49386Y90163D01*
X49370Y90092D01*
Y90086D01*
X49364Y90075D01*
X49359Y90054D01*
X49353Y90026D01*
X49337Y89961D01*
X49326Y89890D01*
Y89884D01*
X49321Y89873D01*
Y89852D01*
X49315Y89824D01*
X49304Y89759D01*
X49299Y89688D01*
Y89671D01*
X49293Y89650D01*
Y89622D01*
X49288Y89551D01*
Y90387D01*
X52034D01*
Y90381D01*
D02*
G37*
%LPC*%
G36*
X103282Y5542D02*
X101049D01*
Y2332D01*
Y5018D01*
X102343Y2332D01*
X103282D01*
X103025D01*
X101742Y4964D01*
X103282D01*
Y5542D01*
D02*
G37*
G36*
X20710Y44219D02*
D01*
Y42641D01*
X20704Y42685D01*
X20699Y42777D01*
X20688Y42887D01*
X20677Y43007D01*
X20655Y43127D01*
X20628Y43247D01*
Y43253D01*
X20622Y43263D01*
X20617Y43280D01*
X20612Y43302D01*
X20590Y43356D01*
X20562Y43427D01*
X20530Y43515D01*
X20486Y43602D01*
X20437Y43689D01*
X20377Y43771D01*
X20371Y43782D01*
X20344Y43809D01*
X20311Y43848D01*
X20262Y43897D01*
X20202Y43951D01*
X20131Y44006D01*
X20055Y44055D01*
X19967Y44104D01*
X19962D01*
X19956Y44110D01*
X19924Y44121D01*
X19874Y44142D01*
X19809Y44164D01*
X19727Y44181D01*
X19634Y44203D01*
X19531Y44214D01*
X19421Y44219D01*
X19378D01*
X19329Y44214D01*
X19263Y44208D01*
X19186Y44197D01*
X19105Y44175D01*
X19023Y44153D01*
X18935Y44121D01*
X18924Y44115D01*
X18897Y44104D01*
X18854Y44082D01*
X18804Y44050D01*
X18744Y44006D01*
X18679Y43957D01*
X18613Y43897D01*
X18553Y43826D01*
X18548Y43815D01*
X18526Y43793D01*
X18499Y43749D01*
X18460Y43689D01*
X18417Y43618D01*
X18373Y43531D01*
X18335Y43427D01*
X18296Y43318D01*
Y43312D01*
X18291Y43302D01*
X18286Y43285D01*
X18280Y43263D01*
X18275Y43231D01*
X18269Y43198D01*
X18258Y43154D01*
X18247Y43110D01*
X18231Y43001D01*
X18220Y42870D01*
X18209Y42728D01*
X18204Y42570D01*
Y42472D01*
X18209Y42428D01*
X18215Y42335D01*
X18226Y42226D01*
X18242Y42106D01*
X18264Y41986D01*
X18291Y41866D01*
Y41860D01*
X18296Y41855D01*
X18302Y41838D01*
X18307Y41816D01*
X18329Y41756D01*
X18357Y41686D01*
X18389Y41598D01*
X18439Y41511D01*
X18488Y41423D01*
X18548Y41336D01*
X18553Y41325D01*
X18575Y41303D01*
X18613Y41265D01*
X18657Y41216D01*
X18717Y41161D01*
X18788Y41107D01*
X18864Y41058D01*
X18952Y41008D01*
X18963Y41003D01*
X18995Y40992D01*
X19045Y40976D01*
X19105Y40954D01*
X19186Y40932D01*
X19279Y40916D01*
X19383Y40905D01*
X19492Y40899D01*
X18204D01*
D01*
X20710D01*
Y44219D01*
D02*
G37*
G36*
X25995Y44164D02*
D01*
Y41489D01*
X25990D01*
X25973Y41483D01*
X25940Y41478D01*
X25902Y41467D01*
X25859Y41456D01*
X25804Y41445D01*
X25744Y41440D01*
X25678Y41429D01*
X25646D01*
X25607Y41423D01*
X25564D01*
X25504Y41418D01*
X25444D01*
X25307Y41412D01*
X25247D01*
X25214Y41418D01*
X25182D01*
X25100Y41429D01*
X25007Y41445D01*
X24914Y41473D01*
X24821Y41505D01*
X24745Y41549D01*
X24734Y41554D01*
X24712Y41576D01*
X24685Y41609D01*
X24646Y41653D01*
X24608Y41707D01*
X24581Y41773D01*
X24559Y41855D01*
X24548Y41942D01*
Y41948D01*
Y41953D01*
Y41986D01*
X24559Y42030D01*
X24570Y42084D01*
X24592Y42150D01*
X24625Y42210D01*
X24668Y42270D01*
X24728Y42324D01*
X24739Y42330D01*
X24761Y42346D01*
X24805Y42368D01*
X24870Y42390D01*
X24947Y42412D01*
X25051Y42434D01*
X25165Y42450D01*
X25307Y42455D01*
X25935D01*
Y44164D01*
X24079D01*
Y43597D01*
X25373D01*
Y42947D01*
X25056D01*
X24991Y42941D01*
X24919Y42936D01*
X24843Y42925D01*
X24674Y42898D01*
X24663D01*
X24636Y42887D01*
X24592Y42876D01*
X24543Y42865D01*
X24477Y42843D01*
X24412Y42816D01*
X24346Y42783D01*
X24281Y42745D01*
X24275Y42739D01*
X24253Y42723D01*
X24221Y42701D01*
X24182Y42668D01*
X24139Y42625D01*
X24095Y42575D01*
X24051Y42515D01*
X24008Y42450D01*
X24002Y42439D01*
X23991Y42417D01*
X23975Y42379D01*
X23953Y42324D01*
X23937Y42253D01*
X23920Y42171D01*
X23909Y42084D01*
X23904Y41980D01*
Y41937D01*
X23909Y41888D01*
X23915Y41822D01*
X23931Y41751D01*
X23948Y41675D01*
X23975Y41593D01*
X24013Y41516D01*
X24019Y41505D01*
X24035Y41483D01*
X24057Y41445D01*
X24090Y41401D01*
X24133Y41347D01*
X24188Y41292D01*
X24248Y41238D01*
X24314Y41183D01*
X24324Y41178D01*
X24346Y41161D01*
X24390Y41134D01*
X24439Y41107D01*
X24510Y41074D01*
X24586Y41036D01*
X24674Y41003D01*
X24767Y40976D01*
X24772D01*
X24778Y40970D01*
X24794D01*
X24810Y40965D01*
X24865Y40954D01*
X24936Y40943D01*
X25018Y40927D01*
X25116Y40916D01*
X25220Y40910D01*
X25335Y40905D01*
X23904D01*
D01*
X25995D01*
Y44164D01*
D02*
G37*
G36*
X23609D02*
D01*
Y40954D01*
X22626D01*
X23609Y44164D01*
X22921D01*
X22381Y42226D01*
X22206Y41593D01*
X22026Y42264D01*
X21485Y44164D01*
X20841D01*
D01*
X21829Y40954D01*
X20841D01*
D01*
X23609D01*
Y44164D01*
D02*
G37*
%LPD*%
G36*
X19509Y43722D02*
X19541Y43717D01*
X19580Y43711D01*
X19623Y43700D01*
X19672Y43678D01*
X19716Y43657D01*
X19722Y43651D01*
X19733Y43646D01*
X19754Y43624D01*
X19782Y43602D01*
X19814Y43575D01*
X19847Y43536D01*
X19885Y43493D01*
X19918Y43438D01*
X19924Y43433D01*
X19934Y43411D01*
X19951Y43383D01*
X19967Y43340D01*
X19989Y43285D01*
X20011Y43225D01*
X20033Y43154D01*
X20055Y43078D01*
Y43067D01*
X20060Y43040D01*
X20071Y42990D01*
X20076Y42930D01*
X20087Y42854D01*
X20098Y42767D01*
X20104Y42668D01*
Y42559D01*
Y42554D01*
Y42532D01*
Y42499D01*
Y42466D01*
Y42461D01*
Y42444D01*
Y42417D01*
Y42384D01*
X18903Y43253D01*
Y43258D01*
X18908Y43263D01*
X18919Y43291D01*
X18935Y43334D01*
X18963Y43389D01*
X18995Y43444D01*
X19034Y43504D01*
X19077Y43558D01*
X19126Y43607D01*
X19132Y43613D01*
X19154Y43624D01*
X19181Y43646D01*
X19219Y43668D01*
X19268Y43689D01*
X19329Y43711D01*
X19388Y43722D01*
X19459Y43727D01*
X19481D01*
X19509Y43722D01*
D02*
G37*
G36*
X20011Y41855D02*
X20006Y41844D01*
X19995Y41816D01*
X19978Y41773D01*
X19956Y41718D01*
X19924Y41664D01*
X19885Y41604D01*
X19842Y41549D01*
X19793Y41500D01*
X19787Y41494D01*
X19765Y41483D01*
X19738Y41467D01*
X19700Y41445D01*
X19651Y41423D01*
X19590Y41407D01*
X19531Y41396D01*
X19459Y41391D01*
X19438D01*
X19410Y41396D01*
X19378Y41401D01*
X19339Y41407D01*
X19296Y41418D01*
X19247Y41434D01*
X19203Y41456D01*
X19197Y41462D01*
X19181Y41467D01*
X19159Y41489D01*
X19132Y41511D01*
X19099Y41538D01*
X19066Y41576D01*
X19028Y41620D01*
X18995Y41669D01*
X18990Y41675D01*
X18979Y41696D01*
X18963Y41729D01*
X18946Y41773D01*
X18924Y41822D01*
X18903Y41888D01*
X18881Y41958D01*
X18859Y42035D01*
Y42046D01*
X18854Y42073D01*
X18843Y42122D01*
X18832Y42182D01*
X18826Y42259D01*
X18815Y42346D01*
X18810Y42439D01*
Y42548D01*
Y42554D01*
Y42575D01*
Y42603D01*
X18815Y42630D01*
Y42636D01*
Y42657D01*
Y42685D01*
Y42717D01*
X20011Y41855D01*
D02*
G37*
G36*
X20710Y40899D02*
X19536D01*
X19590Y40905D01*
X19656Y40910D01*
X19727Y40921D01*
X19814Y40938D01*
X19896Y40959D01*
X19984Y40992D01*
X19995Y40997D01*
X20022Y41008D01*
X20066Y41030D01*
X20115Y41063D01*
X20175Y41101D01*
X20240Y41156D01*
X20306Y41210D01*
X20371Y41281D01*
X20377Y41292D01*
X20399Y41320D01*
X20426Y41363D01*
X20464Y41423D01*
X20502Y41494D01*
X20546Y41582D01*
X20584Y41686D01*
X20622Y41795D01*
Y41800D01*
X20628Y41811D01*
Y41827D01*
X20633Y41849D01*
X20644Y41882D01*
X20650Y41915D01*
X20655Y41958D01*
X20666Y42008D01*
X20683Y42117D01*
X20694Y42242D01*
X20704Y42384D01*
X20710Y42543D01*
Y40899D01*
D02*
G37*
G36*
X25995Y40905D02*
X25438D01*
X25498Y40910D01*
X25531D01*
X25553Y40916D01*
X25607Y40921D01*
X25673Y40927D01*
X25706D01*
X25728Y40932D01*
X25782Y40938D01*
X25842Y40943D01*
X25859D01*
X25870Y40948D01*
X25891D01*
X25940Y40959D01*
X25995Y40965D01*
Y40905D01*
D02*
G37*
%LPC*%
G36*
X53263Y5570D02*
X51068D01*
D01*
X52187D01*
X52144Y5564D01*
X52083D01*
X52018Y5553D01*
X51947Y5542D01*
X51871Y5526D01*
X51799Y5504D01*
X51789D01*
X51767Y5493D01*
X51734Y5477D01*
X51685Y5460D01*
X51636Y5433D01*
X51581Y5400D01*
X51526Y5367D01*
X51472Y5324D01*
X51467Y5318D01*
X51450Y5302D01*
X51423Y5280D01*
X51395Y5242D01*
X51357Y5204D01*
X51324Y5149D01*
X51292Y5094D01*
X51259Y5029D01*
X51253Y5023D01*
X51248Y4996D01*
X51237Y4964D01*
X51221Y4914D01*
X51204Y4854D01*
X51193Y4783D01*
X51188Y4707D01*
X51183Y4625D01*
Y4614D01*
Y4592D01*
Y4554D01*
X51188Y4510D01*
X51193Y4456D01*
X51204Y4390D01*
X51237Y4265D01*
Y4259D01*
X51248Y4237D01*
X51259Y4205D01*
X51275Y4161D01*
X51297Y4112D01*
X51319Y4057D01*
X51385Y3943D01*
X51390Y3937D01*
X51401Y3915D01*
X51423Y3888D01*
X51450Y3844D01*
X51488Y3801D01*
X51532Y3746D01*
X51576Y3691D01*
X51630Y3631D01*
X51636Y3626D01*
X51658Y3604D01*
X51685Y3571D01*
X51723Y3533D01*
X51772Y3478D01*
X51827Y3424D01*
X51892Y3364D01*
X51958Y3298D01*
X52422Y2856D01*
X51068D01*
Y2304D01*
X53246D01*
Y2741D01*
X52493Y3506D01*
X52482Y3517D01*
X52455Y3544D01*
X52416Y3582D01*
X52367Y3631D01*
X52313Y3691D01*
X52258Y3751D01*
X52198Y3811D01*
X52149Y3872D01*
X52144Y3877D01*
X52127Y3899D01*
X52105Y3926D01*
X52073Y3964D01*
X52045Y4008D01*
X52012Y4052D01*
X51980Y4101D01*
X51952Y4144D01*
X51947Y4150D01*
X51942Y4166D01*
X51931Y4188D01*
X51914Y4221D01*
X51881Y4292D01*
X51860Y4374D01*
Y4379D01*
X51854Y4390D01*
X51849Y4412D01*
X51843Y4439D01*
X51838Y4510D01*
X51832Y4587D01*
Y4592D01*
Y4603D01*
Y4620D01*
X51838Y4641D01*
X51843Y4701D01*
X51865Y4761D01*
Y4767D01*
X51871Y4778D01*
X51887Y4811D01*
X51914Y4854D01*
X51952Y4903D01*
Y4909D01*
X51963Y4914D01*
X51991Y4936D01*
X52034Y4969D01*
X52094Y4996D01*
X52100D01*
X52111Y5002D01*
X52127Y5007D01*
X52149Y5018D01*
X52214Y5029D01*
X52291Y5034D01*
X52324D01*
X52356Y5029D01*
X52406Y5023D01*
X52460Y5013D01*
X52515Y5002D01*
X52580Y4980D01*
X52640Y4953D01*
X52646Y4947D01*
X52668Y4936D01*
X52700Y4920D01*
X52739Y4893D01*
X52788Y4865D01*
X52837Y4827D01*
X52891Y4783D01*
X52946Y4734D01*
X53263Y5138D01*
X53252Y5149D01*
X53225Y5171D01*
X53181Y5209D01*
X53126Y5253D01*
X53055Y5302D01*
X52979Y5351D01*
X52886Y5406D01*
X52793Y5449D01*
X52788D01*
X52782Y5455D01*
X52766Y5460D01*
X52750Y5466D01*
X52695Y5488D01*
X52624Y5509D01*
X52537Y5531D01*
X52444Y5553D01*
X52340Y5564D01*
X52225Y5570D01*
X53263D01*
D02*
G37*
G36*
X72474Y95950D02*
X71800D01*
X71878D01*
Y95945D01*
X71884Y95929D01*
X71895Y95907D01*
X71906Y95879D01*
X71917Y95847D01*
X71928Y95808D01*
X71955Y95721D01*
Y95716D01*
X71960Y95699D01*
X71966Y95672D01*
X71977Y95645D01*
X71982Y95606D01*
X71993Y95563D01*
X72015Y95470D01*
Y95464D01*
X72021Y95448D01*
X72026Y95426D01*
X72031Y95394D01*
X72037Y95355D01*
X72042Y95312D01*
X72059Y95224D01*
Y95202D01*
X72064Y95180D01*
Y95148D01*
X72070Y95071D01*
Y94924D01*
X72064Y94880D01*
Y94837D01*
X72059Y94787D01*
X72042Y94689D01*
Y94684D01*
X72037Y94667D01*
X72031Y94646D01*
X72021Y94618D01*
X71999Y94553D01*
X71966Y94493D01*
Y94487D01*
X71955Y94482D01*
X71928Y94449D01*
X71890Y94416D01*
X71840Y94383D01*
X71835D01*
X71829Y94378D01*
X71791Y94362D01*
X71742Y94351D01*
X71682Y94345D01*
X71676D01*
X71660D01*
X71638Y94351D01*
X71611Y94356D01*
X71545Y94372D01*
X71518Y94394D01*
X71485Y94416D01*
X71480Y94422D01*
X71469Y94427D01*
X71458Y94443D01*
X71436Y94465D01*
X71393Y94520D01*
X71343Y94596D01*
X71338Y94602D01*
X71333Y94613D01*
X71322Y94640D01*
X71305Y94667D01*
X71289Y94705D01*
X71272Y94749D01*
X71234Y94848D01*
Y94853D01*
X71223Y94869D01*
X71218Y94902D01*
X71201Y94935D01*
X71185Y94978D01*
X71169Y95028D01*
X71131Y95137D01*
X71125Y95142D01*
X71120Y95159D01*
X71109Y95192D01*
X71092Y95224D01*
X71070Y95268D01*
X71049Y95317D01*
X70999Y95421D01*
X70994Y95426D01*
X70989Y95443D01*
X70972Y95470D01*
X70950Y95508D01*
X70896Y95590D01*
X70825Y95677D01*
X70819Y95683D01*
X70803Y95694D01*
X70781Y95716D01*
X70754Y95737D01*
X70716Y95770D01*
X70672Y95797D01*
X70574Y95852D01*
X70568D01*
X70546Y95863D01*
X70513Y95874D01*
X70475Y95885D01*
X70421Y95896D01*
X70361Y95907D01*
X70295Y95912D01*
X70219Y95918D01*
X70208D01*
X70186D01*
X70148Y95912D01*
X70104Y95907D01*
X70044Y95901D01*
X69984Y95890D01*
X69924Y95874D01*
X69858Y95852D01*
X69853Y95847D01*
X69831Y95841D01*
X69798Y95819D01*
X69760Y95797D01*
X69711Y95765D01*
X69662Y95732D01*
X69613Y95683D01*
X69564Y95634D01*
X69558Y95628D01*
X69542Y95606D01*
X69520Y95574D01*
X69493Y95530D01*
X69460Y95475D01*
X69427Y95410D01*
X69394Y95339D01*
X69362Y95257D01*
Y95252D01*
X69356Y95246D01*
X69351Y95213D01*
X69340Y95164D01*
X69323Y95099D01*
X69307Y95017D01*
X69296Y94919D01*
X69291Y94815D01*
X69285Y94695D01*
Y94733D01*
Y94695D01*
Y94634D01*
X69291Y94574D01*
X69296Y94498D01*
Y94482D01*
X69301Y94460D01*
Y94432D01*
X69312Y94362D01*
X69323Y94291D01*
Y94274D01*
X69329Y94252D01*
Y94225D01*
X69340Y94165D01*
X69356Y94094D01*
Y94078D01*
X69362Y94056D01*
X69367Y94034D01*
X69378Y93974D01*
X69389Y93914D01*
X69940D01*
Y93919D01*
X69935Y93930D01*
X69929Y93947D01*
X69924Y93968D01*
X69907Y94023D01*
X69891Y94089D01*
Y94094D01*
X69886Y94105D01*
X69880Y94121D01*
X69875Y94149D01*
X69858Y94209D01*
X69847Y94285D01*
Y94291D01*
X69842Y94301D01*
Y94323D01*
X69836Y94345D01*
X69826Y94411D01*
X69815Y94487D01*
Y94503D01*
X69809Y94525D01*
Y94547D01*
X69804Y94607D01*
Y94733D01*
X69809Y94771D01*
X69815Y94858D01*
X69831Y94951D01*
Y94957D01*
X69836Y94968D01*
X69842Y94989D01*
X69853Y95017D01*
X69875Y95071D01*
X69907Y95131D01*
Y95137D01*
X69913Y95142D01*
X69935Y95170D01*
X69973Y95202D01*
X70017Y95235D01*
X70022D01*
X70028Y95241D01*
X70060Y95246D01*
X70104Y95257D01*
X70164Y95262D01*
X70170D01*
X70180D01*
X70197Y95257D01*
X70224Y95252D01*
X70279Y95235D01*
X70311Y95219D01*
X70339Y95197D01*
X70344Y95192D01*
X70350Y95186D01*
X70366Y95170D01*
X70382Y95148D01*
X70426Y95093D01*
X70470Y95022D01*
Y95017D01*
X70481Y95000D01*
X70492Y94978D01*
X70503Y94946D01*
X70519Y94907D01*
X70535Y94864D01*
X70574Y94766D01*
Y94760D01*
X70584Y94738D01*
X70590Y94711D01*
X70606Y94678D01*
X70623Y94634D01*
X70639Y94585D01*
X70683Y94476D01*
Y94471D01*
X70694Y94449D01*
X70705Y94422D01*
X70721Y94383D01*
X70737Y94334D01*
X70759Y94285D01*
X70814Y94181D01*
X70819Y94176D01*
X70825Y94160D01*
X70841Y94132D01*
X70863Y94094D01*
X70918Y94018D01*
X70994Y93930D01*
X70999Y93925D01*
X71010Y93908D01*
X71032Y93892D01*
X71065Y93865D01*
X71103Y93837D01*
X71141Y93805D01*
X71191Y93777D01*
X71245Y93750D01*
X71251Y93745D01*
X71272Y93739D01*
X71300Y93728D01*
X71338Y93712D01*
X71393Y93701D01*
X71447Y93690D01*
X71513Y93685D01*
X71584Y93679D01*
X69285D01*
D01*
X72605D01*
X71627D01*
X71676Y93685D01*
X71737Y93690D01*
X71813Y93701D01*
X71890Y93723D01*
X71966Y93745D01*
X72042Y93777D01*
X72053Y93783D01*
X72075Y93794D01*
X72108Y93815D01*
X72151Y93848D01*
X72206Y93887D01*
X72255Y93936D01*
X72310Y93990D01*
X72359Y94050D01*
X72364Y94056D01*
X72381Y94083D01*
X72403Y94116D01*
X72430Y94170D01*
X72457Y94231D01*
X72490Y94301D01*
X72517Y94383D01*
X72545Y94471D01*
Y94482D01*
X72556Y94514D01*
X72561Y94564D01*
X72572Y94624D01*
X72583Y94705D01*
X72594Y94793D01*
X72599Y94891D01*
X72605Y94995D01*
Y95088D01*
X72599Y95148D01*
Y95224D01*
X72588Y95306D01*
X72572Y95486D01*
Y95497D01*
X72566Y95525D01*
X72561Y95574D01*
X72550Y95634D01*
X72534Y95705D01*
X72517Y95781D01*
X72474Y95950D01*
D02*
G37*
G36*
X72594Y93220D02*
X69291D01*
X70923D01*
X70890Y93215D01*
X70847D01*
X70754Y93209D01*
X70639Y93199D01*
X70519Y93177D01*
X70393Y93155D01*
X70273Y93122D01*
X70268D01*
X70257Y93117D01*
X70240Y93111D01*
X70219Y93100D01*
X70164Y93078D01*
X70088Y93046D01*
X70006Y93002D01*
X69913Y92953D01*
X69826Y92893D01*
X69738Y92827D01*
X69727Y92816D01*
X69700Y92795D01*
X69662Y92751D01*
X69613Y92696D01*
X69558Y92625D01*
X69503Y92543D01*
X69454Y92456D01*
X69405Y92358D01*
Y92352D01*
X69400Y92347D01*
X69394Y92330D01*
X69389Y92309D01*
X69367Y92254D01*
X69345Y92177D01*
X69329Y92090D01*
X69307Y91986D01*
X69296Y91872D01*
X69291Y91746D01*
Y91834D01*
Y91746D01*
Y91610D01*
X69296Y91539D01*
Y91501D01*
X69301Y91479D01*
X69307Y91419D01*
X69318Y91348D01*
Y91331D01*
X69323Y91315D01*
Y91288D01*
X69334Y91228D01*
X69351Y91157D01*
Y91151D01*
X69356Y91140D01*
X69362Y91118D01*
X69367Y91097D01*
X69383Y91031D01*
X69405Y90955D01*
X69291D01*
X70837D01*
X70006D01*
X70000Y90965D01*
X69989Y90993D01*
X69973Y91031D01*
X69951Y91085D01*
X69929Y91146D01*
X69907Y91217D01*
X69869Y91359D01*
Y91364D01*
X69864Y91391D01*
X69853Y91424D01*
X69847Y91468D01*
X69836Y91522D01*
X69831Y91577D01*
X69826Y91697D01*
Y91735D01*
X69831Y91779D01*
X69836Y91834D01*
X69847Y91894D01*
X69864Y91959D01*
X69886Y92025D01*
X69913Y92090D01*
X69918Y92096D01*
X69929Y92118D01*
X69946Y92145D01*
X69973Y92183D01*
X70006Y92227D01*
X70044Y92270D01*
X70088Y92314D01*
X70142Y92358D01*
X70148Y92363D01*
X70170Y92374D01*
X70202Y92391D01*
X70240Y92418D01*
X70295Y92440D01*
X70355Y92467D01*
X70421Y92489D01*
X70497Y92511D01*
X70508D01*
X70530Y92516D01*
X70574Y92522D01*
X70628Y92532D01*
X70694Y92538D01*
X70770Y92549D01*
X70858Y92554D01*
X70945D01*
X70950D01*
X70956D01*
X70989D01*
X71038Y92549D01*
X71103D01*
X71174Y92543D01*
X71251Y92532D01*
X71414Y92505D01*
X71425D01*
X71447Y92494D01*
X71485Y92483D01*
X71535Y92467D01*
X71589Y92445D01*
X71644Y92418D01*
X71704Y92391D01*
X71758Y92352D01*
X71764Y92347D01*
X71780Y92330D01*
X71808Y92309D01*
X71840Y92276D01*
X71873Y92238D01*
X71911Y92189D01*
X71944Y92139D01*
X71977Y92079D01*
X71982Y92074D01*
X71988Y92052D01*
X71999Y92014D01*
X72010Y91970D01*
X72026Y91910D01*
X72037Y91844D01*
X72042Y91773D01*
X72048Y91692D01*
Y91637D01*
X72042Y91582D01*
X72037Y91517D01*
Y91511D01*
X72031Y91501D01*
Y91479D01*
X72026Y91457D01*
X72010Y91397D01*
X71993Y91326D01*
Y91320D01*
X71988Y91309D01*
X71982Y91288D01*
X71977Y91266D01*
X71955Y91206D01*
X71933Y91135D01*
Y91129D01*
X71928Y91118D01*
X71917Y91097D01*
X71911Y91075D01*
X71884Y91015D01*
X71857Y90955D01*
X72425D01*
X72430Y90965D01*
X72441Y90993D01*
X72452Y91036D01*
X72474Y91091D01*
X72496Y91151D01*
X72512Y91222D01*
X72550Y91375D01*
Y91386D01*
X72556Y91408D01*
X72561Y91446D01*
X72572Y91501D01*
X72577Y91561D01*
X72588Y91632D01*
X72594Y91708D01*
Y91309D01*
Y91708D01*
Y91850D01*
X72588Y91877D01*
Y91910D01*
X72583Y91997D01*
X72572Y92090D01*
X72550Y92194D01*
X72528Y92298D01*
X72496Y92401D01*
Y92407D01*
X72490Y92412D01*
X72474Y92445D01*
X72452Y92494D01*
X72419Y92560D01*
X72375Y92631D01*
X72321Y92707D01*
X72261Y92784D01*
X72190Y92855D01*
X72179Y92860D01*
X72151Y92882D01*
X72108Y92915D01*
X72053Y92958D01*
X71977Y93002D01*
X71895Y93046D01*
X71797Y93089D01*
X71693Y93128D01*
X71687D01*
X71676Y93133D01*
X71660Y93138D01*
X71638Y93144D01*
X71611Y93149D01*
X71578Y93155D01*
X71491Y93171D01*
X71393Y93193D01*
X71272Y93204D01*
X71136Y93215D01*
X70994Y93220D01*
X72594D01*
D02*
G37*
G36*
X71857Y90955D02*
X70837D01*
X71857D01*
D01*
D02*
G37*
G36*
X72550Y90168D02*
X69340D01*
Y89551D01*
X72031D01*
Y88197D01*
X69340D01*
X72550D01*
Y90168D01*
D02*
G37*
G36*
X72198Y5542D02*
X71368D01*
Y3517D01*
X70882D01*
Y2332D01*
X73448D01*
X71958D01*
Y2987D01*
X73448D01*
Y3500D01*
X72198Y5542D01*
D02*
G37*
%LPD*%
G36*
X72864Y3517D02*
X71947D01*
Y4958D01*
X72864Y3517D01*
D02*
G37*
G36*
X71368Y2332D02*
X70882D01*
Y2987D01*
X71368D01*
Y2332D01*
D02*
G37*
%LPC*%
G36*
X93334Y5570D02*
D01*
Y3833D01*
X93328Y3899D01*
Y3975D01*
X93323Y4063D01*
X93306Y4237D01*
Y4243D01*
Y4248D01*
X93301Y4276D01*
X93290Y4325D01*
X93279Y4385D01*
X93263Y4450D01*
X93246Y4527D01*
X93197Y4680D01*
X93192Y4690D01*
X93181Y4712D01*
X93164Y4756D01*
X93143Y4805D01*
X93115Y4860D01*
X93077Y4925D01*
X92995Y5051D01*
X92990Y5056D01*
X92973Y5078D01*
X92946Y5111D01*
X92908Y5149D01*
X92864Y5193D01*
X92810Y5237D01*
X92750Y5286D01*
X92684Y5329D01*
X92673Y5335D01*
X92651Y5346D01*
X92608Y5367D01*
X92558Y5395D01*
X92493Y5422D01*
X92417Y5449D01*
X92329Y5477D01*
X92236Y5504D01*
X92231D01*
X92225Y5509D01*
X92209D01*
X92187Y5515D01*
X92138Y5526D01*
X92062Y5537D01*
X91974Y5548D01*
X91870Y5559D01*
X91756Y5570D01*
X93334D01*
X90997D01*
X91264D01*
Y5062D01*
X91789D01*
X91849Y5056D01*
X91920Y5051D01*
X91991Y5040D01*
X92067Y5023D01*
X92138Y5007D01*
X92143D01*
X92165Y4996D01*
X92204Y4985D01*
X92242Y4969D01*
X92340Y4920D01*
X92389Y4887D01*
X92433Y4849D01*
X92438Y4843D01*
X92449Y4832D01*
X92471Y4811D01*
X92498Y4783D01*
X92526Y4745D01*
X92553Y4701D01*
X92580Y4658D01*
X92602Y4603D01*
Y4598D01*
X92613Y4576D01*
X92619Y4549D01*
X92629Y4510D01*
X92646Y4461D01*
X92657Y4407D01*
X92668Y4341D01*
X92673Y4276D01*
X92679Y4221D01*
X92673Y4226D01*
X92657Y4232D01*
X92629Y4243D01*
X92597Y4254D01*
X92553Y4270D01*
X92504Y4286D01*
X92449Y4303D01*
X92389Y4319D01*
X92384D01*
X92362Y4325D01*
X92329Y4336D01*
X92286Y4341D01*
X92231Y4352D01*
X92176Y4357D01*
X92045Y4363D01*
X92002D01*
X91952Y4357D01*
X91892Y4352D01*
X91821Y4346D01*
X91745Y4336D01*
X91668Y4314D01*
X91592Y4292D01*
X91581Y4286D01*
X91559Y4281D01*
X91521Y4265D01*
X91477Y4243D01*
X91423Y4216D01*
X91368Y4183D01*
X91314Y4139D01*
X91264Y4095D01*
X91259Y4090D01*
X91243Y4073D01*
X91215Y4046D01*
X91188Y4008D01*
X91155Y3964D01*
X91123Y3910D01*
X91090Y3850D01*
X91062Y3784D01*
X91057Y3779D01*
X91052Y3751D01*
X91041Y3713D01*
X91030Y3664D01*
X91019Y3604D01*
X91008Y3533D01*
X90997Y3457D01*
Y3336D01*
X91002Y3287D01*
X91008Y3227D01*
X91019Y3162D01*
X91035Y3085D01*
X91057Y3009D01*
X91090Y2932D01*
X91095Y2921D01*
X91106Y2900D01*
X91128Y2861D01*
X91155Y2818D01*
X91188Y2763D01*
X91232Y2709D01*
X91281Y2648D01*
X91335Y2594D01*
X91341Y2588D01*
X91363Y2572D01*
X91395Y2545D01*
X91439Y2512D01*
X91494Y2479D01*
X91554Y2441D01*
X91630Y2408D01*
X91707Y2375D01*
X91718Y2370D01*
X91745Y2365D01*
X91789Y2354D01*
X91843Y2343D01*
X91914Y2326D01*
X91996Y2315D01*
X92084Y2310D01*
X92182Y2304D01*
X92236D01*
X92275Y2310D01*
X92324Y2315D01*
X92373Y2321D01*
X92433Y2332D01*
X92498Y2348D01*
X92640Y2392D01*
X92711Y2419D01*
X92782Y2452D01*
X92848Y2490D01*
X92919Y2539D01*
X92979Y2594D01*
X93039Y2654D01*
X93044Y2659D01*
X93050Y2670D01*
X93066Y2692D01*
X93083Y2719D01*
X93104Y2758D01*
X93132Y2807D01*
X93159Y2861D01*
X93186Y2921D01*
X93214Y2992D01*
X93241Y3074D01*
X93263Y3162D01*
X93290Y3260D01*
X93306Y3364D01*
X93323Y3478D01*
X93328Y3604D01*
X93334Y3735D01*
Y2304D01*
D01*
D01*
Y5570D01*
D02*
G37*
%LPD*%
G36*
X92236Y3861D02*
X92296Y3850D01*
X92307D01*
X92345Y3839D01*
X92389Y3828D01*
X92444Y3811D01*
X92449D01*
X92455Y3806D01*
X92488Y3795D01*
X92531Y3784D01*
X92580Y3762D01*
X92586D01*
X92591Y3757D01*
X92619Y3746D01*
X92657Y3729D01*
X92695Y3708D01*
Y3697D01*
Y3664D01*
Y3620D01*
X92690Y3560D01*
Y3495D01*
X92679Y3424D01*
X92673Y3353D01*
X92662Y3287D01*
Y3282D01*
X92657Y3260D01*
X92646Y3227D01*
X92635Y3189D01*
X92602Y3096D01*
X92586Y3053D01*
X92558Y3009D01*
X92553Y3003D01*
X92548Y2992D01*
X92531Y2971D01*
X92509Y2949D01*
X92455Y2894D01*
X92422Y2872D01*
X92384Y2850D01*
X92378D01*
X92367Y2845D01*
X92345Y2840D01*
X92313Y2829D01*
X92280Y2823D01*
X92236Y2812D01*
X92143Y2807D01*
X92100D01*
X92072Y2812D01*
X92002Y2823D01*
X91931Y2845D01*
X91925D01*
X91914Y2850D01*
X91898Y2861D01*
X91870Y2872D01*
X91821Y2905D01*
X91767Y2954D01*
X91761Y2960D01*
X91756Y2971D01*
X91739Y2981D01*
X91729Y3003D01*
X91690Y3058D01*
X91658Y3129D01*
Y3134D01*
X91652Y3145D01*
X91647Y3167D01*
X91636Y3194D01*
X91630Y3227D01*
X91625Y3265D01*
X91619Y3347D01*
Y3353D01*
Y3369D01*
Y3391D01*
X91625Y3418D01*
X91630Y3484D01*
X91652Y3555D01*
Y3560D01*
X91658Y3571D01*
X91663Y3588D01*
X91674Y3615D01*
X91701Y3664D01*
X91745Y3719D01*
Y3724D01*
X91756Y3729D01*
X91789Y3757D01*
X91838Y3795D01*
X91903Y3828D01*
X91909D01*
X91920Y3833D01*
X91941Y3839D01*
X91969Y3850D01*
X92002Y3855D01*
X92045Y3861D01*
X92138Y3866D01*
X92187D01*
X92236Y3861D01*
D02*
G37*
%LPC*%
G36*
X26129Y56542D02*
D01*
Y54904D01*
X26123Y54936D01*
Y54980D01*
X26118Y55073D01*
X26102Y55188D01*
X26085Y55308D01*
X26058Y55433D01*
X26025Y55554D01*
Y55559D01*
X26020Y55570D01*
X26014Y55586D01*
X26003Y55608D01*
X25982Y55663D01*
X25949Y55739D01*
X25905Y55821D01*
X25856Y55914D01*
X25796Y56001D01*
X25725Y56089D01*
X25714Y56099D01*
X25687Y56127D01*
X25643Y56165D01*
X25588Y56214D01*
X25517Y56269D01*
X25430Y56323D01*
X25337Y56372D01*
X25234Y56422D01*
X25228D01*
X25223Y56427D01*
X25206Y56433D01*
X25179Y56438D01*
X25152Y56449D01*
X25119Y56460D01*
X25037Y56482D01*
X24939Y56503D01*
X24829Y56525D01*
X24704Y56536D01*
X24567Y56542D01*
X23705D01*
X24485D01*
X24431Y56536D01*
X24365Y56531D01*
X24294Y56525D01*
X24141Y56498D01*
X24130D01*
X24103Y56493D01*
X24065Y56482D01*
X24010Y56471D01*
X23945Y56460D01*
X23874Y56438D01*
X23716Y56400D01*
Y55805D01*
X23727Y55810D01*
X23748Y55821D01*
X23787Y55832D01*
X23836Y55854D01*
X23896Y55876D01*
X23967Y55897D01*
X24038Y55919D01*
X24120Y55941D01*
X24130Y55947D01*
X24158Y55952D01*
X24202Y55963D01*
X24256Y55974D01*
X24322Y55985D01*
X24398Y55990D01*
X24480Y56001D01*
X24600D01*
X24644Y55996D01*
X24693Y55990D01*
X24758Y55979D01*
X24824Y55968D01*
X24895Y55947D01*
X24961Y55919D01*
X24966Y55914D01*
X24988Y55903D01*
X25021Y55887D01*
X25064Y55865D01*
X25108Y55832D01*
X25157Y55794D01*
X25206Y55750D01*
X25250Y55695D01*
X25255Y55690D01*
X25266Y55668D01*
X25288Y55641D01*
X25315Y55597D01*
X25343Y55548D01*
X25370Y55488D01*
X25397Y55417D01*
X25425Y55340D01*
Y55330D01*
X25436Y55302D01*
X25441Y55259D01*
X25452Y55204D01*
X25463Y55133D01*
X25474Y55051D01*
X25479Y54964D01*
X25485Y54865D01*
Y54860D01*
Y54855D01*
Y54822D01*
Y54773D01*
X25479Y54713D01*
X25474Y54642D01*
X25468Y54560D01*
X25441Y54401D01*
Y54391D01*
X25430Y54369D01*
X25419Y54330D01*
X25403Y54281D01*
X25381Y54227D01*
X25354Y54167D01*
X25288Y54052D01*
X25283Y54046D01*
X25272Y54030D01*
X25244Y54003D01*
X25217Y53970D01*
X25179Y53937D01*
X25130Y53899D01*
X25081Y53866D01*
X25021Y53834D01*
X25015Y53828D01*
X24993Y53823D01*
X24955Y53812D01*
X24911Y53801D01*
X24851Y53785D01*
X24786Y53773D01*
X24704Y53768D01*
X24622Y53763D01*
X24518D01*
X24496Y53768D01*
X24469D01*
X24442Y53773D01*
X24436D01*
X24420Y53779D01*
X24398Y53785D01*
X24371Y53790D01*
X24365D01*
X24349Y53795D01*
X24327Y53806D01*
X24300Y53812D01*
Y54636D01*
X24846D01*
Y55133D01*
X23705D01*
Y53419D01*
X23716Y53413D01*
X23743Y53402D01*
X23787Y53386D01*
X23847Y53364D01*
X23918Y53337D01*
X23994Y53315D01*
X24081Y53288D01*
X24169Y53271D01*
X24180D01*
X24212Y53266D01*
X24262Y53255D01*
X24322Y53249D01*
X24404Y53238D01*
X24491Y53228D01*
X24589Y53222D01*
X23705D01*
X26129D01*
Y56542D01*
D02*
G37*
G36*
X23246Y56487D02*
X22503D01*
X21630Y54554D01*
X21472Y54183D01*
Y55597D01*
Y56487D01*
X20920D01*
Y53277D01*
X23246D01*
Y56487D01*
D02*
G37*
G36*
X20494D02*
X18070D01*
X19451D01*
X19413Y56482D01*
X19326Y56476D01*
X19228Y56465D01*
X19118Y56449D01*
X19009Y56427D01*
X18905Y56394D01*
X18900D01*
X18894Y56389D01*
X18856Y56378D01*
X18807Y56356D01*
X18742Y56323D01*
X18670Y56285D01*
X18594Y56236D01*
X18512Y56176D01*
X18441Y56110D01*
X18430Y56099D01*
X18408Y56078D01*
X18376Y56034D01*
X18338Y55979D01*
X18294Y55908D01*
X18245Y55826D01*
X18201Y55728D01*
X18163Y55625D01*
Y55619D01*
X18157Y55613D01*
X18152Y55597D01*
X18146Y55570D01*
X18141Y55543D01*
X18135Y55510D01*
X18114Y55428D01*
X18097Y55324D01*
X18086Y55204D01*
X18075Y55068D01*
X18070Y54920D01*
Y54827D01*
X18075Y54789D01*
X18081Y54696D01*
X18092Y54593D01*
X18108Y54478D01*
X18130Y54358D01*
X18163Y54243D01*
Y54238D01*
X18168Y54232D01*
X18174Y54216D01*
X18179Y54194D01*
X18201Y54134D01*
X18234Y54063D01*
X18272Y53981D01*
X18321Y53894D01*
X18381Y53806D01*
X18452Y53719D01*
X18463Y53708D01*
X18485Y53686D01*
X18529Y53648D01*
X18589Y53599D01*
X18660Y53544D01*
X18747Y53490D01*
X18845Y53440D01*
X18955Y53391D01*
X18960D01*
X18965Y53386D01*
X18987Y53380D01*
X19009Y53375D01*
X19036Y53364D01*
X19069Y53353D01*
X19113Y53342D01*
X19157Y53337D01*
X19266Y53315D01*
X19386Y53293D01*
X19528Y53282D01*
X19681Y53277D01*
X20494D01*
Y56487D01*
D02*
G37*
%LPD*%
G36*
X26129Y53222D02*
X24747D01*
X24780Y53228D01*
X24813D01*
X24895Y53233D01*
X24988Y53244D01*
X25086Y53266D01*
X25190Y53288D01*
X25293Y53320D01*
X25299D01*
X25304Y53326D01*
X25337Y53342D01*
X25386Y53364D01*
X25452Y53397D01*
X25523Y53440D01*
X25599Y53495D01*
X25676Y53555D01*
X25747Y53626D01*
X25752Y53637D01*
X25780Y53664D01*
X25812Y53708D01*
X25850Y53768D01*
X25900Y53839D01*
X25943Y53926D01*
X25992Y54025D01*
X26031Y54134D01*
Y54139D01*
X26036Y54150D01*
X26041Y54167D01*
X26047Y54189D01*
X26052Y54216D01*
X26063Y54254D01*
X26080Y54336D01*
X26096Y54440D01*
X26112Y54560D01*
X26123Y54691D01*
X26129Y54833D01*
Y53222D01*
D02*
G37*
G36*
X22695Y54270D02*
Y53277D01*
X21663D01*
X22520Y55188D01*
X22695Y55603D01*
Y54270D01*
D02*
G37*
G36*
X19888Y53785D02*
X19582D01*
X19555Y53790D01*
X19517D01*
X19473Y53801D01*
X19375Y53817D01*
X19266Y53850D01*
X19157Y53894D01*
X19047Y53959D01*
X18998Y54003D01*
X18955Y54046D01*
X18949Y54052D01*
X18944Y54057D01*
X18933Y54074D01*
X18916Y54096D01*
X18900Y54128D01*
X18878Y54161D01*
X18856Y54205D01*
X18834Y54254D01*
X18812Y54309D01*
X18796Y54369D01*
X18774Y54434D01*
X18758Y54511D01*
X18742Y54593D01*
X18731Y54685D01*
X18720Y54778D01*
Y54882D01*
Y54887D01*
Y54893D01*
Y54926D01*
Y54975D01*
X18725Y55035D01*
X18731Y55106D01*
X18736Y55182D01*
X18763Y55340D01*
Y55352D01*
X18769Y55373D01*
X18780Y55411D01*
X18796Y55461D01*
X18818Y55515D01*
X18840Y55575D01*
X18873Y55635D01*
X18905Y55690D01*
X18911Y55695D01*
X18922Y55712D01*
X18944Y55739D01*
X18976Y55772D01*
X19015Y55805D01*
X19058Y55837D01*
X19113Y55876D01*
X19173Y55903D01*
X19178Y55908D01*
X19200Y55914D01*
X19238Y55925D01*
X19287Y55941D01*
X19342Y55958D01*
X19413Y55968D01*
X19495Y55974D01*
X19582Y55979D01*
X19888D01*
Y53785D01*
D02*
G37*
%LPC*%
G36*
X82072Y96135D02*
X78862D01*
Y94110D01*
X79353D01*
Y94814D01*
X81576D01*
Y94110D01*
X82072D01*
Y96135D01*
D02*
G37*
G36*
Y93422D02*
X78862D01*
Y92395D01*
X78867Y92330D01*
X78873Y92253D01*
X78884Y92177D01*
X78911Y92008D01*
Y91997D01*
X78922Y91969D01*
X78933Y91931D01*
X78944Y91882D01*
X78966Y91822D01*
X78993Y91762D01*
X79026Y91702D01*
X79064Y91642D01*
X79069Y91636D01*
X79080Y91614D01*
X79108Y91587D01*
X79135Y91554D01*
X79179Y91516D01*
X79222Y91478D01*
X79277Y91440D01*
X79337Y91407D01*
X79342Y91401D01*
X79370Y91391D01*
X79402Y91380D01*
X79452Y91363D01*
X79512Y91347D01*
X79583Y91330D01*
X79664Y91325D01*
X79752Y91320D01*
X79757D01*
X79779D01*
X79812D01*
X79856Y91325D01*
X79905Y91330D01*
X79959Y91341D01*
X80063Y91374D01*
X80069D01*
X80085Y91385D01*
X80112Y91396D01*
X80145Y91412D01*
X80221Y91456D01*
X80303Y91516D01*
X80309Y91522D01*
X80320Y91532D01*
X80336Y91554D01*
X80358Y91576D01*
X80385Y91609D01*
X80413Y91647D01*
X80462Y91740D01*
Y91746D01*
X80473Y91762D01*
X80484Y91789D01*
X80494Y91822D01*
X80511Y91866D01*
X80522Y91915D01*
X80549Y92024D01*
Y92019D01*
X80554Y92002D01*
X80560Y91980D01*
X80571Y91953D01*
X80593Y91920D01*
X80615Y91882D01*
X80642Y91844D01*
X80680Y91805D01*
X80686Y91800D01*
X80702Y91789D01*
X80724Y91767D01*
X80762Y91746D01*
X80806Y91713D01*
X80860Y91680D01*
X80926Y91647D01*
X80997Y91609D01*
X82072Y91096D01*
D01*
D01*
Y93422D01*
D02*
G37*
G36*
X83006Y90877D02*
X78807D01*
X80429D01*
X80391Y90872D01*
X80347D01*
X80243Y90866D01*
X80129Y90855D01*
X80003Y90834D01*
X79878Y90812D01*
X79752Y90779D01*
X79746D01*
X79735Y90774D01*
X79719Y90768D01*
X79697Y90757D01*
X79637Y90735D01*
X79566Y90703D01*
X79479Y90664D01*
X79391Y90615D01*
X79304Y90561D01*
X79222Y90501D01*
X79211Y90490D01*
X79189Y90468D01*
X79151Y90430D01*
X79108Y90381D01*
X79053Y90320D01*
X79004Y90249D01*
X78955Y90167D01*
X78911Y90080D01*
Y90075D01*
X78906Y90069D01*
X78895Y90036D01*
X78878Y89987D01*
X78856Y89927D01*
X78840Y89851D01*
X78824Y89763D01*
X78813Y89665D01*
X78807Y89567D01*
D01*
Y89507D01*
X78813Y89463D01*
X78818Y89409D01*
X78829Y89349D01*
X78840Y89283D01*
X78862Y89212D01*
X78884Y89136D01*
X78911Y89054D01*
X78944Y88977D01*
X78982Y88895D01*
X79031Y88819D01*
X79091Y88743D01*
X79151Y88677D01*
X79228Y88611D01*
X79233Y88606D01*
X79250Y88595D01*
X79271Y88584D01*
X79304Y88562D01*
X79348Y88535D01*
X79402Y88508D01*
X79462Y88480D01*
X79533Y88448D01*
X79615Y88420D01*
X79708Y88393D01*
X79807Y88366D01*
X79916Y88338D01*
X80030Y88317D01*
X80156Y88306D01*
X80292Y88295D01*
X80434Y88289D01*
X80440D01*
X80451D01*
X80473D01*
X80500D01*
X80533D01*
X80571Y88295D01*
X80658Y88300D01*
X80762Y88306D01*
X80877Y88322D01*
X80991Y88338D01*
X81100Y88366D01*
X81106D01*
X81111Y88371D01*
X81128D01*
X81150Y88382D01*
X81204Y88398D01*
X81270Y88420D01*
X81346Y88453D01*
X81434Y88491D01*
X81516Y88535D01*
X81597Y88584D01*
X81608Y88590D01*
X81630Y88606D01*
X81668Y88639D01*
X81717Y88677D01*
X81772Y88726D01*
X81827Y88781D01*
X81881Y88841D01*
X81930Y88912D01*
X81936Y88923D01*
X81952Y88945D01*
X81974Y88983D01*
X81996Y89032D01*
X82029Y89097D01*
X82056Y89163D01*
X82078Y89239D01*
X82100Y89321D01*
X82105D01*
X82116Y89316D01*
X82138D01*
X82165Y89305D01*
X82231Y89289D01*
X82291Y89261D01*
X82296D01*
X82302Y89250D01*
X82335Y89228D01*
X82373Y89196D01*
X82411Y89152D01*
Y89147D01*
X82416Y89141D01*
X82433Y89108D01*
X82455Y89065D01*
X82471Y89016D01*
Y89010D01*
X82476Y89004D01*
X82482Y88966D01*
X82487Y88917D01*
X82493Y88863D01*
Y88846D01*
X82487Y88824D01*
Y88797D01*
X82471Y88726D01*
X82444Y88650D01*
Y88644D01*
X82433Y88633D01*
X82427Y88611D01*
X82411Y88590D01*
X82373Y88529D01*
X82323Y88464D01*
X82701Y88202D01*
X82608D01*
Y85434D01*
X83082D01*
Y88202D01*
X83006D01*
Y88928D01*
X83001Y88972D01*
Y89026D01*
X82995Y89092D01*
X82984Y89163D01*
X82951Y89305D01*
X82946Y89310D01*
X82941Y89332D01*
X82930Y89370D01*
X82908Y89409D01*
X82886Y89458D01*
X82859Y89512D01*
X82820Y89567D01*
X82782Y89616D01*
X82777Y89622D01*
X82760Y89638D01*
X82739Y89660D01*
X82706Y89692D01*
X82662Y89725D01*
X82618Y89758D01*
X82558Y89791D01*
X82498Y89818D01*
X82493Y89824D01*
X82465Y89829D01*
X82433Y89840D01*
X82384Y89856D01*
X82329Y89867D01*
X82258Y89878D01*
X82182Y89889D01*
X82100Y89894D01*
Y89900D01*
X82094Y89916D01*
X82089Y89944D01*
X82078Y89976D01*
X82067Y90015D01*
X82051Y90064D01*
X82007Y90173D01*
X81941Y90293D01*
X81903Y90353D01*
X81854Y90419D01*
X81805Y90479D01*
X81745Y90533D01*
X81679Y90588D01*
X81608Y90637D01*
X81603D01*
X81592Y90648D01*
X81565Y90659D01*
X81532Y90675D01*
X81494Y90692D01*
X81445Y90714D01*
X81384Y90735D01*
X81319Y90757D01*
X81243Y90779D01*
X81161Y90801D01*
X81068Y90823D01*
X80970Y90839D01*
X80866Y90855D01*
X80751Y90866D01*
X80631Y90872D01*
X80500Y90877D01*
X83006D01*
D01*
D02*
G37*
G36*
X82072Y85090D02*
X79577D01*
Y84571D01*
X79948Y84560D01*
X79943Y84555D01*
X79932Y84549D01*
X79916Y84533D01*
X79888Y84511D01*
X79834Y84462D01*
X79774Y84402D01*
X79768Y84396D01*
X79763Y84385D01*
X79746Y84369D01*
X79730Y84347D01*
X79686Y84293D01*
X79643Y84222D01*
X79637Y84216D01*
X79632Y84205D01*
X79621Y84183D01*
X79610Y84156D01*
X79583Y84091D01*
X79555Y84014D01*
Y84009D01*
X79550Y83992D01*
X79544Y83970D01*
X79539Y83943D01*
X79533Y83905D01*
X79528Y83867D01*
X79523Y83768D01*
Y83736D01*
X79528Y83697D01*
Y83654D01*
X79539Y83599D01*
X79550Y83545D01*
X79566Y83485D01*
X79588Y83430D01*
Y83424D01*
X79599Y83408D01*
X79615Y83381D01*
X79632Y83348D01*
X79686Y83272D01*
X79763Y83195D01*
X79768Y83190D01*
X79785Y83179D01*
X79807Y83162D01*
X79839Y83140D01*
X79883Y83113D01*
X79927Y83091D01*
X79981Y83069D01*
X80041Y83048D01*
X80047D01*
X80069Y83042D01*
X80101Y83031D01*
X80145Y83020D01*
X80200Y83015D01*
X80260Y83004D01*
X80331Y82999D01*
X79523D01*
X82072D01*
Y85090D01*
D02*
G37*
%LPD*%
G36*
X81576Y95431D02*
X79353D01*
Y96135D01*
X81576D01*
Y95431D01*
D02*
G37*
G36*
X80271Y92526D02*
X80265Y92488D01*
X80260Y92406D01*
X80243Y92319D01*
Y92313D01*
X80238Y92297D01*
X80232Y92281D01*
X80221Y92253D01*
X80194Y92188D01*
X80156Y92128D01*
X80151Y92122D01*
X80145Y92111D01*
X80112Y92079D01*
X80069Y92040D01*
X80009Y92002D01*
X80003D01*
X79992Y91997D01*
X79976Y91986D01*
X79948Y91975D01*
X79888Y91958D01*
X79807Y91953D01*
X79801D01*
X79796D01*
X79768D01*
X79725Y91958D01*
X79675Y91969D01*
X79621Y91991D01*
X79566Y92019D01*
X79512Y92057D01*
X79468Y92106D01*
X79462Y92111D01*
X79452Y92133D01*
X79435Y92166D01*
X79413Y92215D01*
X79397Y92281D01*
X79381Y92357D01*
X79370Y92450D01*
X79364Y92554D01*
Y92816D01*
X80271D01*
Y92526D01*
D02*
G37*
G36*
X82072Y91805D02*
X81040Y92259D01*
X81035D01*
X81019Y92270D01*
X80991Y92286D01*
X80958Y92302D01*
X80882Y92357D01*
X80849Y92395D01*
X80817Y92433D01*
X80811Y92439D01*
X80806Y92455D01*
X80795Y92477D01*
X80778Y92510D01*
X80762Y92548D01*
X80751Y92592D01*
X80746Y92646D01*
X80740Y92701D01*
Y92816D01*
X82072D01*
Y91805D01*
D02*
G37*
G36*
X80598Y90233D02*
X80653Y90228D01*
X80713D01*
X80773Y90217D01*
X80915Y90200D01*
X81057Y90173D01*
X81188Y90135D01*
X81253Y90113D01*
X81308Y90086D01*
X81313D01*
X81319Y90080D01*
X81352Y90058D01*
X81395Y90020D01*
X81445Y89965D01*
X81499Y89894D01*
X81543Y89807D01*
X81576Y89703D01*
X81581Y89649D01*
X81586Y89583D01*
Y89556D01*
X81581Y89523D01*
X81576Y89480D01*
X81570Y89436D01*
X81554Y89387D01*
X81537Y89338D01*
X81516Y89289D01*
X81510Y89283D01*
X81504Y89267D01*
X81488Y89245D01*
X81461Y89218D01*
X81434Y89185D01*
X81395Y89152D01*
X81357Y89119D01*
X81308Y89087D01*
X81302Y89081D01*
X81281Y89075D01*
X81253Y89059D01*
X81210Y89043D01*
X81161Y89021D01*
X81100Y88999D01*
X81035Y88983D01*
X80958Y88966D01*
X80948D01*
X80920Y88961D01*
X80877Y88955D01*
X80822Y88945D01*
X80751Y88939D01*
X80675Y88934D01*
X80582Y88928D01*
X80489D01*
X80484D01*
X80462D01*
X80434D01*
X80396D01*
X80347Y88934D01*
X80292D01*
X80232Y88939D01*
X80167Y88945D01*
X80030Y88966D01*
X79888Y88994D01*
X79752Y89032D01*
X79692Y89054D01*
X79637Y89081D01*
X79632D01*
X79626Y89087D01*
X79593Y89108D01*
X79550Y89147D01*
X79495Y89201D01*
X79441Y89267D01*
X79397Y89354D01*
X79364Y89458D01*
X79359Y89518D01*
X79353Y89578D01*
Y89605D01*
X79359Y89638D01*
X79364Y89682D01*
X79370Y89725D01*
X79386Y89780D01*
X79402Y89829D01*
X79430Y89878D01*
X79435Y89884D01*
X79441Y89900D01*
X79457Y89922D01*
X79484Y89949D01*
X79512Y89982D01*
X79550Y90020D01*
X79593Y90053D01*
X79643Y90086D01*
X79648Y90091D01*
X79670Y90097D01*
X79697Y90113D01*
X79741Y90129D01*
X79790Y90151D01*
X79850Y90173D01*
X79916Y90189D01*
X79992Y90206D01*
X80003D01*
X80025Y90211D01*
X80069Y90217D01*
X80123Y90222D01*
X80194Y90228D01*
X80271Y90233D01*
X80363Y90238D01*
X80456D01*
X80462D01*
X80484D01*
X80511D01*
X80549D01*
X80598Y90233D01*
D02*
G37*
G36*
X83006Y88202D02*
X82751D01*
X82755Y88207D01*
X82777Y88240D01*
X82810Y88284D01*
X82842Y88333D01*
X82875Y88393D01*
X82908Y88453D01*
X82935Y88524D01*
X82941Y88529D01*
X82946Y88557D01*
X82957Y88590D01*
X82968Y88639D01*
X82984Y88693D01*
X82995Y88753D01*
X83001Y88819D01*
X83006Y88890D01*
Y88202D01*
D02*
G37*
G36*
X82072Y83599D02*
X80451D01*
X80445D01*
X80434D01*
X80413D01*
X80385Y83605D01*
X80320Y83615D01*
X80243Y83637D01*
X80167Y83676D01*
X80101Y83730D01*
X80074Y83763D01*
X80052Y83801D01*
X80041Y83850D01*
X80036Y83905D01*
Y83932D01*
X80041Y83960D01*
X80052Y83998D01*
X80069Y84041D01*
X80090Y84096D01*
X80118Y84145D01*
X80161Y84200D01*
X80167Y84205D01*
X80183Y84222D01*
X80211Y84249D01*
X80249Y84287D01*
X80298Y84331D01*
X80352Y84380D01*
X80418Y84434D01*
X80494Y84489D01*
X82072D01*
Y83599D01*
D02*
G37*
%LPC*%
G36*
X90994Y96103D02*
X90741D01*
X90923D01*
X90890Y96098D01*
X90847D01*
X90754Y96092D01*
X90639Y96076D01*
X90519Y96060D01*
X90393Y96032D01*
X90273Y95999D01*
X90268D01*
X90257Y95994D01*
X90241Y95989D01*
X90219Y95978D01*
X90164Y95956D01*
X90088Y95923D01*
X90006Y95879D01*
X89913Y95830D01*
X89826Y95770D01*
X89738Y95699D01*
X89727Y95688D01*
X89700Y95661D01*
X89662Y95617D01*
X89613Y95563D01*
X89558Y95492D01*
X89503Y95404D01*
X89454Y95312D01*
X89405Y95208D01*
Y95202D01*
X89400Y95197D01*
X89394Y95180D01*
X89389Y95153D01*
X89378Y95126D01*
X89367Y95093D01*
X89345Y95011D01*
X89323Y94913D01*
X89301Y94804D01*
X89290Y94678D01*
X89285Y94542D01*
Y96103D01*
Y93679D01*
X90471D01*
X89285D01*
Y94460D01*
X89290Y94405D01*
X89296Y94340D01*
X89301Y94269D01*
X89329Y94116D01*
Y94105D01*
X89334Y94078D01*
X89345Y94039D01*
X89356Y93985D01*
X89367Y93919D01*
X89389Y93848D01*
X89427Y93690D01*
X90022D01*
X90017Y93701D01*
X90006Y93723D01*
X89995Y93761D01*
X89973Y93810D01*
X89951Y93870D01*
X89929Y93941D01*
X89907Y94012D01*
X89886Y94094D01*
X89880Y94105D01*
X89875Y94132D01*
X89864Y94176D01*
X89853Y94231D01*
X89842Y94296D01*
X89837Y94372D01*
X89826Y94454D01*
Y94574D01*
X89831Y94618D01*
X89837Y94667D01*
X89847Y94733D01*
X89858Y94798D01*
X89880Y94869D01*
X89907Y94935D01*
X89913Y94940D01*
X89924Y94962D01*
X89940Y94995D01*
X89962Y95039D01*
X89995Y95082D01*
X90033Y95131D01*
X90077Y95180D01*
X90131Y95224D01*
X90137Y95230D01*
X90159Y95241D01*
X90186Y95262D01*
X90230Y95290D01*
X90279Y95317D01*
X90339Y95344D01*
X90410Y95372D01*
X90486Y95399D01*
X90497D01*
X90525Y95410D01*
X90568Y95415D01*
X90623Y95426D01*
X90694Y95437D01*
X90776Y95448D01*
X90863Y95454D01*
X90961Y95459D01*
X90967D01*
X90972D01*
X91005D01*
X91054D01*
X91114Y95454D01*
X91185Y95448D01*
X91267Y95443D01*
X91425Y95415D01*
X91436D01*
X91458Y95404D01*
X91496Y95394D01*
X91545Y95377D01*
X91600Y95355D01*
X91660Y95328D01*
X91775Y95262D01*
X91780Y95257D01*
X91797Y95246D01*
X91824Y95219D01*
X91857Y95192D01*
X91890Y95153D01*
X91928Y95104D01*
X91960Y95055D01*
X91993Y94995D01*
X91999Y94989D01*
X92004Y94968D01*
X92015Y94929D01*
X92026Y94886D01*
X92042Y94826D01*
X92053Y94760D01*
X92059Y94678D01*
X92064Y94596D01*
Y94493D01*
X92059Y94471D01*
Y94443D01*
X92053Y94416D01*
Y94411D01*
X92048Y94394D01*
X92042Y94372D01*
X92037Y94345D01*
Y94340D01*
X92031Y94323D01*
X92020Y94301D01*
X92015Y94274D01*
X91191D01*
Y94820D01*
X90694D01*
Y93679D01*
X92605D01*
X92408D01*
X92414Y93690D01*
X92424Y93717D01*
X92441Y93761D01*
X92463Y93821D01*
X92490Y93892D01*
X92512Y93968D01*
X92539Y94056D01*
X92556Y94143D01*
Y94154D01*
X92561Y94187D01*
X92572Y94236D01*
X92577Y94296D01*
X92588Y94378D01*
X92599Y94465D01*
X92605Y94564D01*
Y94760D01*
Y94722D01*
X92599Y94755D01*
Y94787D01*
X92594Y94869D01*
X92583Y94962D01*
X92561Y95060D01*
X92539Y95164D01*
X92506Y95268D01*
Y95273D01*
X92501Y95279D01*
X92485Y95312D01*
X92463Y95361D01*
X92430Y95426D01*
X92386Y95497D01*
X92332Y95574D01*
X92272Y95650D01*
X92201Y95721D01*
X92190Y95727D01*
X92163Y95754D01*
X92119Y95787D01*
X92059Y95825D01*
X91988Y95874D01*
X91900Y95918D01*
X91802Y95967D01*
X91693Y96005D01*
X91687D01*
X91676Y96011D01*
X91660Y96016D01*
X91638Y96021D01*
X91611Y96027D01*
X91573Y96038D01*
X91491Y96054D01*
X91387Y96070D01*
X91267Y96087D01*
X91136Y96098D01*
X90994Y96103D01*
D02*
G37*
G36*
X92550Y93220D02*
X89340D01*
Y90894D01*
X92550D01*
Y92478D01*
Y91637D01*
X90639Y92494D01*
X90224Y92669D01*
X91556D01*
X92550D01*
Y93220D01*
D02*
G37*
G36*
Y90469D02*
X89340D01*
Y89426D01*
X89345Y89388D01*
X89351Y89300D01*
X89362Y89202D01*
X89378Y89093D01*
X89400Y88983D01*
X89433Y88880D01*
Y88874D01*
X89438Y88869D01*
X89449Y88831D01*
X89471Y88781D01*
X89503Y88716D01*
X89542Y88645D01*
X89591Y88569D01*
X89651Y88487D01*
X89716Y88416D01*
X89727Y88405D01*
X89749Y88383D01*
X89793Y88350D01*
X89847Y88312D01*
X89918Y88268D01*
X90000Y88219D01*
X90099Y88175D01*
X90202Y88137D01*
X90208D01*
X90213Y88132D01*
X90230Y88126D01*
X90257Y88121D01*
X90284Y88115D01*
X90317Y88110D01*
X90399Y88088D01*
X90503Y88072D01*
X90623Y88061D01*
X90759Y88050D01*
X90907Y88044D01*
X89340D01*
X92550D01*
X91000D01*
X91038Y88050D01*
X91131Y88055D01*
X91234Y88066D01*
X91349Y88082D01*
X91469Y88104D01*
X91584Y88137D01*
X91589D01*
X91595Y88143D01*
X91611Y88148D01*
X91633Y88153D01*
X91693Y88175D01*
X91764Y88208D01*
X91846Y88246D01*
X91933Y88296D01*
X92020Y88355D01*
X92108Y88427D01*
X92119Y88437D01*
X92141Y88459D01*
X92179Y88503D01*
X92228Y88563D01*
X92283Y88634D01*
X92337Y88721D01*
X92386Y88820D01*
X92435Y88929D01*
Y88934D01*
X92441Y88940D01*
X92446Y88962D01*
X92452Y88983D01*
X92463Y89011D01*
X92474Y89043D01*
X92485Y89087D01*
X92490Y89131D01*
X92512Y89240D01*
X92534Y89360D01*
X92545Y89502D01*
X92550Y89655D01*
Y90469D01*
D02*
G37*
%LPD*%
G36*
X91272Y91604D02*
X91644Y91446D01*
X90230D01*
X89340D01*
Y92478D01*
X91272Y91604D01*
D02*
G37*
G36*
X92042Y89557D02*
X92037Y89529D01*
Y89491D01*
X92026Y89447D01*
X92010Y89349D01*
X91977Y89240D01*
X91933Y89131D01*
X91868Y89022D01*
X91824Y88973D01*
X91780Y88929D01*
X91775Y88923D01*
X91769Y88918D01*
X91753Y88907D01*
X91731Y88891D01*
X91698Y88874D01*
X91666Y88852D01*
X91622Y88831D01*
X91573Y88809D01*
X91518Y88787D01*
X91458Y88771D01*
X91393Y88749D01*
X91316Y88732D01*
X91234Y88716D01*
X91141Y88705D01*
X91049Y88694D01*
X90945D01*
X90939D01*
X90934D01*
X90901D01*
X90852D01*
X90792Y88700D01*
X90721Y88705D01*
X90645Y88710D01*
X90486Y88738D01*
X90475D01*
X90453Y88743D01*
X90415Y88754D01*
X90366Y88771D01*
X90311Y88792D01*
X90251Y88814D01*
X90191Y88847D01*
X90137Y88880D01*
X90131Y88885D01*
X90115Y88896D01*
X90088Y88918D01*
X90055Y88951D01*
X90022Y88989D01*
X89989Y89033D01*
X89951Y89087D01*
X89924Y89147D01*
X89918Y89153D01*
X89913Y89174D01*
X89902Y89213D01*
X89886Y89262D01*
X89869Y89316D01*
X89858Y89388D01*
X89853Y89469D01*
X89847Y89557D01*
Y89863D01*
X92042D01*
Y89557D01*
D02*
G37*
%LPC*%
G36*
X33418Y5597D02*
X30912D01*
X32086D01*
X32037Y5591D01*
X31971Y5586D01*
X31895Y5575D01*
X31813Y5553D01*
X31731Y5531D01*
X31644Y5499D01*
X31633Y5493D01*
X31606Y5482D01*
X31562Y5460D01*
X31513Y5428D01*
X31453Y5384D01*
X31387Y5335D01*
X31322Y5275D01*
X31262Y5204D01*
X31256Y5193D01*
X31234Y5171D01*
X31207Y5127D01*
X31169Y5067D01*
X31125Y4996D01*
X31082Y4909D01*
X31043Y4805D01*
X31005Y4696D01*
Y4690D01*
X31000Y4680D01*
X30994Y4663D01*
X30989Y4641D01*
X30983Y4609D01*
X30978Y4576D01*
X30967Y4532D01*
X30956Y4488D01*
X30940Y4379D01*
X30929Y4248D01*
X30918Y4106D01*
X30912Y3948D01*
Y3850D01*
X30918Y3806D01*
X30923Y3713D01*
X30934Y3604D01*
X30950Y3484D01*
X30972Y3364D01*
X31000Y3244D01*
Y3238D01*
X31005Y3233D01*
X31011Y3216D01*
X31016Y3194D01*
X31038Y3134D01*
X31065Y3063D01*
X31098Y2976D01*
X31147Y2889D01*
X31196Y2801D01*
X31256Y2714D01*
X31262Y2703D01*
X31284Y2681D01*
X31322Y2643D01*
X31365Y2594D01*
X31425Y2539D01*
X31497Y2485D01*
X31573Y2435D01*
X31660Y2386D01*
X31671Y2381D01*
X31704Y2370D01*
X31753Y2354D01*
X31813Y2332D01*
X31895Y2310D01*
X31988Y2293D01*
X32092Y2283D01*
X32201Y2277D01*
X32245D01*
X32299Y2283D01*
X32365Y2288D01*
X32436Y2299D01*
X32523Y2315D01*
X32605Y2337D01*
X32692Y2370D01*
X32703Y2375D01*
X32730Y2386D01*
X32774Y2408D01*
X32823Y2441D01*
X32883Y2479D01*
X32949Y2534D01*
X33014Y2588D01*
X33080Y2659D01*
X33085Y2670D01*
X33107Y2698D01*
X33134Y2741D01*
X33173Y2801D01*
X33211Y2872D01*
X33255Y2960D01*
X33293Y3063D01*
X33331Y3173D01*
Y3178D01*
X33336Y3189D01*
Y3205D01*
X33342Y3227D01*
X33353Y3260D01*
X33358Y3293D01*
X33364Y3336D01*
X33375Y3385D01*
X33391Y3495D01*
X33402Y3620D01*
X33413Y3762D01*
X33418Y3921D01*
Y2277D01*
D01*
Y5597D01*
D02*
G37*
%LPD*%
G36*
Y4019D02*
X33413Y4063D01*
X33408Y4155D01*
X33397Y4265D01*
X33386Y4385D01*
X33364Y4505D01*
X33336Y4625D01*
Y4630D01*
X33331Y4641D01*
X33326Y4658D01*
X33320Y4680D01*
X33298Y4734D01*
X33271Y4805D01*
X33238Y4893D01*
X33195Y4980D01*
X33145Y5067D01*
X33085Y5149D01*
X33080Y5160D01*
X33053Y5187D01*
X33020Y5226D01*
X32971Y5275D01*
X32911Y5329D01*
X32840Y5384D01*
X32763Y5433D01*
X32676Y5482D01*
X32670D01*
X32665Y5488D01*
X32632Y5499D01*
X32583Y5520D01*
X32517Y5542D01*
X32436Y5559D01*
X32343Y5581D01*
X32239Y5591D01*
X32130Y5597D01*
X33418D01*
Y4019D01*
D02*
G37*
G36*
X32217Y5100D02*
X32250Y5094D01*
X32288Y5089D01*
X32332Y5078D01*
X32381Y5056D01*
X32425Y5034D01*
X32430Y5029D01*
X32441Y5023D01*
X32463Y5002D01*
X32490Y4980D01*
X32523Y4953D01*
X32556Y4914D01*
X32594Y4871D01*
X32627Y4816D01*
X32632Y4811D01*
X32643Y4789D01*
X32660Y4761D01*
X32676Y4718D01*
X32698Y4663D01*
X32719Y4603D01*
X32741Y4532D01*
X32763Y4456D01*
Y4445D01*
X32769Y4417D01*
X32780Y4368D01*
X32785Y4308D01*
X32796Y4232D01*
X32807Y4144D01*
X32812Y4046D01*
Y3937D01*
Y3932D01*
Y3910D01*
Y3877D01*
Y3844D01*
Y3839D01*
Y3822D01*
Y3795D01*
Y3762D01*
X31611Y4630D01*
Y4636D01*
X31617Y4641D01*
X31628Y4669D01*
X31644Y4712D01*
X31671Y4767D01*
X31704Y4822D01*
X31742Y4882D01*
X31786Y4936D01*
X31835Y4985D01*
X31841Y4991D01*
X31862Y5002D01*
X31890Y5023D01*
X31928Y5045D01*
X31977Y5067D01*
X32037Y5089D01*
X32097Y5100D01*
X32168Y5105D01*
X32190D01*
X32217Y5100D01*
D02*
G37*
G36*
X32719Y3233D02*
X32714Y3222D01*
X32703Y3194D01*
X32687Y3151D01*
X32665Y3096D01*
X32632Y3042D01*
X32594Y2981D01*
X32550Y2927D01*
X32501Y2878D01*
X32496Y2872D01*
X32474Y2861D01*
X32447Y2845D01*
X32408Y2823D01*
X32359Y2801D01*
X32299Y2785D01*
X32239Y2774D01*
X32168Y2769D01*
X32146D01*
X32119Y2774D01*
X32086Y2780D01*
X32048Y2785D01*
X32004Y2796D01*
X31955Y2812D01*
X31912Y2834D01*
X31906Y2840D01*
X31890Y2845D01*
X31868Y2867D01*
X31841Y2889D01*
X31808Y2916D01*
X31775Y2954D01*
X31737Y2998D01*
X31704Y3047D01*
X31699Y3053D01*
X31688Y3074D01*
X31671Y3107D01*
X31655Y3151D01*
X31633Y3200D01*
X31611Y3265D01*
X31589Y3336D01*
X31567Y3413D01*
Y3424D01*
X31562Y3451D01*
X31551Y3500D01*
X31540Y3560D01*
X31535Y3637D01*
X31524Y3724D01*
X31518Y3817D01*
Y3926D01*
Y3932D01*
Y3953D01*
Y3981D01*
X31524Y4008D01*
Y4013D01*
Y4035D01*
Y4063D01*
Y4095D01*
X32719Y3233D01*
D02*
G37*
%LPC*%
G36*
X83211Y5567D02*
Y2891D01*
X83205D01*
X83189Y2886D01*
X83156Y2881D01*
X83118Y2870D01*
X83074Y2859D01*
X83020Y2848D01*
X82960Y2842D01*
X82894Y2831D01*
X82862D01*
X82823Y2826D01*
X82780D01*
X82720Y2820D01*
X82660D01*
X82523Y2815D01*
X82463D01*
X82430Y2820D01*
X82397D01*
X82315Y2831D01*
X82223Y2848D01*
X82130Y2875D01*
X82037Y2908D01*
X81961Y2952D01*
X81950Y2957D01*
X81928Y2979D01*
X81901Y3012D01*
X81862Y3055D01*
X81824Y3110D01*
X81797Y3175D01*
X81775Y3257D01*
X81764Y3345D01*
Y3350D01*
Y3356D01*
Y3388D01*
X81775Y3432D01*
X81786Y3486D01*
X81808Y3552D01*
X81840Y3612D01*
X81884Y3672D01*
X81944Y3727D01*
X81955Y3732D01*
X81977Y3749D01*
X82021Y3771D01*
X82086Y3792D01*
X82163Y3814D01*
X82266Y3836D01*
X82381Y3852D01*
X82523Y3858D01*
X83151D01*
Y5567D01*
X81295D01*
Y4999D01*
X82588D01*
Y4349D01*
X82272D01*
X82206Y4344D01*
X82135Y4338D01*
X82059Y4327D01*
X81890Y4300D01*
X81879D01*
X81851Y4289D01*
X81808Y4278D01*
X81759Y4267D01*
X81693Y4245D01*
X81628Y4218D01*
X81562Y4185D01*
X81497Y4147D01*
X81491Y4142D01*
X81469Y4125D01*
X81437Y4104D01*
X81398Y4071D01*
X81354Y4027D01*
X81311Y3978D01*
X81267Y3918D01*
X81223Y3852D01*
X81218Y3841D01*
X81207Y3820D01*
X81191Y3781D01*
X81169Y3727D01*
X81152Y3656D01*
X81136Y3574D01*
X81125Y3486D01*
X81120Y3383D01*
Y3432D01*
Y3383D01*
Y2307D01*
Y3339D01*
X81125Y3290D01*
X81131Y3224D01*
X81147Y3153D01*
X81164Y3077D01*
X81191Y2995D01*
X81229Y2919D01*
X81234Y2908D01*
X81251Y2886D01*
X81273Y2848D01*
X81305Y2804D01*
X81349Y2749D01*
X81404Y2695D01*
X81464Y2640D01*
X81529Y2586D01*
X81540Y2580D01*
X81562Y2564D01*
X81606Y2537D01*
X81655Y2509D01*
X81726Y2476D01*
X81802Y2438D01*
X81890Y2406D01*
X81982Y2378D01*
X81988D01*
X81993Y2373D01*
X82010D01*
X82026Y2367D01*
X82081Y2356D01*
X82152Y2345D01*
X82234Y2329D01*
X82332Y2318D01*
X82436Y2313D01*
X82550Y2307D01*
X82654D01*
X82714Y2313D01*
X82747D01*
X82769Y2318D01*
X82823Y2324D01*
X82889Y2329D01*
X82922D01*
X82943Y2334D01*
X82998Y2340D01*
X83058Y2345D01*
X83074D01*
X83085Y2351D01*
X83107D01*
X83156Y2362D01*
X83211Y2367D01*
Y5567D01*
D02*
G37*
G36*
X114259Y52683D02*
X113770D01*
X113639Y52675D01*
X113581Y52668D01*
X113537Y52661D01*
X113493Y52654D01*
X113464Y52646D01*
X113449Y52639D01*
X113442D01*
X113347Y52610D01*
X113274Y52574D01*
X113252Y52552D01*
X113231Y52544D01*
X113223Y52530D01*
X113216D01*
X113158Y52479D01*
X113121Y52428D01*
X113100Y52384D01*
X113092Y52377D01*
Y52369D01*
X113063Y52297D01*
X113056Y52224D01*
X113048Y52194D01*
Y52172D01*
Y52158D01*
Y52151D01*
X113056Y52063D01*
X113070Y51990D01*
X113078Y51961D01*
X113085Y51939D01*
X113092Y51925D01*
Y51917D01*
X113129Y51837D01*
X113165Y51779D01*
X113201Y51735D01*
X113209Y51728D01*
X113216Y51721D01*
X113289Y51670D01*
X113362Y51626D01*
X113391Y51618D01*
X113420Y51604D01*
X113435Y51597D01*
X113442D01*
X113551Y51575D01*
X113654Y51560D01*
X113697Y51553D01*
X114259D01*
Y52683D01*
D02*
G37*
G36*
Y50933D02*
X113763D01*
X113610Y50926D01*
X113479Y50911D01*
X113369Y50882D01*
X113282Y50853D01*
X113209Y50824D01*
X113158Y50795D01*
X113129Y50780D01*
X113121Y50773D01*
X113048Y50707D01*
X112997Y50634D01*
X112961Y50561D01*
X112939Y50496D01*
X112917Y50430D01*
X112910Y50379D01*
Y50350D01*
Y50336D01*
X112917Y50241D01*
X112932Y50153D01*
X112946Y50124D01*
X112954Y50102D01*
X112961Y50088D01*
Y50080D01*
X113005Y50000D01*
X113056Y49935D01*
X113100Y49891D01*
X113107Y49883D01*
X113114Y49876D01*
X113194Y49818D01*
X113274Y49774D01*
X113311Y49760D01*
X113333Y49745D01*
X113355Y49738D01*
X113362D01*
X113479Y49716D01*
X113581Y49701D01*
X113632Y49694D01*
X114259D01*
Y50933D01*
D02*
G37*
G36*
X106859Y52654D02*
X106509D01*
X106371Y52646D01*
X106247Y52632D01*
X106145Y52610D01*
X106057Y52588D01*
X105992Y52559D01*
X105948Y52537D01*
X105919Y52522D01*
X105912Y52515D01*
X105846Y52457D01*
X105795Y52384D01*
X105758Y52311D01*
X105729Y52238D01*
X105715Y52172D01*
X105707Y52114D01*
Y52078D01*
Y52070D01*
Y52063D01*
X105715Y51954D01*
X105737Y51874D01*
X105751Y51837D01*
X105766Y51815D01*
X105773Y51801D01*
Y51793D01*
X105824Y51713D01*
X105875Y51655D01*
X105919Y51611D01*
X105933Y51604D01*
X105941Y51597D01*
X106021Y51546D01*
X106108Y51509D01*
X106145Y51495D01*
X106167Y51487D01*
X106188Y51480D01*
X106196D01*
X106313Y51458D01*
X106422Y51451D01*
X106473Y51443D01*
X106859D01*
Y52654D01*
D02*
G37*
G36*
X87475Y52544D02*
Y50620D01*
X88700D01*
X87475Y52544D01*
D02*
G37*
G36*
X128452Y52668D02*
X128416D01*
X128328Y52661D01*
X128255Y52654D01*
X128117Y52610D01*
X128000Y52552D01*
X127905Y52479D01*
X127832Y52406D01*
X127781Y52347D01*
X127752Y52304D01*
X127745Y52297D01*
Y52289D01*
X127709Y52216D01*
X127679Y52136D01*
X127628Y51954D01*
X127592Y51772D01*
X127563Y51582D01*
X127556Y51502D01*
X127548Y51422D01*
Y51349D01*
X127541Y51283D01*
Y51232D01*
Y51196D01*
Y51166D01*
Y51159D01*
Y51028D01*
X127548Y50911D01*
X127556Y50802D01*
X127563Y50707D01*
X127577Y50634D01*
X127585Y50576D01*
X127592Y50540D01*
Y50525D01*
X127614Y50430D01*
X127636Y50343D01*
X127665Y50263D01*
X127694Y50197D01*
X127716Y50139D01*
X127738Y50102D01*
X127745Y50073D01*
X127752Y50066D01*
X127796Y50000D01*
X127840Y49949D01*
X127884Y49898D01*
X127927Y49862D01*
X127964Y49825D01*
X127993Y49803D01*
X128015Y49796D01*
X128022Y49789D01*
X128088Y49760D01*
X128153Y49738D01*
X128219Y49716D01*
X128277Y49709D01*
X128335Y49701D01*
X128379Y49694D01*
X128416D01*
X128503Y49701D01*
X128576Y49709D01*
X128715Y49752D01*
X128831Y49811D01*
X128926Y49883D01*
X128999Y49949D01*
X129050Y50007D01*
X129079Y50051D01*
X129086Y50058D01*
Y50066D01*
X129123Y50139D01*
X129152Y50219D01*
X129203Y50401D01*
X129239Y50583D01*
X129261Y50773D01*
X129276Y50853D01*
Y50933D01*
X129283Y51006D01*
X129290Y51072D01*
Y51123D01*
Y51159D01*
Y51188D01*
Y51196D01*
Y51327D01*
X129283Y51443D01*
X129276Y51553D01*
X129269Y51640D01*
X129261Y51721D01*
X129254Y51772D01*
X129247Y51808D01*
Y51823D01*
X129225Y51925D01*
X129203Y52012D01*
X129174Y52092D01*
X129152Y52158D01*
X129130Y52209D01*
X129108Y52253D01*
X129101Y52275D01*
X129094Y52282D01*
X129050Y52347D01*
X129006Y52406D01*
X128963Y52457D01*
X128919Y52493D01*
X128882Y52530D01*
X128853Y52552D01*
X128831Y52559D01*
X128824Y52566D01*
X128758Y52603D01*
X128693Y52624D01*
X128620Y52646D01*
X128554Y52654D01*
X128503Y52661D01*
X128452Y52668D01*
D02*
G37*
G36*
X95188Y52741D02*
X95159D01*
X95064Y52734D01*
X94984Y52719D01*
X94904Y52690D01*
X94838Y52661D01*
X94787Y52632D01*
X94750Y52603D01*
X94721Y52588D01*
X94714Y52581D01*
X94648Y52515D01*
X94590Y52442D01*
X94539Y52362D01*
X94495Y52289D01*
X94459Y52216D01*
X94437Y52158D01*
X94423Y52122D01*
X94415Y52114D01*
Y52107D01*
X96019Y50948D01*
Y50992D01*
Y51028D01*
Y51050D01*
Y51057D01*
Y51101D01*
Y51145D01*
Y51174D01*
Y51181D01*
Y51327D01*
X96012Y51458D01*
X95997Y51575D01*
X95982Y51677D01*
X95975Y51757D01*
X95961Y51823D01*
X95953Y51859D01*
Y51874D01*
X95924Y51976D01*
X95895Y52070D01*
X95866Y52151D01*
X95837Y52224D01*
X95815Y52282D01*
X95793Y52318D01*
X95778Y52347D01*
X95771Y52355D01*
X95727Y52428D01*
X95676Y52486D01*
X95633Y52537D01*
X95589Y52574D01*
X95552Y52603D01*
X95523Y52632D01*
X95509Y52639D01*
X95501Y52646D01*
X95443Y52675D01*
X95377Y52705D01*
X95319Y52719D01*
X95268Y52727D01*
X95224Y52734D01*
X95188Y52741D01*
D02*
G37*
G36*
X94298Y51393D02*
Y51349D01*
Y51312D01*
Y51283D01*
Y51276D01*
X94291Y51239D01*
Y51203D01*
Y51174D01*
Y51166D01*
Y51021D01*
X94298Y50897D01*
X94313Y50780D01*
X94320Y50678D01*
X94335Y50598D01*
X94350Y50532D01*
X94357Y50496D01*
Y50481D01*
X94386Y50379D01*
X94415Y50284D01*
X94444Y50197D01*
X94473Y50131D01*
X94495Y50073D01*
X94517Y50029D01*
X94532Y50000D01*
X94539Y49993D01*
X94583Y49927D01*
X94634Y49869D01*
X94678Y49818D01*
X94721Y49781D01*
X94758Y49752D01*
X94787Y49723D01*
X94809Y49716D01*
X94816Y49709D01*
X94875Y49679D01*
X94940Y49657D01*
X94998Y49643D01*
X95049Y49636D01*
X95093Y49628D01*
X95130Y49621D01*
X95159D01*
X95253Y49628D01*
X95334Y49643D01*
X95414Y49665D01*
X95480Y49694D01*
X95531Y49723D01*
X95567Y49745D01*
X95596Y49760D01*
X95603Y49767D01*
X95669Y49832D01*
X95727Y49905D01*
X95778Y49986D01*
X95822Y50058D01*
X95851Y50131D01*
X95873Y50190D01*
X95888Y50226D01*
X95895Y50241D01*
X94298Y51393D01*
D02*
G37*
G36*
X128751Y58443D02*
X128197Y56445D01*
X129320D01*
X128751Y58443D01*
D02*
G37*
G36*
X125638Y58559D02*
X125288D01*
X125150Y58552D01*
X125026Y58537D01*
X124924Y58516D01*
X124836Y58494D01*
X124771Y58464D01*
X124727Y58443D01*
X124698Y58428D01*
X124691Y58421D01*
X124625Y58362D01*
X124574Y58289D01*
X124538Y58217D01*
X124508Y58144D01*
X124494Y58078D01*
X124486Y58020D01*
Y57983D01*
Y57976D01*
Y57969D01*
X124494Y57859D01*
X124516Y57779D01*
X124530Y57743D01*
X124545Y57721D01*
X124552Y57706D01*
Y57699D01*
X124603Y57619D01*
X124654Y57560D01*
X124698Y57517D01*
X124712Y57509D01*
X124720Y57502D01*
X124800Y57451D01*
X124887Y57415D01*
X124924Y57400D01*
X124946Y57393D01*
X124968Y57385D01*
X124975D01*
X125092Y57364D01*
X125201Y57356D01*
X125252Y57349D01*
X125638D01*
Y58559D01*
D02*
G37*
G36*
X121942D02*
X121592D01*
X121454Y58552D01*
X121330Y58537D01*
X121228Y58516D01*
X121140Y58494D01*
X121075Y58464D01*
X121031Y58443D01*
X121002Y58428D01*
X120994Y58421D01*
X120929Y58362D01*
X120878Y58289D01*
X120841Y58217D01*
X120812Y58144D01*
X120798Y58078D01*
X120790Y58020D01*
Y57983D01*
Y57976D01*
Y57969D01*
X120798Y57859D01*
X120820Y57779D01*
X120834Y57743D01*
X120849Y57721D01*
X120856Y57706D01*
Y57699D01*
X120907Y57619D01*
X120958Y57560D01*
X121002Y57517D01*
X121016Y57509D01*
X121024Y57502D01*
X121104Y57451D01*
X121191Y57415D01*
X121228Y57400D01*
X121250Y57393D01*
X121272Y57385D01*
X121279D01*
X121396Y57364D01*
X121505Y57356D01*
X121556Y57349D01*
X121942D01*
Y58559D01*
D02*
G37*
G36*
X102879Y58443D02*
X102325Y56445D01*
X103447D01*
X102879Y58443D01*
D02*
G37*
G36*
X95487D02*
X94933Y56445D01*
X96055D01*
X95487Y58443D01*
D02*
G37*
G36*
X92374Y58559D02*
X92024D01*
X91886Y58552D01*
X91762Y58537D01*
X91660Y58516D01*
X91572Y58494D01*
X91506Y58464D01*
X91463Y58443D01*
X91434Y58428D01*
X91426Y58421D01*
X91361Y58362D01*
X91310Y58289D01*
X91273Y58217D01*
X91244Y58144D01*
X91229Y58078D01*
X91222Y58020D01*
Y57983D01*
Y57976D01*
Y57969D01*
X91229Y57859D01*
X91251Y57779D01*
X91266Y57743D01*
X91281Y57721D01*
X91288Y57706D01*
Y57699D01*
X91339Y57619D01*
X91390Y57560D01*
X91434Y57517D01*
X91448Y57509D01*
X91455Y57502D01*
X91536Y57451D01*
X91623Y57415D01*
X91660Y57400D01*
X91681Y57393D01*
X91703Y57385D01*
X91711D01*
X91827Y57364D01*
X91937Y57356D01*
X91988Y57349D01*
X92374D01*
Y58559D01*
D02*
G37*
G36*
X113858Y64348D02*
X113304Y62351D01*
X114426D01*
X113858Y64348D01*
D02*
G37*
G36*
X110745Y64465D02*
X110395D01*
X110256Y64457D01*
X110132Y64443D01*
X110030Y64421D01*
X109943Y64399D01*
X109877Y64370D01*
X109834Y64348D01*
X109804Y64333D01*
X109797Y64326D01*
X109731Y64268D01*
X109680Y64195D01*
X109644Y64122D01*
X109615Y64049D01*
X109600Y63984D01*
X109593Y63925D01*
Y63889D01*
Y63881D01*
Y63874D01*
X109600Y63765D01*
X109622Y63685D01*
X109637Y63648D01*
X109651Y63626D01*
X109659Y63612D01*
Y63604D01*
X109710Y63524D01*
X109761Y63466D01*
X109804Y63422D01*
X109819Y63415D01*
X109826Y63408D01*
X109906Y63357D01*
X109994Y63320D01*
X110030Y63306D01*
X110052Y63298D01*
X110074Y63291D01*
X110081D01*
X110198Y63269D01*
X110307Y63262D01*
X110358Y63255D01*
X110745D01*
Y64465D01*
D02*
G37*
G36*
X99664Y64494D02*
X99176D01*
X99044Y64487D01*
X98986Y64479D01*
X98942Y64472D01*
X98899Y64465D01*
X98869Y64457D01*
X98855Y64450D01*
X98848D01*
X98753Y64421D01*
X98680Y64385D01*
X98658Y64363D01*
X98636Y64355D01*
X98629Y64341D01*
X98621D01*
X98563Y64290D01*
X98527Y64239D01*
X98505Y64195D01*
X98498Y64188D01*
Y64180D01*
X98468Y64108D01*
X98461Y64035D01*
X98454Y64005D01*
Y63984D01*
Y63969D01*
Y63962D01*
X98461Y63874D01*
X98476Y63801D01*
X98483Y63772D01*
X98490Y63750D01*
X98498Y63736D01*
Y63728D01*
X98534Y63648D01*
X98571Y63590D01*
X98607Y63546D01*
X98614Y63539D01*
X98621Y63532D01*
X98694Y63481D01*
X98767Y63437D01*
X98796Y63429D01*
X98826Y63415D01*
X98840Y63408D01*
X98848D01*
X98957Y63386D01*
X99059Y63371D01*
X99103Y63364D01*
X99664D01*
Y64494D01*
D02*
G37*
G36*
Y62744D02*
X99168D01*
X99015Y62737D01*
X98884Y62722D01*
X98775Y62693D01*
X98687Y62664D01*
X98614Y62635D01*
X98563Y62606D01*
X98534Y62591D01*
X98527Y62584D01*
X98454Y62518D01*
X98403Y62445D01*
X98366Y62372D01*
X98344Y62307D01*
X98323Y62241D01*
X98315Y62190D01*
Y62161D01*
Y62147D01*
X98323Y62052D01*
X98337Y61964D01*
X98352Y61935D01*
X98359Y61913D01*
X98366Y61899D01*
Y61891D01*
X98410Y61811D01*
X98461Y61746D01*
X98505Y61702D01*
X98512Y61695D01*
X98519Y61687D01*
X98600Y61629D01*
X98680Y61585D01*
X98716Y61571D01*
X98738Y61556D01*
X98760Y61549D01*
X98767D01*
X98884Y61527D01*
X98986Y61512D01*
X99037Y61505D01*
X99664D01*
Y62744D01*
D02*
G37*
G36*
X81177Y64465D02*
X80827D01*
X80688Y64457D01*
X80564Y64443D01*
X80462Y64421D01*
X80375Y64399D01*
X80309Y64370D01*
X80265Y64348D01*
X80236Y64333D01*
X80229Y64326D01*
X80163Y64268D01*
X80112Y64195D01*
X80076Y64122D01*
X80047Y64049D01*
X80032Y63984D01*
X80025Y63925D01*
Y63889D01*
Y63881D01*
Y63874D01*
X80032Y63765D01*
X80054Y63685D01*
X80068Y63648D01*
X80083Y63626D01*
X80090Y63612D01*
Y63604D01*
X80141Y63524D01*
X80192Y63466D01*
X80236Y63422D01*
X80251Y63415D01*
X80258Y63408D01*
X80338Y63357D01*
X80426Y63320D01*
X80462Y63306D01*
X80484Y63298D01*
X80506Y63291D01*
X80513D01*
X80630Y63269D01*
X80739Y63262D01*
X80790Y63255D01*
X81177D01*
Y64465D01*
D02*
G37*
G36*
X66531Y64457D02*
X66123D01*
X66006Y64450D01*
X65897Y64443D01*
X65802Y64428D01*
X65729Y64406D01*
X65663Y64385D01*
X65612Y64370D01*
X65583Y64363D01*
X65576Y64355D01*
X65496Y64319D01*
X65423Y64268D01*
X65364Y64224D01*
X65314Y64180D01*
X65270Y64137D01*
X65241Y64100D01*
X65226Y64078D01*
X65219Y64071D01*
X65175Y63998D01*
X65131Y63918D01*
X65102Y63838D01*
X65073Y63765D01*
X65051Y63699D01*
X65036Y63648D01*
X65029Y63619D01*
Y63604D01*
X64993Y63393D01*
X64986Y63291D01*
X64978Y63196D01*
X64971Y63116D01*
Y63051D01*
Y63007D01*
Y62999D01*
Y62992D01*
Y62854D01*
X64986Y62730D01*
X65000Y62606D01*
X65022Y62496D01*
X65044Y62394D01*
X65073Y62307D01*
X65095Y62227D01*
X65124Y62154D01*
X65153Y62088D01*
X65182Y62030D01*
X65211Y61986D01*
X65233Y61942D01*
X65255Y61913D01*
X65270Y61891D01*
X65277Y61884D01*
X65284Y61877D01*
X65343Y61818D01*
X65408Y61760D01*
X65554Y61673D01*
X65700Y61614D01*
X65846Y61571D01*
X65977Y61549D01*
X66035Y61534D01*
X66086D01*
X66123Y61527D01*
X66531D01*
Y64457D01*
D02*
G37*
G36*
X69505Y64479D02*
X69469D01*
X69381Y64472D01*
X69308Y64465D01*
X69170Y64421D01*
X69053Y64363D01*
X68958Y64290D01*
X68886Y64217D01*
X68835Y64158D01*
X68805Y64115D01*
X68798Y64108D01*
Y64100D01*
X68762Y64027D01*
X68733Y63947D01*
X68682Y63765D01*
X68645Y63583D01*
X68616Y63393D01*
X68609Y63313D01*
X68601Y63233D01*
Y63160D01*
X68594Y63094D01*
Y63043D01*
Y63007D01*
Y62977D01*
Y62970D01*
Y62839D01*
X68601Y62722D01*
X68609Y62613D01*
X68616Y62518D01*
X68630Y62445D01*
X68638Y62387D01*
X68645Y62351D01*
Y62336D01*
X68667Y62241D01*
X68689Y62154D01*
X68718Y62074D01*
X68747Y62008D01*
X68769Y61950D01*
X68791Y61913D01*
X68798Y61884D01*
X68805Y61877D01*
X68849Y61811D01*
X68893Y61760D01*
X68937Y61709D01*
X68980Y61673D01*
X69017Y61636D01*
X69046Y61614D01*
X69068Y61607D01*
X69075Y61600D01*
X69141Y61571D01*
X69206Y61549D01*
X69272Y61527D01*
X69330Y61520D01*
X69389Y61512D01*
X69432Y61505D01*
X69469D01*
X69556Y61512D01*
X69629Y61520D01*
X69768Y61563D01*
X69884Y61622D01*
X69979Y61695D01*
X70052Y61760D01*
X70103Y61818D01*
X70132Y61862D01*
X70139Y61870D01*
Y61877D01*
X70176Y61950D01*
X70205Y62030D01*
X70256Y62212D01*
X70293Y62394D01*
X70314Y62584D01*
X70329Y62664D01*
Y62744D01*
X70336Y62817D01*
X70344Y62883D01*
Y62934D01*
Y62970D01*
Y62999D01*
Y63007D01*
Y63138D01*
X70336Y63255D01*
X70329Y63364D01*
X70322Y63451D01*
X70314Y63532D01*
X70307Y63583D01*
X70300Y63619D01*
Y63634D01*
X70278Y63736D01*
X70256Y63823D01*
X70227Y63903D01*
X70205Y63969D01*
X70183Y64020D01*
X70161Y64064D01*
X70154Y64086D01*
X70147Y64093D01*
X70103Y64158D01*
X70059Y64217D01*
X70016Y64268D01*
X69972Y64304D01*
X69935Y64341D01*
X69906Y64363D01*
X69884Y64370D01*
X69877Y64377D01*
X69811Y64414D01*
X69746Y64436D01*
X69673Y64457D01*
X69607Y64465D01*
X69556Y64472D01*
X69505Y64479D01*
D02*
G37*
%LPD*%
D39*
X48228Y25591D02*
X48068Y26549D01*
X47606Y27404D01*
X46891Y28062D01*
X46000Y28453D01*
X45032Y28533D01*
X44089Y28295D01*
X43276Y27763D01*
X42679Y26996D01*
X42363Y26077D01*
Y25104D01*
X42679Y24185D01*
X43276Y23418D01*
X44089Y22886D01*
X45032Y22648D01*
X46000Y22728D01*
X46891Y23119D01*
X47606Y23777D01*
X48068Y24632D01*
X48228Y25591D01*
X48228Y78740D02*
X48068Y79699D01*
X47606Y80554D01*
X46891Y81212D01*
X46000Y81603D01*
X45032Y81683D01*
X44089Y81444D01*
X43276Y80913D01*
X42679Y80146D01*
X42363Y79226D01*
Y78254D01*
X42679Y77335D01*
X43276Y76568D01*
X44089Y76036D01*
X45032Y75797D01*
X46000Y75878D01*
X46891Y76268D01*
X47606Y76927D01*
X48068Y77781D01*
X48228Y78740D01*
X45276Y64961D02*
Y75787D01*
X30512Y39370D02*
X45276Y64961D01*
X45276D02*
X60039Y39370D01*
X30512D02*
X45276D01*
X60039D01*
X60039D02*
X60039D01*
X45276Y28543D02*
Y39370D01*
M02*
