G04*
G04 #@! TF.GenerationSoftware,Altium Limited,Altium Designer,24.10.1 (45)*
G04*
G04 Layer_Color=8388736*
%FSLAX25Y25*%
%MOIN*%
G70*
G04*
G04 #@! TF.SameCoordinates,420246D5-23F9-42E6-AD95-1A962FCA9351*
G04*
G04*
G04 #@! TF.FilePolarity,Negative*
G04*
G01*
G75*
G04:AMPARAMS|DCode=21|XSize=35.43mil|YSize=31.5mil|CornerRadius=5.41mil|HoleSize=0mil|Usage=FLASHONLY|Rotation=270.000|XOffset=0mil|YOffset=0mil|HoleType=Round|Shape=RoundedRectangle|*
%AMROUNDEDRECTD21*
21,1,0.03543,0.02067,0,0,270.0*
21,1,0.02461,0.03150,0,0,270.0*
1,1,0.01083,-0.01034,-0.01230*
1,1,0.01083,-0.01034,0.01230*
1,1,0.01083,0.01034,0.01230*
1,1,0.01083,0.01034,-0.01230*
%
%ADD21ROUNDEDRECTD21*%
G04:AMPARAMS|DCode=22|XSize=49.21mil|YSize=41.34mil|CornerRadius=5.61mil|HoleSize=0mil|Usage=FLASHONLY|Rotation=180.000|XOffset=0mil|YOffset=0mil|HoleType=Round|Shape=RoundedRectangle|*
%AMROUNDEDRECTD22*
21,1,0.04921,0.03012,0,0,180.0*
21,1,0.03799,0.04134,0,0,180.0*
1,1,0.01122,-0.01900,0.01506*
1,1,0.01122,0.01900,0.01506*
1,1,0.01122,0.01900,-0.01506*
1,1,0.01122,-0.01900,-0.01506*
%
%ADD22ROUNDEDRECTD22*%
G04:AMPARAMS|DCode=23|XSize=49.21mil|YSize=41.34mil|CornerRadius=6.5mil|HoleSize=0mil|Usage=FLASHONLY|Rotation=90.000|XOffset=0mil|YOffset=0mil|HoleType=Round|Shape=RoundedRectangle|*
%AMROUNDEDRECTD23*
21,1,0.04921,0.02835,0,0,90.0*
21,1,0.03622,0.04134,0,0,90.0*
1,1,0.01299,0.01417,0.01811*
1,1,0.01299,0.01417,-0.01811*
1,1,0.01299,-0.01417,-0.01811*
1,1,0.01299,-0.01417,0.01811*
%
%ADD23ROUNDEDRECTD23*%
G04:AMPARAMS|DCode=24|XSize=49.21mil|YSize=41.34mil|CornerRadius=5.61mil|HoleSize=0mil|Usage=FLASHONLY|Rotation=90.000|XOffset=0mil|YOffset=0mil|HoleType=Round|Shape=RoundedRectangle|*
%AMROUNDEDRECTD24*
21,1,0.04921,0.03012,0,0,90.0*
21,1,0.03799,0.04134,0,0,90.0*
1,1,0.01122,0.01506,0.01900*
1,1,0.01122,0.01506,-0.01900*
1,1,0.01122,-0.01506,-0.01900*
1,1,0.01122,-0.01506,0.01900*
%
%ADD24ROUNDEDRECTD24*%
G04:AMPARAMS|DCode=25|XSize=62.99mil|YSize=19.68mil|CornerRadius=3.94mil|HoleSize=0mil|Usage=FLASHONLY|Rotation=0.000|XOffset=0mil|YOffset=0mil|HoleType=Round|Shape=RoundedRectangle|*
%AMROUNDEDRECTD25*
21,1,0.06299,0.01181,0,0,0.0*
21,1,0.05512,0.01968,0,0,0.0*
1,1,0.00787,0.02756,-0.00591*
1,1,0.00787,-0.02756,-0.00591*
1,1,0.00787,-0.02756,0.00591*
1,1,0.00787,0.02756,0.00591*
%
%ADD25ROUNDEDRECTD25*%
G04:AMPARAMS|DCode=26|XSize=49.21mil|YSize=41.34mil|CornerRadius=6.5mil|HoleSize=0mil|Usage=FLASHONLY|Rotation=180.000|XOffset=0mil|YOffset=0mil|HoleType=Round|Shape=RoundedRectangle|*
%AMROUNDEDRECTD26*
21,1,0.04921,0.02835,0,0,180.0*
21,1,0.03622,0.04134,0,0,180.0*
1,1,0.01299,-0.01811,0.01417*
1,1,0.01299,0.01811,0.01417*
1,1,0.01299,0.01811,-0.01417*
1,1,0.01299,-0.01811,-0.01417*
%
%ADD26ROUNDEDRECTD26*%
%ADD27C,0.04528*%
%ADD28C,0.07677*%
%ADD29R,0.07677X0.07677*%
%ADD30R,0.07677X0.07677*%
%ADD31C,0.26181*%
D21*
X33268Y46063D02*
D03*
Y40551D02*
D03*
X37598D02*
D03*
Y46063D02*
D03*
D22*
X34449Y65748D02*
D03*
Y72047D02*
D03*
X45276Y45276D02*
D03*
Y38976D02*
D03*
D23*
X32283Y52756D02*
D03*
X38583D02*
D03*
X32283Y33465D02*
D03*
X38583D02*
D03*
D24*
X87402Y53150D02*
D03*
X93701D02*
D03*
X87402Y47244D02*
D03*
X93701D02*
D03*
X63779Y79724D02*
D03*
X70079D02*
D03*
X56299D02*
D03*
X50000D02*
D03*
D25*
X75394Y71752D02*
D03*
Y69193D02*
D03*
Y66634D02*
D03*
Y64075D02*
D03*
Y61516D02*
D03*
Y58957D02*
D03*
Y56398D02*
D03*
Y53839D02*
D03*
Y51279D02*
D03*
Y48720D02*
D03*
Y46161D02*
D03*
Y43602D02*
D03*
Y41043D02*
D03*
Y38484D02*
D03*
X52559D02*
D03*
Y41043D02*
D03*
Y43602D02*
D03*
Y46161D02*
D03*
Y48720D02*
D03*
Y51279D02*
D03*
Y53839D02*
D03*
Y56398D02*
D03*
Y58957D02*
D03*
Y61516D02*
D03*
Y64075D02*
D03*
Y66634D02*
D03*
Y69193D02*
D03*
Y71752D02*
D03*
D26*
X44291Y72047D02*
D03*
Y65748D02*
D03*
D27*
X99410Y64961D02*
D03*
X86614D02*
D03*
Y35433D02*
D03*
X99410D02*
D03*
D28*
X90945Y102362D02*
D03*
X80945D02*
D03*
X70945D02*
D03*
X50945D02*
D03*
X60945D02*
D03*
X82165Y12559D02*
D03*
X72165D02*
D03*
X62165D02*
D03*
X42165D02*
D03*
X52165D02*
D03*
X92165D02*
D03*
X102165D02*
D03*
X11811Y54882D02*
D03*
Y74882D02*
D03*
Y64882D02*
D03*
Y12559D02*
D03*
Y32559D02*
D03*
Y22559D02*
D03*
D29*
X40945Y102362D02*
D03*
X32165Y12559D02*
D03*
D30*
X11811Y84882D02*
D03*
Y42559D02*
D03*
D31*
X122047Y15748D02*
D03*
Y94488D02*
D03*
M02*
